<svg width="99" height="99" viewBox="0 0 99 99" fill="none" xmlns="http://www.w3.org/2000/svg">
    <rect x="0.5" y="0.5" width="45.9806" height="45.9806" stroke="black" />
    <rect x="9.3479" y="12.5" width="29" height="21" rx="2.5" stroke="black" />
    <path
        d="M30.3479 21C30.3479 20.1716 31.0195 19.5 31.8479 19.5H38.3479V26.5H31.8479C31.0195 26.5 30.3479 25.8284 30.3479 25V21Z"
        stroke="black" />
    <circle cx="33.8479" cy="23" r="0.5" stroke="black" />
    <rect x="0.500031" y="52.5" width="45.9806" height="45.9806" stroke="black" />
    <circle cx="23.5" cy="75.5" r="15" stroke="black" />
    <circle cx="23.5" cy="75.5" r="12.25" stroke="black" stroke-width="0.5" />
    <rect x="52.5" y="52.5" width="45.9806" height="45.9806" stroke="black" />
    <g clip-path="url(#clip0_3163_23444)">
        <path d="M73.4414 83.8093V88.9933H74.7681V86.1686H75.7853L73.4414 83.8093Z" fill="black" />
        <path d="M77.2987 83.8093V86.634H76.2815L78.6253 88.9933V83.8093H77.2987Z" fill="black" />
    </g>
    <path d="M61.8449 61.6931L89.3368 89.185" stroke="black" />
    <path d="M89.7034 61.6931L62.2115 89.185" stroke="black" />
    <path
        d="M75.888 67.08C77.056 67.08 77.96 66.496 78.12 65.264H77.304C77.128 66 76.592 66.36 75.872 66.36C74.792 66.36 74.168 65.544 74.168 64.2C74.168 62.856 74.8 62.048 75.872 62.048C76.592 62.048 77.128 62.408 77.304 63.136H78.12C77.96 61.912 77.056 61.328 75.896 61.328C74.36 61.328 73.328 62.344 73.328 64.2C73.328 66.064 74.36 67.08 75.888 67.08Z"
        fill="black" />
    <path
        d="M61.448 78H62.28V76.472L63.104 75.544L65.112 78H66.08L63.624 74.952L65.88 72.4H64.888L62.28 75.368V72.4H61.448V78Z"
        fill="black" />
    <path
        d="M85.2941 78H87.4781C88.8781 78 89.5261 77.304 89.5261 76.376C89.5261 75.616 89.1101 75.128 88.3821 74.928C88.8781 74.752 89.1581 74.36 89.1581 73.768C89.1581 72.96 88.6221 72.4 87.4301 72.4H85.2941V78ZM86.1261 77.288V75.368H87.4301C88.2701 75.368 88.6461 75.76 88.6461 76.32C88.6461 76.88 88.2701 77.288 87.4301 77.288H86.1261ZM86.1261 74.664V73.104H87.3741C87.9661 73.104 88.3021 73.368 88.3021 73.872C88.3021 74.392 87.9661 74.664 87.3741 74.664H86.1261Z"
        fill="black" />
    <defs>
        <clipPath id="clip0_3163_23444">
            <rect width="5.18392" height="5.18392" fill="white"
                transform="translate(73.4414 83.8093)" />
        </clipPath>
    </defs>
</svg>
    