<svg width="280" height="150" viewBox="0 0 280 150" fill="none" xmlns="http://www.w3.org/2000/svg">
    <rect width="150" height="150" fill="#5700FF" />
    <rect x="150" y="96" width="130" height="54" fill="#18EFB1" />
    <rect x="150" width="130" height="96" fill="#DDE3E3" />
    <path
        d="M15.59 139.1C17.01 139.1 18.09 138.39 18.32 136.95H17.51C17.27 137.89 16.56 138.38 15.58 138.38C14.17 138.38 13.26 137.35 13.26 135.5C13.26 133.64 14.17 132.63 15.58 132.63C16.56 132.63 17.27 133.12 17.51 134.04H18.32C18.09 132.62 17.01 131.91 15.59 131.91C13.73 131.91 12.43 133.14 12.43 135.5C12.43 137.86 13.73 139.1 15.59 139.1ZM19.7011 139H20.5011V133.8H19.7011V139ZM19.5911 132.26C19.5911 132.54 19.8311 132.77 20.1011 132.77C20.3711 132.77 20.6011 132.54 20.6011 132.26C20.6011 131.98 20.3711 131.76 20.1011 131.76C19.8311 131.76 19.5911 131.98 19.5911 132.26ZM22.1542 139H22.9542V136.26C22.9542 135.15 23.5742 134.44 24.6242 134.44C24.7542 134.44 24.8742 134.45 25.0042 134.47V133.79C24.8842 133.75 24.7442 133.74 24.6142 133.74C23.6042 133.74 23.1142 134.42 22.9742 134.96H22.9542V133.8H22.1542V139ZM28.4201 139.1C29.3501 139.1 30.4501 138.68 30.6301 137.2H29.9001C29.7501 138.1 29.1001 138.41 28.4101 138.41C27.4001 138.41 26.6701 137.73 26.6701 136.41C26.6701 135.09 27.4001 134.38 28.4101 134.38C29.0901 134.38 29.7501 134.7 29.9001 135.57H30.6301C30.4401 134.11 29.3501 133.7 28.4201 133.7C27.0801 133.7 25.9101 134.56 25.9101 136.41C25.9101 138.25 27.0801 139.1 28.4201 139.1ZM32.8016 136.85L32.8116 133.8H32.0116L32.0016 137.01C32.0016 138.54 32.8316 139.1 33.8616 139.1C35.0616 139.1 35.5616 138.33 35.6516 137.98H35.6716V139H36.4716L36.4816 133.8H35.6816L35.6716 137C35.6116 137.9 35.0116 138.42 34.1416 138.42C33.2216 138.42 32.8016 137.84 32.8016 136.85ZM38.1464 139H38.9464V132H38.1464V139ZM42.0595 139.1C43.3395 139.1 43.9095 138.36 44.0295 138.1H44.0695V139H44.8195V135.48C44.8195 134.23 44.1595 133.7 42.7495 133.7C41.3895 133.7 40.6495 134.18 40.6495 135.22V135.41H41.4195V135.29C41.4195 134.6 41.8595 134.32 42.7195 134.32C43.5795 134.32 44.0195 134.6 44.0195 135.48V135.69C44.0195 135.86 43.8595 135.97 43.3195 136.03L41.9895 136.18C40.9795 136.3 40.3495 136.75 40.3495 137.67C40.3495 138.65 41.0695 139.1 42.0595 139.1ZM41.1495 137.63C41.1495 137.17 41.4095 136.88 42.1795 136.79L43.2695 136.66C43.8095 136.59 43.9795 136.5 44.0195 136.39V137.14C44.0195 137.66 43.4595 138.46 42.2495 138.46C41.5995 138.46 41.1495 138.23 41.1495 137.63ZM48.1539 139.07C48.3639 139.07 48.5539 139.05 48.7339 139.01V138.39C48.5939 138.41 48.5039 138.41 48.3739 138.41C47.8139 138.41 47.6239 138.19 47.6239 137.63V134.45H48.6539V133.8H47.6239V132.5H46.8239V133.8H45.9839V134.45H46.8239V137.78C46.8239 138.74 47.3739 139.07 48.1539 139.07ZM50.0859 139H50.8859V133.8H50.0859V139ZM49.9759 132.26C49.9759 132.54 50.2159 132.77 50.4859 132.77C50.7559 132.77 50.9859 132.54 50.9859 132.26C50.9859 131.98 50.7559 131.76 50.4859 131.76C50.2159 131.76 49.9759 131.98 49.9759 132.26ZM56.209 135.95V139H57.009V135.79C57.009 134.26 56.179 133.7 55.149 133.7C53.949 133.7 53.449 134.47 53.359 134.82H53.339V133.8H52.539V139H53.339V135.95C53.339 134.96 53.949 134.38 54.869 134.38C55.789 134.38 56.209 134.96 56.209 135.95ZM60.8538 141.09C61.9738 141.09 63.3538 140.65 63.3538 138.92V133.8H62.5538V134.63H62.5338C62.1738 134.02 61.4538 133.7 60.7138 133.7C59.5438 133.7 58.4237 134.47 58.4237 136.29C58.4237 138.11 59.5338 138.89 60.7138 138.89C61.4538 138.89 62.1738 138.57 62.5338 137.96H62.5538V138.92C62.5538 140.02 61.7938 140.46 60.8438 140.46C59.9938 140.46 59.3238 140.1 59.2938 139.47H58.5838C58.5938 140.68 59.7738 141.09 60.8538 141.09ZM59.1838 136.29C59.1838 134.98 59.9938 134.37 60.8738 134.37C61.7538 134.37 62.5938 134.98 62.5938 136.29C62.5938 137.6 61.7538 138.21 60.8738 138.21C59.9938 138.21 59.1838 137.6 59.1838 136.29ZM70.3385 139.1C71.9385 139.1 72.9285 138.36 72.9285 137.06C72.9285 135.92 72.1685 135.39 70.8885 135.13L69.9885 134.95C69.0685 134.77 68.7185 134.35 68.7185 133.78C68.7185 133.13 69.1685 132.61 70.2785 132.61C71.3485 132.61 71.8685 133.11 71.8985 133.78H72.7185C72.7185 132.64 71.8385 131.91 70.2885 131.91C68.7185 131.91 67.8585 132.64 67.8585 133.78C67.8585 134.79 68.5385 135.38 69.7585 135.62L70.6885 135.81C71.5085 135.97 72.0685 136.29 72.0685 137.07C72.0685 137.86 71.4985 138.39 70.3485 138.39C69.0885 138.39 68.5385 137.76 68.4885 136.96H67.6585C67.6585 138.21 68.5785 139.1 70.3385 139.1ZM75.2313 136.85L75.2413 133.8H74.4413L74.4313 137.01C74.4313 138.54 75.2613 139.1 76.2913 139.1C77.4913 139.1 77.9913 138.33 78.0813 137.98H78.1013V139H78.9013L78.9113 133.8H78.1113L78.1013 137C78.0413 137.9 77.4413 138.42 76.5713 138.42C75.6513 138.42 75.2313 137.84 75.2313 136.85ZM80.5761 140.9H81.3761V138.13C81.7361 138.76 82.4461 139.1 83.2161 139.1C84.4161 139.1 85.5561 138.27 85.5561 136.4C85.5561 134.52 84.4161 133.7 83.2161 133.7C82.4461 133.7 81.7361 134.03 81.3761 134.66V133.8H80.5761V140.9ZM81.3361 136.4C81.3361 135.01 82.1861 134.37 83.0661 134.37C83.9561 134.37 84.7961 135.01 84.7961 136.4C84.7961 137.78 83.9561 138.42 83.0661 138.42C82.1861 138.42 81.3361 137.78 81.3361 136.4ZM86.955 140.9H87.755V138.13C88.115 138.76 88.825 139.1 89.595 139.1C90.795 139.1 91.935 138.27 91.935 136.4C91.935 134.52 90.795 133.7 89.595 133.7C88.825 133.7 88.115 134.03 87.755 134.66V133.8H86.955V140.9ZM87.715 136.4C87.715 135.01 88.565 134.37 89.445 134.37C90.335 134.37 91.175 135.01 91.175 136.4C91.175 137.78 90.335 138.42 89.445 138.42C88.565 138.42 87.715 137.78 87.715 136.4ZM93.3339 139H94.1339V132H93.3339V139ZM95.9182 140.23V140.93C96.9382 141.05 97.5582 140.64 98.0482 139.43L100.288 133.8H99.4582L97.8382 138.06L96.2082 133.8H95.3882L97.3482 138.75C97.4382 138.96 97.4282 139.15 97.3182 139.43C97.0882 140.02 96.6982 140.34 95.9182 140.23Z"
        fill="white" />
    <path
        d="M17.13 124.18C19.992 124.18 21.828 122.614 21.828 120.382C21.828 118.33 20.28 117.394 19.11 117.214C20.298 116.89 21.198 115.9 21.198 114.442C21.198 112.57 19.74 111.238 17.22 111.238C14.61 111.238 13.062 112.66 13.062 115.342H14.772C14.772 113.47 15.888 112.804 17.184 112.804C18.516 112.804 19.434 113.488 19.434 114.712C19.434 115.594 18.948 116.638 16.914 116.638H16.392V118.006H17.004C18.966 118.006 19.992 118.906 19.992 120.274C19.992 121.822 18.696 122.614 17.202 122.614C15.546 122.614 14.376 121.696 14.358 119.896H12.648C12.648 122.434 14.106 124.18 17.13 124.18ZM28.2006 111.256C25.9326 111.256 23.7546 112.66 23.7546 115.612C23.7546 118.456 25.7166 119.824 27.8586 119.824C29.3526 119.824 30.4866 119.14 31.1346 118.186C31.0986 120.184 30.5946 122.74 28.1106 122.74C26.7966 122.74 25.8786 122.02 25.7346 120.85H24.1326C24.1326 122.452 25.3566 124.198 28.0746 124.198C31.6746 124.198 32.8266 121.12 32.8266 117.646C32.8266 113.146 30.8826 111.256 28.2006 111.256ZM25.5006 115.63C25.5006 113.812 26.6886 112.75 28.2006 112.75C29.6946 112.75 30.9006 113.812 30.9006 115.63C30.9006 117.43 29.6946 118.42 28.1826 118.42C26.6706 118.42 25.5006 117.43 25.5006 115.63ZM35.7658 124.18C36.4318 124.18 36.9718 123.658 36.9718 122.992C36.9718 122.344 36.4318 121.804 35.7658 121.804C35.1178 121.804 34.5778 122.344 34.5778 122.992C34.5778 123.658 35.1178 124.18 35.7658 124.18ZM43.5252 124.18C45.7932 124.18 47.9712 122.776 47.9712 119.824C47.9712 116.98 46.0092 115.612 43.8672 115.612C42.3732 115.612 41.2392 116.296 40.5912 117.25C40.6272 115.252 41.1312 112.696 43.6152 112.696C44.9292 112.696 45.8472 113.416 45.9912 114.586H47.5932C47.5932 112.984 46.3692 111.238 43.6512 111.238C40.0512 111.238 38.8992 114.316 38.8992 117.79C38.8992 122.29 40.8432 124.18 43.5252 124.18ZM40.8252 119.806C40.8252 118.006 42.0312 117.016 43.5432 117.016C45.0552 117.016 46.2252 118.006 46.2252 119.806C46.2252 121.624 45.0372 122.686 43.5252 122.686C42.0312 122.686 40.8252 121.624 40.8252 119.806ZM54.3759 124.18C57.2379 124.18 59.0739 122.614 59.0739 120.382C59.0739 118.33 57.5259 117.394 56.3559 117.214C57.5439 116.89 58.4439 115.9 58.4439 114.442C58.4439 112.57 56.9859 111.238 54.4659 111.238C51.8559 111.238 50.3079 112.66 50.3079 115.342H52.0179C52.0179 113.47 53.1339 112.804 54.4299 112.804C55.7619 112.804 56.6799 113.488 56.6799 114.712C56.6799 115.594 56.1939 116.638 54.1599 116.638H53.6379V118.006H54.2499C56.2119 118.006 57.2379 118.906 57.2379 120.274C57.2379 121.822 55.9419 122.614 54.4479 122.614C52.7919 122.614 51.6219 121.696 51.6039 119.896H49.8939C49.8939 122.434 51.3519 124.18 54.3759 124.18ZM66.5847 124.18C69.9147 124.18 71.8947 122.2 71.8947 118.402V117.394H67.1247V118.906H70.0407C70.0587 121.48 68.5287 122.56 66.6027 122.56C64.0827 122.56 62.6967 120.724 62.6967 117.682C62.6967 114.658 64.0467 112.858 66.5667 112.858C68.0427 112.858 69.2307 113.47 69.6807 114.874H71.5347C71.0667 112.444 69.0687 111.238 66.5667 111.238C63.1467 111.238 60.8247 113.506 60.8247 117.736C60.8247 121.876 63.0207 124.18 66.5847 124.18Z"
        fill="white" />
    <path
        d="M164.168 113.74V124H165.986V111.4H164.168C163.88 112.426 162.98 113.11 161.738 113.218V114.73C162.746 114.712 163.646 114.334 164.168 113.74ZM171.106 113.74V124H172.924V111.4H171.106C170.818 112.426 169.918 113.11 168.676 113.218V114.73C169.684 114.712 170.584 114.334 171.106 113.74ZM176.75 124.18C177.416 124.18 177.956 123.658 177.956 122.992C177.956 122.344 177.416 121.804 176.75 121.804C176.102 121.804 175.562 122.344 175.562 122.992C175.562 123.658 176.102 124.18 176.75 124.18ZM184.186 124.18C187.048 124.18 188.884 122.614 188.884 120.382C188.884 118.33 187.336 117.394 186.166 117.214C187.354 116.89 188.254 115.9 188.254 114.442C188.254 112.57 186.796 111.238 184.276 111.238C181.666 111.238 180.118 112.66 180.118 115.342H181.828C181.828 113.47 182.944 112.804 184.24 112.804C185.572 112.804 186.49 113.488 186.49 114.712C186.49 115.594 186.004 116.638 183.97 116.638H183.448V118.006H184.06C186.022 118.006 187.048 118.906 187.048 120.274C187.048 121.822 185.752 122.614 184.258 122.614C182.602 122.614 181.432 121.696 181.414 119.896H179.704C179.704 122.434 181.162 124.18 184.186 124.18ZM195.184 124.18C197.74 124.18 199.666 122.812 199.666 120.436C199.666 118.78 198.766 117.664 197.326 117.106C198.316 116.62 198.91 115.594 198.91 114.424C198.91 112.624 197.56 111.238 195.184 111.238C192.826 111.238 191.458 112.624 191.458 114.424C191.458 115.594 192.052 116.62 193.06 117.106C191.62 117.664 190.72 118.78 190.72 120.436C190.72 122.812 192.646 124.18 195.184 124.18ZM192.466 120.292C192.466 118.87 193.528 117.916 195.184 117.916C196.858 117.916 197.902 118.87 197.902 120.292C197.902 121.678 196.894 122.632 195.184 122.632C193.474 122.632 192.466 121.696 192.466 120.292ZM193.168 114.532C193.168 113.452 193.834 112.768 195.184 112.768C196.534 112.768 197.218 113.452 197.218 114.532C197.218 115.63 196.498 116.368 195.184 116.368C193.87 116.368 193.168 115.63 193.168 114.532ZM207.358 124.18C210.688 124.18 212.668 122.2 212.668 118.402V117.394H207.898V118.906H210.814C210.832 121.48 209.302 122.56 207.376 122.56C204.856 122.56 203.47 120.724 203.47 117.682C203.47 114.658 204.82 112.858 207.34 112.858C208.816 112.858 210.004 113.47 210.454 114.874H212.308C211.84 112.444 209.842 111.238 207.34 111.238C203.92 111.238 201.598 113.506 201.598 117.736C201.598 121.876 203.794 124.18 207.358 124.18Z"
        fill="black" />
    <path
        d="M164.168 61.74V72H165.986V59.4H164.168C163.88 60.426 162.98 61.11 161.738 61.218V62.73C162.746 62.712 163.646 62.334 164.168 61.74ZM173.538 72.18C176.184 72.18 178.47 70.2 178.47 65.7C178.47 61.236 176.184 59.238 173.538 59.238C170.91 59.238 168.624 61.236 168.624 65.7C168.624 70.2 170.91 72.18 173.538 72.18ZM170.352 65.7C170.352 62.82 171.432 60.786 173.538 60.786C175.644 60.786 176.724 62.82 176.724 65.7C176.724 68.598 175.644 70.632 173.538 70.632C171.432 70.632 170.352 68.598 170.352 65.7ZM184.876 72.18C187.738 72.18 189.574 70.614 189.574 68.382C189.574 66.33 188.026 65.394 186.856 65.214C188.044 64.89 188.944 63.9 188.944 62.442C188.944 60.57 187.486 59.238 184.966 59.238C182.356 59.238 180.808 60.66 180.808 63.342H182.518C182.518 61.47 183.634 60.804 184.93 60.804C186.262 60.804 187.18 61.488 187.18 62.712C187.18 63.594 186.694 64.638 184.66 64.638H184.138V66.006H184.75C186.712 66.006 187.738 66.906 187.738 68.274C187.738 69.822 186.442 70.614 184.948 70.614C183.292 70.614 182.122 69.696 182.104 67.896H180.394C180.394 70.434 181.852 72.18 184.876 72.18ZM191.771 72H193.643V62.748H193.697L197.549 72H199.025L202.859 62.748H202.931V72H204.803V59.4H202.499L198.287 69.516L194.075 59.4H191.771V72Z"
        fill="black" />
    <path
        d="M165.27 139.1C166.91 139.1 167.96 138.12 167.96 136.35V132H167.13V136.3C167.13 137.64 166.44 138.37 165.27 138.37C164.1 138.37 163.41 137.64 163.41 136.3V132H162.58V136.35C162.58 138.12 163.62 139.1 165.27 139.1ZM173.293 135.95V139H174.093V135.79C174.093 134.26 173.263 133.7 172.233 133.7C171.033 133.7 170.533 134.47 170.443 134.82H170.423V133.8H169.623V139H170.423V135.95C170.423 134.96 171.033 134.38 171.953 134.38C172.873 134.38 173.293 134.96 173.293 135.95ZM177.222 139H178.222L180.242 133.8H179.422L177.742 138.24H177.712L176.022 133.8H175.212L177.222 139ZM183.409 139.1C184.399 139.1 185.279 138.69 185.619 137.54H184.889C184.639 138.25 184.059 138.46 183.419 138.46C182.369 138.46 181.769 137.87 181.709 136.65H185.659C185.679 136.55 185.689 136.45 185.689 136.28C185.689 134.54 184.709 133.7 183.369 133.7C182.039 133.7 180.939 134.52 180.939 136.41C180.939 138.24 181.979 139.1 183.409 139.1ZM181.709 136.04C181.789 134.88 182.449 134.33 183.359 134.33C184.319 134.33 184.909 134.95 184.919 136.04H181.709ZM188.93 139.1C190 139.1 191.04 138.69 191.04 137.55C191.04 136.67 190.43 136.34 189.57 136.14L188.6 135.91C187.97 135.77 187.73 135.52 187.73 135.12C187.73 134.58 188.15 134.33 188.91 134.33C189.63 134.33 190.12 134.56 190.23 135.24H190.91C190.85 134.2 190.08 133.7 188.91 133.7C187.73 133.7 186.95 134.2 186.95 135.12C186.95 135.83 187.41 136.3 188.33 136.52L189.31 136.75C189.87 136.88 190.22 137.05 190.22 137.56C190.22 138.21 189.65 138.47 188.94 138.47C188.26 138.47 187.61 138.23 187.51 137.52H186.79C186.84 138.61 187.74 139.1 188.93 139.1ZM194.214 139.07C194.424 139.07 194.614 139.05 194.794 139.01V138.39C194.654 138.41 194.564 138.41 194.434 138.41C193.874 138.41 193.684 138.19 193.684 137.63V134.45H194.714V133.8H193.684V132.5H192.884V133.8H192.044V134.45H192.884V137.78C192.884 138.74 193.434 139.07 194.214 139.07ZM198.318 139.1C199.308 139.1 200.188 138.69 200.528 137.54H199.798C199.548 138.25 198.968 138.46 198.328 138.46C197.278 138.46 196.678 137.87 196.618 136.65H200.568C200.588 136.55 200.598 136.45 200.598 136.28C200.598 134.54 199.618 133.7 198.278 133.7C196.948 133.7 195.848 134.52 195.848 136.41C195.848 138.24 196.888 139.1 198.318 139.1ZM196.618 136.04C196.698 134.88 197.358 134.33 198.268 134.33C199.228 134.33 199.818 134.95 199.828 136.04H196.618ZM204.127 139.1C204.897 139.1 205.607 138.76 205.967 138.13V139H206.767V132H205.967V134.66C205.607 134.03 204.897 133.7 204.127 133.7C202.927 133.7 201.787 134.52 201.787 136.4C201.787 138.27 202.927 139.1 204.127 139.1ZM202.547 136.4C202.547 135.01 203.387 134.37 204.277 134.37C205.157 134.37 206.007 135.01 206.007 136.4C206.007 137.78 205.157 138.42 204.277 138.42C203.387 138.42 202.547 137.78 202.547 136.4Z"
        fill="black" />
    <path
        d="M162.58 85H165.23C166.93 85 167.73 84.15 167.73 82.98C167.73 82 167.18 81.39 166.26 81.16C166.93 80.94 167.28 80.41 167.28 79.68C167.28 78.7 166.65 78 165.2 78H162.58V85ZM163.4 84.29V81.6H165.18C166.32 81.6 166.86 82.13 166.86 82.94C166.86 83.74 166.32 84.29 165.18 84.29H163.4ZM163.4 80.89V78.71H165.13C166 78.71 166.43 79.09 166.43 79.78C166.43 80.47 166 80.89 165.13 80.89H163.4ZM169.925 82.85L169.935 79.8H169.135L169.125 83.01C169.125 84.54 169.955 85.1 170.985 85.1C172.185 85.1 172.685 84.33 172.775 83.98H172.795V85H173.595L173.605 79.8H172.805L172.795 83C172.735 83.9 172.135 84.42 171.265 84.42C170.345 84.42 169.925 83.84 169.925 82.85ZM175.269 85H176.069V82.26C176.069 81.15 176.689 80.44 177.739 80.44C177.869 80.44 177.989 80.45 178.119 80.47V79.79C177.999 79.75 177.859 79.74 177.729 79.74C176.719 79.74 176.229 80.42 176.089 80.96H176.069V79.8H175.269V85ZM183.092 81.95V85H183.892V81.79C183.892 80.26 183.062 79.7 182.032 79.7C180.832 79.7 180.332 80.47 180.242 80.82H180.222V79.8H179.422V85H180.222V81.95C180.222 80.96 180.832 80.38 181.752 80.38C182.672 80.38 183.092 80.96 183.092 81.95ZM187.279 85.07C187.489 85.07 187.679 85.05 187.859 85.01V84.39C187.719 84.41 187.629 84.41 187.499 84.41C186.939 84.41 186.749 84.19 186.749 83.63V80.45H187.779V79.8H186.749V78.5H185.949V79.8H185.109V80.45H185.949V83.78C185.949 84.74 186.499 85.07 187.279 85.07Z"
        fill="black" />
</svg>
    