<svg width="20" height="20" viewBox="0 0 20 20" fill="none" xmlns="http://www.w3.org/2000/svg">
<path d="M10 0C4.5 0 0 4.5 0 10C0 15.5 4.5 20 10 20C15.5 20 20 15.5 20 10C20 4.5 15.5 0 10 0ZM7.95 11.6C7.05 12.5 5.8 13 4.55 13C4.25 13 4.05 12.8 4.05 12.5C4.05 12.2 4.25 12 4.55 12C5.55 12 6.55 11.6 7.25 10.9C7.45 10.7 7.75 10.7 7.95 10.9C8.15 11.1 8.15 11.4 7.95 11.6ZM15.9 12.9L14.5 14.3C14.4 14.4 14.25 14.45 14.15 14.45C14 14.45 13.9 14.4 13.8 14.3C13.6 14.1 13.6 13.8 13.8 13.6L14.35 13.05H13.2C11.9 13.05 10.7 12.55 9.8 11.65L7.3 9.15C6.6 8.45 5.6 8.05 4.6 8.05C4.3 8.05 4.1 7.85 4.1 7.55C4.1 7.25 4.3 7.05 4.6 7.05C5.85 7.05 7.1 7.55 8 8.45L10.5 10.95C11.25 11.65 12.2 12.05 13.2 12.05H14.35L13.8 11.5C13.6 11.3 13.6 11 13.8 10.8C14 10.6 14.3 10.6 14.5 10.8L15.9 12.2C16.1 12.35 16.1 12.7 15.9 12.9ZM15.9 7.85L14.5 9.25C14.4 9.35 14.25 9.4 14.15 9.4C14 9.4 13.9 9.35 13.8 9.25C13.6 9.05 13.6 8.75 13.8 8.55L14.35 8H13.2C12.2 8 11.2 8.4 10.5 9.1C10.4 9.2 10.25 9.25 10.15 9.25C10 9.25 9.9 9.2 9.8 9.1C9.6 8.9 9.6 8.6 9.8 8.4C10.7 7.5 11.9 7 13.2 7H14.35L13.8 6.45C13.6 6.25 13.6 5.95 13.8 5.75C14 5.55 14.3 5.55 14.5 5.75L15.9 7.15C16.1 7.3 16.1 7.65 15.9 7.85Z" fill="currentColor"/>
</svg>
