<svg width="218" height="78" viewBox="0 0 218 78" fill="none" xmlns="http://www.w3.org/2000/svg">
    <rect width="78" height="78" fill="black" />
    <path
        d="M39.0015 43.9133C36.292 43.9133 34.0886 41.7089 34.0886 39.0006C34.0886 36.2923 36.2931 34.0879 39.0015 34.0879C41.7099 34.0879 43.9145 36.2923 43.9145 39.0006C43.9145 41.7089 41.7099 43.9133 39.0015 43.9133ZM39.0015 34.9662C36.7764 34.9662 34.967 36.7767 34.967 39.0006C34.967 41.2245 36.7776 43.035 39.0015 43.035C41.2255 43.035 43.0361 41.2245 43.0361 39.0006C43.0361 36.7767 41.2255 34.9662 39.0015 34.9662Z"
        fill="white" />
    <path
        d="M39.0017 41.0367C37.8782 41.0367 36.9644 40.1229 36.9644 38.9995C36.9644 37.8761 37.8782 36.9623 39.0017 36.9623C40.1251 36.9623 41.039 37.8761 41.039 38.9995C41.039 40.1229 40.1251 41.0367 39.0017 41.0367ZM39.0017 37.8406C38.3626 37.8406 37.8427 38.3605 37.8427 38.9995C37.8427 39.6385 38.3626 40.1584 39.0017 40.1584C39.6407 40.1584 40.1606 39.6385 40.1606 38.9995C40.1606 38.3605 39.6407 37.8406 39.0017 37.8406Z"
        fill="white" />
    <path
        d="M39.0011 34.965C38.7583 34.965 38.5625 34.7681 38.5625 34.5264V22.7279C38.5625 22.7199 38.5625 22.7107 38.5625 22.7027V14.5092C38.5625 14.2664 38.7595 14.0706 39.0023 14.0706C39.245 14.0706 39.4409 14.2675 39.4409 14.5092V22.6775C39.4409 22.6855 39.4409 22.6947 39.4409 22.7027V34.5264C39.4409 34.7692 39.2439 34.965 39.0023 34.965H39.0011Z"
        fill="white" />
    <path
        d="M38.6853 23.0073L34.5019 18.8241C34.3301 18.6523 34.3301 18.3752 34.5019 18.2034C34.6737 18.0316 34.9519 18.0316 35.1226 18.2034L39.3106 22.3912L39.0014 22.7027L38.6853 23.0073Z"
        fill="white" />
    <path
        d="M39.0012 31.2364C38.889 31.2364 38.7767 31.194 38.6908 31.1081C38.5191 30.9363 38.5191 30.6592 38.6908 30.4874L42.9602 26.2183C43.1319 26.0465 43.4091 26.0465 43.5809 26.2183C43.7526 26.3901 43.7526 26.6672 43.5809 26.839L39.3115 31.1081C39.2257 31.194 39.1134 31.2364 39.0012 31.2364Z"
        fill="white" />
    <path
        d="M44.2081 27.3543C43.7557 27.3543 43.3045 27.1826 42.9598 26.8379C42.2715 26.1496 42.2715 25.0308 42.9598 24.3426C43.6481 23.6544 44.7669 23.6544 45.4552 24.3426C46.1435 25.0308 46.1435 26.1496 45.4552 26.8379C45.1116 27.1814 44.6593 27.3543 44.2069 27.3543H44.2081ZM44.2081 24.7045C43.9813 24.7045 43.7546 24.7903 43.5817 24.9633C43.2358 25.3091 43.2358 25.8714 43.5817 26.2172C43.9275 26.563 44.4898 26.563 44.8356 26.2172C45.1815 25.8714 45.1815 25.3091 44.8356 24.9633C44.6627 24.7903 44.436 24.7045 44.2092 24.7045H44.2081Z"
        fill="white" />
    <path
        d="M33.8741 19.3406C33.4217 19.3406 32.9705 19.1688 32.6258 18.8241C31.9376 18.1359 31.9376 17.017 32.6258 16.3288C33.3141 15.6406 34.4329 15.6406 35.1212 16.3288C35.8095 17.017 35.8095 18.1359 35.1212 18.8241C34.7777 19.1676 34.3253 19.3406 33.8729 19.3406H33.8741ZM33.8741 16.6907C33.6473 16.6907 33.4194 16.7766 33.2465 16.9495C32.9007 17.2953 32.9007 17.8576 33.2465 18.2034C33.5924 18.5493 34.1547 18.5493 34.5005 18.2034C34.8464 17.8576 34.8464 17.2953 34.5005 16.9495C34.3276 16.7766 34.1008 16.6907 33.8741 16.6907Z"
        fill="white" />
    <path
        d="M39.001 14.9478C38.5292 14.9478 38.086 14.7646 37.7528 14.4313C37.0645 13.7431 37.0645 12.6243 37.7528 11.936C38.086 11.6028 38.5292 11.4196 39.001 11.4196C39.4729 11.4196 39.9161 11.6028 40.2493 11.936C40.5826 12.2693 40.7658 12.7124 40.7658 13.1842C40.7658 13.656 40.5826 14.0992 40.2493 14.4325C39.9161 14.7657 39.4729 14.9489 39.001 14.9489V14.9478ZM39.001 12.2967C38.764 12.2967 38.5418 12.3895 38.3746 12.5567C38.0288 12.9025 38.0288 13.4648 38.3746 13.8106C38.5418 13.9778 38.7651 14.0706 39.001 14.0706C39.237 14.0706 39.4603 13.9778 39.6275 13.8106C39.7947 13.6434 39.8874 13.4201 39.8874 13.1842C39.8874 12.9483 39.7947 12.725 39.6275 12.5578C39.4603 12.3906 39.237 12.2979 39.001 12.2979V12.2967Z"
        fill="white" />
    <path
        d="M42.1638 36.2764C42.0516 36.2764 41.9393 36.234 41.8534 36.1481C41.6817 35.9763 41.6817 35.6992 41.8534 35.5274L50.1962 27.185C50.202 27.1781 50.2077 27.1724 50.2146 27.1655L56.0081 21.3733C56.1799 21.2016 56.4582 21.2016 56.6288 21.3733C56.8006 21.5451 56.8006 21.8234 56.6288 21.994L50.8524 27.769C50.8467 27.7759 50.841 27.7816 50.8341 27.7873L42.473 36.1481C42.3871 36.234 42.2749 36.2764 42.1626 36.2764H42.1638Z"
        fill="white" />
    <path
        d="M50.525 27.9145C50.2823 27.9145 50.0864 27.7187 50.0864 27.4759V21.552C50.0864 21.3092 50.2834 21.1134 50.525 21.1134C50.7667 21.1134 50.9637 21.3104 50.9637 21.552V27.4747C50.9637 27.7175 50.7667 27.9145 50.525 27.9145Z"
        fill="white" />
    <path
        d="M50.8383 33.6392H44.7997C44.5569 33.6392 44.3611 33.4422 44.3611 33.2006C44.3611 32.9589 44.5581 32.762 44.7997 32.762H50.8383C51.0811 32.762 51.277 32.9589 51.277 33.2006C51.277 33.4422 51.08 33.6392 50.8383 33.6392Z"
        fill="white" />
    <path
        d="M52.1651 34.9652C51.1917 34.9652 50.4004 34.1739 50.4004 33.2005C50.4004 32.2271 51.1917 31.4358 52.1651 31.4358C53.1386 31.4358 53.9299 32.2271 53.9299 33.2005C53.9299 34.1739 53.1386 34.9652 52.1651 34.9652ZM52.1651 32.3141C51.6761 32.3141 51.2788 32.7115 51.2788 33.2005C51.2788 33.6895 51.6761 34.0868 52.1651 34.0868C52.6541 34.0868 53.0515 33.6895 53.0515 33.2005C53.0515 32.7115 52.6541 32.3141 52.1651 32.3141Z"
        fill="white" />
    <path
        d="M50.5253 21.9905C49.5518 21.9905 48.7605 21.1992 48.7605 20.2259C48.7605 19.2525 49.5518 18.4612 50.5253 18.4612C51.4987 18.4612 52.29 19.2525 52.29 20.2259C52.29 21.1992 51.4987 21.9905 50.5253 21.9905ZM50.5253 19.3395C50.0362 19.3395 49.6389 19.7369 49.6389 20.2259C49.6389 20.7148 50.0362 21.1122 50.5253 21.1122C51.0143 21.1122 51.4116 20.7148 51.4116 20.2259C51.4116 19.7369 51.0143 19.3395 50.5253 19.3395Z"
        fill="white" />
    <path
        d="M57.2567 22.5093C56.2833 22.5093 55.4919 21.718 55.4919 20.7447C55.4919 19.7713 56.2833 18.98 57.2567 18.98C58.2301 18.98 59.0215 19.7713 59.0215 20.7447C59.0215 21.718 58.2301 22.5093 57.2567 22.5093ZM57.2567 19.8583C56.7677 19.8583 56.3703 20.2557 56.3703 20.7447C56.3703 21.2336 56.7677 21.631 57.2567 21.631C57.7457 21.631 58.1431 21.2336 58.1431 20.7447C58.1431 20.2557 57.7457 19.8583 57.2567 19.8583Z"
        fill="white" />
    <path
        d="M63.4934 39.4392H55.3258C55.3178 39.4392 55.3086 39.4392 55.2994 39.4392H43.4752C43.2325 39.4392 43.0366 39.2422 43.0366 39.0006C43.0366 38.759 43.2336 38.562 43.4752 38.562H55.2742C55.2823 38.562 55.2914 38.562 55.3006 38.562H63.4934C63.7361 38.562 63.932 38.759 63.932 39.0018C63.932 39.2445 63.735 39.4403 63.4934 39.4403V39.4392Z"
        fill="white" />
    <path
        d="M55.3005 39.4392C55.1894 39.4392 55.0783 39.3968 54.9924 39.3132C54.8207 39.1437 54.8161 38.8689 54.9844 38.696L59.1782 34.5013C59.3499 34.3295 59.6282 34.3295 59.7988 34.5013C59.9706 34.673 59.9706 34.9502 59.7988 35.1219L55.6108 39.3098C55.525 39.3957 55.4127 39.438 55.2994 39.438L55.3005 39.4392Z"
        fill="white" />
    <path
        d="M51.4746 43.7083C51.3624 43.7083 51.2501 43.6659 51.1643 43.58L46.8949 39.3109C46.7232 39.1391 46.7232 38.862 46.8949 38.6902C47.0667 38.5185 47.345 38.5185 47.5156 38.6902L51.785 42.9594C51.9567 43.1311 51.9567 43.4083 51.785 43.58C51.6991 43.6659 51.5868 43.7083 51.4746 43.7083Z"
        fill="white" />
    <path
        d="M52.4108 45.9711C51.9389 45.9711 51.4957 45.7879 51.1625 45.4547C50.8292 45.1214 50.646 44.6783 50.646 44.2065C50.646 43.7347 50.8292 43.2915 51.1625 42.9582C51.4957 42.625 51.9389 42.4418 52.4108 42.4418C52.8826 42.4418 53.3258 42.625 53.659 42.9582C54.3473 43.6465 54.3473 44.7653 53.659 45.4535C53.3258 45.7868 52.8826 45.97 52.4108 45.97V45.9711ZM52.4108 43.3201C52.1737 43.3201 51.9515 43.4129 51.7843 43.5801C51.6171 43.7472 51.5244 43.9706 51.5244 44.2065C51.5244 44.4424 51.6171 44.6657 51.7843 44.8329C51.9515 45 52.1748 45.0928 52.4108 45.0928C52.6467 45.0928 52.87 45 53.0372 44.8329C53.383 44.487 53.383 43.9247 53.0372 43.5789C52.87 43.4117 52.6467 43.319 52.4108 43.319V43.3201Z"
        fill="white" />
    <path
        d="M60.4263 35.6373C59.974 35.6373 59.5228 35.4656 59.1781 35.1209C58.4898 34.4326 58.4898 33.3138 59.1781 32.6256C59.5113 32.2924 59.9545 32.1091 60.4263 32.1091C60.8982 32.1091 61.3413 32.2924 61.6746 32.6256C62.3629 33.3138 62.3629 34.4326 61.6746 35.1209C61.331 35.4644 60.8787 35.6373 60.4263 35.6373ZM59.7999 34.5002C60.1458 34.846 60.7081 34.846 61.0539 34.5002C61.3998 34.1544 61.3998 33.5921 61.0539 33.2463C60.8867 33.0791 60.6634 32.9863 60.4275 32.9863C60.1916 32.9863 59.9683 33.0791 59.8011 33.2463C59.4552 33.5921 59.4552 34.1544 59.8011 34.5002H59.7999Z"
        fill="white" />
    <path
        d="M64.8204 40.7642C64.3486 40.7642 63.9054 40.581 63.5721 40.2477C62.8838 39.5595 62.8838 38.4407 63.5721 37.7524C63.9054 37.4192 64.3486 37.236 64.8204 37.236C65.2922 37.236 65.7354 37.4192 66.0686 37.7524C66.7569 38.4407 66.7569 39.5595 66.0686 40.2477C65.7354 40.581 65.2922 40.7642 64.8204 40.7642ZM64.8204 38.1132C64.5833 38.1132 64.3612 38.2059 64.194 38.3731C63.8481 38.7189 63.8481 39.2812 64.194 39.627C64.3612 39.7942 64.5845 39.887 64.8204 39.887C65.0563 39.887 65.2796 39.7942 65.4468 39.627C65.7927 39.2812 65.7927 38.7189 65.4468 38.3731C65.2796 38.2059 65.0563 38.1132 64.8204 38.1132Z"
        fill="white" />
    <path
        d="M56.319 56.7573C56.2067 56.7573 56.0945 56.715 56.0086 56.6291L50.2334 50.8529C50.2265 50.8472 50.2208 50.8415 50.215 50.8357L41.8539 42.475C41.6822 42.3032 41.6822 42.0261 41.8539 41.8543C42.0257 41.6825 42.3028 41.6825 42.4746 41.8543L50.8186 50.1967C50.8254 50.2025 50.8312 50.2082 50.8369 50.2139L56.6305 56.0073C56.8022 56.179 56.8022 56.4562 56.6305 56.6279C56.5446 56.7138 56.4323 56.7562 56.3201 56.7562L56.319 56.7573Z"
        fill="white" />
    <path
        d="M56.4494 50.9629H50.5264C50.2836 50.9629 50.0867 50.7659 50.0867 50.5243C50.0867 50.2827 50.2825 50.0857 50.5253 50.0857H56.4494C56.6922 50.0857 56.888 50.2827 56.888 50.5243C56.888 50.7659 56.691 50.9629 56.4494 50.9629Z"
        fill="white" />
    <path
        d="M44.7999 51.2765C44.5572 51.2765 44.3613 51.0796 44.3613 50.838V44.7996C44.3613 44.5568 44.5583 44.361 44.7999 44.361C45.0416 44.361 45.2386 44.5579 45.2386 44.7996V50.838C45.2386 51.0807 45.0416 51.2765 44.7999 51.2765Z"
        fill="white" />
    <path
        d="M44.8002 53.9277C43.8267 53.9277 43.0354 53.1364 43.0354 52.163C43.0354 51.1896 43.8267 50.3983 44.8002 50.3983C45.7736 50.3983 46.5649 51.1896 46.5649 52.163C46.5649 53.1364 45.7736 53.9277 44.8002 53.9277ZM44.8002 51.2767C44.3112 51.2767 43.9138 51.674 43.9138 52.163C43.9138 52.652 44.3112 53.0493 44.8002 53.0493C45.2892 53.0493 45.6865 52.652 45.6865 52.163C45.6865 51.674 45.2892 51.2767 44.8002 51.2767Z"
        fill="white" />
    <path
        d="M57.7753 52.2889C56.8018 52.2889 56.0105 51.4976 56.0105 50.5242C56.0105 49.5508 56.8018 48.7595 57.7753 48.7595C58.7487 48.7595 59.54 49.5508 59.54 50.5242C59.54 51.4976 58.7487 52.2889 57.7753 52.2889ZM57.7753 49.6379C57.2863 49.6379 56.8889 50.0352 56.8889 50.5242C56.8889 51.0132 57.2863 51.4106 57.7753 51.4106C58.2643 51.4106 58.6616 51.0132 58.6616 50.5242C58.6616 50.0352 58.2643 49.6379 57.7753 49.6379Z"
        fill="white" />
    <path
        d="M57.2567 59.0201C56.2833 59.0201 55.4919 58.2288 55.4919 57.2554C55.4919 56.282 56.2833 55.4907 57.2567 55.4907C58.2301 55.4907 59.0215 56.282 59.0215 57.2554C59.0215 58.2288 58.2301 59.0201 57.2567 59.0201ZM57.2567 56.3691C56.7677 56.3691 56.3703 56.7664 56.3703 57.2554C56.3703 57.7444 56.7677 58.1418 57.2567 58.1418C57.7457 58.1418 58.1431 57.7444 58.1431 57.2554C58.1431 56.7664 57.7457 56.3691 57.2567 56.3691Z"
        fill="white" />
    <path
        d="M39.0014 63.9306C38.7586 63.9306 38.5627 63.7336 38.5627 63.492V55.3236C38.5627 55.3156 38.5627 55.3065 38.5627 55.2984V43.4747C38.5627 43.232 38.7597 43.0361 39.0014 43.0361C39.243 43.0361 39.44 43.2331 39.44 43.4747V55.2732C39.44 55.2813 39.44 55.2904 39.44 55.2984V63.4909C39.44 63.7336 39.243 63.9295 39.0002 63.9295L39.0014 63.9306Z"
        fill="white" />
    <path
        d="M43.1905 59.9261C43.0783 59.9261 42.966 59.8837 42.8801 59.7978L38.6921 55.61L39.0013 55.2985L39.3174 54.9939L43.5008 59.1771C43.6726 59.3489 43.6726 59.626 43.5008 59.7978C43.4149 59.8837 43.3027 59.9261 43.1905 59.9261Z"
        fill="white" />
    <path
        d="M34.7309 51.9111C34.6187 51.9111 34.5065 51.8687 34.4206 51.7828C34.2488 51.611 34.2488 51.3339 34.4206 51.1621L38.6899 46.893C38.8617 46.7212 39.1388 46.7212 39.3106 46.893C39.4824 47.0648 39.4824 47.3419 39.3106 47.5137L35.0413 51.7828C34.9554 51.8687 34.8432 51.9111 34.7309 51.9111Z"
        fill="white" />
    <path
        d="M33.794 54.174C33.3222 54.174 32.879 53.9907 32.5457 53.6575C31.8575 52.9693 31.8575 51.8505 32.5457 51.1622C32.879 50.829 33.3222 50.6458 33.794 50.6458C34.2658 50.6458 34.709 50.829 35.0423 51.1622C35.3755 51.4955 35.5588 51.9386 35.5588 52.4104C35.5588 52.8822 35.3755 53.3254 35.0423 53.6587C34.709 53.9919 34.2658 54.1751 33.794 54.1751V54.174ZM33.794 51.5229C33.557 51.5229 33.3348 51.6157 33.1676 51.7829C32.8217 52.1287 32.8217 52.691 33.1676 53.0368C33.3348 53.204 33.5581 53.2968 33.794 53.2968C34.0299 53.2968 34.2532 53.204 34.4204 53.0368C34.5876 52.8696 34.6804 52.6463 34.6804 52.4104C34.6804 52.1745 34.5888 51.9512 34.4204 51.784C34.2532 51.6168 34.0299 51.5241 33.794 51.5241V51.5229Z"
        fill="white" />
    <path
        d="M44.1273 62.1878C43.6554 62.1878 43.2122 62.0045 42.879 61.6713C42.1907 60.9831 42.1907 59.8642 42.879 59.176C43.2122 58.8428 43.6554 58.6595 44.1273 58.6595C44.5991 58.6595 45.0423 58.8428 45.3755 59.176C45.7088 59.5093 45.892 59.9524 45.892 60.4242C45.892 60.896 45.7088 61.3392 45.3755 61.6724C45.0423 62.0057 44.5991 62.1889 44.1273 62.1889V62.1878ZM44.1273 59.5367C43.8902 59.5367 43.668 59.6295 43.5008 59.7967C43.155 60.1425 43.155 60.7048 43.5008 61.0506C43.668 61.2178 43.8913 61.3106 44.1273 61.3106C44.3632 61.3106 44.5865 61.2178 44.7537 61.0506C44.9209 60.8834 45.0136 60.6601 45.0136 60.4242C45.0136 60.1883 44.9209 59.965 44.7537 59.7978C44.5865 59.6306 44.3632 59.5379 44.1273 59.5379V59.5367Z"
        fill="white" />
    <path
        d="M39.0013 66.5817C38.5295 66.5817 38.0863 66.3985 37.753 66.0652C37.0647 65.377 37.0647 64.2582 37.753 63.5699C38.0863 63.2367 38.5295 63.0535 39.0013 63.0535C39.4731 63.0535 39.9163 63.2367 40.2496 63.5699C40.5828 63.9032 40.766 64.3463 40.766 64.8181C40.766 65.29 40.5828 65.7331 40.2496 66.0664C39.9163 66.3996 39.4731 66.5828 39.0013 66.5828V66.5817ZM39.0013 63.9307C38.7642 63.9307 38.5421 64.0234 38.3749 64.1906C38.029 64.5364 38.029 65.0987 38.3749 65.4445C38.5421 65.6117 38.7654 65.7045 39.0013 65.7045C39.2372 65.7045 39.4605 65.6117 39.6277 65.4445C39.7949 65.2774 39.8877 65.0541 39.8877 64.8181C39.8877 64.5822 39.7949 64.3589 39.6277 64.1918C39.4605 64.0246 39.2372 63.9318 39.0013 63.9318V63.9307Z"
        fill="white" />
    <path
        d="M21.6823 56.7562C21.5701 56.7562 21.4579 56.7139 21.372 56.628C21.2002 56.4562 21.2002 56.1779 21.372 56.0073L27.1484 50.2323C27.1541 50.2254 27.1598 50.2197 27.1667 50.214L35.5278 41.8532C35.6996 41.6814 35.9768 41.6814 36.1485 41.8532C36.3203 42.025 36.3203 42.3021 36.1485 42.4739L27.8057 50.8163C27.8 50.8232 27.7943 50.8289 27.7874 50.8358L21.9938 56.628C21.908 56.7139 21.7957 56.7562 21.6835 56.7562H21.6823Z"
        fill="white" />
    <path
        d="M27.476 56.8868C27.2332 56.8868 27.0374 56.6898 27.0374 56.4482V50.5254C27.0374 50.2827 27.2343 50.0857 27.476 50.0857C27.7176 50.0857 27.9146 50.2815 27.9146 50.5243V56.4482C27.9146 56.6909 27.7176 56.8868 27.476 56.8868Z"
        fill="white" />
    <path
        d="M33.2009 45.2383H27.1622C26.9195 45.2383 26.7236 45.0413 26.7236 44.7997C26.7236 44.5581 26.9206 44.3611 27.1622 44.3611H33.2009C33.4437 44.3611 33.6395 44.5581 33.6395 44.7997C33.6395 45.0413 33.4425 45.2383 33.2009 45.2383Z"
        fill="white" />
    <path
        d="M25.837 46.5644C24.8636 46.5644 24.0723 45.7731 24.0723 44.7997C24.0723 43.8263 24.8636 43.035 25.837 43.035C26.8104 43.035 27.6018 43.8263 27.6018 44.7997C27.6018 45.7731 26.8104 46.5644 25.837 46.5644ZM25.837 43.9134C25.348 43.9134 24.9506 44.3107 24.9506 44.7997C24.9506 45.2887 25.348 45.6861 25.837 45.6861C26.326 45.6861 26.7234 45.2887 26.7234 44.7997C26.7234 44.3107 26.326 43.9134 25.837 43.9134Z"
        fill="white" />
    <path
        d="M27.4772 59.5378C26.5037 59.5378 25.7124 58.7465 25.7124 57.7731C25.7124 56.7997 26.5037 56.0084 27.4772 56.0084C28.4506 56.0084 29.2419 56.7997 29.2419 57.7731C29.2419 58.7465 28.4506 59.5378 27.4772 59.5378ZM27.4772 56.8868C26.9882 56.8868 26.5908 57.2841 26.5908 57.7731C26.5908 58.2621 26.9882 58.6595 27.4772 58.6595C27.9662 58.6595 28.3635 58.2621 28.3635 57.7731C28.3635 57.2841 27.9662 56.8868 27.4772 56.8868Z"
        fill="white" />
    <path
        d="M20.7445 59.0202C19.7711 59.0202 18.9797 58.2289 18.9797 57.2555C18.9797 56.2821 19.7711 55.4908 20.7445 55.4908C21.7179 55.4908 22.5092 56.2821 22.5092 57.2555C22.5092 58.2289 21.7179 59.0202 20.7445 59.0202ZM20.7445 56.3692C20.2555 56.3692 19.8581 56.7665 19.8581 57.2555C19.8581 57.7445 20.2555 58.1419 20.7445 58.1419C21.2335 58.1419 21.6309 57.7445 21.6309 57.2555C21.6309 56.7665 21.2335 56.3692 20.7445 56.3692Z"
        fill="white" />
    <path
        d="M22.7017 39.4391H14.5089C14.2661 39.4391 14.0703 39.2422 14.0703 38.9994C14.0703 38.7566 14.2673 38.5608 14.5089 38.5608H22.6765C22.6857 38.5608 22.6937 38.5608 22.7028 38.5608H34.527C34.7698 38.5608 34.9657 38.7578 34.9657 38.9994C34.9657 39.241 34.7687 39.438 34.527 39.438H22.728C22.7189 39.438 22.7109 39.438 22.7017 39.438V39.4391Z"
        fill="white" />
    <path
        d="M18.5136 43.6281C18.4014 43.6281 18.2892 43.5857 18.2033 43.4998C18.0315 43.328 18.0315 43.0509 18.2033 42.8791L22.3902 38.6924C22.5562 38.5241 22.8276 38.5184 23.0017 38.6799C23.1792 38.8448 23.1895 39.123 23.0235 39.3005C23.0235 39.3005 23.0166 39.3085 23.0131 39.312L18.8251 43.4998C18.7393 43.5857 18.627 43.6281 18.5148 43.6281H18.5136Z"
        fill="white" />
    <path
        d="M30.7986 39.4391C30.6864 39.4391 30.5741 39.3968 30.4882 39.3109L26.2189 35.0417C26.0471 34.87 26.0471 34.5928 26.2189 34.4211C26.3907 34.2493 26.669 34.2493 26.8396 34.4211L31.1089 38.6902C31.2807 38.862 31.2807 39.1391 31.1089 39.3109C31.023 39.3968 30.9108 39.4391 30.7986 39.4391Z"
        fill="white" />
    <path
        d="M25.5911 35.5571C25.1388 35.5571 24.6876 35.3853 24.3429 35.0406C23.6546 34.3524 23.6546 33.2336 24.3429 32.5454C25.0311 31.8571 26.1511 31.8571 26.8383 32.5454C27.5265 33.2336 27.5265 34.3524 26.8383 35.0406C26.4947 35.3842 26.0423 35.5571 25.59 35.5571H25.5911ZM25.5911 32.9072C25.3644 32.9072 25.1365 32.9931 24.9647 33.166C24.6189 33.5119 24.6189 34.0741 24.9647 34.42C25.3106 34.7658 25.8728 34.7658 26.2187 34.42C26.5646 34.0741 26.5646 33.5119 26.2187 33.166C26.0458 32.9931 25.819 32.9072 25.5923 32.9072H25.5911Z"
        fill="white" />
    <path
        d="M17.577 45.8909C17.1052 45.8909 16.662 45.7077 16.3287 45.3745C15.9955 45.0412 15.8123 44.5981 15.8123 44.1263C15.8123 43.6545 15.9955 43.2113 16.3287 42.878C16.662 42.5448 17.1052 42.3616 17.577 42.3616C18.0488 42.3616 18.492 42.5448 18.8253 42.878C19.5135 43.5663 19.5135 44.6851 18.8253 45.3733C18.492 45.7066 18.0488 45.8898 17.577 45.8898V45.8909ZM17.577 43.2399C17.34 43.2399 17.1178 43.3327 16.9506 43.4999C16.7834 43.667 16.6906 43.8904 16.6906 44.1263C16.6906 44.3622 16.7834 44.5855 16.9506 44.7527C17.1178 44.9198 17.3411 45.0126 17.577 45.0126C17.8129 45.0126 18.0362 44.9198 18.2034 44.7527C18.5493 44.4068 18.5493 43.8445 18.2034 43.4987C18.0362 43.3315 17.8129 43.2388 17.577 43.2388V43.2399Z"
        fill="white" />
    <path
        d="M13.1827 40.7641C12.7303 40.7641 12.2791 40.5924 11.9344 40.2477C11.2461 39.5594 11.2461 38.4406 11.9344 37.7524C12.6227 37.0641 13.7415 37.0641 14.4298 37.7524C15.1181 38.4406 15.1181 39.5594 14.4298 40.2477C14.0862 40.5912 13.6339 40.7641 13.1815 40.7641H13.1827ZM13.1827 38.1143C12.9559 38.1143 12.728 38.2001 12.5551 38.3731C12.2093 38.7189 12.2093 39.2812 12.5551 39.627C12.901 39.9728 13.4633 39.9728 13.8091 39.627C14.155 39.2812 14.155 38.7189 13.8091 38.3731C13.6362 38.2001 13.4094 38.1143 13.1827 38.1143Z"
        fill="white" />
    <path
        d="M35.8368 36.2751C35.7246 36.2751 35.6123 36.2327 35.5264 36.1468L27.1825 27.8044C27.1756 27.7987 27.1699 27.7929 27.1642 27.7872L21.3718 21.9939C21.2 21.8221 21.2 21.5438 21.3718 21.3732C21.5435 21.2014 21.8218 21.2014 21.9925 21.3732L27.7677 27.1494C27.7746 27.1551 27.7803 27.1608 27.786 27.1665L36.1471 35.5273C36.3189 35.6991 36.3189 35.9762 36.1471 36.148C36.0613 36.2339 35.949 36.2762 35.8368 36.2762V36.2751Z"
        fill="white" />
    <path
        d="M27.477 27.9143H21.5529C21.3101 27.9143 21.1143 27.7173 21.1143 27.4757C21.1143 27.2341 21.3112 27.0371 21.5529 27.0371H27.4759C27.7186 27.0371 27.9156 27.2341 27.9156 27.4757C27.9156 27.7173 27.7198 27.9143 27.477 27.9143Z"
        fill="white" />
    <path
        d="M33.2006 33.639C32.9578 33.639 32.762 33.442 32.762 33.2004V27.162C32.762 26.9192 32.9589 26.7234 33.2006 26.7234C33.4422 26.7234 33.6392 26.9204 33.6392 27.162V33.2004C33.6392 33.4432 33.4422 33.639 33.2006 33.639Z"
        fill="white" />
    <path
        d="M33.201 27.6005C32.2276 27.6005 31.4363 26.8092 31.4363 25.8358C31.4363 24.8625 32.2276 24.0712 33.201 24.0712C34.1745 24.0712 34.9658 24.8625 34.9658 25.8358C34.9658 26.8092 34.1745 27.6005 33.201 27.6005ZM33.201 24.9495C32.712 24.9495 32.3146 25.3469 32.3146 25.8358C32.3146 26.3248 32.712 26.7222 33.201 26.7222C33.69 26.7222 34.0874 26.3248 34.0874 25.8358C34.0874 25.3469 33.69 24.9495 33.201 24.9495Z"
        fill="white" />
    <path
        d="M20.2269 29.2404C19.2535 29.2404 18.4622 28.4491 18.4622 27.4757C18.4622 26.5024 19.2535 25.7111 20.2269 25.7111C21.2003 25.7111 21.9917 26.5024 21.9917 27.4757C21.9917 28.4491 21.2003 29.2404 20.2269 29.2404ZM20.2269 26.5894C19.7379 26.5894 19.3405 26.9868 19.3405 27.4757C19.3405 27.9647 19.7379 28.3621 20.2269 28.3621C20.7159 28.3621 21.1133 27.9647 21.1133 27.4757C21.1133 26.9868 20.7159 26.5894 20.2269 26.5894Z"
        fill="white" />
    <path
        d="M20.7445 22.5092C19.7711 22.5092 18.9797 21.7179 18.9797 20.7445C18.9797 19.7712 19.7711 18.9799 20.7445 18.9799C21.7179 18.9799 22.5092 19.7712 22.5092 20.7445C22.5092 21.7179 21.7179 22.5092 20.7445 22.5092ZM20.7445 19.8582C20.2555 19.8582 19.8581 20.2556 19.8581 20.7445C19.8581 21.2335 20.2555 21.6309 20.7445 21.6309C21.2335 21.6309 21.6309 21.2335 21.6309 20.7445C21.6309 20.2556 21.2335 19.8582 20.7445 19.8582Z"
        fill="white" />
    <path
        d="M28.2423 23.6979C27.2689 23.6979 26.4775 22.9066 26.4775 21.9333C26.4775 20.9599 27.2689 20.1686 28.2423 20.1686C29.2157 20.1686 30.0071 20.9599 30.0071 21.9333C30.0071 22.9066 29.2157 23.6979 28.2423 23.6979ZM28.2423 21.0469C27.7533 21.0469 27.3559 21.4443 27.3559 21.9333C27.3559 22.4222 27.7533 22.8196 28.2423 22.8196C28.7313 22.8196 29.1287 22.4222 29.1287 21.9333C29.1287 21.4443 28.7313 21.0469 28.2423 21.0469Z"
        fill="white" />
    <path
        d="M31.8758 14.9478C30.9024 14.9478 30.1111 14.1565 30.1111 13.1831C30.1111 12.2098 30.9024 11.4185 31.8758 11.4185C32.8493 11.4185 33.6406 12.2098 33.6406 13.1831C33.6406 14.1565 32.8493 14.9478 31.8758 14.9478ZM31.8758 12.2968C31.3868 12.2968 30.9895 12.6942 30.9895 13.1831C30.9895 13.6721 31.3868 14.0695 31.8758 14.0695C32.3648 14.0695 32.7622 13.6721 32.7622 13.1831C32.7622 12.6942 32.3648 12.2968 31.8758 12.2968Z"
        fill="white" />
    <path
        d="M25.8407 17.3939C24.8673 17.3939 24.0759 16.6026 24.0759 15.6292C24.0759 14.6558 24.8673 13.8645 25.8407 13.8645C26.8141 13.8645 27.6054 14.6558 27.6054 15.6292C27.6054 16.6026 26.8141 17.3939 25.8407 17.3939ZM25.8407 14.7428C25.3517 14.7428 24.9543 15.1402 24.9543 15.6292C24.9543 16.1182 25.3517 16.5155 25.8407 16.5155C26.3297 16.5155 26.7271 16.1182 26.7271 15.6292C26.7271 15.1402 26.3297 14.7428 25.8407 14.7428Z"
        fill="white" />
    <path
        d="M27.7714 21.134C27.5951 21.134 27.4279 21.0263 27.3615 20.8511L25.9025 17.024C25.8166 16.7973 25.93 16.5442 26.1567 16.4572C26.3835 16.3713 26.6365 16.4846 26.7236 16.7114L28.1826 20.5385C28.2685 20.7652 28.1551 21.0183 27.9283 21.1053C27.8768 21.1248 27.8241 21.134 27.7726 21.134H27.7714Z"
        fill="white" />
    <path
        d="M27.0684 15.5696C26.8943 15.5696 26.7305 15.4666 26.6607 15.2948C26.5702 15.0704 26.6779 14.8138 26.9035 14.7234L30.4822 13.2736C30.7067 13.1831 30.9632 13.2908 31.0537 13.5152C31.1441 13.7397 31.0365 13.9962 30.8109 14.0867L27.2321 15.5364C27.1783 15.5582 27.1222 15.5685 27.0672 15.5685L27.0684 15.5696Z"
        fill="white" />
    <path
        d="M43.4625 21.0893C43.0101 21.0893 42.5589 20.9176 42.2142 20.5729C41.5259 19.8846 41.5259 18.7658 42.2142 18.0776C42.9025 17.3893 44.0213 17.3893 44.7096 18.0776C45.3979 18.7658 45.3979 19.8846 44.7096 20.5729C44.366 20.9164 43.9137 21.0893 43.4613 21.0893H43.4625ZM43.4625 18.4394C43.2357 18.4394 43.0078 18.5253 42.836 18.6983C42.4902 19.0441 42.4902 19.6064 42.836 19.9522C43.1819 20.298 43.7442 20.298 44.09 19.9522C44.4359 19.6064 44.4359 19.0441 44.09 18.6983C43.9171 18.5253 43.6904 18.4394 43.4636 18.4394H43.4625Z"
        fill="white" />
    <path
        d="M52.2198 17.4706C51.748 17.4706 51.3048 17.2874 50.9715 16.9541C50.2833 16.2659 50.2833 15.1471 50.9715 14.4588C51.3048 14.1256 51.748 13.9424 52.2198 13.9424C52.6916 13.9424 53.1348 14.1256 53.4681 14.4588C53.8013 14.7921 53.9845 15.2353 53.9845 15.7071C53.9845 16.1789 53.8013 16.622 53.4681 16.9553C53.1348 17.2885 52.6916 17.4717 52.2198 17.4717V17.4706ZM52.2198 14.8196C51.9827 14.8196 51.7606 14.9123 51.5934 15.0795C51.2475 15.4254 51.2475 15.9876 51.5934 16.3335C51.7606 16.5007 51.9839 16.5934 52.2198 16.5934C52.4557 16.5934 52.679 16.5007 52.8462 16.3335C53.0134 16.1663 53.1062 15.943 53.1062 15.7071C53.1062 15.4712 53.0134 15.2479 52.8462 15.0807C52.679 14.9135 52.4557 14.8207 52.2198 14.8207V14.8196Z"
        fill="white" />
    <path
        d="M46.2225 14.9329C45.7507 14.9329 45.3075 14.7497 44.9743 14.4165C44.641 14.0832 44.4578 13.6401 44.4578 13.1682C44.4578 12.6964 44.641 12.2533 44.9743 11.92C45.3075 11.5868 45.7507 11.4036 46.2225 11.4036C46.6943 11.4036 47.1375 11.5868 47.4708 11.92C48.1591 12.6083 48.1591 13.7271 47.4708 14.4153C47.1375 14.7486 46.6943 14.9318 46.2225 14.9318V14.9329ZM46.2225 12.2819C45.9855 12.2819 45.7633 12.3747 45.5961 12.5418C45.4289 12.709 45.3361 12.9323 45.3361 13.1682C45.3361 13.4041 45.4289 13.6275 45.5961 13.7946C45.7633 13.9618 45.9866 14.0546 46.2225 14.0546C46.4584 14.0546 46.6817 13.9618 46.8489 13.7946C47.1948 13.4488 47.1948 12.8865 46.8489 12.5407C46.6817 12.3735 46.4584 12.2808 46.2225 12.2808V12.2819Z"
        fill="white" />
    <path
        d="M44.0042 18.5551C43.9446 18.5551 43.8828 18.5425 43.8244 18.5162C43.6034 18.4165 43.5037 18.1577 43.6034 17.9356L45.2777 14.1978C45.3773 13.9768 45.6361 13.8772 45.8583 13.9768C46.0793 14.0764 46.1789 14.3352 46.0793 14.5574L44.405 18.2952C44.3317 18.4578 44.1714 18.5551 44.0042 18.5551Z"
        fill="white" />
    <path
        d="M50.9993 15.6291C50.942 15.6291 50.8836 15.6177 50.8286 15.5948L47.2728 14.0889C47.0495 13.9938 46.9452 13.7362 47.0392 13.5129C47.1342 13.2896 47.3919 13.1854 47.6152 13.2793L51.171 14.7851C51.3944 14.8802 51.4986 15.1379 51.4047 15.3612C51.3337 15.5283 51.171 15.6291 51.0004 15.6291H50.9993Z"
        fill="white" />
    <path
        d="M56.0682 30.0067C55.0948 30.0067 54.3035 29.2154 54.3035 28.242C54.3035 27.2686 55.0948 26.4773 56.0682 26.4773C57.0416 26.4773 57.833 27.2686 57.833 28.242C57.833 29.2154 57.0416 30.0067 56.0682 30.0067ZM56.0682 27.3556C55.5792 27.3556 55.1818 27.753 55.1818 28.242C55.1818 28.731 55.5792 29.1283 56.0682 29.1283C56.5572 29.1283 56.9546 28.731 56.9546 28.242C56.9546 27.753 56.5572 27.3556 56.0682 27.3556Z"
        fill="white" />
    <path
        d="M64.8199 33.6391C63.8465 33.6391 63.0552 32.8478 63.0552 31.8744C63.0552 30.901 63.8465 30.1097 64.8199 30.1097C65.7934 30.1097 66.5847 30.901 66.5847 31.8744C66.5847 32.8478 65.7934 33.6391 64.8199 33.6391ZM64.8199 30.9881C64.3309 30.9881 63.9335 31.3854 63.9335 31.8744C63.9335 32.3634 64.3309 32.7608 64.8199 32.7608C65.3089 32.7608 65.7063 32.3634 65.7063 31.8744C65.7063 31.3854 65.3089 30.9881 64.8199 30.9881Z"
        fill="white" />
    <path
        d="M62.3736 27.6041C61.4002 27.6041 60.6089 26.8128 60.6089 25.8394C60.6089 24.866 61.4002 24.0747 62.3736 24.0747C63.3471 24.0747 64.1384 24.866 64.1384 25.8394C64.1384 26.8128 63.3471 27.6041 62.3736 27.6041ZM62.3736 24.953C61.8846 24.953 61.4873 25.3504 61.4873 25.8394C61.4873 26.3284 61.8846 26.7257 62.3736 26.7257C62.8626 26.7257 63.26 26.3284 63.26 25.8394C63.26 25.3504 62.8626 24.953 62.3736 24.953Z"
        fill="white" />
    <path
        d="M57.3076 28.2099C57.1312 28.2099 56.964 28.1022 56.8976 27.927C56.8117 27.7003 56.9251 27.4472 57.1518 27.3602L60.9791 25.9012C61.2058 25.8154 61.4589 25.9287 61.546 26.1555C61.6319 26.3822 61.5185 26.6353 61.2917 26.7223L57.4645 28.1813C57.4129 28.2007 57.3602 28.2099 57.3087 28.2099H57.3076Z"
        fill="white" />
    <path
        d="M64.3217 31.0865C64.1476 31.0865 63.9838 30.9835 63.914 30.8117L62.4641 27.2331C62.3737 27.0086 62.4813 26.7521 62.7069 26.6617C62.9314 26.5712 63.1879 26.6788 63.2784 26.9033L64.7282 30.4819C64.8187 30.7063 64.711 30.9629 64.4854 31.0533C64.4316 31.0751 64.3755 31.0854 64.3205 31.0854L64.3217 31.0865Z"
        fill="white" />
    <path
        d="M58.6768 45.2246C58.2245 45.2246 57.7733 45.0528 57.4286 44.7081C56.7403 44.0199 56.7403 42.9011 57.4286 42.2128C58.1168 41.5246 59.2357 41.5246 59.9239 42.2128C60.6122 42.9011 60.6122 44.0199 59.9239 44.7081C59.5804 45.0517 59.128 45.2246 58.6757 45.2246H58.6768ZM58.0504 44.0874C58.3962 44.4333 58.9585 44.4333 59.3044 44.0874C59.6502 43.7416 59.6502 43.1793 59.3044 42.8335C58.9585 42.4877 58.3962 42.4877 58.0504 42.8335C57.7045 43.1793 57.7045 43.7416 58.0504 44.0874Z"
        fill="white" />
    <path
        d="M62.296 53.9816C61.8241 53.9816 61.3809 53.7984 61.0477 53.4651C60.3594 52.7769 60.3594 51.6581 61.0477 50.9698C61.3809 50.6366 61.8241 50.4534 62.296 50.4534C62.7678 50.4534 63.211 50.6366 63.5442 50.9698C63.8775 51.3031 64.0607 51.7462 64.0607 52.2181C64.0607 52.6899 63.8775 53.133 63.5442 53.4663C63.211 53.7995 62.7678 53.9827 62.296 53.9827V53.9816ZM62.296 51.3306C62.0589 51.3306 61.8367 51.4233 61.6695 51.5905C61.3237 51.9363 61.3237 52.4986 61.6695 52.8445C61.8367 53.0116 62.0601 53.1044 62.296 53.1044C62.5319 53.1044 62.7552 53.0116 62.9224 52.8445C63.0896 52.6773 63.1824 52.454 63.1824 52.2181C63.1824 51.9822 63.0896 51.7588 62.9224 51.5917C62.7552 51.4245 62.5319 51.3317 62.296 51.3317V51.3306Z"
        fill="white" />
    <path
        d="M64.8336 47.9843C64.3618 47.9843 63.9186 47.8011 63.5853 47.4679C63.2521 47.1346 63.0688 46.6914 63.0688 46.2196C63.0688 45.7478 63.2521 45.3047 63.5853 44.9714C63.9186 44.6382 64.3618 44.455 64.8336 44.455C65.3054 44.455 65.7486 44.6382 66.0819 44.9714C66.7701 45.6597 66.7701 46.7785 66.0819 47.4667C65.7486 47.8 65.3054 47.9832 64.8336 47.9832V47.9843ZM64.8336 45.3333C64.5965 45.3333 64.3744 45.426 64.2072 45.5932C64.04 45.7604 63.9472 45.9837 63.9472 46.2196C63.9472 46.4555 64.04 46.6788 64.2072 46.846C64.3744 47.0132 64.5977 47.106 64.8336 47.106C65.0695 47.106 65.2928 47.0132 65.46 46.846C65.8059 46.5002 65.8059 45.9379 65.46 45.5921C65.2928 45.4249 65.0695 45.3321 64.8336 45.3321V45.3333Z"
        fill="white" />
    <path
        d="M63.624 46.1167C63.5644 46.1167 63.5026 46.1041 63.4442 46.0777L59.7062 44.4035C59.4852 44.3039 59.3856 44.0451 59.4852 43.8229C59.5848 43.6019 59.8437 43.5023 60.0658 43.6019L63.8038 45.2761C64.0248 45.3758 64.1244 45.6346 64.0248 45.8567C63.9515 46.0193 63.7912 46.1167 63.624 46.1167Z"
        fill="white" />
    <path
        d="M62.8123 51.4359C62.755 51.4359 62.6966 51.4245 62.6417 51.4016C62.4184 51.3065 62.3141 51.0488 62.4081 50.8255L63.914 47.2698C64.009 47.0465 64.2667 46.9423 64.49 47.0362C64.7133 47.1313 64.8176 47.3889 64.7236 47.6122L63.2177 51.1679C63.1467 51.3351 62.9841 51.4359 62.8135 51.4359H62.8123Z"
        fill="white" />
    <path
        d="M49.7599 57.8315C48.7865 57.8315 47.9951 57.0402 47.9951 56.0668C47.9951 55.0934 48.7865 54.3021 49.7599 54.3021C50.7333 54.3021 51.5246 55.0934 51.5246 56.0668C51.5246 57.0402 50.7333 57.8315 49.7599 57.8315ZM49.7599 55.1805C49.2709 55.1805 48.8735 55.5778 48.8735 56.0668C48.8735 56.5558 49.2709 56.9532 49.7599 56.9532C50.2489 56.9532 50.6463 56.5558 50.6463 56.0668C50.6463 55.5778 50.2489 55.1805 49.7599 55.1805Z"
        fill="white" />
    <path
        d="M46.1268 66.5816C45.1534 66.5816 44.3621 65.7903 44.3621 64.8169C44.3621 63.8435 45.1534 63.0522 46.1268 63.0522C47.1002 63.0522 47.8916 63.8435 47.8916 64.8169C47.8916 65.7903 47.1002 66.5816 46.1268 66.5816ZM46.1268 63.9306C45.6378 63.9306 45.2404 64.3279 45.2404 64.8169C45.2404 65.3059 45.6378 65.7033 46.1268 65.7033C46.6158 65.7033 47.0132 65.3059 47.0132 64.8169C47.0132 64.3279 46.6158 63.9306 46.1268 63.9306Z"
        fill="white" />
    <path
        d="M52.162 64.1356C51.1886 64.1356 50.3972 63.3443 50.3972 62.3709C50.3972 61.3975 51.1886 60.6062 52.162 60.6062C53.1354 60.6062 53.9267 61.3975 53.9267 62.3709C53.9267 63.3443 53.1354 64.1356 52.162 64.1356ZM52.162 61.4845C51.673 61.4845 51.2756 61.8819 51.2756 62.3709C51.2756 62.8599 51.673 63.2572 52.162 63.2572C52.651 63.2572 53.0484 62.8599 53.0484 62.3709C53.0484 61.8819 52.651 61.4845 52.162 61.4845Z"
        fill="white" />
    <path
        d="M51.6904 61.5716C51.514 61.5716 51.3468 61.4639 51.2804 61.2887L49.8214 57.4616C49.7355 57.2349 49.8489 56.9818 50.0757 56.8948C50.3024 56.8089 50.5555 56.9223 50.6425 57.149L52.1015 60.9761C52.1874 61.2029 52.074 61.4559 51.8473 61.543C51.7957 61.5624 51.7431 61.5716 51.6915 61.5716H51.6904Z"
        fill="white" />
    <path
        d="M47.3547 64.7585C47.1807 64.7585 47.0169 64.6554 46.9471 64.4836C46.8566 64.2592 46.9642 64.0027 47.1898 63.9122L50.7686 62.4624C50.993 62.372 51.2496 62.4796 51.34 62.7041C51.4305 62.9285 51.3229 63.185 51.0973 63.2755L47.5185 64.7253C47.4647 64.747 47.4086 64.7573 47.3536 64.7573L47.3547 64.7585Z"
        fill="white" />
    <path
        d="M34.5394 60.4391C34.0675 60.4391 33.6244 60.2559 33.2911 59.9226C32.6028 59.2344 32.6028 58.1156 33.2911 57.4274C33.6244 57.0941 34.0675 56.9109 34.5394 56.9109C35.0112 56.9109 35.4544 57.0941 35.7876 57.4274C36.1209 57.7606 36.3041 58.2038 36.3041 58.6756C36.3041 59.1474 36.1209 59.5905 35.7876 59.9238C35.4544 60.257 35.0112 60.4403 34.5394 60.4403V60.4391ZM34.5394 57.7881C34.3023 57.7881 34.0801 57.8808 33.9129 58.048C33.5671 58.3939 33.5671 58.9561 33.9129 59.302C34.0801 59.4692 34.3035 59.5619 34.5394 59.5619C34.7753 59.5619 34.9986 59.4692 35.1658 59.302C35.333 59.1348 35.4258 58.9115 35.4258 58.6756C35.4258 58.4397 35.333 58.2164 35.1658 58.0492C34.9986 57.882 34.7753 57.7892 34.5394 57.7892V57.7881Z"
        fill="white" />
    <path
        d="M25.7833 64.0578C25.3309 64.0578 24.8797 63.8861 24.535 63.5414C23.8467 62.8531 23.8467 61.7343 24.535 61.0461C25.2233 60.3578 26.3421 60.3578 27.0304 61.0461C27.7187 61.7343 27.7187 62.8531 27.0304 63.5414C26.6868 63.8849 26.2345 64.0578 25.7821 64.0578H25.7833ZM25.1568 61.6668C24.811 62.0126 24.811 62.5749 25.1568 62.9207C25.5027 63.2665 26.065 63.2665 26.4108 62.9207C26.7567 62.5749 26.7567 62.0126 26.4108 61.6668C26.065 61.3209 25.5027 61.3209 25.1568 61.6668Z"
        fill="white" />
    <path
        d="M31.7806 66.5966C31.3088 66.5966 30.8656 66.4134 30.5324 66.0802C30.1991 65.7469 30.0159 65.3037 30.0159 64.8319C30.0159 64.3601 30.1991 63.917 30.5324 63.5837C30.8656 63.2505 31.3088 63.0673 31.7806 63.0673C32.2524 63.0673 32.6956 63.2505 33.0289 63.5837C33.7172 64.272 33.7172 65.3908 33.0289 66.079C32.6956 66.4123 32.2524 66.5955 31.7806 66.5955V66.5966ZM31.7806 63.9456C31.5436 63.9456 31.3214 64.0384 31.1542 64.2055C30.987 64.3727 30.8942 64.596 30.8942 64.8319C30.8942 65.0678 30.987 65.2912 31.1542 65.4583C31.3214 65.6255 31.5447 65.7183 31.7806 65.7183C32.0165 65.7183 32.2398 65.6255 32.407 65.4583C32.7529 65.1125 32.7529 64.5502 32.407 64.2044C32.2398 64.0372 32.0165 63.9444 31.7806 63.9444V63.9456Z"
        fill="white" />
    <path
        d="M32.3226 64.0612C32.263 64.0612 32.2012 64.0486 32.1428 64.0223C31.9217 63.9227 31.8221 63.6638 31.9217 63.4417L33.596 59.7039C33.6957 59.4829 33.9545 59.3833 34.1766 59.4829C34.3977 59.5825 34.4973 59.8413 34.3977 60.0635L32.7234 63.8013C32.6501 63.9639 32.4898 64.0612 32.3226 64.0612Z"
        fill="white" />
    <path
        d="M30.5586 64.7552C30.5013 64.7552 30.4429 64.7438 30.388 64.7209L26.8321 63.215C26.6088 63.1199 26.5046 62.8623 26.5985 62.639C26.6935 62.4157 26.9512 62.3115 27.1745 62.4054L30.7304 63.9112C30.9537 64.0063 31.0579 64.2639 30.964 64.4873C30.893 64.6544 30.7304 64.7552 30.5597 64.7552H30.5586Z"
        fill="white" />
    <path
        d="M21.9344 51.5229C20.961 51.5229 20.1697 50.7316 20.1697 49.7582C20.1697 48.7848 20.961 47.9935 21.9344 47.9935C22.9079 47.9935 23.6992 48.7848 23.6992 49.7582C23.6992 50.7316 22.9079 51.5229 21.9344 51.5229ZM21.9344 48.8719C21.4454 48.8719 21.048 49.2692 21.048 49.7582C21.048 50.2472 21.4454 50.6446 21.9344 50.6446C22.4234 50.6446 22.8208 50.2472 22.8208 49.7582C22.8208 49.2692 22.4234 48.8719 21.9344 48.8719Z"
        fill="white" />
    <path
        d="M13.183 47.8893C12.2095 47.8893 11.4182 47.098 11.4182 46.1247C11.4182 45.1513 12.2095 44.36 13.183 44.36C14.1564 44.36 14.9477 45.1513 14.9477 46.1247C14.9477 47.098 14.1564 47.8893 13.183 47.8893ZM13.183 45.2383C12.694 45.2383 12.2966 45.6357 12.2966 46.1247C12.2966 46.6136 12.694 47.011 13.183 47.011C13.672 47.011 14.0694 46.6136 14.0694 46.1247C14.0694 45.6357 13.672 45.2383 13.183 45.2383Z"
        fill="white" />
    <path
        d="M15.629 53.9255C14.6556 53.9255 13.8643 53.1342 13.8643 52.1608C13.8643 51.1874 14.6556 50.3961 15.629 50.3961C16.6024 50.3961 17.3938 51.1874 17.3938 52.1608C17.3938 53.1342 16.6024 53.9255 15.629 53.9255ZM15.629 51.2745C15.14 51.2745 14.7426 51.6718 14.7426 52.1608C14.7426 52.6498 15.14 53.0471 15.629 53.0471C16.118 53.0471 16.5154 52.6498 16.5154 52.1608C16.5154 51.6718 16.118 51.2745 15.629 51.2745Z"
        fill="white" />
    <path
        d="M16.8681 52.1287C16.6918 52.1287 16.5246 52.0211 16.4581 51.8459C16.3722 51.6191 16.4856 51.366 16.7124 51.279L20.5396 49.8201C20.7664 49.7342 21.0195 49.8476 21.1065 50.0743C21.1924 50.301 21.079 50.5541 20.8523 50.6411L17.025 52.1001C16.9735 52.1195 16.9208 52.1287 16.8693 52.1287H16.8681Z"
        fill="white" />
    <path
        d="M15.1298 51.3718C14.9557 51.3718 14.7919 51.2688 14.7221 51.097L13.2722 47.5184C13.1818 47.2939 13.2894 47.0374 13.515 46.9469C13.7395 46.8565 13.996 46.9641 14.0865 47.1886L15.5363 50.7672C15.6268 50.9916 15.5191 51.2481 15.2935 51.3386C15.2397 51.3604 15.1836 51.3707 15.1286 51.3707L15.1298 51.3718Z"
        fill="white" />
    <path
        d="M19.3253 36.3039C18.8534 36.3039 18.4102 36.1206 18.077 35.7874C17.3887 35.0992 17.3887 33.9803 18.077 33.2921C18.4102 32.9589 18.8534 32.7756 19.3253 32.7756C19.7971 32.7756 20.2403 32.9589 20.5735 33.2921C20.9068 33.6253 21.09 34.0685 21.09 34.5403C21.09 35.0121 20.9068 35.4553 20.5735 35.7885C20.2403 36.1218 19.7971 36.305 19.3253 36.305V36.3039ZM19.3253 33.6528C19.0882 33.6528 18.866 33.7456 18.6988 33.9128C18.353 34.2586 18.353 34.8209 18.6988 35.1667C18.866 35.3339 19.0893 35.4267 19.3253 35.4267C19.5612 35.4267 19.7845 35.3339 19.9517 35.1667C20.1189 34.9995 20.2116 34.7762 20.2116 34.5403C20.2116 34.3044 20.12 34.0811 19.9517 33.9139C19.7845 33.7467 19.5612 33.654 19.3253 33.654V33.6528Z"
        fill="white" />
    <path
        d="M15.7066 27.5469C15.2543 27.5469 14.803 27.3751 14.4583 27.0304C13.7701 26.3422 13.7701 25.2233 14.4583 24.5351C15.1466 23.8469 16.2655 23.8469 16.9537 24.5351C17.642 25.2233 17.642 26.3422 16.9537 27.0304C16.6102 27.3739 16.1578 27.5469 15.7055 27.5469H15.7066ZM15.7066 24.897C15.4799 24.897 15.252 24.9829 15.0802 25.1558C14.7343 25.5016 14.7343 26.0639 15.0802 26.4097C15.426 26.7556 15.9883 26.7556 16.3342 26.4097C16.68 26.0639 16.68 25.5016 16.3342 25.1558C16.1613 24.9829 15.9345 24.897 15.7078 24.897H15.7066Z"
        fill="white" />
    <path
        d="M13.1675 33.544C12.7152 33.544 12.264 33.3723 11.9193 33.0276C11.231 32.3393 11.231 31.2205 11.9193 30.5323C12.6075 29.8441 13.7264 29.8441 14.4147 30.5323C15.1029 31.2205 15.1029 32.3393 14.4147 33.0276C14.0711 33.3711 13.6188 33.544 13.1664 33.544H13.1675ZM13.1675 30.8942C12.9408 30.8942 12.7129 30.98 12.5411 31.153C12.1953 31.4988 12.1953 32.0611 12.5411 32.4069C12.887 32.7527 13.4493 32.7527 13.7951 32.4069C14.141 32.0611 14.141 31.4988 13.7951 31.153C13.6222 30.98 13.3954 30.8942 13.1687 30.8942H13.1675Z"
        fill="white" />
    <path
        d="M18.1159 34.4361C18.0564 34.4361 17.9945 34.4235 17.9361 34.3972L14.1982 32.723C13.9772 32.6233 13.8775 32.3645 13.9772 32.1424C14.0756 31.9214 14.3367 31.8217 14.5578 31.9214L18.2957 33.5956C18.5167 33.6952 18.6164 33.954 18.5167 34.1762C18.4434 34.3388 18.2831 34.4361 18.1159 34.4361Z"
        fill="white" />
    <path
        d="M13.6827 30.9984C13.6254 30.9984 13.567 30.987 13.512 30.9641C13.2887 30.869 13.1845 30.6113 13.2784 30.388L14.7844 26.8323C14.8794 26.609 15.1371 26.5048 15.3604 26.5987C15.5837 26.6938 15.6879 26.9514 15.594 27.1747L14.0881 30.7304C14.0171 30.8976 13.8544 30.9984 13.6838 30.9984H13.6827Z"
        fill="white" />
    <path
        d="M100.15 19.75C104.025 19.75 107.1 17.8 107.45 13.425H103.8C103.3 15.625 101.875 16.525 100.075 16.525C97 16.525 95.75 13.975 95.75 10.75C95.75 7.525 97.025 5 100.075 5C101.875 5 103.3 5.9 103.8 8.075H107.45C107.1 3.725 104.025 1.775 100.2 1.775C95.125 1.775 91.925 5.1 91.925 10.75C91.925 16.425 95.125 19.75 100.15 19.75ZM114.665 19.75C117.94 19.75 121.19 17.725 121.19 13C121.19 8.275 117.94 6.25 114.665 6.25C111.39 6.25 108.14 8.275 108.14 13C108.14 17.725 111.39 19.75 114.665 19.75ZM111.565 13C111.565 10.425 112.915 9.275 114.665 9.275C116.415 9.275 117.765 10.425 117.765 13C117.765 15.575 116.415 16.725 114.665 16.725C112.915 16.725 111.565 15.575 111.565 13ZM138.844 12.125V19.5H142.494V11.25C142.494 7.875 140.669 6.25 138.194 6.25C135.744 6.25 134.319 8.025 134.069 9.225C133.469 7.225 131.944 6.25 130.144 6.25C127.869 6.25 126.544 8 126.344 9.225H126.194V6.5H122.544V19.5H126.194V12.125C126.194 10.15 127.244 9.275 128.544 9.275C129.869 9.275 130.694 10.15 130.694 12.125V19.5H134.344V12.125C134.344 10.15 135.394 9.275 136.694 9.275C138.019 9.275 138.844 10.15 138.844 12.125ZM160.778 12.125V19.5H164.428V11.25C164.428 7.875 162.603 6.25 160.128 6.25C157.678 6.25 156.253 8.025 156.003 9.225C155.403 7.225 153.878 6.25 152.078 6.25C149.803 6.25 148.478 8 148.278 9.225H148.128V6.5H144.478V19.5H148.128V12.125C148.128 10.15 149.178 9.275 150.478 9.275C151.803 9.275 152.628 10.15 152.628 12.125V19.5H156.278V12.125C156.278 10.15 157.328 9.275 158.628 9.275C159.953 9.275 160.778 10.15 160.778 12.125ZM172.311 19.75C175.586 19.75 178.836 17.725 178.836 13C178.836 8.275 175.586 6.25 172.311 6.25C169.036 6.25 165.786 8.275 165.786 13C165.786 17.725 169.036 19.75 172.311 19.75ZM169.211 13C169.211 10.425 170.561 9.275 172.311 9.275C174.061 9.275 175.411 10.425 175.411 13C175.411 15.575 174.061 16.725 172.311 16.725C170.561 16.725 169.211 15.575 169.211 13ZM188.966 12.125V19.5H192.616V11.25C192.616 7.875 190.666 6.25 188.141 6.25C185.466 6.25 184.216 8 183.991 9.225H183.841V6.5H180.191V19.5H183.841V12.125C183.841 10.15 185.041 9.275 186.566 9.275C188.091 9.275 188.966 10.15 188.966 12.125ZM92.3 38.5H96.05V34.25L98.425 31.475L103.8 38.5H108.1L100.725 28.8L107.425 21H103.025L96.05 29.225V21H92.3V38.5ZM117.491 31.125V38.5H121.141V30.25C121.141 26.875 119.191 25.25 116.666 25.25C113.991 25.25 112.741 27 112.516 28.225H112.366V25.5H108.716V38.5H112.366V31.125C112.366 29.15 113.566 28.275 115.091 28.275C116.616 28.275 117.491 29.15 117.491 31.125ZM129.006 38.75C132.281 38.75 135.531 36.725 135.531 32C135.531 27.275 132.281 25.25 129.006 25.25C125.731 25.25 122.481 27.275 122.481 32C122.481 36.725 125.731 38.75 129.006 38.75ZM125.906 32C125.906 29.425 127.256 28.275 129.006 28.275C130.756 28.275 132.106 29.425 132.106 32C132.106 34.575 130.756 35.725 129.006 35.725C127.256 35.725 125.906 34.575 125.906 32ZM138.997 38.5H143.097L145.447 30.35L147.822 38.5H151.897L155.372 25.5H151.922L149.697 34.975H149.597L147.022 25.5H143.872L141.297 34.975H141.197L138.972 25.5H135.522L138.997 38.5ZM156.475 38.5H160.125V21H156.475V38.5ZM168.025 38.75C171.05 38.75 173.35 37.225 174 34.25H170.775C170.475 35.3 169.75 35.975 168.075 35.975C166.275 35.975 165.15 35.1 164.95 32.925H174.1C174.15 32.65 174.175 32.4 174.175 31.925C174.175 27 171.35 25.25 168 25.25C164.55 25.25 161.475 27.125 161.475 31.975C161.475 36.925 164.725 38.75 168.025 38.75ZM164.95 30.775C165.2 28.975 166.2 28.025 167.9 28.025C169.9 28.025 170.675 29.275 170.725 30.775H164.95ZM180.71 38.75C182.635 38.75 184.06 37.75 184.535 36.625V38.5H188.185V21H184.535V27.375C184.06 26.25 182.635 25.25 180.71 25.25C177.985 25.25 175.01 27.225 175.01 32C175.01 36.775 177.985 38.75 180.71 38.75ZM178.46 32C178.46 29.45 179.96 28.275 181.585 28.275C183.185 28.275 184.685 29.45 184.685 32C184.685 34.55 183.185 35.725 181.585 35.725C179.96 35.725 178.46 34.55 178.46 32ZM195.846 43.725C198.471 43.725 202.521 42.85 202.521 38.025V25.5H198.871V27.025H198.821C198.196 26.05 196.821 25.25 195.046 25.25C192.446 25.25 189.546 27 189.546 31.7C189.546 36.45 192.421 38.175 195.046 38.175C196.821 38.175 198.196 37.375 198.821 36.4H198.871V38.025C198.871 40.05 197.471 40.9 195.746 40.9C194.571 40.9 193.121 40.5 193.046 39.25H189.821C189.846 43.075 193.571 43.725 195.846 43.725ZM192.996 31.7C192.996 29.375 194.396 28.275 196.046 28.275C197.646 28.275 199.046 29.375 199.046 31.7C199.046 34.05 197.646 35.125 196.046 35.125C194.396 35.125 192.996 34.05 192.996 31.7ZM210.413 38.75C213.438 38.75 215.738 37.225 216.387 34.25H213.163C212.863 35.3 212.138 35.975 210.463 35.975C208.663 35.975 207.538 35.1 207.338 32.925H216.488C216.538 32.65 216.563 32.4 216.563 31.925C216.563 27 213.738 25.25 210.388 25.25C206.938 25.25 203.863 27.125 203.863 31.975C203.863 36.925 207.113 38.75 210.413 38.75ZM207.338 30.775C207.588 28.975 208.588 28.025 210.288 28.025C212.288 28.025 213.063 29.275 213.113 30.775H207.338ZM92.3 57.5H99.7C104.325 57.5 106.275 55.2 106.275 52.375C106.275 50.2 105.15 48.575 102.55 47.875C104.2 47.35 105.075 46.275 105.075 44.375C105.075 41.725 103.3 40 99.4 40H92.3V57.5ZM96.05 54.35V49.475H99.575C101.675 49.475 102.4 50.625 102.4 51.95C102.4 53.225 101.675 54.35 99.575 54.35H96.05ZM96.05 47.1V43.15H99.25C100.375 43.15 101.325 43.65 101.325 45.075C101.325 46.5 100.375 47.1 99.25 47.1H96.05ZM111.167 57.75C114.017 57.75 115.067 55.9 115.317 55.2H115.467V57.5H118.942V48.475C118.942 45.65 117.367 44.25 113.442 44.25C109.392 44.25 107.692 45.7 107.692 48.25V48.85H111.117V48.6C111.117 47.25 112.167 46.875 113.342 46.875C114.467 46.875 115.367 47.25 115.367 48.625V48.8C115.367 49.525 114.992 49.725 113.792 49.9L111.592 50.225C109.342 50.55 106.992 51.175 106.992 54.05C106.992 56.725 109.042 57.75 111.167 57.75ZM110.642 53.75C110.642 53.075 111.017 52.525 112.142 52.35L113.967 52.025C114.542 51.925 115.167 51.825 115.367 51.525V52.975C115.367 54 114.142 55.15 112.417 55.15C111.167 55.15 110.642 54.55 110.642 53.75ZM125.783 57.75C128.933 57.75 131.608 56.5 131.608 53.6C131.608 51.3 129.908 50.35 127.858 49.9L125.408 49.375C124.533 49.2 124.058 48.775 124.058 48.125C124.058 47.425 124.633 46.975 125.883 46.975C127.133 46.975 127.983 47.45 128.133 48.75H131.183C131.133 45.95 129.308 44.25 125.833 44.25C122.683 44.25 120.508 45.7 120.508 48.225C120.508 49.95 121.483 51.4 124.208 52.025L126.608 52.525C127.458 52.7 127.858 53.075 127.858 53.675C127.858 54.6 127.033 55.025 125.808 55.025C124.383 55.025 123.558 54.45 123.433 53.225H120.158C120.183 56.225 122.308 57.75 125.783 57.75ZM138.757 57.75C141.782 57.75 144.082 56.225 144.732 53.25H141.507C141.207 54.3 140.482 54.975 138.807 54.975C137.007 54.975 135.882 54.1 135.682 51.925H144.832C144.882 51.65 144.907 51.4 144.907 50.925C144.907 46 142.082 44.25 138.732 44.25C135.282 44.25 132.207 46.125 132.207 50.975C132.207 55.925 135.457 57.75 138.757 57.75ZM135.682 49.775C135.932 47.975 136.932 47.025 138.632 47.025C140.632 47.025 141.407 48.275 141.457 49.775H135.682ZM147.704 57.75C148.929 57.75 149.929 56.8 149.929 55.575C149.929 54.375 148.929 53.4 147.704 53.4C146.504 53.4 145.504 54.375 145.504 55.575C145.504 56.8 146.504 57.75 147.704 57.75Z"
        fill="black" />
    <path
        d="M91.728 74.5H97.773V73.317H93.08V70.392H97.253V69.313H93.08V66.583H97.643V65.4H91.728V74.5ZM101.592 74.63C102.593 74.63 103.451 74.175 103.854 73.434V74.5H105.167V65.4H103.854V68.806C103.451 68.065 102.593 67.61 101.592 67.61C100.084 67.61 98.5759 68.663 98.5759 71.12C98.5759 73.564 100.084 74.63 101.592 74.63ZM99.8239 71.12C99.8239 69.469 100.812 68.715 101.865 68.715C102.905 68.715 103.919 69.469 103.919 71.12C103.919 72.771 102.905 73.525 101.865 73.525C100.812 73.525 99.8239 72.771 99.8239 71.12ZM107.933 71.653V67.74H106.62V71.952C106.62 73.863 107.686 74.63 109.012 74.63C110.52 74.63 111.17 73.655 111.287 73.148H111.326V74.5H112.639V67.74H111.326V71.653C111.326 72.862 110.585 73.525 109.519 73.525C108.453 73.525 107.933 72.862 107.933 71.653ZM117.074 74.63C118.283 74.63 119.804 74.11 120.025 72.069H118.829C118.647 73.122 117.919 73.512 117.061 73.512C115.826 73.512 115.007 72.654 115.007 71.133C115.007 69.612 115.826 68.728 117.061 68.728C117.906 68.728 118.647 69.105 118.829 70.145H120.025C119.778 68.13 118.283 67.61 117.074 67.61C115.371 67.61 113.772 68.689 113.772 71.133C113.772 73.577 115.371 74.63 117.074 74.63ZM123.017 74.63C124.681 74.63 125.318 73.668 125.448 73.408H125.5V74.5H126.735V69.963C126.735 68.325 125.851 67.61 123.94 67.61C122.081 67.61 121.132 68.286 121.132 69.638V69.911H122.393V69.755C122.393 68.897 122.939 68.611 123.914 68.611C124.863 68.611 125.422 68.897 125.422 69.976V70.158C125.422 70.366 125.214 70.483 124.59 70.561L122.913 70.756C121.704 70.899 120.755 71.432 120.755 72.732C120.755 74.071 121.756 74.63 123.017 74.63ZM122.068 72.667C122.068 72.134 122.38 71.835 123.225 71.731L124.499 71.562C125.162 71.484 125.331 71.393 125.422 71.25V71.991C125.422 72.719 124.772 73.603 123.342 73.603C122.523 73.603 122.068 73.304 122.068 72.667ZM130.534 74.591C130.846 74.591 131.132 74.552 131.379 74.487V73.499C131.171 73.525 131.054 73.525 130.898 73.525C130.17 73.525 129.949 73.226 129.949 72.563V68.78H131.288V67.74H129.949V66.037H128.636V67.74H127.531V68.78H128.636V72.784C128.636 74.11 129.403 74.591 130.534 74.591ZM132.442 74.5H133.755V67.74H132.442V74.5ZM132.312 65.79C132.312 66.232 132.676 66.57 133.092 66.57C133.508 66.57 133.872 66.232 133.872 65.79C133.872 65.361 133.508 65.01 133.092 65.01C132.676 65.01 132.312 65.361 132.312 65.79ZM138.173 74.63C139.863 74.63 141.475 73.538 141.475 71.12C141.475 68.702 139.863 67.61 138.173 67.61C136.496 67.61 134.884 68.702 134.884 71.12C134.884 73.538 136.496 74.63 138.173 74.63ZM136.132 71.12C136.132 69.456 137.081 68.715 138.173 68.715C139.265 68.715 140.227 69.456 140.227 71.12C140.227 72.784 139.265 73.525 138.173 73.525C137.081 73.525 136.132 72.784 136.132 71.12ZM147.317 70.587V74.5H148.63V70.288C148.63 68.377 147.564 67.61 146.238 67.61C144.73 67.61 144.08 68.585 143.963 69.092H143.924V67.74H142.611V74.5H143.924V70.587C143.924 69.378 144.665 68.715 145.731 68.715C146.797 68.715 147.317 69.378 147.317 70.587ZM158.843 74.5H160.182V65.4H158.843V69.456H154.436V65.4H153.084V74.5H154.436V70.574H158.843V74.5ZM162.954 71.653V67.74H161.641V71.952C161.641 73.863 162.707 74.63 164.033 74.63C165.541 74.63 166.191 73.655 166.308 73.148H166.347V74.5H167.66V67.74H166.347V71.653C166.347 72.862 165.606 73.525 164.54 73.525C163.474 73.525 162.954 72.862 162.954 71.653ZM172.694 74.63C174.202 74.63 175.71 73.564 175.71 71.12C175.71 68.663 174.202 67.61 172.694 67.61C171.693 67.61 170.835 68.065 170.432 68.806V65.4H169.119V74.5H170.432V73.434C170.835 74.175 171.693 74.63 172.694 74.63ZM170.367 71.12C170.367 69.469 171.381 68.715 172.421 68.715C173.474 68.715 174.462 69.469 174.462 71.12C174.462 72.771 173.474 73.525 172.421 73.525C171.381 73.525 170.367 72.771 170.367 71.12Z"
        fill="black" />
</svg>
    