<svg width="47" height="151" viewBox="0 0 47 151" fill="none" xmlns="http://www.w3.org/2000/svg">
    <rect x="0.5" y="104.5" width="45.9806" height="45.9806" stroke="black" />
    <path
        d="M35.7732 130.209L33.6757 128.778V124.483L35.7732 123.08C35.8866 122.995 35.9717 122.88 35.9717 122.737C35.9717 122.594 35.8866 122.451 35.7732 122.393L24.9739 115.064C24.8322 114.979 24.6338 114.979 24.4921 115.064L11.1701 124.054C11.1134 124.082 11.085 124.111 11.0567 124.168C11.0567 124.168 11.0567 124.168 11.0567 124.197C11 124.283 11 124.34 11 124.426V132.299C11 132.442 11.085 132.585 11.1984 132.642L21.9977 139.914C22.0828 139.971 22.1395 140 22.2245 140C22.3095 140 22.3946 139.971 22.4512 139.914L35.8016 130.925C35.915 130.839 36 130.724 36 130.581C35.9717 130.409 35.8866 130.266 35.7732 130.209ZM24.7472 115.952L34.7812 122.708L33.1372 123.796C33.0522 123.825 32.9671 123.882 32.9104 123.939L22.1961 131.154L14.1463 125.743C14.1179 125.714 14.0896 125.714 14.0896 125.686L12.1621 124.397L24.7472 115.952ZM14.288 126.888L21.941 132.041C22.0828 132.127 22.2812 132.127 22.4229 132.041L32.8254 125.027V128.549L22.2528 135.591L14.288 130.438V126.888ZM22.1961 139.027L11.822 132.041V125.228L13.466 126.315V130.667C13.466 130.81 13.551 130.953 13.6644 131.039L22.0544 136.479C22.1111 136.536 22.1961 136.536 22.2812 136.536C22.3662 136.536 22.4512 136.507 22.5079 136.479L33.1088 129.436L34.7812 130.581L22.1961 139.027Z"
        fill="black" />
    <path
        d="M23.1959 119.909L28.3415 123.902C28.4283 123.967 28.515 124 28.5728 124C28.7174 124 28.833 123.935 28.9197 123.771C29.0642 123.542 29.0064 123.247 28.8041 123.084L23.6874 119.091C23.485 118.927 23.2248 118.993 23.0803 119.222C22.9358 119.451 22.9936 119.745 23.1959 119.909Z"
        fill="black" />
    <rect x="0.5" y="52.5" width="45.9806" height="45.9806" stroke="black" />
    <path
        d="M36.7806 71.0758L23.2738 62.0828C23.1081 61.9724 22.8923 61.9724 22.7265 62.0828L9.21972 71.0758C9.08256 71.1671 9 71.3212 9 71.4858C9 71.6504 9.08223 71.8044 9.21972 71.8958L11.2712 73.2617V80.4601C11.2712 80.628 11.3567 80.7843 11.4982 80.875L22.8127 88.1194C22.8939 88.1713 22.9864 88.1973 23.0791 88.1973C23.1761 88.1973 23.2735 88.1687 23.357 88.1115L29.2602 84.0894V86.8941L27.061 91.2868C26.9847 91.4396 26.9929 91.6212 27.0824 91.7664C27.1722 91.9113 27.3314 92 27.5021 92H32.0047C32.1757 92 32.3346 91.9113 32.4244 91.7664C32.5139 91.6212 32.5224 91.4396 32.4458 91.2868L30.2466 86.8941V83.4169L33.9887 80.8671C34.1233 80.7755 34.2038 80.623 34.2038 80.4601V73.6112L36.7803 71.8958C36.9174 71.8044 37 71.6504 37 71.4858C37 71.3212 36.9178 71.1671 36.7806 71.0758ZM28.3007 91.0145L29.7536 88.1125L31.2064 91.0145H28.3007ZM23.0706 87.1139L12.258 80.1907V73.9187L22.7265 80.8891C22.8094 80.9443 22.9048 80.9719 23.0002 80.9719C23.0956 80.9719 23.1909 80.9443 23.2738 80.8891L29.2602 76.9031V82.8963L23.0706 87.1139ZM33.2174 80.1999L30.2469 82.2241V76.2461L33.2174 74.2682V80.1999ZM33.5394 72.8694C33.4667 72.8964 33.4026 72.9394 33.3506 72.9952L29.7536 75.3903L23.2738 71.0758C23.0465 70.9247 22.7406 70.9861 22.5897 71.2125C22.4387 71.4388 22.4999 71.745 22.7265 71.8958L28.8642 75.9823L23.0002 79.8869L10.3828 71.4858L23.0002 63.085L35.6175 71.4858L33.5394 72.8694Z"
        fill="black" />
    <rect x="0.5" y="0.5" width="45.9806" height="45.9806" stroke="black" />
    <path
        d="M23.4807 27.0562C22.1494 27.0562 21.0645 25.9713 21.0645 24.64C21.0645 23.3087 22.1494 22.2238 23.4807 22.2238C24.812 22.2238 25.8969 23.3071 25.8969 24.64C25.8969 25.9729 24.8136 27.0562 23.4807 27.0562Z"
        fill="#DDE3E3" />
    <path
        d="M17.8224 37.6742C17.3814 37.6742 16.9805 37.5744 16.6264 37.3732C15.9358 36.982 15.4835 36.2464 15.2823 35.1871C15.0971 34.2197 15.1277 33.0124 15.3708 31.5974C15.865 28.7304 17.185 25.3032 19.0877 21.9453C20.9904 18.5873 23.2538 15.693 25.4591 13.7967C26.5473 12.8598 27.5679 12.2143 28.4935 11.8746C29.5061 11.5044 30.3689 11.5157 31.0595 11.9068C31.7501 12.298 32.2008 13.0321 32.4036 14.0913C32.5887 15.0587 32.5582 16.2661 32.3151 17.681C31.8209 20.548 30.5009 23.9768 28.5982 27.3347C26.6954 30.6927 24.4321 33.5854 22.2267 35.4833C21.1369 36.4186 20.1163 37.0657 19.1923 37.4038C18.6998 37.5841 18.2431 37.6742 17.8224 37.6742ZM29.8602 12.2497C29.5173 12.2497 29.1342 12.327 28.7141 12.4799C27.8625 12.7922 26.9079 13.3991 25.8793 14.2845C24.8506 15.1698 23.7721 16.316 22.7193 17.6553C21.6263 19.0445 20.5928 20.5947 19.6479 22.2624C18.703 23.9301 17.9045 25.6123 17.2735 27.2655C16.665 28.856 16.2384 30.3514 16.005 31.7068C15.7716 33.0623 15.7443 34.1762 15.9149 35.0664C16.0791 35.9308 16.4252 36.5184 16.9435 36.813C17.4619 37.1076 18.1444 37.1011 18.9702 36.7985C19.8234 36.4878 20.7763 35.8793 21.8066 34.994C22.8368 34.1086 23.9122 32.9641 24.9649 31.6247C26.0596 30.2339 27.093 28.6837 28.038 27.016C28.9829 25.3483 29.7813 23.6661 30.4123 22.0145C31.0192 20.4225 31.4458 18.9286 31.6792 17.5716C31.9126 16.2145 31.9416 15.1038 31.771 14.212C31.6068 13.3476 31.2591 12.76 30.7407 12.467C30.4864 12.3222 30.1918 12.2497 29.8602 12.2497Z"
        fill="#323150" />
    <path
        d="M17.8224 37.6742C17.3814 37.6742 16.9805 37.5744 16.6264 37.3732C15.9358 36.982 15.4835 36.2464 15.2823 35.1871C15.0971 34.2197 15.1277 33.0124 15.3708 31.5974C15.865 28.7304 17.185 25.3032 19.0877 21.9453C20.9904 18.5873 23.2538 15.693 25.4591 13.7967C26.5473 12.8598 27.5679 12.2143 28.4935 11.8746C29.5061 11.5044 30.3689 11.5157 31.0595 11.9068C31.7501 12.298 32.2008 13.0321 32.4036 14.0913C32.5887 15.0587 32.5582 16.2661 32.3151 17.681C31.8209 20.548 30.5009 23.9768 28.5982 27.3347C26.6954 30.6927 24.4321 33.5854 22.2267 35.4833C21.1369 36.4186 20.1163 37.0657 19.1923 37.4038C18.6998 37.5841 18.2431 37.6742 17.8224 37.6742ZM29.8602 12.2497C29.5173 12.2497 29.1342 12.327 28.7141 12.4799C27.8625 12.7922 26.9079 13.3991 25.8793 14.2845C24.8506 15.1698 23.7721 16.316 22.7193 17.6553C21.6263 19.0445 20.5928 20.5947 19.6479 22.2624C18.703 23.9301 17.9045 25.6123 17.2735 27.2655C16.665 28.856 16.2384 30.3514 16.005 31.7068C15.7716 33.0623 15.7443 34.1762 15.9149 35.0664C16.0791 35.9308 16.4252 36.5184 16.9435 36.813C17.4619 37.1076 18.1444 37.1011 18.9702 36.7985C19.8234 36.4878 20.7763 35.8793 21.8066 34.994C22.8368 34.1086 23.9122 32.9641 24.9649 31.6247C26.0596 30.2339 27.093 28.6837 28.038 27.016C28.9829 25.3483 29.7813 23.6661 30.4123 22.0145C31.0192 20.4225 31.4458 18.9286 31.6792 17.5716C31.9126 16.2145 31.9416 15.1038 31.771 14.212C31.6068 13.3476 31.2591 12.76 30.7407 12.467C30.4864 12.3222 30.1918 12.2497 29.8602 12.2497Z"
        fill="#323150" />
    <path
        d="M30.0228 37.576C29.6171 37.576 29.175 37.4934 28.6963 37.3281C27.7675 37.0029 26.7356 36.3735 25.633 35.4559C23.397 33.5935 21.0886 30.7361 19.1311 27.4104C17.1737 24.0846 15.8006 20.6768 15.2597 17.8179C14.9941 16.4077 14.9442 15.2004 15.1132 14.2297C15.2983 13.1673 15.7394 12.4252 16.4235 12.0227C17.1077 11.6203 17.9705 11.5978 18.9879 11.9519C19.9183 12.2755 20.9502 12.9049 22.0529 13.824C24.2888 15.6849 26.5972 18.5422 28.553 21.8696C30.5089 25.197 31.8852 28.6032 32.4245 31.4605C32.6917 32.8723 32.74 34.0796 32.571 35.0487C32.3859 36.1111 31.9464 36.8532 31.2623 37.2557C30.8985 37.4703 30.4853 37.5771 30.0228 37.576ZM17.6647 12.3479C17.3186 12.3479 17.0111 12.4236 16.7503 12.5781C16.2368 12.8807 15.8988 13.4731 15.7474 14.3408C15.5929 15.2342 15.6412 16.3642 15.8939 17.6987C16.1467 19.0332 16.599 20.5383 17.2316 22.1191C17.89 23.7611 18.7158 25.432 19.6865 27.0836C20.6572 28.7352 21.7164 30.2693 22.832 31.6408C23.9057 32.964 24.9874 34.0796 26.045 34.9601C27.1027 35.8407 28.0524 36.4218 28.9088 36.7196C29.7652 37.0174 30.422 37.0029 30.9355 36.7003C31.449 36.3977 31.7854 35.8053 31.9368 34.9376C32.0929 34.0442 32.0446 32.9141 31.7919 31.5797C31.5391 30.2452 31.0868 28.74 30.4526 27.1593C29.7958 25.5173 28.97 23.848 27.9993 22.1948C27.0286 20.5416 25.9694 19.0107 24.8538 17.6376C23.7785 16.3159 22.6984 15.1988 21.6408 14.3182C20.5831 13.4377 19.6334 12.8582 18.777 12.5604C18.3697 12.4187 17.9979 12.3479 17.6647 12.3479Z"
        fill="#323150" />
    <path
        d="M23.5562 30.1051C19.82 30.1051 16.3107 29.5948 13.6433 28.6612C12.2895 28.1863 11.2191 27.6261 10.4625 26.9935C9.63667 26.3029 9.2133 25.5495 9.20686 24.7575C9.20042 23.9655 9.61091 23.2041 10.4271 22.499C11.1724 21.8551 12.2332 21.2772 13.5806 20.7814C16.3107 19.7753 19.9391 19.2055 23.7993 19.1749C27.6595 19.1443 31.2959 19.6562 34.0406 20.6172C35.396 21.0921 36.4665 21.6539 37.2214 22.2849C38.0489 22.9771 38.4722 23.7289 38.4787 24.5225C38.4851 25.3161 38.0746 26.0743 37.2585 26.7794C36.5115 27.4233 35.4507 28.0012 34.105 28.497C31.3748 29.5031 27.7464 30.0729 23.8862 30.1051H23.5562ZM23.8041 19.8188C21.8869 19.8333 20.0309 19.983 18.2843 20.2631C16.6021 20.5319 15.0953 20.9102 13.8027 21.3867C12.5101 21.8632 11.5346 22.3944 10.8488 22.9868C10.1631 23.5792 9.84593 24.1555 9.85076 24.7511C9.85559 25.3467 10.2001 25.9359 10.8762 26.4993C11.5523 27.0627 12.5745 27.6052 13.8574 28.0527C15.1404 28.5002 16.6681 28.8624 18.3551 29.1039C20.1049 29.3566 21.9658 29.4757 23.8814 29.4612C25.797 29.4467 27.6547 29.2954 29.4013 29.0153C31.0834 28.7465 32.5902 28.3682 33.8812 27.8933C35.1722 27.4184 36.151 26.8856 36.8367 26.2916C37.5225 25.6976 37.8396 25.1229 37.8348 24.5273C37.8299 23.9317 37.4838 23.3441 36.8093 22.7791C36.1349 22.2141 35.1094 21.6748 33.8281 21.2257C32.5467 20.7766 31.0158 20.4176 29.3304 20.1745C27.579 19.9234 25.7197 19.8027 23.8041 19.8188Z"
        fill="#323150" />
    <path
        d="M23.4807 23.4086C23.2372 23.4086 22.9991 23.4808 22.7966 23.6161C22.5941 23.7514 22.4362 23.9438 22.343 24.1688C22.2498 24.3938 22.2254 24.6414 22.2729 24.8803C22.3204 25.1192 22.4377 25.3386 22.61 25.5108C22.7822 25.683 23.0016 25.8003 23.2405 25.8478C23.4794 25.8954 23.727 25.871 23.952 25.7778C24.177 25.6846 24.3693 25.5267 24.5047 25.3242C24.64 25.1217 24.7122 24.8836 24.7122 24.64C24.7122 24.3134 24.5825 24.0002 24.3515 23.7693C24.1206 23.5383 23.8073 23.4086 23.4807 23.4086Z"
        fill="black" />
    <path
        d="M30.9549 13.4377C31.6981 13.4377 32.3006 12.8352 32.3006 12.092C32.3006 11.3487 31.6981 10.7462 30.9549 10.7462C30.2116 10.7462 29.6091 11.3487 29.6091 12.092C29.6091 12.8352 30.2116 13.4377 30.9549 13.4377Z"
        fill="#18EFB1" />
    <path
        d="M31.0579 38.2538C31.8012 38.2538 32.4037 37.6513 32.4037 36.908C32.4037 36.1648 31.8012 35.5623 31.0579 35.5623C30.3147 35.5623 29.7122 36.1648 29.7122 36.908C29.7122 37.6513 30.3147 38.2538 31.0579 38.2538Z"
        fill="#5700FF" />
    <path
        d="M9.34576 25.6915C10.089 25.6915 10.6915 25.089 10.6915 24.3458C10.6915 23.6025 10.089 23 9.34576 23C8.60252 23 8 23.6025 8 24.3458C8 25.089 8.60252 25.6915 9.34576 25.6915Z"
        fill="#A1FDE2" />
</svg>
    