<svg width="98" height="98" viewBox="0 0 98 98" fill="none" xmlns="http://www.w3.org/2000/svg">
<rect x="51.5" y="51.5" width="45.9806" height="45.9806" stroke="black"/>
<path d="M91.0128 76.7689L91.4847 76.3301C91.8569 75.9805 92.0397 75.5274 91.9928 75.0704C91.9459 74.6135 91.6732 74.1901 91.2346 73.8933L91.2079 73.8751C90.8266 73.6176 90.3456 73.4727 89.8459 73.4648C89.3462 73.457 88.8584 73.5866 88.4646 73.8319V62.3428C88.4646 62.2519 88.4193 62.1647 88.3386 62.1004C88.258 62.0361 88.1485 62 88.0344 62H64.0775C63.9634 62 63.854 62.0361 63.7733 62.1004C63.6926 62.1647 63.6473 62.2519 63.6473 62.3428V64.1366H61.4302C61.3161 64.1366 61.2067 64.1727 61.126 64.237C61.0453 64.3013 61 64.3885 61 64.4794V86.5939C60.9999 86.6389 61.0109 86.6836 61.0325 86.7253C61.0541 86.7669 61.0858 86.8048 61.1257 86.8367C61.1657 86.8686 61.2131 86.8939 61.2654 86.9112C61.3176 86.9284 61.3736 86.9373 61.4302 86.9373H77.3171C77.3344 86.9373 77.3509 86.9373 77.3674 86.9373C77.4405 86.9781 77.5275 87 77.6167 87C77.6666 86.9999 77.7161 86.9929 77.763 86.9793L81.0922 86.0179L81.1032 86.0135L81.1347 86.0028L81.1512 85.9959L81.1818 85.9815L81.1952 85.974C81.2059 85.968 81.2162 85.9615 81.2259 85.9546L81.2361 85.9477C81.2494 85.9382 81.2618 85.928 81.2731 85.917L90.4411 77.306C90.616 77.5207 90.6994 77.7746 90.679 78.0301C90.6587 78.2856 90.5355 78.529 90.3278 78.7243L87.7033 81.1894C87.6668 81.2237 87.6391 81.2635 87.6218 81.3064C87.6045 81.3493 87.598 81.3945 87.6026 81.4394C87.6073 81.4843 87.623 81.528 87.6488 81.5681C87.6746 81.6081 87.7101 81.6438 87.7533 81.6729C87.7964 81.702 87.8463 81.7241 87.9001 81.7379C87.9539 81.7517 88.0107 81.7568 88.067 81.7531C88.1233 81.7494 88.1782 81.7369 88.2285 81.7163C88.2788 81.6957 88.3235 81.6675 88.36 81.6331L90.9845 79.1687C91.3407 78.8345 91.5386 78.4113 91.5437 77.9729C91.5489 77.5344 91.361 77.1084 91.0128 76.7689ZM89.6939 74.1528C89.8652 74.1412 90.0377 74.1568 90.2013 74.1988C90.3649 74.2407 90.5165 74.3082 90.6471 74.3972L90.6739 74.4154C90.9382 74.5945 91.1026 74.8498 91.1309 75.1254C91.1592 75.4009 91.0491 75.6742 90.8249 75.8851L90.1044 76.5658L88.8964 77.7002L86.8744 76.3326L88.806 74.5194C88.9162 74.4146 89.0515 74.3282 89.2039 74.2652C89.3563 74.2023 89.5228 74.1641 89.6939 74.1528ZM80.8971 85.2062L78.8751 83.8361L86.3144 76.8541L88.3357 78.2217L80.8971 85.2062ZM64.5085 62.6863H87.6003V74.5458C87.5991 74.5581 87.5991 74.5704 87.6003 74.5827L85.933 76.1496L85.8111 76.2637V64.4807C85.8115 64.3902 85.767 64.3032 85.6873 64.2388C85.6076 64.1743 85.4991 64.1376 85.3856 64.1366H64.5085V62.6863ZM77.2746 86.2485H61.8596V64.8229H84.953V77.0227C84.9531 77.0376 84.9544 77.0524 84.9569 77.0672L77.94 83.6563C77.9286 83.6668 77.918 83.6779 77.9085 83.6895L77.9022 83.6976C77.8949 83.7069 77.8883 83.7165 77.8826 83.7265C77.8804 83.729 77.8786 83.7318 77.8771 83.7346C77.87 83.7464 77.864 83.7585 77.859 83.771C77.8537 83.7845 77.8495 83.7983 77.8464 83.8123L77.2746 86.2485ZM78.555 84.5256L80.102 85.5723L78.1799 86.1276L78.555 84.5256Z" fill="black"/>
<rect x="0.5" y="0.5" width="45.9806" height="45.9806" stroke="black"/>
<path d="M27.0001 17V33.903C26.9982 34.0846 27.0467 34.2638 27.1411 34.4238C27.2355 34.5839 27.3727 34.7196 27.54 34.8185L29.19 35.816C29.3499 35.9132 29.533 35.974 29.724 35.9933C29.9151 36.0126 30.1084 35.9899 30.2877 35.9269C30.4671 35.864 30.6272 35.7627 30.7546 35.6316C30.8821 35.5006 30.9731 35.3435 31.02 35.1738L33 27.9316" stroke="black" stroke-linecap="round" stroke-linejoin="round"/>
<path d="M32.4 27.5985C33.8852 27.5985 35.3096 27.0087 36.3598 25.9588C37.41 24.9088 38 23.4848 38 22C38 20.5152 37.41 19.0912 36.3598 18.0412C35.3096 16.9913 33.8852 16.4015 32.4 16.4015H26.8C26.8 16.4015 19.17 16.4015 11.834 10.2571C11.6708 10.1221 11.4727 10.0361 11.2627 10.0091C11.0526 9.98215 10.8392 10.0153 10.6472 10.1047C10.4552 10.194 10.2925 10.336 10.1779 10.5141C10.0634 10.6922 10.0017 10.8991 10 11.1108V32.8892C10.0017 33.1009 10.0634 33.3078 10.1779 33.4859C10.2925 33.664 10.4552 33.806 10.6472 33.8953C10.8392 33.9847 11.0526 34.0179 11.2627 33.9909C11.4727 33.9639 11.6708 33.8779 11.834 33.7429C19.17 27.5985 26.8 27.5985 26.8 27.5985H32.4Z" stroke="black" stroke-linecap="round" stroke-linejoin="round"/>
</svg>
