<svg width="20" height="29" viewBox="0 0 20 29" fill="none" xmlns="http://www.w3.org/2000/svg">
  <path d="M10 28.4985C7.34784 28.4985 4.8043 27.4449 2.92893 25.5695C1.05357 23.6942 0 21.1506 0 18.4985C0 15.4985 1.93 3.82848 2 3.33848C2.03367 3.12107 2.13809 2.92083 2.29709 2.76878C2.45609 2.61673 2.6608 2.52136 2.8795 2.49744C3.09819 2.47352 3.31867 2.52239 3.50678 2.63647C3.69489 2.75056 3.84013 2.92349 3.92 3.12848L6.77 10.2585L9.02 1.25848C9.07419 1.04225 9.19908 0.850334 9.37482 0.713201C9.55056 0.576068 9.76709 0.501587 9.99 0.501587C10.2129 0.501587 10.4294 0.576068 10.6052 0.713201C10.7809 0.850334 10.9058 1.04225 10.96 1.25848L13.21 10.2585L16.06 3.12848C16.1334 2.91354 16.2777 2.72997 16.4693 2.60798C16.6608 2.48598 16.8882 2.43283 17.114 2.45728C17.3398 2.48172 17.5506 2.58229 17.7116 2.74245C17.8726 2.90262 17.9743 3.11282 18 3.33848C18.07 3.82848 20 15.4985 20 18.4985C20 21.1506 18.9464 23.6942 17.0711 25.5695C15.1957 27.4449 12.6522 28.4985 10 28.4985ZM3.42 7.22848C2.83 10.9885 2 16.6285 2 18.4985C2 20.6202 2.84285 22.655 4.34315 24.1553C5.84344 25.6556 7.87827 26.4985 10 26.4985C12.1217 26.4985 14.1566 25.6556 15.6569 24.1553C17.1571 22.655 18 20.6202 18 18.4985C18 16.6285 17.17 10.9885 16.58 7.22848L13.93 13.8685C13.8519 14.0661 13.7128 14.2337 13.533 14.347C13.3532 14.4603 13.142 14.5134 12.93 14.4985C12.7189 14.4834 12.518 14.4016 12.3562 14.2651C12.1945 14.1285 12.0803 13.9441 12.03 13.7385L10 5.61848L8 13.7385C7.94974 13.9441 7.83551 14.1285 7.67378 14.2651C7.51205 14.4016 7.31115 14.4834 7.1 14.4985C6.888 14.5134 6.67678 14.4603 6.49697 14.347C6.31716 14.2337 6.17811 14.0661 6.1 13.8685L3.42 7.22848Z" fill="black" />
  <path d="M14.9399 19.8484C14.9198 19.6858 14.8599 19.5306 14.7657 19.3965C14.6715 19.2625 14.5457 19.1536 14.3995 19.0795C14.2534 19.0054 14.0912 18.9684 13.9274 18.9717C13.7635 18.975 13.603 19.0185 13.4599 19.0984C13.0172 19.3587 12.5134 19.4967 11.9999 19.4984C11.2674 19.5047 10.558 19.2427 10.0054 18.7619C9.45275 18.2811 9.09512 17.6147 8.99992 16.8884C8.97841 16.7274 8.91799 16.5741 8.82391 16.4417C8.72982 16.3092 8.60489 16.2017 8.45992 16.1284C8.31524 16.0514 8.15383 16.0111 7.98992 16.0111C7.826 16.0111 7.6646 16.0514 7.51992 16.1284C6.75802 16.5637 6.12406 17.1917 5.68175 17.9496C5.23943 18.7074 5.00433 19.5682 5.00006 20.4457C4.99579 21.3231 5.2225 22.1862 5.65742 22.9483C6.09234 23.7104 6.72014 24.3446 7.47777 24.7872C8.2354 25.2299 9.09618 25.4653 9.97361 25.4699C10.8511 25.4746 11.7143 25.2482 12.4765 24.8136C13.2388 24.379 13.8732 23.7515 14.3162 22.994C14.7591 22.2366 14.9949 21.3759 14.9999 20.4984C14.9958 20.2806 14.9758 20.0634 14.9399 19.8484Z" fill="black" />
  <path d="M18.51 21.4085L18 17.7285C18 19.9785 13.85 23.8485 10 23.8485C6.15 23.8485 1.65 18.6285 2.09 16.9485L1 17.7085C1 18.0085 1 18.2785 1 18.4985C1.00451 20.6264 1.76282 22.6838 3.14032 24.3056C4.51782 25.9275 6.42541 27.0088 8.5245 27.3576C10.6236 27.7065 12.7784 27.3003 14.6064 26.2112C16.4345 25.1221 17.8175 23.4205 18.51 21.4085Z" fill="black" />
</svg>

