<svg width="20" height="20" viewBox="0 0 20 20" fill="none" xmlns="http://www.w3.org/2000/svg">
  <path fill-rule="evenodd" clip-rule="evenodd" d="M10 0C15.5191 0 20 4.48086 20 10C20 15.5191 15.5191 20 10 20C4.48086 20 0 15.5191 0 10C0 4.48086 4.48086 0 10 0ZM6.87355 15.62V7.81055H4.2773V15.62H6.87355ZM16.2337 15.62V11.1416C16.2337 8.74281 14.953 7.62691 13.2451 7.62691C11.8679 7.62691 11.2511 8.3843 10.9057 8.91625V7.81055H8.31008C8.34449 8.54324 8.31008 15.62 8.31008 15.62H10.9056V11.2586C10.9056 11.0252 10.9224 10.7918 10.9912 10.625C11.1785 10.1588 11.6059 9.67582 12.323 9.67582C13.2619 9.67582 13.638 10.3922 13.638 11.4416V15.62H16.2337ZM5.59297 4.04492C4.70469 4.04492 4.12434 4.62891 4.12434 5.39434C4.12434 6.14363 4.68703 6.74371 5.55859 6.74371H5.57535C6.48063 6.74371 7.0441 6.14363 7.0441 5.39434C7.0273 4.62891 6.48066 4.04492 5.59297 4.04492Z" fill="black" />
</svg>
