<svg width="20" height="20" viewBox="0 0 20 20" fill="none" xmlns="http://www.w3.org/2000/svg">
  <path fill-rule="evenodd" clip-rule="evenodd" d="M0 10.0001C0 4.47716 4.4772 0 10.0001 0C15.523 0 20.0002 4.47716 20.0002 10.0001C20.0002 15.523 15.523 20.0002 10.0001 20.0002C4.4772 20.0002 0 15.523 0 10.0001ZM15.9309 11.7208C15.9309 11.5687 15.9169 11.4187 15.892 11.271C16.3371 10.9936 16.6128 10.5073 16.6129 9.97964C16.6129 9.13963 15.9295 8.45621 15.0894 8.45621C14.7157 8.45621 14.3634 8.59138 14.0852 8.83611C13.0778 8.19147 11.7335 7.78524 10.2507 7.74147L11.158 4.63821L13.3856 5.05215C13.3856 5.06 13.3849 5.06769 13.3842 5.07538V5.07539V5.0754C13.3833 5.08544 13.3824 5.09547 13.3829 5.10578C13.41 5.6359 13.8632 6.04518 14.3934 6.01816C14.9236 5.99115 15.3328 5.53786 15.3058 5.00773C15.2787 4.47757 14.8255 4.06829 14.2954 4.09539C13.9531 4.11279 13.6633 4.30914 13.5067 4.58795L13.5059 4.58758L10.8215 4.08886L9.75227 7.74058C8.26587 7.78017 6.91736 8.18405 5.90559 8.82751C5.62889 8.58805 5.28022 8.45613 4.91078 8.45613C4.07081 8.45613 3.38734 9.13955 3.38734 9.97956C3.38734 10.4991 3.65484 10.9782 4.08797 11.2578C4.06164 11.4098 4.04663 11.5641 4.04663 11.7208C4.04663 13.9197 6.71209 15.7088 9.98877 15.7088C13.2654 15.7088 15.9309 13.9197 15.9309 11.7208ZM11.8509 13.2166L11.8512 13.2163C11.9431 13.1226 12.0944 13.1204 12.1889 13.2123C12.2828 13.304 12.2863 13.4536 12.1956 13.5486C12.1677 13.5777 11.4959 14.2611 9.97776 14.2611C8.45185 14.2611 7.84145 13.5683 7.81629 13.5389C7.73029 13.4385 7.74202 13.2871 7.84246 13.2013C7.94242 13.1162 8.09223 13.1271 8.17847 13.2261C8.19218 13.241 8.70162 13.7826 9.9778 13.7826C11.2652 13.7826 11.8358 13.2312 11.8509 13.2166ZM12.0095 11.9526C12.5265 11.9526 12.9456 11.5335 12.9456 11.0165C12.9456 10.4995 12.5265 10.0804 12.0095 10.0804C11.4925 10.0804 11.0734 10.4995 11.0734 11.0165C11.0734 11.5335 11.4925 11.9526 12.0095 11.9526ZM9.03713 11.0165C9.03713 11.5335 8.61801 11.9526 8.10101 11.9526C7.58401 11.9526 7.1649 11.5335 7.1649 11.0165C7.1649 10.4995 7.58401 10.0804 8.10101 10.0804C8.61801 10.0804 9.03713 10.4995 9.03713 11.0165Z" fill="black" />
</svg>
