<svg width="20" height="20" viewBox="0 0 20 20" fill="none" xmlns="http://www.w3.org/2000/svg">
  <path d="M10.0004 0C4.47734 0 0 4.47815 0 10.0004C0 15.5235 4.47734 20 10.0004 20C15.5235 20 20 15.5235 20 10.0004C20 4.47815 15.5231 0 10.0004 0ZM15.0378 7.98408C15.043 8.0921 15.0451 8.20054 15.0451 8.31019C15.0451 11.6407 12.5102 15.4804 7.87484 15.4804C6.45184 15.4804 5.12671 15.0634 4.01153 14.3486C4.2089 14.3717 4.40911 14.3835 4.61257 14.3835C5.79353 14.3835 6.88028 13.9807 7.74245 13.3049C6.63986 13.2842 5.70947 12.5552 5.38865 11.5542C5.54215 11.5842 5.70013 11.5993 5.86257 11.5993C6.09243 11.5993 6.31498 11.5692 6.52656 11.5111C5.37321 11.2796 4.50455 10.2603 4.50455 9.04037C4.50455 9.0294 4.50455 9.01884 4.50495 9.00788C4.84446 9.19672 5.23311 9.31002 5.64652 9.32342C4.96995 8.87061 4.52526 8.10023 4.52526 7.22547C4.52526 6.76373 4.64953 6.33041 4.86639 5.95841C6.10949 7.48294 7.96662 8.48644 10.0613 8.59121C10.0183 8.40724 9.99594 8.21434 9.99594 8.01698C9.99594 6.62565 11.1241 5.49708 12.5162 5.49708C13.2411 5.49708 13.8958 5.80328 14.3555 6.29264C14.9297 6.18015 15.4691 5.96979 15.956 5.68104C15.7671 6.2699 15.3679 6.76373 14.8473 7.07521C15.3578 7.0143 15.8435 6.87865 16.2951 6.67844C15.958 7.18486 15.5304 7.62874 15.0378 7.98408Z" fill="black" />
</svg>
