<svg width="47" height="47" viewBox="0 0 47 47" fill="none" xmlns="http://www.w3.org/2000/svg">
    <rect x="0.5" y="0.5" width="45.98" height="45.98" stroke="white" />
    <circle cx="23.8501" cy="23.5271" r="6.21238" stroke="white" />
    <path d="M23.6313 9.88452V15.5143" stroke="white" />
    <path d="M25.36 11.6167L23.6277 9.88452L21.8955 11.6167" stroke="white" />
    <path d="M37.4912 23.7429L31.8615 23.7429" stroke="white" />
    <path d="M35.7585 25.4759L37.4907 23.7437L35.7585 22.0115" stroke="white" />
    <path d="M33.3169 33.4316L29.3361 29.4508" stroke="white" />
    <path d="M30.8654 33.4321L33.3152 33.4321L33.3152 30.9824" stroke="white" />
    <path d="M14.4619 33.4326L18.4427 29.4518" stroke="white" />
    <path d="M14.4573 30.984L14.4573 33.4337L16.907 33.4337" stroke="white" />
    <path d="M23.6318 37.1669L23.6318 31.5371" stroke="white" />
    <path d="M21.8964 35.4344L23.6286 37.1666L25.3608 35.4344" stroke="white" />
    <path d="M10.208 23.743L15.8377 23.743" stroke="white" />
    <path d="M11.9407 22.0102L10.2085 23.7424L11.9407 25.4746" stroke="white" />
    <path d="M14.0234 14.1421L18.0043 18.1229" stroke="white" />
    <path d="M16.4764 14.1407L14.0266 14.1407L14.0266 16.5905" stroke="white" />
    <path d="M33.749 14.1418L29.7682 18.1227" stroke="white" />
    <path d="M33.7532 16.592L33.7532 14.1422L31.3035 14.1422" stroke="white" />
</svg>
    