<svg viewBox="0 0 181 29" fill="none" xmlns="http://www.w3.org/2000/svg">
<mask id="mask0_30_2851" style="mask-type:luminance" maskUnits="userSpaceOnUse" x="0" y="0" width="40" height="29">
<path d="M39.3788 0.822754H0.957031V28.2668H39.3788V0.822754Z" fill="white"/>
</mask>
<g mask="url(#mask0_30_2851)">
<path fill-rule="evenodd" clip-rule="evenodd" d="M13.9341 0.87879C15.6932 0.848217 17.1441 2.24003 17.1747 3.98748C17.2036 5.63444 15.9606 7.00952 14.3448 7.18782C12.6794 7.7866 11.5294 8.52007 10.8971 9.3901C10.2647 10.2601 9.91141 11.7421 9.83714 13.8361C9.8787 16.2076 7.97704 18.1638 5.58964 18.2053C3.20223 18.2468 1.23316 16.3579 1.19159 13.9864C1.15001 11.6148 3.05168 9.65866 5.43908 9.61717C5.5701 9.6149 5.69984 9.61843 5.82809 9.62754C7.29811 9.54703 8.52565 9.06902 9.51103 8.19466C10.4997 7.3173 10.9602 6.12971 10.8921 4.63186L10.8958 4.80055C10.8401 4.57514 10.8086 4.34007 10.8044 4.09819C10.7737 2.35074 12.1749 0.909363 13.9341 0.87879Z" fill="black"/>
<path fill-rule="evenodd" clip-rule="evenodd" d="M5.59793 10.1955C7.98533 10.237 9.88699 12.1931 9.84541 14.5647C9.83782 14.998 9.76586 15.4153 9.63876 15.8075L9.71319 15.7493C9.67755 17.0264 9.99581 18.1592 10.668 19.1478C11.3401 20.1364 12.2964 20.6187 13.537 20.5948L13.4629 20.5938C13.7308 20.5405 14.0084 20.5149 14.2927 20.5199C16.4288 20.557 18.1302 22.3072 18.0931 24.4291C18.0558 26.5511 16.294 28.2411 14.158 28.2039C12.0219 28.1669 10.3204 26.4166 10.3576 24.2947C10.3648 23.8821 10.4373 23.4858 10.565 23.1154L10.6142 22.9823C10.5207 21.8165 10.1188 20.898 9.40851 20.2266C8.69821 19.5552 7.50237 19.0704 5.82101 18.772L5.82966 18.7737C5.7036 18.7825 5.5761 18.7859 5.44737 18.7837C3.05998 18.7421 1.15831 16.786 1.19989 14.4145C1.24146 12.0429 3.21054 10.1541 5.59793 10.1955Z" fill="black"/>
<path fill-rule="evenodd" clip-rule="evenodd" d="M34.7448 18.8975C32.3574 18.856 30.4557 16.8999 30.4973 14.5283C30.5049 14.095 30.5768 13.6777 30.7039 13.2855L30.6295 13.3437C30.6652 12.0666 30.3469 10.9338 29.6747 9.94522C29.0026 8.95666 28.0463 8.47434 26.8057 8.49823L26.8798 8.49925C26.6119 8.55244 26.3343 8.57809 26.05 8.57315C23.9139 8.53602 22.2125 6.78578 22.2496 4.66386C22.2869 2.54196 24.0487 0.851904 26.1847 0.889028C28.3208 0.926152 30.0223 2.6764 29.9851 4.7983C29.9779 5.2109 29.9054 5.60716 29.7777 5.97758L29.7285 6.11068C29.822 7.2765 30.2239 8.19509 30.9342 8.86643C31.6445 9.53778 32.8404 10.0226 34.5217 10.3211L34.513 10.3193C34.6391 10.3105 34.7666 10.3071 34.8953 10.3093C37.2827 10.3509 39.1843 12.307 39.1428 14.6785C39.1012 17.0501 37.1322 18.939 34.7448 18.8975Z" fill="black"/>
<path fill-rule="evenodd" clip-rule="evenodd" d="M26.4047 28.2121C24.6456 28.2427 23.1947 26.8509 23.1641 25.1034C23.1352 23.4565 24.3782 22.0814 25.994 21.9031C27.6593 21.3044 28.8093 20.5709 29.4416 19.7008C30.074 18.8308 30.4273 17.3488 30.5016 15.2549C30.4601 12.8833 32.3617 10.9271 34.7491 10.8857C37.1365 10.8441 39.1056 12.733 39.1472 15.1046C39.1888 17.4761 37.2871 19.4323 34.8997 19.4738C34.7687 19.476 34.6389 19.4725 34.5107 19.4634C33.0407 19.5439 31.8131 20.0219 30.8277 20.8963C29.839 21.7737 29.3786 22.9613 29.4467 24.4591L29.443 24.2904C29.4987 24.5158 29.5302 24.7509 29.5344 24.9928C29.565 26.7402 28.1638 28.1816 26.4047 28.2121Z" fill="black"/>
</g>
<path d="M175.087 22.5964C173.973 22.5964 172.972 22.3706 172.084 21.9191C171.196 21.4675 170.496 20.8128 169.984 19.9549C169.473 19.097 169.217 18.066 169.217 16.8619V16.5006C169.217 15.2965 169.473 14.2655 169.984 13.4076C170.496 12.5497 171.196 11.895 172.084 11.4434C172.972 10.9919 173.973 10.7661 175.087 10.7661C176.201 10.7661 177.201 10.9919 178.09 11.4434C178.978 11.895 179.677 12.5497 180.189 13.4076C180.701 14.2655 180.957 15.2965 180.957 16.5006V16.8619C180.957 18.066 180.701 19.097 180.189 19.9549C179.677 20.8128 178.978 21.4675 178.09 21.9191C177.201 22.3706 176.201 22.5964 175.087 22.5964ZM175.087 20.0678C175.96 20.0678 176.682 19.7893 177.254 19.2324C177.826 18.6605 178.112 17.8477 178.112 16.7941V16.5684C178.112 15.5148 177.826 14.7095 177.254 14.1526C176.697 13.5807 175.975 13.2947 175.087 13.2947C174.214 13.2947 173.491 13.5807 172.919 14.1526C172.347 14.7095 172.061 15.5148 172.061 16.5684V16.7941C172.061 17.8477 172.347 18.6605 172.919 19.2324C173.491 19.7893 174.214 20.0678 175.087 20.0678Z" fill="black"/>
<path d="M166.163 22.2805H163.318V11.0824H166.163V22.2805ZM164.74 9.77294C164.229 9.77294 163.792 9.60738 163.431 9.27625C163.085 8.94512 162.912 8.50864 162.912 7.96679C162.912 7.42495 163.085 6.98846 163.431 6.65734C163.792 6.32621 164.229 6.16064 164.74 6.16064C165.267 6.16064 165.704 6.32621 166.05 6.65734C166.396 6.98846 166.569 7.42495 166.569 7.96679C166.569 8.50864 166.396 8.94512 166.05 9.27625C165.704 9.60738 165.267 9.77294 164.74 9.77294Z" fill="black"/>
<path d="M152.984 22.594C152.096 22.594 151.261 22.3758 150.478 21.9393C149.71 21.4877 149.093 20.833 148.627 19.9751C148.16 19.1172 147.927 18.0786 147.927 16.8595V16.4982C147.927 15.2791 148.16 14.2406 148.627 13.3826C149.093 12.5247 149.71 11.8775 150.478 11.441C151.246 10.9895 152.081 10.7637 152.984 10.7637C153.661 10.7637 154.226 10.8465 154.677 11.0121C155.144 11.1626 155.52 11.3582 155.806 11.5991C156.092 11.8399 156.31 12.0958 156.461 12.3667H156.867V6.47412H159.712V22.2779H156.912V20.9233H156.506C156.25 21.3447 155.851 21.7286 155.309 22.0747C154.783 22.4209 154.007 22.594 152.984 22.594ZM153.842 20.1105C154.715 20.1105 155.445 19.8321 156.032 19.2752C156.619 18.7033 156.912 17.8754 156.912 16.7917V16.566C156.912 15.4823 156.619 14.662 156.032 14.1051C155.46 13.5332 154.73 13.2472 153.842 13.2472C152.969 13.2472 152.239 13.5332 151.652 14.1051C151.065 14.662 150.771 15.4823 150.771 16.566V16.7917C150.771 17.8754 151.065 18.7033 151.652 19.2752C152.239 19.8321 152.969 20.1105 153.842 20.1105Z" fill="black"/>
<path d="M138.367 22.461C137.494 22.461 136.726 22.2653 136.064 21.874C135.417 21.4676 134.912 20.9107 134.551 20.2033C134.19 19.4959 134.009 18.6831 134.009 17.765V11.0823H136.854V17.5393C136.854 18.3821 137.057 19.0143 137.464 19.4357C137.885 19.8571 138.479 20.0679 139.247 20.0679C140.12 20.0679 140.797 19.7819 141.279 19.2099C141.761 18.6229 142.001 17.8102 142.001 16.7716V11.0823H144.846V22.2804H142.047V20.8129H141.64C141.46 21.1892 141.121 21.5579 140.624 21.9192C140.128 22.2804 139.375 22.461 138.367 22.461Z" fill="black"/>
<path d="M130.8 22.2789H127.639C126.902 22.2789 126.3 22.0532 125.833 21.6016C125.382 21.1351 125.156 20.518 125.156 19.7503V13.4288H122.356V11.0808H125.156V7.604H128.001V11.0808H131.071V13.4288H128.001V19.2537C128.001 19.7052 128.211 19.931 128.633 19.931H130.8V22.2789Z" fill="black"/>
<path d="M114.604 22.5966C113.385 22.5966 112.309 22.3784 111.376 21.9419C110.442 21.5054 109.712 20.8808 109.186 20.068C108.659 19.2552 108.396 18.2769 108.396 17.133V16.5008H111.331V17.133C111.331 18.0812 111.624 18.7962 112.211 19.2778C112.798 19.7444 113.596 19.9777 114.604 19.9777C115.628 19.9777 116.388 19.7745 116.884 19.3681C117.396 18.9617 117.652 18.4425 117.652 17.8103C117.652 17.3738 117.524 17.0201 117.268 16.7492C117.027 16.4783 116.666 16.26 116.185 16.0945C115.718 15.9138 115.146 15.7483 114.469 15.5978L113.949 15.4849C112.866 15.2441 111.933 14.943 111.15 14.5818C110.382 14.2055 109.788 13.7164 109.366 13.1143C108.96 12.5123 108.757 11.7296 108.757 10.7663C108.757 9.80305 108.983 8.98275 109.434 8.30545C109.901 7.61309 110.548 7.0863 111.376 6.72507C112.219 6.34879 113.204 6.16064 114.333 6.16064C115.462 6.16064 116.463 6.35631 117.336 6.74764C118.224 7.12392 118.916 7.69587 119.413 8.46348C119.925 9.21605 120.181 10.1643 120.181 11.3082V11.9855H117.246V11.3082C117.246 10.7061 117.125 10.2245 116.884 9.86325C116.659 9.48697 116.328 9.21605 115.891 9.05048C115.455 8.86987 114.935 8.77956 114.333 8.77956C113.43 8.77956 112.76 8.95265 112.324 9.29883C111.902 9.62996 111.692 10.089 111.692 10.676C111.692 11.0673 111.79 11.3985 111.985 11.6694C112.196 11.9403 112.504 12.1661 112.911 12.3467C113.317 12.5273 113.837 12.6854 114.469 12.8208L114.988 12.9337C116.117 13.1745 117.095 13.4831 117.923 13.8594C118.766 14.2356 119.421 14.7323 119.887 15.3494C120.354 15.9665 120.587 16.7567 120.587 17.72C120.587 18.6833 120.339 19.5337 119.842 20.2712C119.36 20.9936 118.668 21.5656 117.765 21.987C116.877 22.3934 115.823 22.5966 114.604 22.5966Z" fill="black"/>
<path d="M101.14 22.2779H90.9351V6.47412H93.9152V19.5687H101.14V22.2779Z" fill="black"/>
<path d="M88.446 22.2779H78.2412V6.47412H81.2214V19.5687H88.446V22.2779Z" fill="black"/>
<path d="M75.5836 22.2779H65.2886V6.47412H75.4482V9.18334H68.2687V12.9537H74.816V15.6629H68.2687V19.5687H75.5836V22.2779Z" fill="black"/>
<path d="M56.3135 22.5965C54.3568 22.5965 52.8065 22.0546 51.6626 20.9709C50.5187 19.8722 49.9468 18.3069 49.9468 16.275V12.482C49.9468 10.4501 50.5187 8.89232 51.6626 7.80863C52.8065 6.70989 54.3568 6.16052 56.3135 6.16052C58.2551 6.16052 59.7527 6.69484 60.8062 7.76348C61.8749 8.81707 62.4092 10.2695 62.4092 12.1208V12.2563H59.4742V12.0305C59.4742 11.0973 59.2108 10.3297 58.684 9.72767C58.1723 9.12562 57.3821 8.82459 56.3135 8.82459C55.2599 8.82459 54.432 9.14819 53.83 9.7954C53.2279 10.4426 52.9269 11.3231 52.9269 12.4369V16.3201C52.9269 17.4189 53.2279 18.2993 53.83 18.9616C54.432 19.6088 55.2599 19.9324 56.3135 19.9324C57.3821 19.9324 58.1723 19.6314 58.684 19.0293C59.2108 18.4122 59.4742 17.6446 59.4742 16.7265V16.3201H62.4092V16.6362C62.4092 18.4875 61.8749 19.9475 60.8062 21.0161C59.7527 22.0697 58.2551 22.5965 56.3135 22.5965Z" fill="black"/>
</svg>
