<svg width="151" height="150" viewBox="0 0 151 150" fill="none" xmlns="http://www.w3.org/2000/svg">
<circle cx="75.5" cy="75" r="75" fill="white"/>
<g clip-path="url(#clip0_43_5539)">
<path fill-rule="evenodd" clip-rule="evenodd" d="M76.2825 50.4769C83.8738 55.7516 84.0811 67.524 76.2825 72.7047C68.33 67.356 68.0157 55.288 76.2825 50.4769Z" fill="#39B24A"/>
<path fill-rule="evenodd" clip-rule="evenodd" d="M76.2825 22C83.8738 27.268 84.0811 39.0472 76.2825 44.2278C68.33 38.8792 68.0157 26.8111 76.2825 22Z" fill="#D6DD21"/>
<path fill-rule="evenodd" clip-rule="evenodd" d="M96.3944 38.2005C101.096 46.1832 96.3743 56.9611 87.131 58.3856C82.1415 50.1879 86.8768 39.0942 96.3944 38.2005Z" fill="#D6DD21"/>
<path fill-rule="evenodd" clip-rule="evenodd" d="M56.7859 37.9048C65.7683 40.0349 70.2228 50.9338 64.8387 58.6074C55.5017 56.5378 50.8198 45.4172 56.7859 37.9048Z" fill="#39B24A"/>
<path fill-rule="evenodd" clip-rule="evenodd" d="M76.0888 99.4615C68.4975 94.1867 68.2968 82.4143 76.0888 77.2336C84.0413 82.5823 84.3556 94.6504 76.0888 99.4615Z" fill="#008F45"/>
<path fill-rule="evenodd" clip-rule="evenodd" d="M76.0888 129C68.4975 123.725 68.2968 111.953 76.0888 106.772C84.0413 112.121 84.3556 124.189 76.0888 129Z" fill="#006837"/>
<path fill-rule="evenodd" clip-rule="evenodd" d="M55.9764 111.745C51.2745 103.762 55.9965 92.984 65.2398 91.5595C70.2293 99.7572 65.494 110.851 55.9764 111.745Z" fill="#006837"/>
<path fill-rule="evenodd" clip-rule="evenodd" d="M95.5851 112.033C86.6093 109.903 82.1481 99.0045 87.5323 91.3309C96.8692 93.4005 101.551 104.521 95.5851 112.033Z" fill="#008F45"/>
<path fill-rule="evenodd" clip-rule="evenodd" d="M103.049 75.3253C97.7991 82.9518 86.081 83.1534 80.9243 75.3253C86.2483 67.3359 98.2606 67.0201 103.049 75.3253Z" fill="#39B24A"/>
<path fill-rule="evenodd" clip-rule="evenodd" d="M131 75.3253C125.75 82.9518 114.032 83.1534 108.875 75.3253C114.199 67.3359 126.211 67.0201 131 75.3253Z" fill="#D6DD21"/>
<path fill-rule="evenodd" clip-rule="evenodd" d="M115.269 95.5306C107.323 100.254 96.5952 95.5104 95.1772 86.2309C103.337 81.2182 114.38 85.9755 115.269 95.5306Z" fill="#39B24A"/>
<path fill-rule="evenodd" clip-rule="evenodd" d="M115.557 55.7382C113.436 64.7623 102.588 69.2375 94.9497 63.8283C97.0097 54.448 108.079 49.7444 115.557 55.7382Z" fill="#D6DD21"/>
<path fill-rule="evenodd" clip-rule="evenodd" d="M49.0674 75.1305C54.3177 67.504 66.0358 67.3024 71.1925 75.1305C65.8686 83.1199 53.8563 83.4357 49.0674 75.1305Z" fill="#008F45"/>
<path fill-rule="evenodd" clip-rule="evenodd" d="M20 75.1305C25.2437 67.504 36.9684 67.3024 42.1251 75.1305C36.8012 83.1199 24.7889 83.4357 20 75.1305Z" fill="#006837"/>
<path fill-rule="evenodd" clip-rule="evenodd" d="M36.8413 54.9251C44.7871 50.2014 55.5152 54.9453 56.9331 64.2248C48.7733 69.2375 37.7309 64.4802 36.8413 54.9251Z" fill="#008F45"/>
<path fill-rule="evenodd" clip-rule="evenodd" d="M36.5537 94.7108C38.6739 85.6867 49.5224 81.2115 57.1538 86.6207C55.0938 96.001 44.0246 100.705 36.5537 94.7108Z" fill="#006837"/>
</g>
<defs>
<clipPath id="clip0_43_5539">
<rect width="111" height="107" fill="white" transform="translate(20 22)"/>
</clipPath>
</defs>
</svg>
