<svg viewBox="0 0 129 38" fill="none" xmlns="http://www.w3.org/2000/svg">
<g clip-path="url(#clip0_93_1328)">
<path d="M46.6621 8.84471V14.6157H43.9526V5.98389H52.0757V8.86667L46.6621 8.84471ZM52.0552 17.515V20.3978H43.9526V17.515H52.0552Z" fill="black"/>
<path d="M65.6338 5.98389H68.3433V11.733H71.0681V5.98389H73.7723V14.6157H65.6338V5.98389ZM71.0681 17.515V20.3978H68.3638V17.515H71.0681Z" fill="black"/>
<path d="M81.8848 14.6157V8.84471H76.4712V5.98389H84.5943V14.6157H81.8848ZM79.1806 11.733V20.3868H76.4712V11.733H79.1806Z" fill="black"/>
<path d="M87.314 8.84471V5.98389H95.4319V8.86667L87.314 8.84471ZM90.0182 20.3758V11.733H92.7276V20.3868L90.0182 20.3758Z" fill="black"/>
<path d="M106.27 20.3865H103.565V14.6154H100.856V20.3865H98.1519V11.7327H106.27V20.3865Z" fill="black"/>
<path d="M103.56 5.96228H100.855V8.85055H103.56V5.96228Z" fill="black"/>
<path d="M62.9138 14.6161H60.2095V20.3871H62.9138V14.6161Z" fill="black"/>
<path d="M114.402 14.6157V8.84471H108.989V5.98389H117.111V14.6157H114.402ZM111.698 11.733V20.3868H108.989V11.733H111.698Z" fill="black"/>
<path d="M60.2096 11.733V8.84471H54.7959V5.98389H62.9138V11.733H60.2096ZM57.5001 11.733V20.3868H54.7959V11.733H57.5001Z" fill="black"/>
<path d="M119.833 8.84471V5.98389H127.95V8.86667L119.833 8.84471ZM119.833 14.5992V11.711H127.95V14.5992H119.833ZM119.833 20.3868V17.515H127.95V20.3978L119.833 20.3868Z" fill="black"/>
<path d="M55.3063 27.0256H54.5645V34.7789H55.3063V27.0256Z" fill="black"/>
<path d="M43.9893 27.8163H45.7509V28.9035H43.9893V29.6942H45.7509V36.6623H46.4978V29.6942H48.2594V28.9035H46.4978V27.8163H48.2594V27.0256H43.9893V27.8163Z" fill="black"/>
<path d="M48.2593 30.7869H47.5176V36.6623H48.2593V30.7869Z" fill="black"/>
<path d="M44.731 30.7869H43.9893V36.6623H44.731V30.7869Z" fill="black"/>
<path d="M50.021 28.903H49.2793V36.6562H50.021V28.903Z" fill="black"/>
<path d="M51.7827 28.903H51.041V36.6617H55.3059V35.8655H51.7827V28.903Z" fill="black"/>
<path d="M52.8026 34.7789H53.5443V27.0256H49.2793V27.8163H52.8026V34.7789Z" fill="black"/>
<path d="M72.0469 33.4395H79.5312V30.7819H72.0469V33.4395ZM72.7886 31.5561H78.7946V32.6543H72.7886V31.5561Z" fill="black"/>
<path d="M76.1625 26.4331H75.4156V27.0261H72.0469V27.8169H75.4156V28.9041H72.0469V29.6948H79.5312V28.9041H76.1625V27.8169H79.5312V27.0261H76.1625V26.4331Z" fill="black"/>
<path d="M78.7895 35.8825H76.1625V34.5427H72.0469V36.6513H72.7886V35.3774L75.4156 35.3828V36.6513H79.5312V34.5427H78.7895V35.8825Z" fill="black"/>
<path d="M69.4816 29.9636H68.2144V30.7542H69.4816V29.9636Z" fill="black"/>
<path d="M68.2144 27.8163H70.2851V35.8387H68.2144V36.6623H71.0268V27.0256H68.2144V27.8163Z" fill="black"/>
<path d="M69.4816 32.9011H68.2144V33.6918H69.4816V32.9011Z" fill="black"/>
<path d="M92.439 27.8163H94.2057V28.9035H92.439V29.6942H94.2006V36.6623H94.2057H94.9474V29.6942H96.709V28.9035H94.9474V27.8163H96.709V27.0256H92.439V27.8163Z" fill="black"/>
<path d="M96.709 30.7869H95.9673V36.6623H96.709V30.7869Z" fill="black"/>
<path d="M93.1807 30.7869H92.439V36.6623H93.1807V30.7869Z" fill="black"/>
<path d="M102.875 27.0421H102.133V33.8125H97.7397V34.6031H102.133V36.6623H102.875V34.6031H103.761V33.8125H102.875V27.0421Z" fill="black"/>
<path d="M98.4063 29.9639L97.8818 30.523L99.8304 32.6002L100.355 32.0411L98.4063 29.9639Z" fill="black"/>
<path d="M98.4078 27.4231L97.8833 27.9822L99.8319 30.0594L100.356 29.5004L98.4078 27.4231Z" fill="black"/>
<path d="M127.95 28.607V27.8163H124.576V27.0421H123.834V27.8163H120.466V28.607H123.834V30.6937H120.466V31.4843H127.208V32.879L124.205 34.2353L120.754 32.6703L120.466 33.4006L123.258 34.6636L120.466 35.9321L120.754 36.6623L124.205 35.0974L127.661 36.6623L127.95 35.9321L125.158 34.6636L127.95 33.4006L127.945 33.3842H127.95V31.4843V30.8583V30.6937H124.576V28.607H127.95Z" fill="black"/>
<path d="M118.709 27.0421H117.968V28.9035H116.7V29.6942H117.968V32.1213H116.7V32.9119H117.968V35.8661H116.7V36.6623H117.968H118.586H118.709V32.9119H119.466V32.1213H118.709V29.6942H119.466V28.9035H118.709V27.0421Z" fill="black"/>
<path d="M46.657 14.6161H43.9526V17.4988H46.657V14.6161Z" fill="black"/>
<path d="M57.5001 8.84998H54.7959V11.7328H57.5001V8.84998Z" fill="black"/>
<path d="M60.2043 11.7327H57.5V14.6154H60.2043V11.7327Z" fill="black"/>
<path d="M71.0475 14.6211H68.3433V17.5038H71.0475V14.6211Z" fill="black"/>
<path d="M79.1754 8.84998H76.4712V11.7328H79.1754V8.84998Z" fill="black"/>
<path d="M92.7223 8.84998H90.0181V11.7328H92.7223V8.84998Z" fill="black"/>
<path d="M100.856 8.84998H98.1519V11.7328H100.856V8.84998Z" fill="black"/>
<path d="M106.275 8.84998H103.571V11.7328H106.275V8.84998Z" fill="black"/>
<path d="M111.693 8.84998H108.989V11.7328H111.693V8.84998Z" fill="black"/>
<path d="M81.8849 11.7327H79.1807V14.6154H81.8849V11.7327Z" fill="black"/>
<path d="M114.403 11.7327H111.699V14.6154H114.403V11.7327Z" fill="black"/>
<path d="M122.537 8.84497H119.833V11.7277H122.537V8.84497Z" fill="black"/>
<path d="M122.537 14.6211H119.833V17.5038H122.537V14.6211Z" fill="black"/>
<path d="M29.2582 37.074C29.1183 37.0754 28.9815 37.0308 28.8662 36.9464C28.751 36.8618 28.6631 36.7414 28.6143 36.6018C28.199 35.6627 27.6803 34.7798 27.0691 33.9715C25.6165 31.8136 23.8034 29.1284 23.7828 25.7844C23.7794 25.0723 23.9079 24.3665 24.1611 23.7075C24.4142 23.0484 24.7869 22.4492 25.2579 21.9442C25.7287 21.439 26.2886 21.0381 26.9053 20.7642C27.522 20.4903 28.1832 20.3491 28.8512 20.3483C29.5234 20.3461 30.1893 20.4852 30.811 20.7575C31.4327 21.03 31.998 21.4302 32.4744 21.9356C32.9509 22.441 33.3292 23.0415 33.5878 23.7029C33.8464 24.3642 33.9803 25.0734 33.9816 25.7899V36.3436C33.9819 36.4396 33.9642 36.5346 33.9298 36.6232C33.8952 36.7118 33.8446 36.7922 33.7807 36.8598C33.7179 36.9286 33.6426 36.9832 33.5592 37.02C33.476 37.0568 33.3867 37.0752 33.2965 37.074H29.2582Z" fill="black"/>
<path d="M5.07402 37.0024C4.89095 37.0024 4.71539 36.9249 4.58595 36.7869C4.45651 36.6489 4.38379 36.4618 4.38379 36.2666V19.4861C4.38651 17.4234 5.15637 15.446 6.52459 13.9875C7.89281 12.5289 9.74773 11.7082 11.6827 11.7053H11.7496C12.7125 11.716 13.6639 11.93 14.5488 12.3348C15.4336 12.7397 16.2345 13.3276 16.905 14.0643C17.5755 14.8011 18.1025 15.6722 18.4553 16.6273C18.8082 17.5824 18.9801 18.6026 18.961 19.6289C18.961 23.8349 18.961 25.938 17.1633 28.1893C16.71 28.7385 16.1331 29.326 15.5511 29.9355C13.846 31.6706 11.9453 33.6309 11.5487 36.3654C11.5243 36.5396 11.4424 36.6989 11.3178 36.8146C11.1932 36.9304 11.0341 36.9949 10.8688 36.9969L5.07402 37.0024Z" fill="black"/>
<path d="M24.8279 21.4741C25.3717 20.8916 26.0206 20.4328 26.7356 20.1258C27.4506 19.8187 28.2167 19.6695 28.9873 19.6876C29.7579 19.7055 30.5171 19.8902 31.2188 20.2303C31.9206 20.5704 32.5502 21.059 33.0695 21.6663C32.4999 20.418 31.6593 19.3325 30.6175 18.4998C29.5756 17.667 28.3626 17.1111 27.0788 16.8782C26.3923 16.8109 25.7356 16.5471 25.1782 16.1149C24.6724 15.6157 24.2993 14.9831 24.0965 14.281C22.8497 10.8836 20.4216 8.13002 17.3178 6.5935C17.1109 6.48579 16.9339 6.32215 16.8047 6.11888C16.6754 5.9156 16.5984 5.67978 16.5813 5.4349C16.5134 4.3278 16.1198 3.2717 15.4566 2.41667C14.7934 1.56165 13.8943 0.951214 12.887 0.672126C11.8797 0.393039 10.8155 0.459499 9.84565 0.862059C8.87583 1.26462 8.0497 1.9828 7.48468 2.91453C7.36676 3.11377 7.20326 3.27777 7.00953 3.39112C6.8158 3.50445 6.59822 3.56342 6.37723 3.56246H5.08434C4.92616 3.5604 4.77306 3.62201 4.65562 3.73499C4.53817 3.84797 4.46503 4.00402 4.45078 4.17197C4.40578 4.86714 4.2435 5.54794 3.97174 6.18167C3.70175 6.7941 3.25864 7.30102 2.70461 7.63131L2.59643 7.70818C2.03661 8.11611 1.56156 8.64254 1.20088 9.2547C0.840203 9.86686 0.601624 10.5516 0.5 11.2664C0.632538 11.3426 0.742944 11.4561 0.819225 11.5945C0.895506 11.733 0.934745 11.891 0.93268 12.0516C0.934177 12.212 0.8947 12.3698 0.818479 12.5082C0.742258 12.6464 0.632166 12.76 0.5 12.8368C0.627318 13.7547 0.980339 14.6202 1.52318 15.3455C2.06601 16.0708 2.77931 16.6299 3.59057 16.966C3.7544 17.031 3.90358 17.132 4.0284 17.2626C4.39554 15.8243 5.11323 14.5152 6.10857 13.4684C7.10391 12.4215 8.34143 11.6741 9.69543 11.3021C11.0494 10.9301 12.4717 10.9467 13.8177 11.3503C15.1637 11.7539 16.3855 12.5301 17.3591 13.6C18.0915 14.3966 18.6671 15.3414 19.0519 16.3787C19.4368 17.416 19.623 18.525 19.5997 19.6402C19.5997 23.8628 19.5997 26.1854 17.6527 28.629C17.1787 29.2165 16.6225 29.804 15.9941 30.4245C14.7904 31.5349 13.7488 32.8303 12.9034 34.2682C13.1919 34.2682 13.4803 34.3121 13.7791 34.3121H25.6778C25.9634 34.3124 26.2489 34.2959 26.5329 34.2627C25.1112 32.1542 23.2002 29.2768 23.1797 25.7627C23.1737 24.967 23.3165 24.178 23.5994 23.4418C23.8824 22.7055 24.3 22.0366 24.8279 21.4741Z" fill="black"/>
</g>
<defs>
<clipPath id="clip0_93_1328">
<rect width="128" height="36.5714" fill="white" transform="translate(0.5 0.502441)"/>
</clipPath>
</defs>
</svg>
