<svg viewBox="0 0 106 40" fill="none" xmlns="http://www.w3.org/2000/svg">
<g clip-path="url(#clip0_30_2837)">
<mask id="mask0_30_2837" style="mask-type:luminance" maskUnits="userSpaceOnUse" x="0" y="1" width="106" height="37">
<path d="M105.392 1.09875H0.95752V37.9925H105.392V1.09875Z" fill="white"/>
</mask>
<g mask="url(#mask0_30_2837)">
<path d="M17.5453 27.4475C24.7859 27.4475 30.711 21.5224 30.711 14.2725C30.711 11.2455 29.791 8.60497 28.0798 6.36926C29.6621 5.18241 30.711 3.20431 30.711 1.09741H17.5453C10.3045 1.09741 4.37939 7.02251 4.37939 14.2725C4.37939 21.5224 10.3045 27.4475 17.5453 27.4475ZM17.5453 7.16051C21.4922 7.16051 24.6572 10.3255 24.6572 14.2725C24.6572 18.2286 21.5014 21.3844 17.5453 21.3844C13.589 21.3844 10.4333 18.2286 10.4333 14.2725C10.4333 10.3163 13.5982 7.16051 17.5453 7.16051Z" fill="black"/>
<path d="M34.3996 31.0069C33.6084 29.0288 32.0259 27.5843 29.919 26.922C26.4964 30.2157 22.0251 31.9269 17.6825 31.9269C13.2018 31.9269 8.85921 30.2157 5.43666 26.922C3.32976 27.5843 1.74729 29.0288 0.956055 31.0069C5.43666 35.6164 11.4905 37.9901 17.5444 37.9901C23.6075 37.9901 29.6614 35.6164 34.3996 31.0069Z" fill="black"/>
<path d="M104.441 5.81824H100.402C99.8775 5.81824 99.4542 6.24146 99.4542 6.76588V11.3109C98.2857 10.8141 97.0068 10.5381 95.6545 10.5381C90.2905 10.5381 85.9204 14.8991 85.9204 20.2721V21.6154C85.9204 26.9792 90.2813 31.3495 95.6545 31.3495C97.0068 31.3495 98.2949 31.0734 99.4726 30.5674C99.5554 31.0091 99.9419 31.3495 100.402 31.3495H104.441C104.965 31.3495 105.389 30.9262 105.389 30.4018V6.77508C105.389 6.25065 104.965 5.81824 104.441 5.81824ZM95.6545 25.4152C93.5567 25.4152 91.8546 23.713 91.8546 21.6154V20.2721C91.8546 18.1744 93.5567 16.4723 95.6545 16.4723C97.7521 16.4723 99.4542 18.1744 99.4542 20.2721V21.6154C99.4542 23.713 97.7521 25.4152 95.6545 25.4152Z" fill="black"/>
<path d="M81.2013 31.3423H77.1624C76.638 31.3423 76.2148 30.919 76.2148 30.3946V14.8458C76.2148 14.3214 76.638 13.8982 77.1624 13.8982H81.2013C81.7258 13.8982 82.149 14.3214 82.149 14.8458V30.4038C82.149 30.919 81.7258 31.3423 81.2013 31.3423Z" fill="black"/>
<path d="M61.7592 5.81836H57.7203C57.1958 5.81836 56.7726 6.24158 56.7726 6.766V11.311C55.6041 10.8142 54.3252 10.5382 52.9728 10.5382C47.6089 10.5382 43.2388 14.8992 43.2388 20.2723V21.6156C43.2388 26.9794 47.5998 31.3496 52.9728 31.3496C54.3252 31.3496 55.6133 31.0735 56.791 30.5675C56.8737 31.0092 57.2602 31.3496 57.7203 31.3496H61.7592C62.2836 31.3496 62.7069 30.9264 62.7069 30.4019V21.6156V20.2723V6.77521C62.7069 6.25077 62.2836 5.81836 61.7592 5.81836ZM52.9728 25.4153C50.8751 25.4153 49.173 23.7131 49.173 21.6156V20.2723C49.173 18.1745 50.8751 16.4724 52.9728 16.4724C55.0706 16.4724 56.7726 18.1745 56.7726 20.2723V21.6156C56.7726 23.7131 55.0706 25.4153 52.9728 25.4153Z" fill="black"/>
<path d="M71.4862 31.3405H67.4472C66.9228 31.3405 66.4995 30.9172 66.4995 30.3928V26.3538C66.4995 25.8294 66.9228 25.4061 67.4472 25.4061H71.4862C72.0106 25.4061 72.4337 25.8294 72.4337 26.3538V30.3928C72.4337 30.9172 72.0106 31.3405 71.4862 31.3405Z" fill="black"/>
<path d="M81.202 11.7532H77.1629C76.6385 11.7532 76.2153 11.33 76.2153 10.8056V6.77578C76.2153 6.25135 76.6385 5.82812 77.1629 5.82812H81.202C81.7263 5.82812 82.1495 6.25135 82.1495 6.77578V10.8148C82.1495 11.33 81.7263 11.7532 81.202 11.7532Z" fill="black"/>
</g>
</g>
<defs>
<clipPath id="clip0_30_2837">
<rect width="105" height="38.3108" fill="white" transform="translate(0.957031 0.782837)"/>
</clipPath>
</defs>
</svg>
