<svg width="173" height="66" viewBox="0 0 173 66" fill="none" xmlns="http://www.w3.org/2000/svg">
<path d="M0 65.2378V43.0242L8.02417 35H173V57.8333L165.595 65.2378H0Z" fill="black"/>
<path fill-rule="evenodd" clip-rule="evenodd" d="M31.3178 57.0798C27.213 57.0798 24.6152 54.1053 24.6152 49.941C24.6152 45.7569 27.213 42.822 31.3178 42.822C35.4226 42.822 38.0402 45.7569 38.0402 49.941C38.0402 54.1053 35.4226 57.0798 31.3178 57.0798ZM28.0458 49.941C28.0458 52.4396 29.1563 54.2045 31.3178 54.2045C33.4793 54.2045 34.5897 52.4396 34.5897 49.941C34.5897 47.4226 33.4793 45.6974 31.3178 45.6974C29.1563 45.6974 28.0458 47.4226 28.0458 49.941ZM131.148 49.941C131.148 54.1053 133.745 57.0798 137.85 57.0798C141.955 57.0798 144.573 54.1053 144.573 49.941C144.573 45.7569 141.955 42.822 137.85 42.822C133.745 42.822 131.148 45.7569 131.148 49.941ZM137.85 54.2045C135.689 54.2045 134.578 52.4396 134.578 49.941C134.578 47.4226 135.689 45.6974 137.85 45.6974C140.012 45.6974 141.122 47.4226 141.122 49.941C141.122 52.4396 140.012 54.2045 137.85 54.2045ZM152.684 43.0002H149.253V56.8813H152.565V48.5923H152.644L157.641 56.8813H161.211V43.0002H157.879V51.5073H157.8L152.684 43.0002ZM123.145 56.8813V43.0002H126.457V56.8813H123.145ZM111.476 45.9549V56.8813H114.808V45.9549H118.754V43.0002H107.55V45.9549H111.476ZM91.637 56.8813L96.5746 43.0002H100.878L105.835 56.8813H102.325L101.532 54.5215H95.9202L95.1271 56.8813H91.637ZM96.7333 52.0626H100.719L98.8353 46.3714H98.637L96.7333 52.0626ZM76.4011 43.0002V56.8813H81.8544C86.1575 56.8813 88.4181 54.4025 88.4181 49.9408C88.4181 45.479 86.1575 43.0002 81.8544 43.0002H76.4011ZM81.5173 53.9861H79.7127V45.8954H81.5173C84.1745 45.8954 85.0074 47.0654 85.0074 49.9408C85.0074 52.8161 84.1745 53.9861 81.5173 53.9861ZM59.3674 56.8813V43.0002H62.798L67.9142 51.5073H67.9935V43.0002H71.325V56.8813H67.7555L62.7584 48.5923H62.6791V56.8813H59.3674ZM42.7209 51.6065C42.7209 55.3544 45.1006 57.0796 48.551 57.0796C51.9419 57.0796 54.3612 55.3544 54.3612 51.6065V43.0002H50.9901V51.3487C50.9901 53.2325 50.0977 54.1844 48.551 54.1844C47.0042 54.1844 46.0722 53.2325 46.0722 51.3487V43.0002H42.7209V51.6065ZM11.2681 43.0002V56.8813H14.5797V51.3884H19.5174V48.7113H14.5797V45.8954H20.5287V43.0002H11.2681Z" fill="url(#paint0_linear_30_2491)"/>
<path d="M32.0205 27.3052V0.672119H55.0189V5.55963H37.9557V11.1531H55.0189V16.0406H37.9557V22.4177H55.0189V27.3052H32.0205Z" fill="black"/>
<path d="M96.3735 27.3052L84.9868 0.672119H91.624L99.897 21.4077L108.207 0.672119H114.619L103.232 27.3052H96.3735Z" fill="black"/>
<path d="M166.585 8.17063C166.064 6.90062 165.285 5.98864 164.247 5.42795C163.206 4.87063 161.761 4.59028 159.907 4.59028C157.801 4.59028 156.196 4.85036 155.087 5.3739C153.972 5.89407 153.414 6.65405 153.414 7.64709C153.414 8.64013 153.757 9.28864 154.435 9.73788C155.117 10.1837 156.357 10.5485 158.164 10.8187L163.615 11.68C166.853 12.2002 169.228 13.1122 170.736 14.4194C172.244 15.7265 173 17.5234 173 19.8101C173 22.3975 171.905 24.4038 169.718 25.8326C167.528 27.2613 164.408 27.9774 160.354 27.9774C157.408 27.9774 154.97 27.6295 153.028 26.9337C151.087 26.2379 149.602 25.1807 148.574 23.762C147.55 22.3434 146.938 20.5431 146.74 18.3544H152.712C152.961 20.0972 153.69 21.3706 154.902 22.1779C156.115 22.9852 157.932 23.3905 160.354 23.3905C162.527 23.3905 164.17 23.0966 165.265 22.5123C166.366 21.9313 166.917 21.0633 166.917 19.9216C166.917 18.9995 166.551 18.2767 165.822 17.7599C165.093 17.2363 163.934 16.8614 162.352 16.6385L157.899 16.0035C154.288 15.507 151.651 14.6051 149.982 13.298C148.312 11.9942 147.479 10.1601 147.479 7.79571C147.479 6.20481 147.976 4.82672 148.964 3.65804C149.951 2.48936 151.392 1.58751 153.283 0.952508C155.174 0.317503 157.432 0 160.055 0C163.666 0 166.457 0.604606 168.435 1.81044C170.41 3.0129 171.71 4.90778 172.328 7.49509L166.578 8.16725L166.585 8.17063Z" fill="black"/>
<path d="M144.628 13.987C144.628 16.7939 144.016 19.2528 142.794 21.3537C141.571 23.4547 139.804 25.0827 137.49 26.2413C135.179 27.3964 132.428 27.9706 129.237 27.9706C126.046 27.9706 123.497 27.4201 121.209 26.3122C118.922 25.2077 117.138 23.6033 115.869 21.5024C114.596 19.4014 113.958 16.8952 113.958 13.987C113.958 11.0788 114.569 8.72119 115.798 6.62027C117.021 4.51935 118.788 2.8913 121.102 1.73275C123.406 0.577585 126.157 0 129.351 0C132.546 0 135.092 0.553941 137.379 1.66182C139.667 2.76633 141.443 4.37073 142.72 6.47165C143.993 8.57257 144.628 11.0754 144.628 13.987ZM138.471 13.987C138.471 11.1025 137.665 8.86305 136.059 7.27216C134.454 5.67789 132.19 4.88414 129.274 4.88414C126.359 4.88414 124.128 5.68465 122.523 7.28905C120.917 8.89008 120.114 11.1227 120.114 13.9836C120.114 16.8445 120.917 19.1076 122.523 20.6985C124.132 22.2894 126.396 23.0865 129.314 23.0865C132.233 23.0865 134.457 22.286 136.062 20.6782C137.668 19.0738 138.474 16.8412 138.474 13.9836" fill="black"/>
<path d="M79.0648 27.3052L73.2774 17.3444H65.5251V27.3052H59.8149V0.672119H72.834C80.227 0.672119 83.9251 3.4452 83.9251 8.99136C83.9251 10.7782 83.512 12.2745 82.6823 13.4668C81.8527 14.6625 80.5864 15.5947 78.8801 16.2635L85.5576 27.3052H79.0682H79.0648ZM72.3873 12.7575C74.3388 12.7575 75.7798 12.4535 76.7069 11.8421C77.6339 11.2341 78.0974 10.2715 78.0974 8.95421C78.0974 7.63691 77.6608 6.69116 76.7841 6.12033C75.9074 5.54612 74.4665 5.26577 72.4646 5.26577H65.5251V12.7609H72.3873V12.7575Z" fill="black"/>
<path d="M0 0.672119V27.3052H6.82193V12.7913H12.0517L0 0.672119Z" fill="black"/>
<path d="M19.8343 0.672119V15.1827H14.6045L26.6562 27.3052V0.672119H19.8343Z" fill="black"/>
<defs>
<linearGradient id="paint0_linear_30_2491" x1="16.4998" y1="31.5" x2="86.518" y2="-30.8615" gradientUnits="userSpaceOnUse">
<stop stop-color="#18EFB1"/>
<stop offset="1" stop-color="#BF9EFF"/>
</linearGradient>
</defs>
</svg>
