<svg viewBox="0 0 125 37" fill="none" xmlns="http://www.w3.org/2000/svg">
<path d="M51.7587 28.5904C50.8187 27.8679 50.3059 26.7634 50.2183 25.2787L53.8432 23.4969C53.9176 24.3306 54.1329 24.9521 54.4938 25.3611C54.8551 25.7701 55.3837 25.9718 56.0848 25.9718C57.0034 25.9718 57.7179 25.6347 58.2226 24.9574C58.727 24.2801 59.1068 23.2286 59.359 21.8L61.6217 8.97327H65.6212L63.2922 22.1904C62.8247 24.8434 61.8714 26.7525 60.4319 27.9212C58.9925 29.0895 57.317 29.6739 55.4047 29.6739C53.9123 29.6766 52.6987 29.3154 51.7587 28.5904Z" fill="black"/>
<path d="M67.8761 18.159C68.7498 17.0092 69.8038 16.1222 71.0335 15.5007C72.2657 14.8795 73.5326 14.5687 74.8391 14.5687C76.127 14.5687 77.2715 14.8795 78.2753 15.5007C79.2792 16.1222 80.015 17.0092 80.4822 18.159C80.9497 19.309 81.0532 20.6342 80.7877 22.1371C80.5222 23.6404 79.9537 24.9655 79.08 26.1153C78.2063 27.2653 77.16 28.1468 75.9383 28.7577C74.717 29.3684 73.4635 29.6767 72.1755 29.6767C70.869 29.6767 69.7084 29.3712 68.694 28.7577C67.6794 28.1468 66.9386 27.2653 66.471 26.1153C66.001 24.9655 65.9 23.6404 66.1659 22.1371C66.4339 20.6342 67.0024 19.309 67.8761 18.159ZM70.5554 25.1833C71.0574 25.9346 71.7876 26.3092 72.7437 26.3092C73.6999 26.3092 74.5575 25.9346 75.3144 25.1833C76.0713 24.4317 76.5651 23.4173 76.7882 22.1371C77.014 20.8572 76.8811 19.8373 76.3901 19.0751C75.8987 18.3157 75.1737 17.9334 74.2176 17.9334C73.2615 17.9334 72.3986 18.313 71.6312 19.0751C70.8609 19.8348 70.3643 20.8544 70.1384 22.1371C69.9154 23.4173 70.0535 24.4317 70.5554 25.1833Z" fill="black"/>
<path d="M93.8161 14.9297H97.8153L88.5101 31.2354C87.5249 32.9615 86.5105 34.2069 85.4639 34.9772C84.4176 35.7474 83.2146 36.1325 81.8523 36.1325C81.1911 36.1325 80.5857 36.034 80.0414 35.8403C79.4967 35.6464 79.04 35.3809 78.6763 35.0487L80.7131 32.0986C81.1939 32.5076 81.7646 32.7093 82.4261 32.7093C82.8484 32.7093 83.2279 32.6216 83.5625 32.4462C83.8971 32.2684 84.2398 31.9629 84.593 31.5276C84.9462 31.092 85.3818 30.4466 85.8995 29.5943L82.2774 14.9325H86.5821L88.6111 24.8645L93.8161 14.9297Z" fill="black"/>
<path d="M101.512 29.342H97.5127L101.103 8.97571H105.102L101.512 29.342Z" fill="black"/>
<path d="M116.057 8.97571C118.025 8.97571 119.735 9.37414 121.185 10.1735C122.635 10.9728 123.687 12.1334 124.338 13.6658C124.988 15.1954 125.126 17.0172 124.752 19.1336C124.377 21.2475 123.597 23.0746 122.407 24.615C121.215 26.1551 119.759 27.3291 118.033 28.1337C116.309 28.9408 114.453 29.3445 112.467 29.3445H105.735L109.325 8.9785H116.057V8.97571ZM112.605 25.8921C114.775 25.8921 116.543 25.3081 117.908 24.1394C119.273 22.9711 120.147 21.3033 120.529 19.1311C120.906 16.9986 120.612 15.3441 119.653 14.165C118.692 12.9886 117.135 12.399 114.984 12.399H112.722L110.342 25.8921H112.605Z" fill="black"/>
<path d="M32.9228 17.9384C34.2148 17.9384 35.2623 16.8912 35.2623 15.5989C35.2623 14.3069 34.2148 13.2594 32.9228 13.2594C31.6305 13.2594 30.583 14.3069 30.583 15.5989C30.583 16.8912 31.6305 17.9384 32.9228 17.9384Z" fill="black"/>
<path d="M17.172 13.2594C16.0008 13.2594 15.0503 14.2099 15.0503 15.3811C15.0503 16.5522 16.0008 17.5031 17.172 17.5031C18.3431 17.5031 19.294 16.5522 19.294 15.3811C19.2912 14.2099 18.3431 13.2594 17.172 13.2594Z" fill="black"/>
<path d="M23.5663 11.5198L21.2216 22.6682C21.0038 23.7092 20.0715 24.4636 19.0094 24.4636C18.3216 24.4636 17.6815 24.1554 17.2487 23.6215C16.9113 23.2048 16.7415 22.6921 16.7496 22.1663L12.5137 23.2606C12.6943 24.3704 13.151 25.4303 13.8788 26.3356C15.1348 27.8946 17.0043 28.7894 19.0066 28.7894C22.1033 28.7894 24.8118 26.5906 25.4494 23.5605L27.9829 11.5226H23.5663V11.5198Z" fill="black"/>
<path d="M43.4148 3.59814C41.994 1.84794 39.8853 0.844116 37.6307 0.844116H32.4123L31.5015 5.16771H37.6307C38.5763 5.16771 39.4605 5.58721 40.0554 6.32274C40.6503 7.05578 40.8814 8.00911 40.6874 8.93331L39.7766 13.2594H44.1956L44.9206 9.82561C45.3825 7.61873 44.8354 5.34803 43.4148 3.59814Z" fill="black"/>
<path d="M36.8286 27.2759C36.1913 30.3032 33.4853 32.4995 30.3914 32.4995H25.7468L24.8359 36.8228H30.3914C35.5168 36.8228 40.0049 33.182 41.059 28.1654L41.8239 24.5271H37.4049L36.8286 27.2759Z" fill="black"/>
<path d="M4.97977 9.50155L4.18848 13.2622H8.60749L9.21041 10.3938C9.84772 7.36655 12.5537 5.17021 15.6476 5.17021H20.0982L21.0091 0.846925H15.6476C10.5222 0.844446 6.0341 4.48519 4.97977 9.50155Z" fill="black"/>
<path d="M5.98362 31.3417C5.38876 30.6087 5.15794 29.6553 5.35158 28.7311L6.15898 24.8989L1.48497 26.1048L1.11845 27.8416C0.653711 30.0482 1.20365 32.3189 2.62419 34.0691C4.04505 35.819 6.15372 36.8228 8.40831 36.8228H13.4327L14.3436 32.4995H8.40831C7.46272 32.4967 6.57848 32.0772 5.98362 31.3417Z" fill="black"/>
</svg>
