<svg viewBox="0 0 147 41" fill="none" xmlns="http://www.w3.org/2000/svg">
<path d="M0.0424805 5.43201H7.47726V16.2653L11.6077 0.432007H19.0425V7.93201L7.47726 16.2653L0.0424805 12.932V5.43201Z" fill="black"/>
<path d="M0.0424805 27.0986H7.47726V16.2653L11.6077 32.0986H19.0425V24.5986L7.47726 16.2653L0.0424805 19.5986V27.0986Z" fill="black"/>
<path d="M27.0425 24.2916V8.23914H30.8721V15.4628L36.8574 8.23914H41.3751L35.3668 15.3481L42.0172 24.2916H37.5913L33.0048 18.1229L30.8721 20.6454V24.2916H27.0425Z" fill="black"/>
<path d="M56.5045 24.2916V17.8248H50.7944V24.2916H46.9648V8.23914H50.7944V14.6372H56.5045V8.23914H60.3571V24.2916H56.5045Z" fill="black"/>
<path d="M65.3006 24.2916L71.0107 8.23914H75.987L81.72 24.2916H77.6611L76.7438 21.5627H70.254L69.3367 24.2916H65.3006ZM71.1942 18.7191H75.8036L73.625 12.1376H73.3957L71.1942 18.7191Z" fill="black"/>
<path d="M86.675 24.2916V8.23914H90.5047V20.9435H97.6824V24.2916H86.675Z" fill="black"/>
<path d="M102.055 24.2916L107.765 8.23914H112.741L118.474 24.2916H114.415L113.498 21.5627H107.008L106.091 24.2916H102.055ZM107.948 18.7191H112.558L110.379 12.1376H110.15L107.948 18.7191Z" fill="black"/>
<path d="M123.429 24.2916V8.23914H127.396L133.313 18.077H133.405V8.23914H137.257V24.2916H133.129L127.351 14.706H127.259V24.2916H123.429Z" fill="black"/>
<path d="M143.127 24.2916V8.23914H146.957V24.2916H143.127Z" fill="black"/>
</svg>
