<svg viewBox="0 0 127 37" fill="none" xmlns="http://www.w3.org/2000/svg">
<path fill-rule="evenodd" clip-rule="evenodd" d="M88.7944 5.32916C89.2253 5.45657 89.5829 5.64791 89.8701 5.90287L92.7633 1.79098C92.4127 1.48814 91.9735 1.20924 91.4483 0.954273C91.002 0.731122 90.4515 0.531906 89.7983 0.356624C89.145 0.1812 88.3721 0.0936279 87.4795 0.0936279C86.332 0.0936279 85.2564 0.316783 84.2526 0.762944C83.2642 1.19334 82.404 1.79099 81.6705 2.55603C80.9539 3.30503 80.3879 4.18961 79.9726 5.20963C79.5587 6.22965 79.3517 7.3133 79.3517 8.46087C79.3517 9.64026 79.5671 10.74 79.9965 11.76C80.4428 12.7799 81.0412 13.6644 81.7902 14.4136C82.5547 15.1626 83.4473 15.7523 84.468 16.1826C85.4873 16.6128 86.5714 16.8281 87.7188 16.8281C88.5002 16.8281 89.2562 16.7245 89.9897 16.5173C90.7232 16.3102 91.4004 16.0152 92.0213 15.6328C92.6591 15.2503 93.2335 14.796 93.7432 14.2701C94.2528 13.7282 94.6921 13.1306 95.0581 12.4772V7.16984H87.2584L88.9141 10.5168H90.3488C90.0292 10.9153 89.6476 11.234 89.2013 11.4731C88.755 11.6962 88.2608 11.8077 87.7188 11.8077C87.257 11.8077 86.8178 11.728 86.4038 11.5687C86.0054 11.3934 85.6548 11.1622 85.3521 10.8754C85.0494 10.5726 84.8101 10.214 84.6355 9.79964C84.4595 9.38515 84.3723 8.93899 84.3723 8.46087C84.3723 7.98275 84.4511 7.53645 84.6116 7.12211C84.7707 6.70777 84.9861 6.35706 85.2564 6.07027C85.5436 5.76744 85.8773 5.53626 86.2602 5.37688C86.6432 5.2016 87.0655 5.11389 87.5273 5.11389C87.9413 5.11389 88.3636 5.18569 88.7944 5.32916ZM47.2568 0.49108H51.4643L55.6241 6.61119L59.7599 0.49108H63.9674V16.4367H58.8753V8.99151L55.6241 13.7728L52.3489 8.99151V16.4367H47.2568V0.49108ZM70.8107 0.49108H74.6358L80.6836 16.4367H75.6637L75.1379 15.0024H70.3087L69.7828 16.4367H64.7624L70.8107 0.49108ZM96.3787 0.476154H101.782V16.4217H96.3787V0.476154ZM47.9263 25.0084C47.48 26.0284 47.2568 27.1758 47.2568 28.451C47.2568 29.694 47.4721 30.8335 47.9024 31.8695C48.3328 32.8895 48.9304 33.766 49.6953 34.4993C50.4604 35.2324 51.3687 35.8061 52.4207 36.2204C53.4725 36.619 54.6201 36.8182 55.8631 36.8182C56.7876 36.8182 57.6084 36.7225 58.3255 36.5313C59.0427 36.3399 59.6563 36.1329 60.1664 35.9097C60.756 35.6388 61.2661 35.328 61.6963 34.9774L59.1862 30.5546C58.9471 30.7937 58.6682 31.0009 58.3495 31.1762C58.0785 31.3356 57.7438 31.4791 57.3454 31.6066C56.9469 31.734 56.4928 31.7978 55.9827 31.7978C55.4727 31.7978 55.0025 31.7101 54.5722 31.5348C54.142 31.3595 53.7674 31.1205 53.4486 30.8176C53.1299 30.5148 52.8749 30.1642 52.6837 29.7658C52.5083 29.3515 52.4207 28.913 52.4207 28.451C52.4207 27.9888 52.5083 27.5584 52.6837 27.1599C52.859 26.7456 53.098 26.387 53.4009 26.0842C53.7196 25.7813 54.0861 25.5423 54.5006 25.367C54.9149 25.1917 55.3691 25.104 55.8631 25.104C56.3413 25.104 56.7636 25.1678 57.1302 25.2953C57.5128 25.4068 57.8394 25.5264 58.1104 25.6539C58.4133 25.8292 58.6922 26.0125 58.9471 26.2037L61.4573 21.7811C61.027 21.4782 60.5169 21.1993 59.9273 20.9444C59.4172 20.7212 58.8037 20.522 58.0865 20.3467C57.3852 20.1713 56.5803 20.0837 55.6719 20.0837C54.5244 20.0837 53.4407 20.2829 52.4207 20.6814C51.4007 21.0639 50.5082 21.6217 49.7432 22.3548C48.9781 23.0879 48.3726 23.9725 47.9263 25.0084ZM62.3002 20.4662H67.4639V24.1477L70.4762 20.4662H76.7157L71.0977 27.7576L77.0026 36.4118H70.8586L67.4639 31.4871V36.4118H62.3002V20.4662ZM83.7148 20.4662H77.4751V36.4118H83.978C84.8706 36.4118 85.6746 36.3001 86.3926 36.0771C87.1247 35.838 87.7385 35.5032 88.2327 35.073C88.7423 34.6267 89.1337 34.0928 89.4041 33.4712C89.6758 32.8496 89.8109 32.1564 89.8109 31.3913C89.8109 30.722 89.7067 30.1562 89.4998 29.694C89.3083 29.2319 89.0929 28.8494 88.855 28.5466C88.5678 28.1959 88.2496 27.9091 87.8976 27.6859C88.1215 27.4946 88.32 27.2555 88.496 26.9687C88.6396 26.7297 88.7747 26.4349 88.9028 26.0842C89.0296 25.7177 89.0929 25.2793 89.0929 24.7693C89.0929 24.0522 88.9577 23.4306 88.6874 22.9046C88.4326 22.3628 88.0652 21.9165 87.5879 21.5658C87.1247 21.1993 86.5601 20.9283 85.89 20.753C85.2367 20.5618 84.5116 20.4662 83.7148 20.4662ZM95.3059 20.4662H99.1298L105.178 36.4118H100.159L99.6324 34.9774H94.8033L94.2768 36.4118H89.2576L95.3059 20.4662ZM106.8 31.7261C106.418 31.6624 106.051 31.5747 105.7 31.4632V36.2444C106.083 36.356 106.506 36.4516 106.968 36.5313C107.366 36.611 107.821 36.6747 108.33 36.7225C108.857 36.7863 109.423 36.8182 110.028 36.8182C111.032 36.8182 111.901 36.6826 112.634 36.4118C113.366 36.1568 113.965 35.8061 114.427 35.3599C114.905 34.8977 115.256 34.3637 115.478 33.7582C115.702 33.1366 115.813 32.4751 115.813 31.7739C115.813 31.1046 115.702 30.4989 115.478 29.957C115.271 29.4151 115.008 28.9291 114.69 28.4987C114.387 28.0684 114.044 27.6859 113.662 27.3513C113.295 27.0165 112.952 26.7217 112.634 26.4667C112.475 26.3327 112.296 26.2082 112.132 26.0923C111.981 25.988 111.843 25.8906 111.736 25.7999C111.652 25.7211 111.577 25.669 111.492 25.6097C111.371 25.5254 111.229 25.4263 111.007 25.2146C110.893 25.1074 111.204 24.8473 111.3 24.7676C111.395 24.688 111.609 24.5994 111.736 24.5676C111.743 24.5659 111.75 24.5642 111.756 24.5625L111.77 24.559L111.778 24.5569C111.791 24.5534 111.804 24.5497 111.818 24.5462C111.912 24.5203 112.001 24.4958 112.113 24.4958C112.12 24.4949 112.127 24.4941 112.136 24.4932C112.144 24.4923 112.153 24.4911 112.163 24.49C112.181 24.4875 112.199 24.4851 112.218 24.4827V24.4825C112.303 24.4709 112.378 24.4609 112.513 24.4609C112.61 24.4609 112.672 24.4573 112.727 24.4544C112.814 24.4496 112.879 24.4461 113.027 24.4609C113.266 24.4848 113.49 24.5341 113.614 24.5676C113.834 24.6269 114.041 24.7277 114.139 24.8649V20.3944C113.806 20.3467 113.462 20.2989 113.112 20.251C112.809 20.2192 112.467 20.1872 112.084 20.1554C111.701 20.1075 111.319 20.0837 110.936 20.0837C110.203 20.0837 109.51 20.1872 108.857 20.3944C108.219 20.5858 107.662 20.8726 107.183 21.2551C106.706 21.6376 106.33 22.1157 106.059 22.6895C105.789 23.2632 105.653 23.9246 105.653 24.6737C105.653 25.343 105.765 25.9407 105.988 26.4667C106.211 26.9766 106.49 27.4388 106.824 27.8533C107.174 28.2677 107.542 28.6341 107.925 28.9529C108.323 29.2716 108.689 29.5666 109.024 29.8375C109.375 30.0924 109.661 30.3315 109.885 30.5546C110.107 30.7619 110.22 30.969 110.22 31.1762C110.22 31.7181 109.852 31.989 109.12 31.989C108.705 31.989 108.291 31.9652 107.877 31.9173C107.479 31.8695 107.12 31.8058 106.8 31.7261ZM116.893 20.4662H126.289V24.3008H121.985V26.6753H126.218V30.1306H121.985V32.5185H126.457V36.4118H116.893V20.4662ZM72.5479 7.31372L74.5069 11.4895H70.598L72.5479 7.31372ZM99.1438 31.6628L97.1855 27.487L95.2355 31.6628H99.1438ZM84.3441 31.4578C84.3441 32.8591 83.0122 33.1798 81.3692 33.1798V31.4578V29.7358C83.0122 29.7358 84.3441 30.0565 84.3441 31.4578ZM81.3692 26.5031C83.0122 26.5031 84.3441 26.1824 84.3441 24.7812C84.3441 23.3799 83.0122 23.0592 81.3692 23.0592V24.7812V26.5031Z" fill="black"/>
<path fill-rule="evenodd" clip-rule="evenodd" d="M10.7628 36.8153H21.9671L27.5537 27.7741L11.3251 0.0936279L0.457031 19.0289L10.7628 36.8153ZM5.63229 27.8211H16.5153L21.8466 18.0813L16.5153 9.04486L5.63229 27.8211Z" fill="black"/>
<path fill-rule="evenodd" clip-rule="evenodd" d="M33.0833 0.0936279H21.879L16.501 9.05697L21.8264 18.0996L27.3729 9.045H38.256L27.5538 27.8212L26.0597 25.2877L32.8503 36.8182L43.9515 18.8048L33.0833 0.0936279Z" fill="black"/>
</svg>
