<svg viewBox="0 0 123 19" fill="none" xmlns="http://www.w3.org/2000/svg">
<g clip-path="url(#clip0_30_2670)">
<path d="M37.108 0.0738525H15.0781V3.74549H37.108V0.0738525Z" fill="black"/>
<path d="M37.1078 11.0888V7.41711H22.4213C21.4054 7.41711 20.5854 8.23711 20.5854 9.25293V16.5962C20.5854 17.612 21.4054 18.432 22.4213 18.432H37.1078V14.7604H24.6243C24.4162 14.7604 24.2571 14.6013 24.2571 14.3932V11.4559C24.2571 11.2479 24.4162 11.0888 24.6243 11.0888H37.1078Z" fill="black"/>
<path d="M123 0.0738525H106.478V3.74549H123V0.0738525Z" fill="black"/>
<path d="M123 11.0888V7.41711H108.313C107.298 7.41711 106.478 8.23711 106.478 9.25293V16.5962C106.478 17.612 107.298 18.432 108.313 18.432H123V14.7604H110.516C110.308 14.7604 110.149 14.6013 110.149 14.3932V11.4559C110.149 11.2479 110.308 11.0888 110.516 11.0888H123Z" fill="black"/>
<path d="M15.0782 7.41713V13.9649C15.0782 14.2953 14.6866 14.4544 14.454 14.2219L0 0.0738525V18.432H3.67164V8.81235L12.4101 17.3673C13.1078 18.0526 14.0379 18.432 15.017 18.432C17.0731 18.432 18.7498 16.7676 18.7498 14.6992V7.41713H15.0782Z" fill="black"/>
<path d="M78.6712 1.95863C78.1327 0.80818 76.97 0.0738525 75.6971 0.0738525C74.4243 0.0738525 73.2739 0.80818 72.7354 1.95863L67.3503 13.4998C67.2157 13.7813 66.8118 13.7813 66.6894 13.4998L60.4231 0.0738525H56.3721L64.058 16.5473C64.5966 17.6977 65.747 18.432 67.0198 18.432C68.2927 18.432 69.4431 17.6977 69.9816 16.5473L75.3667 5.00608C75.5013 4.72459 75.9052 4.72459 76.0276 5.00608L80.5804 14.7604H75.6971V18.432H86.3449L78.6712 1.95863Z" fill="black"/>
<path d="M56.5677 18.432L52.9817 10.7461C55.0011 9.99951 56.4575 8.1025 56.5677 5.85056C56.7023 2.99892 54.6095 0.575643 51.868 0.147285C51.6232 0.0983301 51.3662 0.0738525 51.0725 0.0738525C51.0602 0.0738525 38.9561 0.0738525 38.9561 0.0738525V3.74549H51.0725C52.0883 3.74549 52.9083 4.56549 52.9083 5.58131C52.9083 6.59713 52.0883 7.41713 51.0725 7.41713H40.7919C39.7761 7.41713 38.9561 8.23712 38.9561 9.25294V18.432H42.6277V11.0888H49.102L52.5289 18.432H56.5677Z" fill="black"/>
<path d="M100.738 0.147285C100.493 0.0983301 100.236 0.0738525 99.9421 0.0738525C99.9299 0.0738525 87.8257 0.0738525 87.8257 0.0738525V3.74549H99.9421C100.958 3.74549 101.778 4.56549 101.778 5.58131C101.778 6.59713 100.958 7.41713 99.9421 7.41713H89.6615C88.6457 7.41713 87.8257 8.23712 87.8257 9.25294V18.432H91.4973V11.0888H99.9421C100.028 11.0888 100.113 11.0888 100.199 11.0765C100.211 11.0765 100.224 11.0765 100.236 11.0765C100.285 11.0765 100.334 11.0643 100.395 11.0643C103.136 10.844 105.315 8.60429 105.45 5.83832C105.572 2.98668 103.479 0.575643 100.738 0.147285Z" fill="black"/>
</g>
<defs>
<clipPath id="clip0_30_2670">
<rect width="123" height="18.3582" fill="white" transform="translate(0 0.0738525)"/>
</clipPath>
</defs>
</svg>
