<svg width="151" height="150" viewBox="0 0 151 150" fill="none" xmlns="http://www.w3.org/2000/svg">
<circle cx="75.5" cy="75" r="75" fill="white"/>
<g clip-path="url(#clip0_43_5503)">
<path d="M88.6255 95.4778C88.6255 97.7504 86.7993 99.5845 84.5541 99.5845H31.4431C29.1899 99.5845 27.3716 97.7425 27.3716 95.4778V47.784L47.974 28.5343H84.5462C86.7993 28.5343 88.6176 30.3763 88.6176 32.641V95.4778H88.6255Z" fill="#1C767E"/>
<path d="M47.5708 28V47.1939H27L47.5708 28Z" fill="#55C1CB"/>
<path d="M27.5298 67.1614V47.7282H48.1006L27.5298 67.1614Z" fill="#15595F"/>
<path d="M75.0987 68.2698H42.7166C42.1711 68.2698 41.7363 67.7355 41.7363 67.0656C41.7363 66.3958 42.1791 65.8615 42.7166 65.8615H75.0987C75.6442 65.8615 76.079 66.3958 76.079 67.0656C76.079 67.7355 75.6363 68.2698 75.0987 68.2698Z" fill="#55C1CB"/>
<path d="M75.0987 77.9186H42.7166C42.1711 77.9186 41.7363 77.3843 41.7363 76.7145C41.7363 76.0446 42.1791 75.5103 42.7166 75.5103H75.0987C75.6442 75.5103 76.079 76.0446 76.079 76.7145C76.079 77.3843 75.6363 77.9186 75.0987 77.9186Z" fill="#55C1CB"/>
<path d="M58.9077 87.5992H42.7166C42.1711 87.5992 41.7363 87.065 41.7363 86.3951C41.7363 85.7253 42.1791 85.191 42.7166 85.191H58.9077C59.4532 85.191 59.888 85.7253 59.888 86.3951C59.888 87.065 59.4453 87.5992 58.9077 87.5992Z" fill="#55C1CB"/>
<path d="M75.3674 58.2462H42.9774C42.4319 58.2462 41.9971 57.7119 41.9971 57.0421C41.9971 56.3723 42.4398 55.838 42.9774 55.838H75.3594C75.9049 55.838 76.3398 56.3723 76.3398 57.0421C76.3398 57.7119 75.897 58.2462 75.3594 58.2462H75.3674Z" fill="#55C1CB"/>
<path d="M125 117.718C125 120.078 123.103 122 120.755 122H65.4222C63.082 122 61.1768 120.086 61.1768 117.718V68.0226L82.6488 47.9674H120.755C123.095 47.9674 125 49.8812 125 52.2496V117.718Z" fill="#FAEAFF"/>
<path d="M82.6172 47.9674V67.9668H61.1768L82.6172 47.9674Z" fill="#C66DFF"/>
<path opacity="0.5" d="M61.1768 88.2213V67.9747H82.6093L61.1768 88.2213Z" fill="#C66DFF"/>
<g opacity="0.5">
<path d="M111.339 89.6088H78.9569C78.4114 89.6088 77.9766 89.0745 77.9766 88.4047C77.9766 87.7348 78.4193 87.2006 78.9569 87.2006H111.339C111.884 87.2006 112.319 87.7348 112.319 88.4047C112.319 89.0745 111.877 89.6088 111.339 89.6088Z" fill="#C66DFF"/>
<path d="M111.339 99.2575H78.9569C78.4114 99.2575 77.9766 98.7233 77.9766 98.0534C77.9766 97.3836 78.4193 96.8493 78.9569 96.8493H111.339C111.884 96.8493 112.319 97.3836 112.319 98.0534C112.319 98.7233 111.877 99.2575 111.339 99.2575Z" fill="#C66DFF"/>
<path d="M95.1479 108.946H78.9569C78.4114 108.946 77.9766 108.412 77.9766 107.742C77.9766 107.072 78.4193 106.538 78.9569 106.538H95.1479C95.6934 106.538 96.1282 107.072 96.1282 107.742C96.1282 108.412 95.6855 108.946 95.1479 108.946Z" fill="#C66DFF"/>
<path d="M111.607 79.5931H79.2254C78.6799 79.5931 78.2451 79.0589 78.2451 78.389C78.2451 77.7192 78.6878 77.1849 79.2254 77.1849H111.607C112.153 77.1849 112.588 77.7192 112.588 78.389C112.588 79.0589 112.145 79.5931 111.607 79.5931Z" fill="#C66DFF"/>
</g>
<path d="M94.1992 53.5175V69.3656H98.249V60.731H101.347L94.1992 53.5175Z" stroke="#E0ABFF" stroke-linejoin="round"/>
<path d="M105.961 53.5175V62.1522H102.863L110.011 69.3656V53.5175H105.961Z" stroke="#E0ABFF" stroke-linejoin="round"/>
<path d="M60.2041 34.3794V50.2275H64.2539V41.5929H67.3521L60.2041 34.3794Z" stroke="#55C1CB" stroke-linejoin="round"/>
<path d="M71.9659 34.3794V43.014H68.8677L76.0157 50.2275V34.3794H71.9659Z" stroke="#55C1CB" stroke-linejoin="round"/>
</g>
<defs>
<clipPath id="clip0_43_5503">
<rect width="98" height="94" fill="white" transform="translate(27 28)"/>
</clipPath>
</defs>
</svg>
