<svg viewBox="0 0 134 43" fill="none" xmlns="http://www.w3.org/2000/svg">
<path d="M21.6236 0.106228C23.4233 0.184417 25.5917 0.6669 27.2285 1.4774C29.9682 2.82123 31.965 4.93106 33.2157 7.80689C33.8961 9.34143 34.3175 10.7952 34.4746 12.1683C34.5261 12.6222 34.5847 13.0958 34.6505 13.5891C34.7212 14.1243 34.761 14.6017 34.7697 15.0213C34.7823 15.7669 34.8469 16.4973 34.8429 17.2411C34.8384 18.0464 34.8381 18.8561 34.842 19.6701C34.878 19.9464 34.914 20.2361 34.9507 20.5394C35.4488 24.6524 40.946 29.5898 40.946 29.5898C40.9757 29.6223 41.3083 30.0207 39.6613 30.0207C38.5193 30.0207 37.5201 29.8771 36.6637 29.5898L36.1817 29.4607C37.272 32.1652 39.1276 34.5559 41.5147 36.7254C41.5683 36.7737 41.571 36.8214 41.5228 36.8684C41.4606 36.9276 41.3988 36.9868 41.3371 37.046L41.1524 37.2233L40.968 37.3995C39.8302 38.4821 38.6695 39.4687 36.7792 39.6279C35.5925 39.7271 34.5053 39.6781 33.5193 39.4811C32.2616 39.2306 31.4093 39.1009 30.9606 39.092C28.5527 39.0424 27.0194 40.2725 25.0799 41.3614C22.6655 42.7002 19.6568 41.9888 17.3041 40.9361C16.6398 40.6374 15.9876 40.4104 15.3471 40.2553C12.973 39.6813 10.2385 40.3183 8.13191 41.5216C8.0744 41.554 8.00372 41.5629 7.94037 41.5458C7.87703 41.5286 7.82813 41.4873 7.80786 41.4339C6.99637 39.2942 6.51072 37.1081 6.34323 34.8755C6.26254 33.7567 6.21167 32.4911 6.1906 31.0786C6.16345 29.1748 6.16235 27.5124 6.18615 26.0914L5.28692 26.3327C4.43046 26.62 3.43125 26.7636 2.2893 26.7636C0.576382 26.7636 1.00461 26.3327 1.00461 26.3327C1.00461 26.3327 1.08062 26.2604 1.21562 26.1263L1.32768 26.0143C2.48541 24.8498 6.39025 20.7109 6.99984 17.2823C7.03415 17.0893 7.08378 16.8733 7.14873 16.6341C7.2268 16.2375 7.30597 15.8551 7.38671 15.4866C7.76437 13.7473 8.26585 12.0672 8.88854 10.4462C11.0626 4.62975 14.9428 -0.185551 21.6236 0.106228ZM25.681 10.2436C24.5286 10.2436 23.5944 11.1838 23.5944 12.3436C23.5944 13.5034 24.5286 14.4436 25.681 14.4436C26.8335 14.4436 27.7677 13.5034 27.7677 12.3436C27.7677 11.1838 26.8335 10.2436 25.681 10.2436ZM14.5522 9.89363C13.3998 9.89363 12.4656 10.8338 12.4656 11.9936C12.4656 13.1534 13.3998 14.0936 14.5522 14.0936C15.7047 14.0936 16.6389 13.1534 16.6389 11.9936C16.6389 10.8338 15.7047 9.89363 14.5522 9.89363Z" fill="black"/>
<path d="M61.0553 30.3906C63.5741 30.3906 65.7862 29.4636 67.6916 27.6095C69.597 25.7554 70.782 23.4424 71.2468 20.6706C71.5256 20.7081 71.9578 20.7268 72.5434 20.7268C73.1289 20.7268 73.9143 20.5442 74.8995 20.179C75.8847 19.8138 76.5911 19.3971 77.0187 18.9289L76.4052 17.2433C75.2155 18.161 74.0677 18.6198 72.9616 18.6198C71.8556 18.6198 71.0423 18.367 70.5218 17.8613C70.15 17.5055 69.9641 17.1216 69.9641 16.7095C69.9641 16.2975 70.071 15.9698 70.2848 15.7263C70.4986 15.4828 70.8006 15.3517 71.191 15.333C71.0423 15.2206 70.782 15.1364 70.4103 15.0802C70.0385 15.024 69.7689 14.9959 69.6016 14.9959C68.9882 14.9959 68.477 15.1457 68.068 15.4454C67.436 15.9136 67.12 16.5972 67.12 17.4961C67.12 17.6834 67.1479 17.8801 67.2036 18.0861V18.4232C67.2036 19.8653 66.9852 21.2886 66.5484 22.6933C66.1115 24.0979 65.433 25.2965 64.5129 26.2891C63.5927 27.2817 62.5471 27.778 61.376 27.778C60.6696 27.778 60.0654 27.6048 59.5635 27.2583C59.0616 26.9118 58.6806 26.4389 58.4203 25.8396C57.9556 24.7159 57.7232 23.433 57.7232 21.9909C57.7232 20.2679 58.016 18.5824 58.6016 16.9343C59.1871 15.2862 59.9725 13.9377 60.9577 12.889C61.9429 11.8402 62.9839 11.3158 64.0807 11.3158C64.9172 11.3158 65.4656 11.5499 65.7258 12.0181C65.8374 12.2054 65.9117 12.3692 65.9489 12.5097C65.9861 12.6502 65.9954 12.8421 65.9768 13.0856C65.9582 13.3291 65.8466 13.5491 65.6422 13.7458C65.4377 13.9424 65.196 14.0408 64.9172 14.0408C64.3223 14.0408 64.0249 13.6662 64.0249 12.9171L63.774 13.0294C63.6252 13.0856 63.4765 13.2261 63.3278 13.4508C63.1791 13.6755 63.1048 13.9377 63.1048 14.2374C63.1048 14.8742 63.3278 15.3377 63.774 15.628C64.2201 15.9183 64.7313 16.0634 65.3076 16.0634C66.4043 16.0634 67.2641 15.7123 67.8868 15.0099C68.5095 14.3076 68.8209 13.507 68.8209 12.608C68.8209 11.4281 68.3515 10.5058 67.4128 9.84091C66.474 9.17606 65.275 8.84363 63.8158 8.84363C62.3565 8.84363 60.9577 9.21351 59.6193 9.95328C58.2809 10.6931 57.1702 11.6716 56.2872 12.889C55.4042 14.1063 54.7118 15.4969 54.2099 17.0607C53.708 18.6245 53.457 20.2305 53.457 21.8786C53.457 24.4069 54.0937 26.4577 55.3671 28.0308C56.6404 29.604 58.5365 30.3906 61.0553 30.3906ZM92.271 30.3625C94.7248 30.3625 96.4349 28.7332 97.4016 25.4744C97.2715 25.0811 96.8904 24.5474 96.2584 23.8731C95.9238 25.2216 95.4823 26.2189 94.9339 26.865C94.3855 27.5111 93.8697 27.8342 93.3863 27.8342C92.8101 27.8342 92.5219 27.3941 92.5219 26.5138C92.5219 26.0269 92.7357 24.3788 93.1633 21.5696L93.2003 21.3273C93.2872 20.7441 93.3306 20.3285 93.3306 20.0807C93.3306 19.1068 92.9681 18.2968 92.2431 17.6506C91.5181 17.0045 90.5329 16.6815 89.2875 16.6815C87.5959 16.6815 86.2946 17.3369 85.3837 18.6479C84.7889 17.3557 83.4133 16.7095 81.257 16.7095C80.1788 16.7095 79.1843 17.1028 78.2734 17.8894C78.1619 17.1028 77.5206 16.7095 76.3495 16.7095C75.9405 16.7095 75.3457 16.8126 74.5649 17.0186L73.0313 30.2221H76.7677C76.7917 29.9377 76.8458 29.4559 76.93 28.7766L76.9549 28.5772C77.1347 27.1434 77.4348 24.9199 77.8552 21.9067C77.9667 21.2324 78.227 20.591 78.6359 19.9823C79.0449 19.3737 79.5654 19.0693 80.1974 19.0693C80.8294 19.0693 81.2709 19.2426 81.5219 19.589C81.7728 19.9355 81.8983 20.3709 81.8983 20.8953L80.8387 30.2221H84.4357C84.5127 29.6962 84.6311 28.7874 84.7908 27.4956L84.8245 27.2228C85.007 25.7391 85.2399 23.7892 85.5232 21.3729C85.6905 20.6987 85.9879 20.1462 86.4154 19.7155C86.843 19.2847 87.3402 19.0693 87.9072 19.0693C88.4742 19.0693 88.8878 19.2379 89.148 19.575C89.4083 19.9121 89.5384 20.3335 89.5384 20.8392L88.8692 27.0476C88.8692 27.8342 89.148 28.5833 89.7057 29.295C90.2634 30.0067 91.1185 30.3625 92.271 30.3625ZM99.0746 13.3384C99.688 13.3384 100.213 13.1231 100.65 12.6923C101.087 12.2616 101.305 11.7372 101.305 11.1191C101.305 10.5011 101.087 9.97201 100.65 9.5319C100.213 9.09178 99.688 8.87172 99.0746 8.87172C98.4612 8.87172 97.9407 9.09646 97.5131 9.54594C97.0856 9.97669 96.8718 10.5011 96.8718 11.1191C96.8718 11.7372 97.0856 12.2616 97.5131 12.6923C97.9407 13.1231 98.4612 13.3384 99.0746 13.3384ZM99.0188 30.4187C100.264 30.4187 101.333 29.9599 102.225 29.0422C103.118 28.1245 103.75 26.9165 104.122 25.4182C104.066 25.231 103.898 24.95 103.62 24.5755C103.341 24.2009 103.136 23.9762 103.006 23.9012C102.746 24.9126 102.36 25.8162 101.849 26.6122C101.338 27.4081 100.78 27.8061 100.176 27.8061C99.5718 27.8061 99.2326 27.5626 99.1582 27.0757C99.1211 26.8884 99.1025 26.6684 99.1025 26.4155C99.1025 26.1627 99.149 25.849 99.2419 25.4744C99.2419 25.4182 99.6044 22.5715 100.329 16.9343C99.939 16.8032 99.4882 16.7376 98.977 16.7376C98.4658 16.7376 97.95 16.8266 97.4295 17.0045C96.909 17.1824 96.5558 17.44 96.3699 17.7771L95.3661 26.4577C95.3475 26.6824 95.3382 26.8978 95.3382 27.1038C95.3382 28.0777 95.6403 28.8736 96.2444 29.4917C96.8485 30.1097 97.7734 30.4187 99.0188 30.4187ZM108.053 38.5937C109.54 38.5937 110.753 38.1208 111.692 37.175C112.631 36.2292 113.202 34.8761 113.407 33.1156L114.16 27.2443C115.926 25.9707 117.338 24.7721 118.398 23.6484L117.589 21.9348C116.883 22.815 115.842 23.7889 114.466 24.8564L115.47 16.9343C115.098 16.7657 114.596 16.6815 113.964 16.6815C113.332 16.6815 112.728 16.8594 112.152 17.2152C111.297 16.8781 110.358 16.7095 109.336 16.7095C107.142 16.7095 105.33 17.44 103.898 18.9008C102.467 20.3616 101.751 22.3187 101.751 24.7721C101.751 26.4015 102.225 27.7218 103.173 28.7332C104.122 29.7445 105.255 30.297 106.575 30.3906C105.032 31.7391 104.261 33.228 104.261 34.8573C104.261 36.1871 104.688 37.1516 105.544 37.7509C106.362 38.3127 107.198 38.5937 108.053 38.5937ZM107.997 27.8061C107.31 27.8061 106.747 27.5345 106.31 26.9914C105.874 26.4483 105.655 25.7179 105.655 24.8002C105.655 24.6504 105.664 24.4912 105.683 24.3226C105.813 22.5247 106.227 21.1716 106.924 20.2633C107.621 19.3549 108.564 18.9008 109.754 18.9008C110.237 18.9008 110.767 19.0131 111.343 19.2379L110.646 25.334C110.051 26.9821 109.168 27.8061 107.997 27.8061ZM107.83 36.0653C107.458 36.0653 107.128 35.9202 106.84 35.6299C106.552 35.3396 106.408 34.9416 106.408 34.436C106.408 32.8628 107.644 31.3364 110.117 29.8569L109.642 34.0707C109.475 35.4005 108.871 36.0653 107.83 36.0653ZM121.953 30.3906C123.468 30.3906 124.709 29.782 125.676 28.5646C126.233 29.7632 127.367 30.3625 129.077 30.3625C129.97 30.3625 130.871 30.002 131.782 29.281C132.693 28.5599 133.418 27.3098 133.957 25.5306C133.752 24.9313 133.381 24.3882 132.842 23.9012C132.451 25.2497 131.996 26.2376 131.475 26.865C130.955 27.4924 130.462 27.8061 129.998 27.8061C129.403 27.8061 129.105 27.4315 129.105 26.6824C129.105 26.1206 129.189 25.2029 129.356 23.9293C129.431 23.3675 129.561 22.417 129.747 21.0779C129.932 19.7389 130.109 18.3764 130.276 16.9905C129.96 16.8032 129.444 16.7095 128.729 16.7095C128.013 16.7095 127.404 16.8687 126.902 17.1871C126.122 16.8687 125.267 16.7095 124.337 16.7095H124.17C121.976 16.7095 120.164 17.44 118.733 18.9008C117.301 20.3616 116.585 22.3187 116.585 24.7721C116.585 26.4577 117.101 27.8155 118.133 28.8455C119.165 29.8756 120.438 30.3906 121.953 30.3906ZM122.831 27.8061C122.144 27.8061 121.581 27.5345 121.144 26.9914C120.708 26.4483 120.489 25.7179 120.489 24.8002C120.489 24.6504 120.498 24.4912 120.517 24.3226C120.647 22.5247 121.061 21.1716 121.758 20.2633C122.455 19.3549 123.398 18.9008 124.588 18.9008C125.09 18.9008 125.61 19.0131 126.15 19.2379L125.48 25.3059C124.886 26.9727 124.003 27.8061 122.831 27.8061Z" fill="black"/>
</svg>
