<svg width="151" height="150" viewBox="0 0 151 150" fill="none" xmlns="http://www.w3.org/2000/svg">
<circle cx="75.5" cy="75" r="75" fill="white"/>
<g clip-path="url(#clip0_43_5601)">
<path d="M124.764 39.2432H83.5981C79.6124 39.2432 76.3813 42.4972 76.3813 46.5111V87.9684C76.3813 91.9824 79.6124 95.2363 83.5981 95.2363H124.764C128.749 95.2363 131.981 91.9824 131.981 87.9684V46.5111C131.981 42.4972 128.749 39.2432 124.764 39.2432Z" fill="#09435B"/>
<path d="M68.8554 47.9706H25.69C21.5335 47.9706 18.1641 51.3639 18.1641 55.5498V99.0211C18.1641 103.207 21.5335 106.6 25.69 106.6H68.8554C73.0119 106.6 76.3814 103.207 76.3814 99.0211V55.5498C76.3814 51.3639 73.0119 47.9706 68.8554 47.9706Z" fill="#A1FDE2"/>
<path d="M76.3813 70.2024L98.5824 89.3792L76.3813 108.556V70.2024Z" fill="#09435B"/>
<path d="M76.1014 121L52.9536 101.006L76.1014 81.0021V121Z" fill="#A1FDE2"/>
<path d="M63.5463 63H31.4537C30.0986 63 29 63.7522 29 64.68V65.32C29 66.2478 30.0986 67 31.4537 67H63.5463C64.9014 67 66 66.2478 66 65.32V64.68C66 63.7522 64.9014 63 63.5463 63Z" fill="#09435B"/>
<path d="M63.5463 75H31.4537C30.0986 75 29 75.7522 29 76.68V77.32C29 78.2478 30.0986 79 31.4537 79H63.5463C64.9014 79 66 78.2478 66 77.32V76.68C66 75.7522 64.9014 75 63.5463 75Z" fill="#09435B"/>
<path d="M48 89C48 89.9733 46.9688 91 45.704 91H31.296C30.0312 91 29 89.9733 29 89C29 88.0267 30.0312 87 31.296 87H45.704C46.9688 87 48 88.0267 48 89Z" fill="#09435B"/>
<path d="M120.571 52H88.4294C87.0877 52 86 52.8373 86 53.8701V54.1299C86 55.1627 87.0877 56 88.4294 56H120.571C121.912 56 123 55.1627 123 54.1299V53.8701C123 52.8373 121.912 52 120.571 52Z" fill="#A1FDE2"/>
<path d="M120.571 64H88.4294C87.0877 64 86 64.8373 86 65.8701V66.1299C86 67.1627 87.0877 68 88.4294 68H120.571C121.912 68 123 67.1627 123 66.1299V65.8701C123 64.8373 121.912 64 120.571 64Z" fill="#A1FDE2"/>
<path d="M105 78C105 79.1017 103.969 80 102.704 80H88.296C87.0312 80 86 79.1017 86 78C86 76.8983 87.0312 76 88.296 76H102.704C103.969 76 105 76.8983 105 78Z" fill="#A1FDE2"/>
</g>
<defs>
<clipPath id="clip0_43_5601">
<rect width="114" height="82" fill="white" transform="translate(18 39)"/>
</clipPath>
</defs>
</svg>
