<svg viewBox="0 0 189 30" fill="none" xmlns="http://www.w3.org/2000/svg">
<g clip-path="url(#clip0_30_2708)">
<path fill-rule="evenodd" clip-rule="evenodd" d="M17.45 11.6676L13.8687 11.808H13.8592C13.3281 11.808 12.9011 11.8871 12.5209 12.0467C12.1402 12.2066 11.781 12.4578 11.3994 12.8354M17.45 11.6676C18.4717 11.6676 19.4288 12.0974 20.1762 12.8369L17.45 11.6676ZM17.4501 10.7897V10.7044C18.7521 10.7044 19.9461 11.2529 20.8545 12.1517C21.7565 13.0452 22.3805 14.2891 22.5653 15.7058L23.1876 20.4918C23.3673 21.8712 23.0432 23.2099 22.3685 24.2602C21.6878 25.317 20.6413 26.0972 19.3802 26.3141L19.3772 26.3147C19.2781 26.3311 19.1798 26.3442 19.0782 26.3541L19.0771 26.3542L18.8321 26.3776L18.8286 26.378L18.5116 26.4059L18.2057 26.4324L18.2025 26.4327L17.9091 26.4562L17.9071 26.4563L17.6938 26.4725L17.551 26.483L17.4168 26.4918L17.2793 26.501L17.1496 26.5083L16.9603 26.5186L16.9569 26.5188L16.7735 26.5276L16.7706 26.5277L16.5938 26.5351L16.5926 26.5351L16.3613 26.5442L16.1988 26.5485L16.1952 26.5486L16.0314 26.5517L15.933 26.5516L15.7865 26.5531L15.6353 26.5531L15.5345 26.5516L15.5323 26.5515L15.3741 26.5485L15.2635 26.5455L15.0368 26.538L14.8036 26.5276L14.8019 26.5276L14.6152 26.5186L14.4265 26.5083L14.2911 26.5007L14.0205 26.4828L13.8817 26.4725L13.6684 26.4563L13.6665 26.4562L13.3699 26.4324L13.0647 26.406L12.7434 26.3777L12.4985 26.3542C11.2272 26.2323 10.133 25.5333 9.39072 24.5246C8.65328 23.5246 8.25526 22.2112 8.35499 20.822L8.35519 20.8192C8.36333 20.7143 8.37325 20.6038 8.38786 20.4908L9.01014 15.7045C9.19497 14.2878 9.81875 13.044 10.7209 12.1504C11.1671 11.7089 11.6265 11.3766 12.1478 11.1578C12.667 10.9398 13.2226 10.8448 13.8496 10.8439L17.4365 10.7032L17.4501 10.7897ZM9.96617 15.8291C9.96616 15.8291 9.96618 15.829 9.96617 15.8291L9.34401 20.6144C9.3325 20.7034 9.32407 20.7954 9.31652 20.8924C9.23324 22.0569 9.56863 23.1416 10.1669 23.9527C10.7686 24.7704 11.6268 25.3021 12.5903 25.3945L12.8316 25.4176L12.8351 25.4179L13.1479 25.4455L13.45 25.4716L13.4531 25.4719L13.7415 25.495L13.7434 25.4951L13.9537 25.5111L14.0895 25.5211L14.3528 25.5386L14.4792 25.5457L14.6645 25.5558L14.6679 25.556L14.8462 25.5645L14.8479 25.5646L15.0767 25.5747L15.2924 25.5819L15.2956 25.582L15.3961 25.5846L15.3997 25.5847L15.5486 25.5876L15.5507 25.5876L15.6459 25.589H15.7841L15.9305 25.5875L16.0269 25.5875L16.1731 25.5847L16.3326 25.5805L16.5536 25.5718L16.5548 25.5718L16.7276 25.5646L16.7305 25.5644L16.9076 25.556L16.9109 25.5558L17.0956 25.5457L17.2228 25.5386L17.3524 25.5299L17.486 25.5211L17.6219 25.5111L17.8321 25.4951L17.8341 25.495L18.1224 25.4719L18.1256 25.4716L18.427 25.4455L18.7404 25.4179L18.744 25.4176L18.9843 25.3946C18.9841 25.3946 18.9845 25.3946 18.9843 25.3946C19.0628 25.3869 19.1398 25.3767 19.2182 25.3638C20.1754 25.1986 21.0017 24.6016 21.5575 23.7388C22.1088 22.8806 22.382 21.7708 22.2316 20.6163L21.6093 15.8305C21.451 14.6167 20.9192 13.5729 20.1762 12.8369M9.96617 15.8291C10.1246 14.6153 10.6563 13.5715 11.3994 12.8354L9.96617 15.8291Z" fill="black"/>
<path fill-rule="evenodd" clip-rule="evenodd" d="M13.5074 18.6348C13.9287 18.6348 14.2702 19.5096 14.2702 20.5888C14.2702 21.6679 13.9287 22.5428 13.5074 22.5428C13.0862 22.5428 12.7446 21.6679 12.7446 20.5888C12.7446 19.5096 13.0862 18.6348 13.5074 18.6348ZM18.084 18.6348C18.5053 18.6348 18.8468 19.5096 18.8468 20.5888C18.8468 21.6679 18.5053 22.5428 18.084 22.5428C17.6628 22.5428 17.3212 21.6679 17.3212 20.5888C17.3212 19.5096 17.6628 18.6348 18.084 18.6348Z" fill="black"/>
<path d="M13.8795 4.17364C16.1928 3.65907 19.8751 3.84086 23.3366 6.97373C26.8589 10.1608 26.8033 11.0536 26.7465 12.9346C26.6115 13.7262 26.4316 14.2716 26.2082 14.5706C25.9013 14.9826 25.4555 15.3447 24.8815 15.6452C23.8062 16.2082 22.2454 16.5658 20.3461 16.7154C18.62 16.8502 17.6095 16.7784 16.7616 16.7169C16.595 16.7052 14.9681 16.6568 14.0977 16.8253C13.2169 16.9954 12.5317 17.2226 11.9035 17.4293C10.8506 17.7753 9.94985 18.0641 8.65495 18.0143C7.51746 17.9703 6.64847 17.8149 6.03475 17.507C5.33108 17.1552 4.91577 16.6172 4.75572 15.8476C4.48855 14.5618 4.44357 11.7603 7.61799 8.14507C10.4829 4.88466 13.7208 4.20882 13.8795 4.17364Z" fill="black"/>
<mask id="mask0_30_2708" style="mask-type:luminance" maskUnits="userSpaceOnUse" x="3" y="2" width="25" height="17">
<path d="M13.8795 4.17364C16.1928 3.65907 19.8751 3.84086 23.3366 6.97373C26.8589 10.1608 26.8033 11.0536 26.7465 12.9346C26.6115 13.7262 26.4317 14.2716 26.2082 14.5706C25.9013 14.9826 25.4555 15.3447 24.8815 15.6452C23.8062 16.2082 22.2454 16.5658 20.3461 16.7154C18.62 16.8502 17.6095 16.7784 16.7616 16.7169C16.595 16.7052 14.9681 16.6568 14.0977 16.8253C13.2169 16.9954 12.5317 17.2226 11.9035 17.4293C10.8506 17.7753 9.94985 18.0641 8.65495 18.0143C7.51746 17.9703 6.64847 17.8149 6.03475 17.507C5.33108 17.1552 4.91577 16.6172 4.75572 15.8476C4.48855 14.5618 4.44357 11.7603 7.61799 8.14507C10.4829 4.88466 13.7208 4.20882 13.8795 4.17364Z" fill="white"/>
<path fill-rule="evenodd" clip-rule="evenodd" d="M22.6899 7.68853C19.4967 4.79851 16.1485 4.65662 14.089 5.11473C14.088 5.11496 14.0858 5.11544 14.0837 5.11589C13.9315 5.14869 10.9743 5.78633 8.3426 8.78119C5.36415 12.1732 5.49546 14.6677 5.69978 15.6512M23.9837 6.25883C25.7532 7.85997 26.7431 8.98485 27.2498 10.0201C27.7686 11.0802 27.7408 11.9767 27.7132 12.8691C27.7122 12.9006 27.7112 12.9321 27.7103 12.9637L27.7083 13.0306L27.697 13.0965C27.5593 13.9045 27.352 14.6508 26.9806 15.1477L26.2083 14.5706L26.9815 15.1466C26.5694 15.6998 25.9999 16.148 25.3288 16.4993C24.0869 17.1495 22.3771 17.5225 20.4219 17.6765C18.6289 17.8166 17.5641 17.7418 16.6944 17.6786C16.6944 17.6786 16.6944 17.6786 16.6944 17.6786C16.6935 17.6786 16.6863 17.6781 16.6707 17.6774C16.6537 17.6767 16.6308 17.6758 16.6024 17.6748C16.5456 17.6729 16.4699 17.6708 16.3796 17.6691C16.1987 17.6657 15.9632 17.6639 15.7072 17.6675C15.175 17.675 14.6253 17.7052 14.2812 17.7718C13.4739 17.9277 12.8443 18.1348 12.2203 18.3401L12.205 18.3451C11.1434 18.6939 10.0995 19.0347 8.61802 18.9776C7.44014 18.9321 6.404 18.7706 5.60324 18.3691C4.63704 17.8858 4.03225 17.1031 3.81197 16.0438C3.48197 14.4557 3.52346 11.3472 6.89368 7.50894C9.92535 4.05872 13.3606 3.30084 13.6628 3.23418M23.9837 6.25883C20.2542 2.8834 16.2381 2.66154 13.671 3.23238L23.9837 6.25883ZM22.6899 7.68853C24.4426 9.27449 25.186 10.1896 25.5179 10.8678L22.6899 7.68853ZM25.5179 10.8678C25.8121 11.4688 25.8121 11.9258 25.785 12.8371L25.5179 10.8678ZM25.785 12.8371C25.6556 13.567 25.5095 13.8952 25.436 13.9935L25.4352 13.9946C25.2335 14.2653 24.9115 14.5413 24.4345 14.791C23.526 15.2667 22.1144 15.609 20.2711 15.7542M5.69978 15.6512C5.79958 16.131 6.02529 16.4243 6.46609 16.6447L6.46723 16.6453C6.8938 16.8593 7.5955 17.0085 8.6922 17.0509M15.6802 15.7395C16.2303 15.7318 16.7084 15.7466 16.8293 15.7551L16.8316 15.7553C17.6571 15.8152 18.6138 15.8837 20.2711 15.7542M15.6802 15.7395C15.1399 15.7471 14.4413 15.7769 13.9152 15.8787L15.6802 15.7395ZM13.9152 15.8787C12.9868 16.0579 12.2594 16.2973 11.6403 16.501L11.6027 16.5134C10.5584 16.8565 9.80046 17.0935 8.6922 17.0509" fill="black"/>
</mask>
<g mask="url(#mask0_30_2708)">
<path fill-rule="evenodd" clip-rule="evenodd" d="M16.6918 10.6036C18.2766 10.6036 19.5614 11.5193 19.5614 12.6488C19.5614 13.7784 18.2766 14.6939 16.6918 14.6939C15.107 14.6939 13.8222 13.7784 13.8222 12.6488C13.8222 11.5193 15.107 10.6036 16.6918 10.6036ZM24.4474 6.72229C26.0582 6.72229 27.3639 8.16241 27.3639 9.93892C27.3639 11.7154 26.0582 13.1555 24.4474 13.1555C22.8366 13.1555 21.5309 11.7154 21.5309 9.93892C21.5309 8.16241 22.8366 6.72229 24.4474 6.72229ZM8.26041 5.11694C10.2641 5.11694 11.8885 6.90841 11.8885 9.1183C11.8885 11.3282 10.2641 13.1196 8.26041 13.1196C6.25667 13.1196 4.63232 11.3282 4.63232 9.1183C4.63232 6.90841 6.25667 5.11694 8.26041 5.11694Z" fill="black"/>
</g>
<path fill-rule="evenodd" clip-rule="evenodd" d="M5.37158 11.5394C5.82404 10.5218 6.533 9.381 7.61819 8.14512C8.50655 7.13411 9.43078 6.37162 10.2879 5.79968C11.2536 6.51866 11.8885 7.73676 11.8885 9.11842C11.8885 11.3283 10.2642 13.1197 8.26045 13.1197C7.08173 13.1197 6.03429 12.4998 5.37158 11.5394ZM23.3296 6.96717C23.332 6.96937 23.3344 6.97157 23.3369 6.97377C26.163 9.53096 26.6857 10.6111 26.7526 11.9098C26.2191 12.6678 25.3849 13.1556 24.4475 13.1556C22.8367 13.1556 21.5309 11.7155 21.5309 9.93904C21.5309 8.59931 22.2735 7.45089 23.3296 6.96717ZM19.5614 12.6489C19.5614 11.5194 18.2767 10.6038 16.6918 10.6038C15.107 10.6038 13.8223 11.5194 13.8223 12.6489C13.8223 13.7785 15.107 14.6941 16.6918 14.6941C18.2767 14.6941 19.5614 13.7785 19.5614 12.6489Z" fill="white"/>
<path d="M183.108 21.8407C182.407 21.8407 181.812 21.7362 181.32 21.5274C180.841 21.3062 180.479 20.9621 180.233 20.4952C179.999 20.016 179.882 19.3893 179.882 18.6152V8.20142H182.61V18.1728C182.61 18.4677 182.66 18.7074 182.758 18.8917C182.868 19.076 183.016 19.205 183.2 19.2787C183.384 19.3401 183.593 19.3709 183.827 19.3709H188.14V21.8407H183.108Z" fill="black"/>
<path d="M172.267 21.9514C171.333 21.9514 170.516 21.8653 169.815 21.6933C169.115 21.509 168.525 21.1773 168.046 20.698C167.579 20.2065 167.228 19.5061 166.995 18.5969C166.762 17.6875 166.645 16.5018 166.645 15.0396C166.645 13.5773 166.762 12.3916 166.995 11.4823C167.241 10.5608 167.597 9.85421 168.064 9.36271C168.531 8.87121 169.115 8.53329 169.815 8.34898C170.516 8.16467 171.333 8.07251 172.267 8.07251C173.2 8.07251 174.018 8.16467 174.718 8.34898C175.418 8.53329 176.002 8.87121 176.469 9.36271C176.936 9.85421 177.286 10.5608 177.52 11.4823C177.753 12.3916 177.87 13.5773 177.87 15.0396C177.87 16.5018 177.753 17.6875 177.52 18.5969C177.286 19.5061 176.936 20.2065 176.469 20.698C176.002 21.1773 175.418 21.509 174.718 21.6933C174.018 21.8653 173.2 21.9514 172.267 21.9514ZM172.267 19.5C172.82 19.5 173.28 19.4385 173.649 19.3157C174.018 19.1927 174.306 18.9777 174.515 18.6706C174.736 18.3511 174.896 17.9026 174.994 17.3251C175.093 16.7353 175.142 15.9734 175.142 15.0396C175.142 14.0566 175.093 13.2702 174.994 12.6804C174.896 12.0906 174.736 11.6421 174.515 11.3349C174.306 11.0154 174.018 10.8004 173.649 10.6898C173.28 10.5792 172.82 10.5239 172.267 10.5239C171.739 10.5239 171.29 10.5792 170.921 10.6898C170.552 10.8004 170.251 11.0154 170.018 11.3349C169.797 11.6421 169.631 12.0906 169.52 12.6804C169.422 13.2702 169.373 14.0566 169.373 15.0396C169.373 15.9734 169.416 16.7353 169.502 17.3251C169.6 17.9026 169.76 18.3511 169.981 18.6706C170.202 18.9777 170.497 19.1927 170.866 19.3157C171.246 19.4385 171.714 19.5 172.267 19.5Z" fill="black"/>
<path d="M160.965 21.9514C160.166 21.9514 159.46 21.8592 158.846 21.6749C158.243 21.4906 157.727 21.1526 157.298 20.6612C156.879 20.1696 156.56 19.4692 156.339 18.56C156.13 17.6384 156.026 16.4465 156.026 14.9843C156.026 13.5712 156.136 12.4162 156.358 11.5192C156.591 10.6099 156.923 9.9095 157.353 9.418C157.782 8.91421 158.305 8.56401 158.92 8.36741C159.533 8.17081 160.228 8.07251 161.002 8.07251C161.616 8.07251 162.187 8.10937 162.716 8.1831C163.256 8.24454 163.742 8.3244 164.173 8.42271C164.602 8.50872 164.965 8.60702 165.26 8.71761V10.8372C165.039 10.788 164.737 10.7389 164.357 10.6898C163.988 10.6406 163.564 10.6037 163.085 10.5792C162.606 10.5423 162.102 10.5239 161.574 10.5239C161.058 10.5239 160.615 10.5853 160.247 10.7082C159.89 10.8188 159.602 11.0338 159.38 11.3533C159.171 11.6605 159.012 12.109 158.901 12.6988C158.803 13.2886 158.754 14.0566 158.754 15.0027C158.754 15.912 158.796 16.6616 158.883 17.2514C158.98 17.8412 159.134 18.302 159.344 18.6337C159.552 18.9531 159.835 19.1805 160.191 19.3157C160.56 19.4385 161.021 19.5 161.574 19.5C162.507 19.5 163.263 19.4816 163.841 19.4447C164.431 19.4078 164.903 19.3648 165.26 19.3157V21.4169C164.928 21.5275 164.547 21.6257 164.117 21.7118C163.687 21.7855 163.214 21.8408 162.698 21.8777C162.182 21.9268 161.604 21.9514 160.965 21.9514Z" fill="black"/>
<path d="M148.759 21.9514C147.826 21.9514 147.008 21.8653 146.308 21.6933C145.607 21.509 145.018 21.1773 144.538 20.698C144.072 20.2065 143.722 19.5061 143.488 18.5969C143.255 17.6875 143.138 16.5018 143.138 15.0396C143.138 13.5773 143.255 12.3916 143.488 11.4823C143.734 10.5608 144.091 9.85421 144.557 9.36271C145.024 8.87121 145.607 8.53329 146.308 8.34898C147.008 8.16467 147.826 8.07251 148.759 8.07251C149.694 8.07251 150.51 8.16467 151.211 8.34898C151.911 8.53329 152.495 8.87121 152.962 9.36271C153.429 9.85421 153.779 10.5608 154.012 11.4823C154.246 12.3916 154.362 13.5773 154.362 15.0396C154.362 16.5018 154.246 17.6875 154.012 18.5969C153.779 19.5061 153.429 20.2065 152.962 20.698C152.495 21.1773 151.911 21.509 151.211 21.6933C150.51 21.8653 149.694 21.9514 148.759 21.9514ZM148.759 19.5C149.312 19.5 149.773 19.4385 150.142 19.3157C150.51 19.1927 150.8 18.9777 151.008 18.6706C151.229 18.3511 151.389 17.9026 151.487 17.3251C151.586 16.7353 151.635 15.9734 151.635 15.0396C151.635 14.0566 151.586 13.2702 151.487 12.6804C151.389 12.0906 151.229 11.6421 151.008 11.3349C150.8 11.0154 150.51 10.8004 150.142 10.6898C149.773 10.5792 149.312 10.5239 148.759 10.5239C148.231 10.5239 147.782 10.5792 147.414 10.6898C147.045 10.8004 146.745 11.0154 146.511 11.3349C146.289 11.6421 146.124 12.0906 146.013 12.6804C145.915 13.2702 145.866 14.0566 145.866 15.0396C145.866 15.9734 145.909 16.7353 145.995 17.3251C146.093 17.9026 146.253 18.3511 146.474 18.6706C146.695 18.9777 146.99 19.1927 147.358 19.3157C147.74 19.4385 148.206 19.5 148.759 19.5Z" fill="black"/>
<path d="M135.618 21.8407V10.6528H131.876V8.20142H142.105V10.6528H138.345V21.8407H135.618Z" fill="black"/>
<path d="M125.234 21.9514C124.301 21.9514 123.483 21.8653 122.783 21.6933C122.083 21.509 121.493 21.1773 121.014 20.698C120.546 20.2065 120.196 19.5061 119.963 18.5969C119.73 17.6875 119.613 16.5018 119.613 15.0396C119.613 13.5773 119.73 12.3916 119.963 11.4823C120.209 10.5608 120.565 9.85421 121.032 9.36271C121.499 8.87121 122.083 8.53329 122.783 8.34898C123.483 8.16467 124.301 8.07251 125.234 8.07251C126.168 8.07251 126.985 8.16467 127.686 8.34898C128.386 8.53329 128.969 8.87121 129.437 9.36271C129.904 9.85421 130.254 10.5608 130.487 11.4823C130.72 12.3916 130.838 13.5773 130.838 15.0396C130.838 16.5018 130.72 17.6875 130.487 18.5969C130.254 19.5061 129.904 20.2065 129.437 20.698C128.969 21.1773 128.386 21.509 127.686 21.6933C126.985 21.8653 126.168 21.9514 125.234 21.9514ZM125.234 19.5C125.787 19.5 126.248 19.4385 126.617 19.3157C126.985 19.1927 127.274 18.9777 127.483 18.6706C127.704 18.3511 127.864 17.9026 127.962 17.3251C128.061 16.7353 128.11 15.9734 128.11 15.0396C128.11 14.0566 128.061 13.2702 127.962 12.6804C127.864 12.0906 127.704 11.6421 127.483 11.3349C127.274 11.0154 126.985 10.8004 126.617 10.6898C126.248 10.5792 125.787 10.5239 125.234 10.5239C124.706 10.5239 124.258 10.5792 123.889 10.6898C123.52 10.8004 123.219 11.0154 122.986 11.3349C122.765 11.6421 122.599 12.0906 122.488 12.6804C122.389 13.2702 122.341 14.0566 122.341 15.0396C122.341 15.9734 122.384 16.7353 122.47 17.3251C122.568 17.9026 122.728 18.3511 122.949 18.6706C123.17 18.9777 123.465 19.1927 123.834 19.3157C124.214 19.4385 124.681 19.5 125.234 19.5Z" fill="black"/>
<path d="M108.407 21.8407V8.20142H114.047C114.587 8.20142 115.091 8.269 115.559 8.40416C116.025 8.52704 116.437 8.74822 116.794 9.06769C117.149 9.38717 117.426 9.8295 117.623 10.3948C117.831 10.96 117.936 11.685 117.936 12.5697C117.936 13.1964 117.875 13.7309 117.752 14.1732C117.628 14.6156 117.463 14.978 117.254 15.2607C117.057 15.5432 116.83 15.7706 116.572 15.9426C116.314 16.1146 116.05 16.256 115.78 16.3666L118.323 21.8407H115.54L113.347 16.7905C113.199 16.7905 113.027 16.7905 112.831 16.7905C112.646 16.7781 112.456 16.7721 112.259 16.7721C112.062 16.7721 111.866 16.7721 111.67 16.7721C111.472 16.7721 111.295 16.7659 111.135 16.7536V21.8407H108.407ZM111.135 14.5971H113.568C113.813 14.5971 114.034 14.5664 114.232 14.505C114.428 14.4435 114.6 14.3391 114.748 14.1917C114.895 14.0319 115.006 13.823 115.079 13.565C115.165 13.307 115.208 12.9752 115.208 12.5697C115.208 12.1887 115.165 11.8754 115.079 11.6297C115.006 11.3717 114.895 11.175 114.748 11.0399C114.6 10.8924 114.428 10.7941 114.232 10.745C114.034 10.6835 113.813 10.6528 113.568 10.6528H111.135V14.5971Z" fill="black"/>
<path d="M96.9595 21.8407V8.20142H102.71C103.152 8.20142 103.601 8.25671 104.056 8.3673C104.523 8.4656 104.947 8.67449 105.327 8.99397C105.721 9.30116 106.034 9.76812 106.267 10.3948C106.513 11.0215 106.636 11.8509 106.636 12.883C106.636 13.9152 106.513 14.7507 106.267 15.3897C106.034 16.0286 105.726 16.514 105.346 16.8458C104.965 17.1775 104.553 17.3987 104.111 17.5093C103.668 17.6199 103.238 17.6752 102.821 17.6752C102.599 17.6752 102.341 17.669 102.047 17.6568C101.752 17.6322 101.45 17.6015 101.143 17.5646C100.848 17.5277 100.572 17.497 100.314 17.4724C100.056 17.4356 99.8468 17.4048 99.6873 17.3803V21.8407H96.9595ZM99.6873 15.2238H102.397C102.717 15.2238 102.987 15.1501 103.208 15.0026C103.441 14.8428 103.613 14.5971 103.724 14.2654C103.834 13.9213 103.89 13.4667 103.89 12.9015C103.89 12.3485 103.828 11.9122 103.705 11.5928C103.595 11.2611 103.429 11.0215 103.208 10.874C102.999 10.7266 102.747 10.6528 102.452 10.6528H99.6873V15.2238Z" fill="black"/>
<path d="M84.5276 21.9328C84.2327 21.9328 83.8948 21.902 83.5139 21.8407C83.133 21.7915 82.7644 21.6686 82.408 21.472C82.064 21.2754 81.7752 20.9805 81.5417 20.5873C81.3205 20.1818 81.21 19.6289 81.21 18.9285V11.3164C81.21 10.7142 81.3021 10.2105 81.4864 9.80498C81.6707 9.39946 81.9165 9.07998 82.2237 8.84651C82.5308 8.61305 82.8688 8.44717 83.2374 8.34887C83.606 8.25057 83.9685 8.20142 84.3249 8.20142C85.2464 8.20142 86.0574 8.21371 86.7578 8.23828C87.4705 8.26286 88.1095 8.29357 88.6747 8.33044C89.2399 8.35501 89.7559 8.39188 90.2229 8.44102V10.7266H85.1358C84.755 10.7266 84.4601 10.8187 84.2511 11.003C84.0422 11.1873 83.9378 11.4699 83.9378 11.8509V13.823L89.3382 13.9705V16.1269L83.9378 16.2744V18.1544C83.9378 18.4738 83.9869 18.7258 84.0853 18.9101C84.1958 19.082 84.3371 19.205 84.5092 19.2787C84.6935 19.3401 84.884 19.3709 85.0805 19.3709H90.2229V21.6564C89.6822 21.7177 89.0802 21.7669 88.4166 21.8038C87.7654 21.8407 87.1018 21.8714 86.426 21.896C85.7625 21.9205 85.1297 21.9328 84.5276 21.9328Z" fill="black"/>
<path d="M69.6543 21.8407V8.20142H75.2943C75.835 8.20142 76.3388 8.269 76.8057 8.40416C77.2726 8.52704 77.6843 8.74822 78.0406 9.06769C78.3969 9.38717 78.6734 9.8295 78.87 10.3948C79.0789 10.96 79.1833 11.685 79.1833 12.5697C79.1833 13.1964 79.1219 13.7309 78.999 14.1732C78.8762 14.6156 78.7103 14.978 78.5014 15.2607C78.3048 15.5432 78.0774 15.7706 77.8194 15.9426C77.5614 16.1146 77.2972 16.256 77.0268 16.3666L79.5704 21.8407H76.7872L74.5939 16.7905C74.4465 16.7905 74.2745 16.7905 74.0778 16.7905C73.8935 16.7781 73.7031 16.7721 73.5065 16.7721C73.3099 16.7721 73.1133 16.7721 72.9166 16.7721C72.7201 16.7721 72.5419 16.7659 72.3821 16.7536V21.8407H69.6543ZM72.3821 14.5971H74.8151C75.0609 14.5971 75.282 14.5664 75.4786 14.505C75.6753 14.4435 75.8472 14.3391 75.9947 14.1917C76.1421 14.0319 76.2527 13.823 76.3264 13.565C76.4125 13.307 76.4555 12.9752 76.4555 12.5697C76.4555 12.1887 76.4125 11.8754 76.3264 11.6297C76.2527 11.3717 76.1421 11.175 75.9947 11.0399C75.8472 10.8924 75.6753 10.7941 75.4786 10.745C75.282 10.6835 75.0609 10.6528 74.8151 10.6528H72.3821V14.5971Z" fill="black"/>
<path d="M62.0386 21.9514C61.1047 21.9514 60.2876 21.8653 59.5872 21.6933C58.8868 21.509 58.297 21.1773 57.8178 20.698C57.3508 20.2065 57.0006 19.5061 56.7672 18.5969C56.5338 17.6875 56.417 16.5018 56.417 15.0396C56.417 13.5773 56.5338 12.3916 56.7672 11.4823C57.013 10.5608 57.3693 9.85421 57.8362 9.36271C58.3032 8.87121 58.8868 8.53329 59.5872 8.34898C60.2876 8.16467 61.1047 8.07251 62.0386 8.07251C62.9724 8.07251 63.7895 8.16467 64.4899 8.34898C65.1903 8.53329 65.774 8.87121 66.2409 9.36271C66.7079 9.85421 67.0581 10.5608 67.2915 11.4823C67.5249 12.3916 67.6417 13.5773 67.6417 15.0396C67.6417 16.5018 67.5249 17.6875 67.2915 18.5969C67.0581 19.5061 66.7079 20.2065 66.2409 20.698C65.774 21.1773 65.1903 21.509 64.4899 21.6933C63.7895 21.8653 62.9724 21.9514 62.0386 21.9514ZM62.0386 19.5C62.5915 19.5 63.0523 19.4385 63.4209 19.3157C63.7895 19.1927 64.0783 18.9777 64.2872 18.6706C64.5084 18.3511 64.6681 17.9026 64.7664 17.3251C64.8647 16.7353 64.9139 15.9734 64.9139 15.0396C64.9139 14.0566 64.8647 13.2702 64.7664 12.6804C64.6681 12.0906 64.5084 11.6421 64.2872 11.3349C64.0783 11.0154 63.7895 10.8004 63.4209 10.6898C63.0523 10.5792 62.5915 10.5239 62.0386 10.5239C61.5102 10.5239 61.0617 10.5792 60.6931 10.6898C60.3244 10.8004 60.0234 11.0154 59.7899 11.3349C59.5688 11.6421 59.4029 12.0906 59.2923 12.6804C59.194 13.2702 59.1448 14.0566 59.1448 15.0396C59.1448 15.9734 59.1879 16.7353 59.2739 17.3251C59.3722 17.9026 59.5319 18.3511 59.7531 18.6706C59.9743 18.9777 60.2692 19.1927 60.6378 19.3157C61.0187 19.4385 61.4856 19.5 62.0386 19.5Z" fill="black"/>
<path d="M45.3193 21.8407V8.20142H51.0699C51.5123 8.20142 51.9608 8.25671 52.4154 8.3673C52.8824 8.4656 53.3063 8.67449 53.6872 8.99397C54.0804 9.30116 54.3937 9.76812 54.6272 10.3948C54.873 11.0215 54.9958 11.8509 54.9958 12.883C54.9958 13.9152 54.873 14.7507 54.6272 15.3897C54.3937 16.0286 54.0865 16.514 53.7056 16.8458C53.3247 17.1775 52.9131 17.3987 52.4707 17.5093C52.0284 17.6199 51.5983 17.6752 51.1805 17.6752C50.9593 17.6752 50.7013 17.669 50.4064 17.6568C50.1115 17.6322 49.8104 17.6015 49.5033 17.5646C49.2084 17.5277 48.9319 17.497 48.6738 17.4724C48.4158 17.4356 48.2069 17.4048 48.0472 17.3803V21.8407H45.3193ZM48.0472 15.2238H50.7566C51.0761 15.2238 51.3464 15.1501 51.5676 15.0026C51.801 14.8428 51.9731 14.5971 52.0837 14.2654C52.1942 13.9213 52.2495 13.4667 52.2495 12.9015C52.2495 12.3485 52.1881 11.9122 52.0652 11.5928C51.9546 11.2611 51.7888 11.0215 51.5676 10.874C51.3587 10.7266 51.1068 10.6528 50.8119 10.6528H48.0472V15.2238Z" fill="black"/>
<path d="M38.5753 21.9514C38.2189 21.9514 37.8503 21.9391 37.4694 21.9145C37.1008 21.9022 36.7199 21.8776 36.3266 21.8408C35.9458 21.7917 35.5832 21.7424 35.2392 21.6933C34.8952 21.6319 34.5818 21.5643 34.2992 21.4906V19.3341C34.6678 19.371 35.0856 19.4017 35.5525 19.4263C36.0195 19.4509 36.5048 19.4693 37.0086 19.4816C37.5124 19.4938 37.9916 19.5 38.4462 19.5C38.9132 19.5 39.3125 19.4631 39.6443 19.3894C39.9883 19.3034 40.2525 19.1621 40.4368 18.9655C40.6211 18.7566 40.7133 18.474 40.7133 18.1176V17.62C40.7133 17.2145 40.5905 16.9073 40.3447 16.6984C40.1112 16.4772 39.7733 16.3667 39.3309 16.3667H38.1698C36.8673 16.3667 35.8658 16.084 35.1655 15.5188C34.4773 14.9413 34.1333 13.9644 34.1333 12.5882V11.9247C34.1333 10.5976 34.5142 9.62693 35.276 9.01251C36.0379 8.39813 37.1254 8.09094 38.5384 8.09094C39.0422 8.09094 39.5399 8.11552 40.0313 8.16467C40.5352 8.21382 41.0144 8.27526 41.469 8.34898C41.9359 8.41042 42.3353 8.478 42.667 8.55173V10.7082C42.1018 10.6713 41.469 10.6345 40.7686 10.5976C40.0805 10.5608 39.4415 10.5423 38.8517 10.5423C38.434 10.5423 38.0592 10.5854 37.7274 10.6713C37.4079 10.7451 37.1622 10.8925 36.9902 11.1137C36.8181 11.3349 36.7321 11.6482 36.7321 12.0537V12.4223C36.7321 12.9015 36.8673 13.2456 37.1376 13.4545C37.4079 13.6634 37.8073 13.7678 38.3357 13.7678H39.6811C40.5044 13.7678 41.1803 13.9214 41.7086 14.2286C42.2493 14.5235 42.6486 14.9352 42.9066 15.4635C43.1769 15.9918 43.3121 16.594 43.3121 17.2698V18.0439C43.3121 19.1129 43.1094 19.9301 42.7039 20.4953C42.3107 21.0605 41.7577 21.4475 41.0451 21.6565C40.3447 21.853 39.5214 21.9514 38.5753 21.9514Z" fill="black"/>
</g>
<defs>
<clipPath id="clip0_30_2708">
<rect width="188" height="29.4902" fill="white" transform="translate(0.957031 0.266846)"/>
</clipPath>
</defs>
</svg>
