<svg width="99" height="151" viewBox="0 0 99 151" fill="none" xmlns="http://www.w3.org/2000/svg">
    <rect x="51.6521" y="52.5" width="45.9806" height="45.9806" stroke="black" />
    <path
        d="M78.0402 65.7038L77.5 65.6602V66.2022V67.4044C77.5 67.6016 77.3579 67.7049 77.25 67.7049H72.75C72.6421 67.7049 72.5 67.6016 72.5 67.4044V66.2022V65.6602L71.9598 65.7038C68.1632 66.0099 65.1265 66.8126 63.0557 67.3845C62.9412 67.4161 62.8303 67.4469 62.7227 67.4767C61.8421 67.7206 61.1915 67.9009 60.7435 67.971C60.7147 67.9755 60.6875 67.9795 60.6617 67.9828C60.6743 67.9681 60.6877 67.9529 60.702 67.9371C60.8867 67.7324 61.1724 67.4802 61.5547 67.1933C62.3163 66.6219 63.4078 65.9527 64.698 65.2941C67.2831 63.9745 70.5986 62.7318 73.5571 62.3916L74 62.3407V61.8949V61.8005C74 61.6033 74.1421 61.5 74.25 61.5H75.75C75.8579 61.5 76 61.6033 76 61.8005V61.8943V62.3401L76.4428 62.3911C79.4014 62.7315 82.7169 63.9744 85.302 65.294C86.5922 65.9526 87.6837 66.6219 88.4453 67.1933C88.8276 67.4802 89.1133 67.7324 89.298 67.9371C89.3123 67.9529 89.3257 67.9681 89.3383 67.9828C89.3125 67.9795 89.2853 67.9755 89.2565 67.971C88.8085 67.9009 88.1579 67.7206 87.2773 67.4767C87.1697 67.4469 87.0587 67.4161 86.9443 67.3845C84.8735 66.8126 81.8368 66.0099 78.0402 65.7038ZM73.75 69.8333H76.25C76.4341 69.8333 76.5833 69.9826 76.5833 70.1667V87.25C76.5833 88.1245 75.8745 88.8333 75 88.8333C74.1255 88.8333 73.4167 88.1245 73.4167 87.25V70.1667C73.4167 69.9826 73.5659 69.8333 73.75 69.8333Z"
        stroke="black" />
    <rect x="0.5" y="104.5" width="45.9806" height="45.9806" stroke="black" />
    <path
        d="M11.611 117.614V136H12.8V115.7H11.611C11.379 116.831 9.987 118.194 8.334 118.281V119.325C10.016 119.267 11.147 118.252 11.611 117.614ZM15.3013 136H16.4613L24.3203 115.7H23.1603L15.3013 136ZM24.75 135.304V136H37.481V134.927H26.055V134.695C26.055 131.766 28.346 129.881 31.652 127.822C34.958 125.821 37.249 124.197 37.249 120.978C37.249 117.788 34.929 115.439 31.188 115.439C27.447 115.439 24.982 117.817 24.982 121.471V121.964H26.171V121.558C26.171 118.281 28.23 116.483 31.188 116.483C34.262 116.483 36.06 118.368 36.06 120.978C36.089 123.849 33.827 125.241 30.666 127.242C26.548 129.794 24.75 131.766 24.75 135.304Z"
        fill="black" />
    <rect x="0.5" y="0.5" width="45.9806" height="45.9806" stroke="black" />
    <path
        d="M23.5 37C30.9558 37 37 30.9558 37 23.5C37 16.0442 30.9558 10 23.5 10C16.0442 10 10 16.0442 10 23.5C10 30.9558 16.0442 37 23.5 37Z"
        stroke="black" stroke-miterlimit="10" stroke-linecap="square" stroke-linejoin="round" />
    <path
        d="M23.5 27.5501C25.7367 27.5501 27.55 25.7368 27.55 23.5001C27.55 21.2633 25.7367 19.4501 23.5 19.4501C21.2632 19.4501 19.45 21.2633 19.45 23.5001C19.45 25.7368 21.2632 27.5501 23.5 27.5501Z"
        stroke="black" stroke-miterlimit="10" stroke-linecap="square" stroke-linejoin="round" />
    <path d="M21.475 19.99C22.285 16.75 20.665 13.51 17.695 12.16L16.75 11.755" stroke="black"
        stroke-miterlimit="10" stroke-linecap="round" stroke-linejoin="round" />
    <path d="M19.45 23.5001C17.155 21.2051 13.51 20.9351 10.81 22.8251L10 23.5001" stroke="black"
        stroke-miterlimit="10" stroke-linecap="round" stroke-linejoin="round" />
    <path d="M21.4751 27.01C18.2351 27.82 16.2101 30.925 16.6151 34.165L16.7501 35.245"
        stroke="black" stroke-miterlimit="10" stroke-linecap="round" stroke-linejoin="round" />
    <path d="M25.5252 27.01C24.7152 30.25 26.3352 33.49 29.3052 34.84L30.2502 35.245" stroke="black"
        stroke-miterlimit="10" stroke-linecap="round" stroke-linejoin="round" />
    <path d="M27.55 23.5C29.845 25.795 33.49 26.065 36.19 24.175L37.0001 23.5" stroke="black"
        stroke-miterlimit="10" stroke-linecap="round" stroke-linejoin="round" />
    <path d="M25.5251 19.99C28.7651 19.18 30.7901 16.075 30.3851 12.835L30.2501 11.755"
        stroke="black" stroke-miterlimit="10" stroke-linecap="round" stroke-linejoin="round" />
    <path d="M10 10H11.35" stroke="black" stroke-miterlimit="10" stroke-linecap="square"
        stroke-linejoin="round" />
    <path d="M35.6501 10H37.0001" stroke="black" stroke-miterlimit="10" stroke-linecap="square"
        stroke-linejoin="round" />
    <path d="M10 37H11.35" stroke="black" stroke-miterlimit="10" stroke-linecap="square"
        stroke-linejoin="round" />
    <path d="M35.6501 37H37.0001" stroke="black" stroke-miterlimit="10" stroke-linecap="square"
        stroke-linejoin="round" />
</svg>
    