<svg viewBox="0 0 55 49" fill="none" xmlns="http://www.w3.org/2000/svg">
    <path
        d="M39.7222 1.68211e-07C37.3504 1.68211e-07 35.0112 0.553469 32.8898 1.61657C30.7684 2.67968 28.9231 4.22322 27.5 6.12496C25.5761 3.55392 22.8938 1.65476 19.8331 0.696507C16.7724 -0.261746 13.4885 -0.230512 10.4465 0.785783C7.40453 1.80208 4.7587 3.75191 2.8838 6.35909C1.0089 8.96626 0 12.0986 0 15.3124C0 33.6618 25.4375 48.132 26.5069 48.7445C26.81 48.9152 27.1524 49.0032 27.5 48.9997C27.8479 49.0057 28.1909 48.9175 28.4931 48.7445C33.1775 45.9998 37.5712 42.7846 41.6065 39.1487C50.4931 31.1352 55 23.1217 55 15.3124C55 11.2513 53.3904 7.35654 50.5252 4.4849C47.6601 1.61327 43.7741 1.68211e-07 39.7222 1.68211e-07Z"
        fill="#FF0000" />
</svg>
    