<svg width="195" height="220" viewBox="0 0 195 220" fill="none" xmlns="http://www.w3.org/2000/svg">
    <line x1="0.35" y1="1.5299e-08" x2="0.34999" y2="220" stroke="#484D4E" stroke-width="0.7" />
    <path
        d="M27.58 14H28.648L30.82 6.86L33.004 14H34.06L36.316 5.6H35.296L33.496 12.608H33.448L31.348 5.6H30.292L28.192 12.608H28.144L26.344 5.6H25.336L27.58 14ZM41.7367 10.34V14H42.6967V10.148C42.6967 8.312 41.7007 7.64 40.4647 7.64C39.0247 7.64 38.4247 8.564 38.3167 8.984H38.2927V5.6H37.3327V14H38.2927V10.34C38.2927 9.152 39.0247 8.456 40.1287 8.456C41.2327 8.456 41.7367 9.152 41.7367 10.34ZM44.0761 15.476V16.316C45.3001 16.46 46.0441 15.968 46.6321 14.516L49.3201 7.76H48.3241L46.3801 12.872L44.4241 7.76H43.4401L45.7921 13.7C45.9001 13.952 45.8881 14.18 45.7561 14.516C45.4801 15.224 45.0121 15.608 44.0761 15.476ZM53.0476 14H54.0316V10.76H56.1076C58.0756 10.76 59.0716 9.776 59.0716 8.192C59.0716 6.584 58.0756 5.6 56.1076 5.6H53.0476V14ZM54.0316 9.884V6.476H56.0716C57.3916 6.476 58.0636 7.076 58.0636 8.192C58.0636 9.284 57.3916 9.884 56.0716 9.884H54.0316ZM60.1491 14H61.1091V10.712C61.1091 9.38 61.8531 8.528 63.1131 8.528C63.2691 8.528 63.4131 8.54 63.5691 8.564V7.748C63.4251 7.7 63.2571 7.688 63.1011 7.688C61.8891 7.688 61.3011 8.504 61.1331 9.152H61.1091V7.76H60.1491V14ZM67.0562 14.12C68.6042 14.12 70.0562 13.1 70.0562 10.88C70.0562 8.66 68.6042 7.64 67.0562 7.64C65.5082 7.64 64.0562 8.66 64.0562 10.88C64.0562 13.1 65.5082 14.12 67.0562 14.12ZM64.9682 10.88C64.9682 9.2 65.9642 8.444 67.0562 8.444C68.1362 8.444 69.1322 9.2 69.1322 10.88C69.1322 12.56 68.1362 13.304 67.0562 13.304C65.9642 13.304 64.9682 12.56 64.9682 10.88ZM73.8999 14.12C75.4479 14.12 76.8999 13.1 76.8999 10.88C76.8999 8.66 75.4479 7.64 73.8999 7.64C72.3519 7.64 70.8999 8.66 70.8999 10.88C70.8999 13.1 72.3519 14.12 73.8999 14.12ZM71.8119 10.88C71.8119 9.2 72.8079 8.444 73.8999 8.444C74.9799 8.444 75.9759 9.2 75.9759 10.88C75.9759 12.56 74.9799 13.304 73.8999 13.304C72.8079 13.304 71.8119 12.56 71.8119 10.88ZM78.3119 6.932V7.76H77.4479V8.528H78.3119V14H79.2719V8.528H80.5559V7.76H79.2719V7.088C79.2719 6.416 79.5119 6.164 80.1719 6.164H80.5919V5.408H79.9199C78.9959 5.408 78.3119 5.78 78.3119 6.932ZM81.3667 11.012H84.6667V10.268H81.3667V11.012ZM88.5483 14.12C90.0963 14.12 91.5483 13.1 91.5483 10.88C91.5483 8.66 90.0963 7.64 88.5483 7.64C87.0003 7.64 85.5483 8.66 85.5483 10.88C85.5483 13.1 87.0003 14.12 88.5483 14.12ZM86.4603 10.88C86.4603 9.2 87.4563 8.444 88.5483 8.444C89.6283 8.444 90.6243 9.2 90.6243 10.88C90.6243 12.56 89.6283 13.304 88.5483 13.304C87.4563 13.304 86.4603 12.56 86.4603 10.88ZM92.9603 6.932V7.76H92.0963V8.528H92.9603V14H93.9203V8.528H95.2043V7.76H93.9203V7.088C93.9203 6.416 94.1603 6.164 94.8203 6.164H95.2403V5.408H94.5683C93.6443 5.408 92.9603 5.78 92.9603 6.932ZM96.0152 11.012H99.3152V10.268H96.0152V11.012ZM102.381 14H103.449L105.621 6.86L107.805 14H108.861L111.117 5.6H110.097L108.297 12.608H108.249L106.149 5.6H105.093L102.993 12.608H102.945L101.145 5.6H100.137L102.381 14ZM114.119 14.12C115.667 14.12 117.119 13.1 117.119 10.88C117.119 8.66 115.667 7.64 114.119 7.64C112.571 7.64 111.119 8.66 111.119 10.88C111.119 13.1 112.571 14.12 114.119 14.12ZM112.031 10.88C112.031 9.2 113.027 8.444 114.119 8.444C115.199 8.444 116.195 9.2 116.195 10.88C116.195 12.56 115.199 13.304 114.119 13.304C113.027 13.304 112.031 12.56 112.031 10.88ZM118.204 14H119.164V10.712C119.164 9.38 119.908 8.528 121.168 8.528C121.324 8.528 121.468 8.54 121.624 8.564V7.748C121.48 7.7 121.312 7.688 121.156 7.688C119.944 7.688 119.356 8.504 119.188 9.152H119.164V7.76H118.204V14ZM122.587 14H123.547V12.176L124.627 11.084L127.123 14H128.227L125.227 10.472L127.879 7.76H126.775L123.547 11.132V5.6H122.587V14Z"
        fill="#5700FF" />
    <path
        d="M29.308 46.12C31.012 46.12 32.308 45.268 32.584 43.54H31.612C31.324 44.668 30.472 45.256 29.296 45.256C27.604 45.256 26.512 44.02 26.512 41.8C26.512 39.568 27.604 38.356 29.296 38.356C30.472 38.356 31.324 38.944 31.612 40.048H32.584C32.308 38.344 31.012 37.492 29.308 37.492C27.076 37.492 25.516 38.968 25.516 41.8C25.516 44.632 27.076 46.12 29.308 46.12ZM36.2827 46.12C37.8307 46.12 39.2827 45.1 39.2827 42.88C39.2827 40.66 37.8307 39.64 36.2827 39.64C34.7347 39.64 33.2827 40.66 33.2827 42.88C33.2827 45.1 34.7347 46.12 36.2827 46.12ZM34.1947 42.88C34.1947 41.2 35.1907 40.444 36.2827 40.444C37.3627 40.444 38.3587 41.2 38.3587 42.88C38.3587 44.56 37.3627 45.304 36.2827 45.304C35.1907 45.304 34.1947 44.56 34.1947 42.88ZM44.7719 42.34V46H45.7319V42.148C45.7319 40.312 44.7359 39.64 43.4999 39.64C42.0599 39.64 41.4599 40.564 41.3519 40.984H41.3279V39.76H40.3679V46H41.3279V42.34C41.3279 41.152 42.0599 40.456 43.1639 40.456C44.2679 40.456 44.7719 41.152 44.7719 42.34ZM49.3376 46.12C50.6216 46.12 51.8696 45.628 51.8696 44.26C51.8696 43.204 51.1376 42.808 50.1056 42.568L48.9416 42.292C48.1856 42.124 47.8976 41.824 47.8976 41.344C47.8976 40.696 48.4016 40.396 49.3136 40.396C50.1776 40.396 50.7656 40.672 50.8976 41.488H51.7136C51.6416 40.24 50.7176 39.64 49.3136 39.64C47.8976 39.64 46.9616 40.24 46.9616 41.344C46.9616 42.196 47.5136 42.76 48.6176 43.024L49.7936 43.3C50.4656 43.456 50.8856 43.66 50.8856 44.272C50.8856 45.052 50.2016 45.364 49.3496 45.364C48.5336 45.364 47.7536 45.076 47.6336 44.224H46.7696C46.8296 45.532 47.9096 46.12 49.3376 46.12ZM55.5592 46.12C56.7472 46.12 57.8032 45.628 58.2112 44.248H57.3352C57.0352 45.1 56.3392 45.352 55.5712 45.352C54.3112 45.352 53.5912 44.644 53.5192 43.18H58.2592C58.2832 43.06 58.2952 42.94 58.2952 42.736C58.2952 40.648 57.1192 39.64 55.5112 39.64C53.9152 39.64 52.5952 40.624 52.5952 42.892C52.5952 45.088 53.8432 46.12 55.5592 46.12ZM53.5192 42.448C53.6152 41.056 54.4072 40.396 55.4992 40.396C56.6512 40.396 57.3592 41.14 57.3712 42.448H53.5192ZM63.7797 42.34V46H64.7397V42.148C64.7397 40.312 63.7437 39.64 62.5077 39.64C61.0677 39.64 60.4677 40.564 60.3597 40.984H60.3357V39.76H59.3757V46H60.3357V42.34C60.3357 41.152 61.0677 40.456 62.1717 40.456C63.2757 40.456 63.7797 41.152 63.7797 42.34ZM68.3454 46.12C69.6294 46.12 70.8774 45.628 70.8774 44.26C70.8774 43.204 70.1454 42.808 69.1134 42.568L67.9494 42.292C67.1934 42.124 66.9054 41.824 66.9054 41.344C66.9054 40.696 67.4094 40.396 68.3214 40.396C69.1854 40.396 69.7734 40.672 69.9054 41.488H70.7214C70.6494 40.24 69.7254 39.64 68.3214 39.64C66.9054 39.64 65.9694 40.24 65.9694 41.344C65.9694 42.196 66.5214 42.76 67.6254 43.024L68.8014 43.3C69.4734 43.456 69.8934 43.66 69.8934 44.272C69.8934 45.052 69.2094 45.364 68.3574 45.364C67.5414 45.364 66.7614 45.076 66.6414 44.224H65.7774C65.8374 45.532 66.9174 46.12 68.3454 46.12ZM72.851 43.42L72.863 39.76H71.903L71.891 43.612C71.891 45.448 72.887 46.12 74.123 46.12C75.563 46.12 76.163 45.196 76.271 44.776H76.295V46H77.255L77.267 39.76H76.307L76.295 43.6C76.223 44.68 75.503 45.304 74.459 45.304C73.355 45.304 72.851 44.608 72.851 43.42ZM80.8728 46.12C82.1568 46.12 83.4048 45.628 83.4048 44.26C83.4048 43.204 82.6728 42.808 81.6408 42.568L80.4768 42.292C79.7208 42.124 79.4328 41.824 79.4328 41.344C79.4328 40.696 79.9368 40.396 80.8488 40.396C81.7128 40.396 82.3008 40.672 82.4328 41.488H83.2488C83.1768 40.24 82.2528 39.64 80.8488 39.64C79.4328 39.64 78.4968 40.24 78.4968 41.344C78.4968 42.196 79.0488 42.76 80.1528 43.024L81.3288 43.3C82.0008 43.456 82.4208 43.66 82.4208 44.272C82.4208 45.052 81.7368 45.364 80.8848 45.364C80.0688 45.364 79.2888 45.076 79.1688 44.224H78.3048C78.3647 45.532 79.4448 46.12 80.8728 46.12ZM86.776 46H87.82L88.6 43.9H92.584L93.364 46H94.408L91.204 37.6H89.98L86.776 46ZM88.888 43.132L90.556 38.668H90.628L92.296 43.132H88.888ZM95.3757 46H96.3357V37.6H95.3757V46ZM100.335 48.508C101.679 48.508 103.335 47.98 103.335 45.904V39.76H102.375V40.756H102.351C101.919 40.024 101.055 39.64 100.167 39.64C98.7634 39.64 97.4194 40.564 97.4194 42.748C97.4194 44.932 98.7514 45.868 100.167 45.868C101.055 45.868 101.919 45.484 102.351 44.752H102.375V45.904C102.375 47.224 101.463 47.752 100.323 47.752C99.3034 47.752 98.4994 47.32 98.4634 46.564H97.6114C97.6234 48.016 99.0394 48.508 100.335 48.508ZM98.3314 42.748C98.3314 41.176 99.3034 40.444 100.359 40.444C101.415 40.444 102.423 41.176 102.423 42.748C102.423 44.32 101.415 45.052 100.359 45.052C99.3034 45.052 98.3314 44.32 98.3314 42.748ZM107.416 46.12C108.964 46.12 110.416 45.1 110.416 42.88C110.416 40.66 108.964 39.64 107.416 39.64C105.868 39.64 104.416 40.66 104.416 42.88C104.416 45.1 105.868 46.12 107.416 46.12ZM105.328 42.88C105.328 41.2 106.324 40.444 107.416 40.444C108.496 40.444 109.492 41.2 109.492 42.88C109.492 44.56 108.496 45.304 107.416 45.304C106.324 45.304 105.328 44.56 105.328 42.88ZM111.501 46H112.461V42.712C112.461 41.38 113.205 40.528 114.465 40.528C114.621 40.528 114.765 40.54 114.921 40.564V39.748C114.777 39.7 114.609 39.688 114.453 39.688C113.241 39.688 112.653 40.504 112.485 41.152H112.461V39.76H111.501V46ZM115.884 46H116.844V39.76H115.884V46ZM115.752 37.912C115.752 38.248 116.04 38.524 116.364 38.524C116.688 38.524 116.964 38.248 116.964 37.912C116.964 37.576 116.688 37.312 116.364 37.312C116.04 37.312 115.752 37.576 115.752 37.912ZM120.411 46.084C120.663 46.084 120.891 46.06 121.107 46.012V45.268C120.939 45.292 120.831 45.292 120.675 45.292C120.003 45.292 119.775 45.028 119.775 44.356V40.54H121.011V39.76H119.775V38.2H118.815V39.76H117.807V40.54H118.815V44.536C118.815 45.688 119.475 46.084 120.411 46.084ZM126.534 42.34V46H127.494V42.148C127.494 40.312 126.498 39.64 125.262 39.64C123.822 39.64 123.222 40.564 123.114 40.984H123.09V37.6H122.13V46H123.09V42.34C123.09 41.152 123.822 40.456 124.926 40.456C126.03 40.456 126.534 41.152 126.534 42.34ZM137.111 42.34V46H138.071V42.148C138.071 40.312 137.123 39.64 135.923 39.64C134.555 39.64 133.967 40.576 133.811 41.044C133.499 40.036 132.743 39.64 131.855 39.64C130.547 39.64 129.971 40.564 129.875 40.984H129.851V39.76H128.891V46H129.851V42.34C129.851 41.152 130.511 40.456 131.507 40.456C132.539 40.456 132.995 41.152 132.995 42.34V46H133.955V42.34C133.955 41.152 134.615 40.456 135.611 40.456C136.643 40.456 137.111 41.152 137.111 42.34ZM139.942 46.12C140.314 46.12 140.626 45.82 140.626 45.448C140.626 45.076 140.314 44.776 139.942 44.776C139.57 44.776 139.27 45.076 139.27 45.448C139.27 45.82 139.57 46.12 139.942 46.12ZM139.27 40.432C139.27 40.804 139.57 41.104 139.942 41.104C140.314 41.104 140.626 40.804 140.626 40.432C140.626 40.06 140.314 39.76 139.942 39.76C139.57 39.76 139.27 40.06 139.27 40.432ZM144.594 46H145.578V39.148H145.614L150.018 46H151.158V37.6H150.162V44.476H150.138L145.698 37.6H144.594V46ZM156.152 46.12C157.856 46.12 159.152 45.268 159.428 43.54H158.456C158.168 44.668 157.316 45.256 156.14 45.256C154.448 45.256 153.356 44.02 153.356 41.8C153.356 39.568 154.448 38.356 156.14 38.356C157.316 38.356 158.168 38.944 158.456 40.048H159.428C159.152 38.344 157.856 37.492 156.152 37.492C153.92 37.492 152.36 38.968 152.36 41.8C152.36 44.632 153.92 46.12 156.152 46.12ZM160.269 43.012H163.569V42.268H160.269V43.012ZM164.751 46H165.735V39.424H165.771L168.627 46H169.443L172.287 39.424H172.323V46H173.319V37.6H172.119L169.035 44.716L165.939 37.6H164.751V46ZM176.452 46.12C177.988 46.12 178.672 45.232 178.816 44.92H178.864V46H179.764V41.776C179.764 40.276 178.972 39.64 177.28 39.64C175.648 39.64 174.76 40.216 174.76 41.464V41.692H175.684V41.548C175.684 40.72 176.212 40.384 177.244 40.384C178.276 40.384 178.804 40.72 178.804 41.776V42.028C178.804 42.232 178.612 42.364 177.964 42.436L176.368 42.616C175.156 42.76 174.4 43.3 174.4 44.404C174.4 45.58 175.264 46.12 176.452 46.12ZM175.36 44.356C175.36 43.804 175.672 43.456 176.596 43.348L177.904 43.192C178.552 43.108 178.756 43 178.804 42.868V43.768C178.804 44.392 178.132 45.352 176.68 45.352C175.9 45.352 175.36 45.076 175.36 44.356ZM180.74 46H181.808L183.5 43.552L185.192 46H186.26L184.028 42.844L186.188 39.76H185.12L183.5 42.124L181.868 39.76H180.8L182.96 42.844L180.74 46ZM187.836 46.12C188.208 46.12 188.52 45.82 188.52 45.448C188.52 45.076 188.208 44.776 187.836 44.776C187.464 44.776 187.164 45.076 187.164 45.448C187.164 45.82 187.464 46.12 187.836 46.12Z"
        fill="black" />
    <path
        d="M31.108 78H32.104V69.6H31.108V73.464H26.68V69.6H25.696V78H26.68V74.292H31.108V78ZM35.241 78.12C36.777 78.12 37.461 77.232 37.605 76.92H37.653V78H38.553V73.776C38.553 72.276 37.761 71.64 36.069 71.64C34.437 71.64 33.549 72.216 33.549 73.464V73.692H34.473V73.548C34.473 72.72 35.001 72.384 36.033 72.384C37.065 72.384 37.593 72.72 37.593 73.776V74.028C37.593 74.232 37.401 74.364 36.753 74.436L35.157 74.616C33.945 74.76 33.189 75.3 33.189 76.404C33.189 77.58 34.053 78.12 35.241 78.12ZM34.149 76.356C34.149 75.804 34.461 75.456 35.385 75.348L36.693 75.192C37.341 75.108 37.545 75 37.593 74.868V75.768C37.593 76.392 36.921 77.352 35.469 77.352C34.689 77.352 34.149 77.076 34.149 76.356ZM42.154 78.12C43.438 78.12 44.686 77.628 44.686 76.26C44.686 75.204 43.954 74.808 42.922 74.568L41.758 74.292C41.002 74.124 40.714 73.824 40.714 73.344C40.714 72.696 41.218 72.396 42.13 72.396C42.994 72.396 43.582 72.672 43.714 73.488H44.53C44.458 72.24 43.534 71.64 42.13 71.64C40.714 71.64 39.778 72.24 39.778 73.344C39.778 74.196 40.33 74.76 41.434 75.024L42.61 75.3C43.282 75.456 43.702 75.66 43.702 76.272C43.702 77.052 43.018 77.364 42.166 77.364C41.35 77.364 40.57 77.076 40.45 76.224H39.586C39.646 77.532 40.726 78.12 42.154 78.12ZM50.1156 74.34V78H51.0756V74.148C51.0756 72.312 50.0796 71.64 48.8436 71.64C47.4036 71.64 46.8036 72.564 46.6956 72.984H46.6716V69.6H45.7116V78H46.6716V74.34C46.6716 73.152 47.4036 72.456 48.5076 72.456C49.6116 72.456 50.1156 73.152 50.1156 74.34ZM55.239 78H56.223V74.22H59.799V73.392H56.223V70.476H60.579V69.6H55.239V78ZM62.2221 75.42L62.2341 71.76H61.2741L61.2621 75.612C61.2621 77.448 62.2581 78.12 63.4941 78.12C64.9341 78.12 65.5341 77.196 65.6421 76.776H65.6661V78H66.6261L66.6381 71.76H65.6781L65.6661 75.6C65.5941 76.68 64.8741 77.304 63.8301 77.304C62.7261 77.304 62.2221 76.608 62.2221 75.42ZM72.4398 74.34V78H73.3998V74.148C73.3998 72.312 72.4038 71.64 71.1678 71.64C69.7278 71.64 69.1278 72.564 69.0198 72.984H68.9958V71.76H68.0358V78H68.9958V74.34C68.9958 73.152 69.7278 72.456 70.8318 72.456C71.9358 72.456 72.4398 73.152 72.4398 74.34ZM77.5096 78.12C78.6256 78.12 79.9456 77.616 80.1616 75.84H79.2856C79.1056 76.92 78.3256 77.292 77.4976 77.292C76.2856 77.292 75.4096 76.476 75.4096 74.892C75.4096 73.308 76.2856 72.456 77.4976 72.456C78.3136 72.456 79.1056 72.84 79.2856 73.884H80.1616C79.9336 72.132 78.6256 71.64 77.5096 71.64C75.9016 71.64 74.4976 72.672 74.4976 74.892C74.4976 77.1 75.9016 78.12 77.5096 78.12ZM83.4034 78.084C83.6554 78.084 83.8834 78.06 84.0994 78.012V77.268C83.9314 77.292 83.8234 77.292 83.6674 77.292C82.9954 77.292 82.7674 77.028 82.7674 76.356V72.54H84.0034V71.76H82.7674V70.2H81.8074V71.76H80.7994V72.54H81.8074V76.536C81.8074 77.688 82.4674 78.084 83.4034 78.084ZM85.1218 78H86.0818V71.76H85.1218V78ZM84.9898 69.912C84.9898 70.248 85.2778 70.524 85.6018 70.524C85.9258 70.524 86.2018 70.248 86.2018 69.912C86.2018 69.576 85.9258 69.312 85.6018 69.312C85.2778 69.312 84.9898 69.576 84.9898 69.912ZM90.1655 78.12C91.7135 78.12 93.1655 77.1 93.1655 74.88C93.1655 72.66 91.7135 71.64 90.1655 71.64C88.6175 71.64 87.1655 72.66 87.1655 74.88C87.1655 77.1 88.6175 78.12 90.1655 78.12ZM88.0775 74.88C88.0775 73.2 89.0735 72.444 90.1655 72.444C91.2455 72.444 92.2415 73.2 92.2415 74.88C92.2415 76.56 91.2455 77.304 90.1655 77.304C89.0735 77.304 88.0775 76.56 88.0775 74.88ZM98.6547 74.34V78H99.6147V74.148C99.6147 72.312 98.6187 71.64 97.3827 71.64C95.9427 71.64 95.3427 72.564 95.2347 72.984H95.2107V71.76H94.2507V78H95.2107V74.34C95.2107 73.152 95.9427 72.456 97.0467 72.456C98.1507 72.456 98.6547 73.152 98.6547 74.34ZM101.504 78.12C101.876 78.12 102.188 77.82 102.188 77.448C102.188 77.076 101.876 76.776 101.504 76.776C101.132 76.776 100.832 77.076 100.832 77.448C100.832 77.82 101.132 78.12 101.504 78.12ZM100.832 72.432C100.832 72.804 101.132 73.104 101.504 73.104C101.876 73.104 102.188 72.804 102.188 72.432C102.188 72.06 101.876 71.76 101.504 71.76C101.132 71.76 100.832 72.06 100.832 72.432ZM106.157 78H111.617V77.124H107.141V74.088H111.137V73.284H107.141V70.476H111.497V69.6H106.157V78ZM114.448 78.12C115.984 78.12 116.668 77.232 116.812 76.92H116.86V78H117.76V73.776C117.76 72.276 116.968 71.64 115.276 71.64C113.644 71.64 112.756 72.216 112.756 73.464V73.692H113.68V73.548C113.68 72.72 114.208 72.384 115.24 72.384C116.272 72.384 116.8 72.72 116.8 73.776V74.028C116.8 74.232 116.608 74.364 115.96 74.436L114.364 74.616C113.152 74.76 112.396 75.3 112.396 76.404C112.396 77.58 113.26 78.12 114.448 78.12ZM113.356 76.356C113.356 75.804 113.668 75.456 114.592 75.348L115.9 75.192C116.548 75.108 116.752 75 116.8 74.868V75.768C116.8 76.392 116.128 77.352 114.676 77.352C113.896 77.352 113.356 77.076 113.356 76.356ZM121.71 80.508C123.054 80.508 124.71 79.98 124.71 77.904V71.76H123.75V72.756H123.726C123.294 72.024 122.43 71.64 121.542 71.64C120.138 71.64 118.794 72.564 118.794 74.748C118.794 76.932 120.126 77.868 121.542 77.868C122.43 77.868 123.294 77.484 123.726 76.752H123.75V77.904C123.75 79.224 122.838 79.752 121.698 79.752C120.678 79.752 119.874 79.32 119.838 78.564H118.986C118.998 80.016 120.414 80.508 121.71 80.508ZM119.706 74.748C119.706 73.176 120.678 72.444 121.734 72.444C122.79 72.444 123.798 73.176 123.798 74.748C123.798 76.32 122.79 77.052 121.734 77.052C120.678 77.052 119.706 76.32 119.706 74.748ZM126.091 78H127.051V69.6H126.091V78ZM131.098 78.12C132.286 78.12 133.342 77.628 133.75 76.248H132.874C132.574 77.1 131.878 77.352 131.11 77.352C129.85 77.352 129.13 76.644 129.058 75.18H133.798C133.822 75.06 133.834 74.94 133.834 74.736C133.834 72.648 132.658 71.64 131.05 71.64C129.454 71.64 128.134 72.624 128.134 74.892C128.134 77.088 129.382 78.12 131.098 78.12ZM129.058 74.448C129.154 73.056 129.946 72.396 131.038 72.396C132.19 72.396 132.898 73.14 132.91 74.448H129.058ZM137.123 78.12C138.407 78.12 139.655 77.628 139.655 76.26C139.655 75.204 138.923 74.808 137.891 74.568L136.727 74.292C135.971 74.124 135.683 73.824 135.683 73.344C135.683 72.696 136.187 72.396 137.099 72.396C137.963 72.396 138.551 72.672 138.683 73.488H139.499C139.427 72.24 138.503 71.64 137.099 71.64C135.683 71.64 134.747 72.24 134.747 73.344C134.747 74.196 135.299 74.76 136.403 75.024L137.579 75.3C138.251 75.456 138.671 75.66 138.671 76.272C138.671 77.052 137.987 77.364 137.135 77.364C136.319 77.364 135.539 77.076 135.419 76.224H134.555C134.615 77.532 135.695 78.12 137.123 78.12ZM143.38 78.12C144.928 78.12 146.38 77.1 146.38 74.88C146.38 72.66 144.928 71.64 143.38 71.64C141.832 71.64 140.38 72.66 140.38 74.88C140.38 77.1 141.832 78.12 143.38 78.12ZM141.292 74.88C141.292 73.2 142.288 72.444 143.38 72.444C144.46 72.444 145.456 73.2 145.456 74.88C145.456 76.56 144.46 77.304 143.38 77.304C142.288 77.304 141.292 76.56 141.292 74.88ZM151.87 74.34V78H152.83V74.148C152.83 72.312 151.834 71.64 150.598 71.64C149.158 71.64 148.558 72.564 148.45 72.984H148.426V71.76H147.466V78H148.426V74.34C148.426 73.152 149.158 72.456 150.262 72.456C151.366 72.456 151.87 73.152 151.87 74.34ZM156.843 80.508C158.187 80.508 159.843 79.98 159.843 77.904V71.76H158.883V72.756H158.859C158.427 72.024 157.563 71.64 156.675 71.64C155.271 71.64 153.927 72.564 153.927 74.748C153.927 76.932 155.259 77.868 156.675 77.868C157.563 77.868 158.427 77.484 158.859 76.752H158.883V77.904C158.883 79.224 157.971 79.752 156.831 79.752C155.811 79.752 155.007 79.32 154.971 78.564H154.119C154.131 80.016 155.547 80.508 156.843 80.508ZM154.839 74.748C154.839 73.176 155.811 72.444 156.867 72.444C157.923 72.444 158.931 73.176 158.931 74.748C158.931 76.32 157.923 77.052 156.867 77.052C155.811 77.052 154.839 76.32 154.839 74.748ZM161.715 78.12C162.087 78.12 162.399 77.82 162.399 77.448C162.399 77.076 162.087 76.776 161.715 76.776C161.343 76.776 161.043 77.076 161.043 77.448C161.043 77.82 161.343 78.12 161.715 78.12Z"
        fill="black" />
    <path
        d="M25.696 110H26.68V101.6H25.696V110ZM32.4789 106.34V110H33.4389V106.148C33.4389 104.312 32.4429 103.64 31.2069 103.64C29.7669 103.64 29.1669 104.564 29.0589 104.984H29.0349V103.76H28.0749V110H29.0349V106.34C29.0349 105.152 29.7669 104.456 30.8709 104.456C31.9749 104.456 32.4789 105.152 32.4789 106.34ZM35.2806 102.932V103.76H34.4166V104.528H35.2806V110H36.2406V104.528H37.5246V103.76H36.2406V103.088C36.2406 102.416 36.4806 102.164 37.1406 102.164H37.5606V101.408H36.8886C35.9646 101.408 35.2806 101.78 35.2806 102.932ZM38.2468 110H39.2068V106.712C39.2068 105.38 39.9508 104.528 41.2108 104.528C41.3668 104.528 41.5108 104.54 41.6668 104.564V103.748C41.5228 103.7 41.3548 103.688 41.1988 103.688C39.9868 103.688 39.3988 104.504 39.2308 105.152H39.2068V103.76H38.2468V110ZM44.0769 110.12C45.6129 110.12 46.2969 109.232 46.4409 108.92H46.4889V110H47.3889V105.776C47.3889 104.276 46.5969 103.64 44.9049 103.64C43.2729 103.64 42.3849 104.216 42.3849 105.464V105.692H43.3089V105.548C43.3089 104.72 43.8369 104.384 44.8689 104.384C45.9009 104.384 46.4289 104.72 46.4289 105.776V106.028C46.4289 106.232 46.2369 106.364 45.5889 106.436L43.9929 106.616C42.7809 106.76 42.0249 107.3 42.0249 108.404C42.0249 109.58 42.8889 110.12 44.0769 110.12ZM42.9849 108.356C42.9849 107.804 43.2969 107.456 44.2209 107.348L45.5289 107.192C46.1769 107.108 46.3809 107 46.4289 106.868V107.768C46.4289 108.392 45.7569 109.352 44.3049 109.352C43.5249 109.352 42.9849 109.076 42.9849 108.356ZM50.9899 110.12C52.2739 110.12 53.5219 109.628 53.5219 108.26C53.5219 107.204 52.7899 106.808 51.7579 106.568L50.5939 106.292C49.8379 106.124 49.5499 105.824 49.5499 105.344C49.5499 104.696 50.0539 104.396 50.9659 104.396C51.8299 104.396 52.4179 104.672 52.5499 105.488H53.3659C53.2939 104.24 52.3699 103.64 50.9659 103.64C49.5499 103.64 48.6139 104.24 48.6139 105.344C48.6139 106.196 49.1659 106.76 50.2699 107.024L51.4459 107.3C52.1179 107.456 52.5379 107.66 52.5379 108.272C52.5379 109.052 51.8539 109.364 51.0019 109.364C50.1859 109.364 49.4059 109.076 49.2859 108.224H48.4219C48.4819 109.532 49.5619 110.12 50.9899 110.12ZM56.7316 110.084C56.9836 110.084 57.2116 110.06 57.4276 110.012V109.268C57.2596 109.292 57.1516 109.292 56.9956 109.292C56.3236 109.292 56.0956 109.028 56.0956 108.356V104.54H57.3316V103.76H56.0956V102.2H55.1356V103.76H54.1276V104.54H55.1356V108.536C55.1356 109.688 55.7956 110.084 56.7316 110.084ZM58.4499 110H59.4099V106.712C59.4099 105.38 60.1539 104.528 61.4139 104.528C61.5699 104.528 61.7139 104.54 61.8699 104.564V103.748C61.7259 103.7 61.5579 103.688 61.4019 103.688C60.1899 103.688 59.6019 104.504 59.4339 105.152H59.4099V103.76H58.4499V110ZM63.7807 107.42L63.7927 103.76H62.8327L62.8207 107.612C62.8207 109.448 63.8167 110.12 65.0527 110.12C66.4927 110.12 67.0927 109.196 67.2007 108.776H67.2247V110H68.1847L68.1967 103.76H67.2367L67.2247 107.6C67.1527 108.68 66.4327 109.304 65.3887 109.304C64.2847 109.304 63.7807 108.608 63.7807 107.42ZM72.3064 110.12C73.4224 110.12 74.7424 109.616 74.9584 107.84H74.0824C73.9024 108.92 73.1224 109.292 72.2944 109.292C71.0824 109.292 70.2064 108.476 70.2064 106.892C70.2064 105.308 71.0824 104.456 72.2944 104.456C73.1104 104.456 73.9024 104.84 74.0824 105.884H74.9584C74.7304 104.132 73.4224 103.64 72.3064 103.64C70.6984 103.64 69.2944 104.672 69.2944 106.892C69.2944 109.1 70.6984 110.12 72.3064 110.12ZM78.2003 110.084C78.4523 110.084 78.6803 110.06 78.8963 110.012V109.268C78.7283 109.292 78.6203 109.292 78.4643 109.292C77.7923 109.292 77.5643 109.028 77.5643 108.356V104.54H78.8003V103.76H77.5643V102.2H76.6043V103.76H75.5963V104.54H76.6043V108.536C76.6043 109.688 77.2643 110.084 78.2003 110.084ZM80.8667 107.42L80.8787 103.76H79.9187L79.9067 107.612C79.9067 109.448 80.9027 110.12 82.1387 110.12C83.5787 110.12 84.1787 109.196 84.2867 108.776H84.3107V110H85.2707L85.2827 103.76H84.3227L84.3107 107.6C84.2387 108.68 83.5187 109.304 82.4747 109.304C81.3707 109.304 80.8667 108.608 80.8667 107.42ZM86.6804 110H87.6404V106.712C87.6404 105.38 88.3844 104.528 89.6444 104.528C89.8004 104.528 89.9444 104.54 90.1004 104.564V103.748C89.9564 103.7 89.7884 103.688 89.6324 103.688C88.4204 103.688 87.8324 104.504 87.6644 105.152H87.6404V103.76H86.6804V110ZM93.5514 110.12C94.7394 110.12 95.7954 109.628 96.2034 108.248H95.3274C95.0274 109.1 94.3314 109.352 93.5634 109.352C92.3034 109.352 91.5834 108.644 91.5114 107.18H96.2514C96.2754 107.06 96.2874 106.94 96.2874 106.736C96.2874 104.648 95.1114 103.64 93.5034 103.64C91.9074 103.64 90.5874 104.624 90.5874 106.892C90.5874 109.088 91.8354 110.12 93.5514 110.12ZM91.5114 106.448C91.6074 105.056 92.3994 104.396 93.4914 104.396C94.6434 104.396 95.3514 105.14 95.3634 106.448H91.5114Z"
        fill="black" />
    <path
        d="M25.696 142H26.68V138.76H28.756C30.724 138.76 31.72 137.776 31.72 136.192C31.72 134.584 30.724 133.6 28.756 133.6H25.696V142ZM26.68 137.884V134.476H28.72C30.04 134.476 30.712 135.076 30.712 136.192C30.712 137.284 30.04 137.884 28.72 137.884H26.68ZM35.2632 142.12C36.8112 142.12 38.2632 141.1 38.2632 138.88C38.2632 136.66 36.8112 135.64 35.2632 135.64C33.7152 135.64 32.2632 136.66 32.2632 138.88C32.2632 141.1 33.7152 142.12 35.2632 142.12ZM33.1752 138.88C33.1752 137.2 34.1712 136.444 35.2632 136.444C36.3432 136.444 37.3392 137.2 37.3392 138.88C37.3392 140.56 36.3432 141.304 35.2632 141.304C34.1712 141.304 33.1752 140.56 33.1752 138.88ZM41.2323 142H42.3003L44.4723 134.86L46.6563 142H47.7123L49.9683 133.6H48.9483L47.1483 140.608H47.1003L45.0003 133.6H43.9443L41.8443 140.608H41.7963L39.9963 133.6H38.9883L41.2323 142ZM55.7427 142H56.9427L59.3667 135.76H58.3827L56.3667 141.088H56.3307L54.3027 135.76H53.3307L55.7427 142ZM62.2282 142.12C63.5122 142.12 64.7602 141.628 64.7602 140.26C64.7602 139.204 64.0282 138.808 62.9962 138.568L61.8322 138.292C61.0762 138.124 60.7882 137.824 60.7882 137.344C60.7882 136.696 61.2922 136.396 62.2042 136.396C63.0682 136.396 63.6562 136.672 63.7882 137.488H64.6042C64.5322 136.24 63.6082 135.64 62.2042 135.64C60.7882 135.64 59.8522 136.24 59.8522 137.344C59.8522 138.196 60.4042 138.76 61.5082 139.024L62.6842 139.3C63.3562 139.456 63.7762 139.66 63.7762 140.272C63.7762 141.052 63.0922 141.364 62.2402 141.364C61.4242 141.364 60.6442 141.076 60.5242 140.224H59.6602C59.7202 141.532 60.8002 142.12 62.2282 142.12ZM68.5515 142H69.5355V138.76H71.6115C73.5795 138.76 74.5755 137.776 74.5755 136.192C74.5755 134.584 73.5795 133.6 71.6115 133.6H68.5515V142ZM69.5355 137.884V134.476H71.5755C72.8955 134.476 73.5675 135.076 73.5675 136.192C73.5675 137.284 72.8955 137.884 71.5755 137.884H69.5355ZM78.1187 142.12C79.6667 142.12 81.1187 141.1 81.1187 138.88C81.1187 136.66 79.6667 135.64 78.1187 135.64C76.5707 135.64 75.1187 136.66 75.1187 138.88C75.1187 141.1 76.5707 142.12 78.1187 142.12ZM76.0307 138.88C76.0307 137.2 77.0267 136.444 78.1187 136.444C79.1987 136.444 80.1947 137.2 80.1947 138.88C80.1947 140.56 79.1987 141.304 78.1187 141.304C77.0267 141.304 76.0307 140.56 76.0307 138.88ZM85.2398 142.12C87.1598 142.12 88.3478 141.232 88.3478 139.672C88.3478 138.304 87.4358 137.668 85.8998 137.356L84.8198 137.14C83.7158 136.924 83.2958 136.42 83.2958 135.736C83.2958 134.956 83.8358 134.332 85.1678 134.332C86.4518 134.332 87.0758 134.932 87.1118 135.736H88.0958C88.0958 134.368 87.0398 133.492 85.1798 133.492C83.2958 133.492 82.2638 134.368 82.2638 135.736C82.2638 136.948 83.0798 137.656 84.5438 137.944L85.6598 138.172C86.6438 138.364 87.3158 138.748 87.3158 139.684C87.3158 140.632 86.6318 141.268 85.2518 141.268C83.7398 141.268 83.0798 140.512 83.0198 139.552H82.0238C82.0238 141.052 83.1278 142.12 85.2398 142.12Z"
        fill="black" />
    <path
        d="M25.696 174H26.68V167.424H26.716L29.572 174H30.388L33.232 167.424H33.268V174H34.264V165.6H33.064L29.98 172.716L26.884 165.6H25.696V174ZM35.6452 174H36.6052V167.76H35.6452V174ZM35.5132 165.912C35.5132 166.248 35.8012 166.524 36.1252 166.524C36.4492 166.524 36.7252 166.248 36.7252 165.912C36.7252 165.576 36.4492 165.312 36.1252 165.312C35.8012 165.312 35.5132 165.576 35.5132 165.912ZM42.393 170.34V174H43.353V170.148C43.353 168.312 42.357 167.64 41.121 167.64C39.681 167.64 39.081 168.564 38.973 168.984H38.949V167.76H37.989V174H38.949V170.34C38.949 169.152 39.681 168.456 40.785 168.456C41.889 168.456 42.393 169.152 42.393 170.34ZM44.7507 174H45.7107V167.76H44.7507V174ZM44.6187 165.912C44.6187 166.248 44.9067 166.524 45.2307 166.524C45.5547 166.524 45.8307 166.248 45.8307 165.912C45.8307 165.576 45.5547 165.312 45.2307 165.312C44.9067 165.312 44.6187 165.576 44.6187 165.912ZM51.4984 170.34V174H52.4584V170.148C52.4584 168.312 51.4624 167.64 50.2264 167.64C48.7864 167.64 48.1864 168.564 48.0784 168.984H48.0544V167.76H47.0944V174H48.0544V170.34C48.0544 169.152 48.7864 168.456 49.8904 168.456C50.9944 168.456 51.4984 169.152 51.4984 170.34ZM56.4722 176.508C57.8162 176.508 59.4722 175.98 59.4722 173.904V167.76H58.5122V168.756H58.4882C58.0562 168.024 57.1922 167.64 56.3042 167.64C54.9002 167.64 53.5562 168.564 53.5562 170.748C53.5562 172.932 54.8882 173.868 56.3042 173.868C57.1922 173.868 58.0562 173.484 58.4882 172.752H58.5122V173.904C58.5122 175.224 57.6002 175.752 56.4602 175.752C55.4402 175.752 54.6362 175.32 54.6002 174.564H53.7482C53.7602 176.016 55.1762 176.508 56.4722 176.508ZM54.4682 170.748C54.4682 169.176 55.4402 168.444 56.4962 168.444C57.5522 168.444 58.5602 169.176 58.5602 170.748C58.5602 172.32 57.5522 173.052 56.4962 173.052C55.4402 173.052 54.4682 172.32 54.4682 170.748ZM66.2339 176.508C67.5779 176.508 69.2339 175.98 69.2339 173.904V167.76H68.2739V168.756H68.2499C67.8179 168.024 66.9539 167.64 66.0659 167.64C64.6619 167.64 63.3179 168.564 63.3179 170.748C63.3179 172.932 64.6499 173.868 66.0659 173.868C66.9539 173.868 67.8179 173.484 68.2499 172.752H68.2739V173.904C68.2739 175.224 67.3619 175.752 66.2219 175.752C65.2019 175.752 64.3979 175.32 64.3619 174.564H63.5099C63.5219 176.016 64.9379 176.508 66.2339 176.508ZM64.2299 170.748C64.2299 169.176 65.2019 168.444 66.2579 168.444C67.3139 168.444 68.3219 169.176 68.3219 170.748C68.3219 172.32 67.3139 173.052 66.2579 173.052C65.2019 173.052 64.2299 172.32 64.2299 170.748ZM71.562 171.42L71.574 167.76H70.614L70.602 171.612C70.602 173.448 71.598 174.12 72.834 174.12C74.274 174.12 74.874 173.196 74.982 172.776H75.006V174H75.966L75.978 167.76H75.018L75.006 171.6C74.934 172.68 74.214 173.304 73.17 173.304C72.066 173.304 71.562 172.608 71.562 171.42ZM77.3757 174H78.3357V167.76H77.3757V174ZM77.2437 165.912C77.2437 166.248 77.5317 166.524 77.8557 166.524C78.1797 166.524 78.4557 166.248 78.4557 165.912C78.4557 165.576 78.1797 165.312 77.8557 165.312C77.5317 165.312 77.2437 165.576 77.2437 165.912ZM82.2154 174.12C83.1394 174.12 83.9914 173.712 84.4234 172.956V174H85.3834V165.6H84.4234V168.792C83.9914 168.036 83.1394 167.64 82.2154 167.64C80.7754 167.64 79.4074 168.624 79.4074 170.88C79.4074 173.124 80.7754 174.12 82.2154 174.12ZM80.3194 170.88C80.3194 169.212 81.3274 168.444 82.3954 168.444C83.4514 168.444 84.4714 169.212 84.4714 170.88C84.4714 172.536 83.4514 173.304 82.3954 173.304C81.3274 173.304 80.3194 172.536 80.3194 170.88ZM89.4381 174.12C90.6261 174.12 91.6821 173.628 92.0901 172.248H91.2141C90.9141 173.1 90.2181 173.352 89.4501 173.352C88.1901 173.352 87.4701 172.644 87.3981 171.18H92.1381C92.1621 171.06 92.1741 170.94 92.1741 170.736C92.1741 168.648 90.9981 167.64 89.3901 167.64C87.7941 167.64 86.4741 168.624 86.4741 170.892C86.4741 173.088 87.7221 174.12 89.4381 174.12ZM87.3981 170.448C87.4941 169.056 88.2861 168.396 89.3781 168.396C90.5301 168.396 91.2381 169.14 91.2501 170.448H87.3981Z"
        fill="black" />
    <path
        d="M29.32 206.12C31.504 206.12 32.8 204.8 32.8 202.28V201.692H29.716V202.508H31.828C31.828 204.392 30.808 205.256 29.332 205.256C27.58 205.256 26.5 204.032 26.5 201.788C26.5 199.556 27.556 198.356 29.308 198.356C30.424 198.356 31.216 198.836 31.528 199.76H32.512C32.176 198.26 30.952 197.492 29.308 197.492C27.064 197.492 25.516 198.968 25.516 201.812C25.516 204.632 27.016 206.12 29.32 206.12ZM34.0632 206H35.0232V202.712C35.0232 201.38 35.7672 200.528 37.0272 200.528C37.1832 200.528 37.3272 200.54 37.4832 200.564V199.748C37.3392 199.7 37.1712 199.688 37.0152 199.688C35.8032 199.688 35.2152 200.504 35.0472 201.152H35.0232V199.76H34.0632V206ZM40.9342 206.12C42.1222 206.12 43.1782 205.628 43.5862 204.248H42.7102C42.4102 205.1 41.7142 205.352 40.9462 205.352C39.6862 205.352 38.9662 204.644 38.8942 203.18H43.6342C43.6582 203.06 43.6702 202.94 43.6702 202.736C43.6702 200.648 42.4942 199.64 40.8862 199.64C39.2902 199.64 37.9702 200.624 37.9702 202.892C37.9702 205.088 39.2182 206.12 40.9342 206.12ZM38.8942 202.448C38.9902 201.056 39.7822 200.396 40.8742 200.396C42.0262 200.396 42.7342 201.14 42.7462 202.448H38.8942ZM47.4733 206.12C48.6613 206.12 49.7173 205.628 50.1253 204.248H49.2493C48.9493 205.1 48.2533 205.352 47.4853 205.352C46.2253 205.352 45.5053 204.644 45.4333 203.18H50.1733C50.1973 203.06 50.2093 202.94 50.2093 202.736C50.2093 200.648 49.0333 199.64 47.4253 199.64C45.8293 199.64 44.5093 200.624 44.5093 202.892C44.5093 205.088 45.7573 206.12 47.4733 206.12ZM45.4333 202.448C45.5293 201.056 46.3213 200.396 47.4133 200.396C48.5653 200.396 49.2733 201.14 49.2853 202.448H45.4333ZM55.6938 202.34V206H56.6537V202.148C56.6537 200.312 55.6578 199.64 54.4218 199.64C52.9818 199.64 52.3818 200.564 52.2738 200.984H52.2498V199.76H51.2898V206H52.2498V202.34C52.2498 201.152 52.9818 200.456 54.0858 200.456C55.1898 200.456 55.6938 201.152 55.6938 202.34ZM63.4811 206.12C64.6691 206.12 65.7251 205.628 66.1331 204.248H65.2571C64.9571 205.1 64.2611 205.352 63.4931 205.352C62.2331 205.352 61.5131 204.644 61.4411 203.18H66.1811C66.2051 203.06 66.2171 202.94 66.2171 202.736C66.2171 200.648 65.0411 199.64 63.4331 199.64C61.8371 199.64 60.5171 200.624 60.5171 202.892C60.5171 205.088 61.7651 206.12 63.4811 206.12ZM61.4411 202.448C61.5371 201.056 62.3291 200.396 63.4211 200.396C64.5731 200.396 65.2811 201.14 65.2931 202.448H61.4411ZM71.7016 202.34V206H72.6616V202.148C72.6616 200.312 71.6656 199.64 70.4296 199.64C68.9896 199.64 68.3896 200.564 68.2816 200.984H68.2576V199.76H67.2976V206H68.2576V202.34C68.2576 201.152 68.9896 200.456 70.0936 200.456C71.1976 200.456 71.7016 201.152 71.7016 202.34ZM76.7233 206.12C77.9113 206.12 78.9673 205.628 79.3753 204.248H78.4993C78.1993 205.1 77.5033 205.352 76.7353 205.352C75.4753 205.352 74.7553 204.644 74.6833 203.18H79.4233C79.4473 203.06 79.4593 202.94 79.4593 202.736C79.4593 200.648 78.2833 199.64 76.6753 199.64C75.0793 199.64 73.7593 200.624 73.7593 202.892C73.7593 205.088 75.0073 206.12 76.7233 206.12ZM74.6833 202.448C74.7793 201.056 75.5713 200.396 76.6633 200.396C77.8153 200.396 78.5233 201.14 78.5353 202.448H74.6833ZM80.5398 206H81.4998V202.712C81.4998 201.38 82.2438 200.528 83.5038 200.528C83.6598 200.528 83.8038 200.54 83.9598 200.564V199.748C83.8158 199.7 83.6478 199.688 83.4918 199.688C82.2798 199.688 81.6918 200.504 81.5238 201.152H81.4998V199.76H80.5398V206ZM87.3628 208.508C88.7068 208.508 90.3628 207.98 90.3628 205.904V199.76H89.4028V200.756H89.3788C88.9468 200.024 88.0828 199.64 87.1948 199.64C85.7908 199.64 84.4468 200.564 84.4468 202.748C84.4468 204.932 85.7788 205.868 87.1948 205.868C88.0828 205.868 88.9468 205.484 89.3788 204.752H89.4028V205.904C89.4028 207.224 88.4908 207.752 87.3508 207.752C86.3308 207.752 85.5268 207.32 85.4908 206.564H84.6388C84.6508 208.016 86.0668 208.508 87.3628 208.508ZM85.3588 202.748C85.3588 201.176 86.3308 200.444 87.3868 200.444C88.4428 200.444 89.4508 201.176 89.4508 202.748C89.4508 204.32 88.4428 205.052 87.3868 205.052C86.3308 205.052 85.3588 204.32 85.3588 202.748ZM91.9003 207.476V208.316C93.1243 208.46 93.8683 207.968 94.4563 206.516L97.1443 199.76H96.1483L94.2043 204.872L92.2483 199.76H91.2643L93.6163 205.7C93.7243 205.952 93.7123 206.18 93.5803 206.516C93.3043 207.224 92.8363 207.608 91.9003 207.476Z"
        fill="black" />
</svg>
    