<svg viewBox="0 0 17 16" fill="none" xmlns="http://www.w3.org/2000/svg">
<path d="M5.83335 3.99996C5.47973 3.99996 5.14059 4.14044 4.89054 4.39048C4.6405 4.64053 4.50002 4.97967 4.50002 5.33329V10.6666C4.50002 11.0202 4.6405 11.3594 4.89054 11.6094C5.14059 11.8595 5.47973 12 5.83335 12H11.1667C11.5203 12 11.8594 11.8595 12.1095 11.6094C12.3595 11.3594 12.5 11.0202 12.5 10.6666V9.33329C12.5 9.15648 12.5703 8.98691 12.6953 8.86189C12.8203 8.73686 12.9899 8.66663 13.1667 8.66663C13.3435 8.66663 13.5131 8.73686 13.6381 8.86189C13.7631 8.98691 13.8334 9.15648 13.8334 9.33329V10.6666C13.8334 11.3739 13.5524 12.0521 13.0523 12.5522C12.5522 13.0523 11.8739 13.3333 11.1667 13.3333H5.83335C5.12611 13.3333 4.44783 13.0523 3.94774 12.5522C3.44764 12.0521 3.16669 11.3739 3.16669 10.6666V5.33329C3.16669 4.62605 3.44764 3.94777 3.94774 3.44767C4.44783 2.94758 5.12611 2.66663 5.83335 2.66663H7.16669C7.3435 2.66663 7.51307 2.73686 7.63809 2.86189C7.76312 2.98691 7.83335 3.15648 7.83335 3.33329C7.83335 3.5101 7.76312 3.67967 7.63809 3.8047C7.51307 3.92972 7.3435 3.99996 7.16669 3.99996H5.83335ZM9.83335 3.99996C9.65654 3.99996 9.48697 3.92972 9.36195 3.8047C9.23693 3.67967 9.16669 3.5101 9.16669 3.33329C9.16669 3.15648 9.23693 2.98691 9.36195 2.86189C9.48697 2.73686 9.65654 2.66663 9.83335 2.66663H13.1667C13.3435 2.66663 13.5131 2.73686 13.6381 2.86189C13.7631 2.98691 13.8334 3.15648 13.8334 3.33329V6.66663C13.8334 6.84344 13.7631 7.01301 13.6381 7.13803C13.5131 7.26306 13.3435 7.33329 13.1667 7.33329C12.9899 7.33329 12.8203 7.26306 12.6953 7.13803C12.5703 7.01301 12.5 6.84344 12.5 6.66663V4.94263L10.3054 7.13863C10.2434 7.20061 10.1698 7.24978 10.0888 7.28332C10.0078 7.31687 9.92101 7.33414 9.83335 7.33414C9.7457 7.33414 9.6589 7.31687 9.57791 7.28332C9.49692 7.24978 9.42334 7.20061 9.36135 7.13863C9.29937 7.07664 9.2502 7.00306 9.21666 6.92207C9.18311 6.84109 9.16585 6.75428 9.16585 6.66663C9.16585 6.57897 9.18311 6.49217 9.21666 6.41118C9.2502 6.3302 9.29937 6.25661 9.36135 6.19463L11.5574 3.99996H9.83335Z" fill="currentColor"/>
</svg>
