<svg width="99" height="149" viewBox="0 0 99 149" fill="none" xmlns="http://www.w3.org/2000/svg">
    <rect x="0.5" y="51.5" width="45.9806" height="45.9806" stroke="white" />
    <path d="M75.0002 60V64.5161" stroke="white" stroke-linecap="square" stroke-linejoin="round" />
    <path d="M84.9352 64.0643L81.7739 67.2256" stroke="white" stroke-linecap="square"
        stroke-linejoin="round" />
    <path d="M89.001 74H84.4849" stroke="white" stroke-linecap="square" stroke-linejoin="round" />
    <path d="M84.9352 83.9353L81.7739 80.774" stroke="white" stroke-linecap="square"
        stroke-linejoin="round" />
    <path d="M75.0002 88V83.4839" stroke="white" stroke-linecap="square" stroke-linejoin="round" />
    <path d="M65.0645 83.9353L68.2257 80.774" stroke="white" stroke-linecap="square"
        stroke-linejoin="round" />
    <path d="M61 73.9999H65.5161" stroke="white" stroke-linecap="square" stroke-linejoin="round" />
    <path d="M65.0645 64.0643L68.2257 67.2256" stroke="white" stroke-linecap="square"
        stroke-linejoin="round" />
    <rect x="52.5" y="51.5" width="45.9806" height="45.9806" stroke="white" />
    <path
        d="M38.9904 60.401C38.9839 60.2924 38.9358 60.1903 38.8558 60.1158C38.7758 60.0412 38.6701 59.9998 38.5603 60C28.7276 60 24.7074 65.5788 23.5 70.1541C22.2926 65.5811 18.2724 60 8.43973 60C8.32992 59.9998 8.2242 60.0412 8.14422 60.1158C8.06425 60.1903 8.01608 60.2924 8.00959 60.401C7.99537 60.6359 7.71036 66.1985 11.643 70.3327C14.2613 73.084 18.1026 74.5167 23.0699 74.5945V88.5909C23.0745 88.7009 23.1219 88.8049 23.2021 88.8812C23.2823 88.9574 23.3892 89 23.5004 89C23.6115 89 23.7184 88.9574 23.7986 88.8812C23.8789 88.8049 23.9263 88.7009 23.9309 88.5909V74.5945C28.8981 74.5167 32.7402 73.084 35.357 70.3327C39.2896 66.1985 39.0046 60.6359 38.9904 60.401ZM23.0699 73.7421C18.357 73.668 14.7251 72.325 12.2766 69.7554C9.18407 66.5105 8.88109 62.1865 8.86389 60.8612C20.085 61.0562 23.0699 69.0194 23.0699 73.2537V73.7421ZM34.7211 69.7546C32.2719 72.3243 28.6423 73.6651 23.9279 73.7414V73.2485C23.9279 69.0142 26.9097 61.051 38.1324 60.8561C38.1197 62.1857 37.8159 66.5098 34.7211 69.7546Z"
        fill="white" />
    <rect x="52.5" y="102.5" width="45.9806" height="45.9806" stroke="white" />
    <path
        d="M87.4734 134.364C87.3488 134.261 87.2155 134.169 87.0751 134.089C87.8701 133.627 88.4915 132.915 88.8431 132.062C89.1946 131.209 89.2565 130.263 89.0192 129.371C88.7819 128.479 88.2587 127.691 87.5307 127.129C86.8027 126.566 85.9106 126.262 84.9929 126.262C84.0752 126.262 83.1832 126.566 82.4552 127.129C81.7272 127.691 81.2039 128.479 80.9666 129.371C80.7293 130.263 80.7913 131.209 81.1428 132.062C81.4943 132.915 82.1158 133.627 82.9108 134.089C82.7704 134.169 82.6371 134.261 82.5124 134.364C81.7082 135.034 80.721 136.561 80.2142 140.009C79.7074 136.564 78.7202 135.034 77.9159 134.364C77.7913 134.261 77.658 134.169 77.5176 134.089C78.3126 133.627 78.934 132.915 79.2856 132.062C79.6371 131.209 79.699 130.263 79.4617 129.371C79.2244 128.479 78.7012 127.691 77.9732 127.129C77.2452 126.566 76.3531 126.262 75.4354 126.262C74.5177 126.262 73.6257 126.566 72.8977 127.129C72.1697 127.691 71.6464 128.479 71.4091 129.371C71.1718 130.263 71.2338 131.209 71.5853 132.062C71.9368 132.915 72.5583 133.627 73.3533 134.089C73.2129 134.169 73.0796 134.261 72.9549 134.364C72.1507 135.034 71.1635 136.561 70.6567 140.009C70.1499 136.564 69.1627 135.034 68.3584 134.364C68.2338 134.261 68.1005 134.169 67.9601 134.089C68.7551 133.627 69.3765 132.915 69.7281 132.062C70.0796 131.209 70.1415 130.263 69.9042 129.371C69.6669 128.479 69.1437 127.691 68.4157 127.129C67.6877 126.566 66.7956 126.262 65.8779 126.262C64.9602 126.262 64.0681 126.566 63.3401 127.129C62.6122 127.691 62.0889 128.479 61.8516 129.371C61.6143 130.263 61.6763 131.209 62.0278 132.062C62.3793 132.915 63.0008 133.627 63.7958 134.089C63.6554 134.169 63.5221 134.261 63.3974 134.364C62.4463 135.159 61.2355 137.141 60.8718 142.091C60.8653 142.178 60.8934 142.264 60.9499 142.331C61.0063 142.397 61.0865 142.438 61.173 142.445H61.1978C61.2801 142.445 61.3594 142.413 61.4198 142.357C61.4803 142.301 61.5174 142.224 61.5239 142.142C62.0352 135.196 64.1753 134.528 64.6482 134.471C65.447 134.718 66.3013 134.718 67.1001 134.471C67.5632 134.528 69.7169 135.167 70.2305 142.14C70.2369 142.223 70.2741 142.3 70.3345 142.356C70.3949 142.412 70.4742 142.443 70.5565 142.443H70.5814C70.6072 142.439 70.6324 142.432 70.6567 142.422C70.6809 142.432 70.7062 142.439 70.732 142.443H70.7561C70.8384 142.443 70.9178 142.412 70.9784 142.356C71.0389 142.3 71.0763 142.223 71.0829 142.14C71.5934 135.194 73.7328 134.526 74.2065 134.469C75.0069 134.718 75.8632 134.718 76.6636 134.469C76.8082 134.486 77.12 134.557 77.498 134.871C78.3512 135.583 79.4408 137.422 79.788 142.14C79.7946 142.223 79.8319 142.3 79.8925 142.356C79.953 142.412 80.0324 142.443 80.1148 142.443H80.1389C80.1647 142.439 80.1899 142.432 80.2142 142.422C80.2385 142.432 80.2637 142.439 80.2895 142.443H80.3143C80.3966 142.443 80.4759 142.412 80.5363 142.356C80.5968 142.3 80.6339 142.223 80.6404 142.14C81.1517 135.198 83.2926 134.527 83.7655 134.469C84.5657 134.718 85.4217 134.718 86.2219 134.469C86.3665 134.486 86.679 134.557 87.0562 134.871C87.9094 135.583 88.9998 137.422 89.347 142.14C89.3534 142.223 89.3906 142.3 89.451 142.356C89.5115 142.412 89.5907 142.443 89.673 142.443H89.6979C89.7843 142.436 89.8645 142.395 89.921 142.329C89.9774 142.263 90.0055 142.177 89.9991 142.09C89.6354 137.142 88.4253 135.159 87.4734 134.364ZM64.9577 133.869C64.9133 133.836 64.8616 133.816 64.8071 133.808H64.7446C63.9564 133.539 63.2888 132.997 62.8609 132.278C62.433 131.56 62.2726 130.712 62.4082 129.885C62.5439 129.059 62.9668 128.308 63.6015 127.766C64.2363 127.224 65.0417 126.927 65.8742 126.927C66.7066 126.927 67.512 127.224 68.1468 127.766C68.7816 128.308 69.2045 129.059 69.3401 129.885C69.4758 130.712 69.3153 131.56 68.8874 132.278C68.4595 132.997 67.7919 133.539 67.0037 133.808H66.9412C66.8882 133.816 66.8379 133.837 66.7951 133.869C66.1932 134.039 65.5566 134.039 64.9547 133.869H64.9577ZM74.5152 133.869C74.4708 133.836 74.4191 133.816 74.3646 133.808H74.3029C73.5146 133.539 72.8471 132.997 72.4191 132.278C71.9912 131.56 71.8308 130.712 71.9665 129.885C72.1021 129.059 72.525 128.308 73.1598 127.766C73.7946 127.224 74.6 126.927 75.4324 126.927C76.2649 126.927 77.0703 127.224 77.705 127.766C78.3398 128.308 78.7627 129.059 78.8984 129.885C79.034 130.712 78.8736 131.56 78.4457 132.278C78.0178 132.997 77.3502 133.539 76.562 133.808H76.4995C76.4449 133.815 76.3931 133.836 76.3489 133.869C75.7475 134.039 75.1113 134.039 74.5099 133.869H74.5152ZM84.0727 133.869C84.0285 133.836 83.9766 133.815 83.9221 133.808H83.8596C83.0714 133.539 82.4038 132.997 81.9759 132.278C81.548 131.56 81.3876 130.712 81.5232 129.885C81.6589 129.059 82.0818 128.308 82.7165 127.766C83.3513 127.224 84.1567 126.927 84.9892 126.927C85.8216 126.927 86.627 127.224 87.2618 127.766C87.8966 128.308 88.3195 129.059 88.4551 129.885C88.5908 130.712 88.4303 131.56 88.0024 132.278C87.5745 132.997 86.9069 133.539 86.1187 133.808H86.0562C86.0018 133.816 85.95 133.836 85.9056 133.869C85.3042 134.039 84.6681 134.039 84.0667 133.869H84.0727Z"
        fill="white" />
    <path
        d="M65.5201 121.608H66.2892L67.8765 124.987C67.9042 125.046 67.9475 125.095 68.0016 125.13C68.0556 125.164 68.1181 125.183 68.182 125.183C68.2458 125.183 68.3083 125.164 68.3624 125.13C68.4164 125.095 68.4598 125.046 68.4874 124.987L70.0786 121.608H73.5353L75.1265 124.987C75.1541 125.046 75.1975 125.095 75.2515 125.13C75.3056 125.164 75.3681 125.183 75.4319 125.183C75.4957 125.183 75.5583 125.164 75.6123 125.13C75.6664 125.095 75.7097 125.046 75.7374 124.987L77.3286 121.608H80.7883L82.3795 124.987C82.4072 125.046 82.4505 125.095 82.5046 125.13C82.5586 125.164 82.6211 125.183 82.685 125.183C82.7488 125.183 82.8113 125.164 82.8654 125.13C82.9194 125.095 82.9628 125.046 82.9904 124.987L84.5808 121.608H85.759C87.2513 121.608 88.9211 120.05 88.9211 117.963V112.646C88.9201 111.679 88.5435 110.753 87.874 110.069C87.2045 109.386 86.2968 109.001 85.3499 109H65.5201C64.5734 109.001 63.6657 109.386 62.9963 110.069C62.3269 110.753 61.9505 111.679 61.9497 112.646V117.963C61.9507 118.929 62.3272 119.856 62.9966 120.539C63.666 121.223 64.5735 121.607 65.5201 121.608ZM62.6276 112.646C62.6285 111.863 62.9334 111.112 63.4757 110.559C64.0179 110.005 64.7532 109.693 65.5201 109.692H85.3499C86.117 109.693 86.8523 110.005 87.3947 110.558C87.937 111.112 88.2422 111.863 88.2432 112.646V117.963C88.2432 119.626 86.9076 120.916 85.759 120.916H84.3681C84.352 120.918 84.336 120.921 84.3206 120.926C84.2954 120.928 84.2705 120.933 84.2465 120.941C84.2273 120.95 84.209 120.961 84.192 120.974C84.149 120.994 84.114 121.028 84.093 121.071C84.0814 121.084 84.0712 121.097 84.0627 121.112L82.6819 124.038L81.3042 121.112C81.2951 121.098 81.285 121.084 81.2738 121.071C81.2613 121.05 81.2467 121.03 81.2302 121.011C81.2123 120.997 81.1933 120.984 81.1733 120.972C81.1568 120.961 81.1393 120.95 81.1211 120.941C81.0959 120.933 81.0697 120.927 81.0431 120.925C81.0286 120.921 81.0137 120.918 80.9987 120.916H77.1182C77.102 120.918 77.0861 120.921 77.0706 120.926C77.0454 120.928 77.0206 120.933 76.9966 120.941C76.9777 120.95 76.9597 120.961 76.9428 120.973C76.9229 120.984 76.9041 120.997 76.8867 121.011C76.8702 121.03 76.8556 121.05 76.8431 121.071C76.8319 121.084 76.8218 121.098 76.8127 121.112L75.435 124.038L74.0574 121.112C74.0483 121.098 74.0381 121.084 74.027 121.071C74.0145 121.05 73.9998 121.03 73.9833 121.011C73.9655 120.997 73.9465 120.984 73.9264 120.972C73.9099 120.961 73.8924 120.95 73.8742 120.941C73.8491 120.933 73.8229 120.927 73.7963 120.925C73.7818 120.921 73.7669 120.918 73.7519 120.916H69.8682C69.8521 120.918 69.8362 120.922 69.8207 120.926C69.7955 120.928 69.7706 120.933 69.7467 120.941C69.7273 120.951 69.7088 120.961 69.6913 120.974C69.6722 120.985 69.6542 120.997 69.6376 121.011C69.6204 121.03 69.6052 121.05 69.5924 121.072C69.5816 121.085 69.5718 121.098 69.5628 121.112L68.1882 124.038L66.8105 121.112C66.802 121.097 66.7918 121.084 66.7801 121.071C66.7676 121.05 66.753 121.03 66.7365 121.011C66.7191 120.997 66.7003 120.984 66.6804 120.973C66.6637 120.961 66.6459 120.95 66.6274 120.941C66.6023 120.933 66.5761 120.927 66.5495 120.925C66.535 120.921 66.5201 120.918 66.5051 120.916H65.5232C64.7564 120.915 64.0211 120.604 63.4789 120.05C62.9366 119.496 62.6316 118.746 62.6308 117.963L62.6276 112.646Z"
        fill="white" />
    <path
        d="M70.5716 116.552C71.2422 116.552 71.6594 116.092 71.6594 115.473C71.6594 114.839 71.2243 114.394 70.5895 114.394C69.9547 114.394 69.5017 114.839 69.5017 115.473C69.4993 116.089 69.9344 116.552 70.5716 116.552Z"
        fill="white" />
    <path
        d="M75.9657 116.552C76.6362 116.552 77.0535 116.092 77.0535 115.473C77.0535 114.839 76.6184 114.394 75.9835 114.394C75.3487 114.394 74.8958 114.839 74.8958 115.473C74.8958 116.089 75.3309 116.552 75.9657 116.552Z"
        fill="white" />
    <path
        d="M80.2809 116.552C80.9517 116.552 81.3691 116.092 81.3691 115.473C81.3691 114.839 80.9339 114.394 80.2988 114.394C79.6638 114.394 79.2114 114.839 79.2114 115.473C79.2114 116.089 79.6467 116.552 80.2809 116.552Z"
        fill="white" />
    <rect x="0.5" y="0.5" width="45.9806" height="45.9806" stroke="white" />
    <path
        d="M18.3657 11.7485C18.3377 11.7763 18.3156 11.8095 18.3007 11.8461C18.2732 11.9184 18.2732 11.9984 18.3007 12.0708C18.3167 12.1067 18.3387 12.1397 18.3657 12.1684L18.4101 12.2038C18.4252 12.2155 18.4422 12.2245 18.4603 12.2305C18.4781 12.239 18.497 12.245 18.5165 12.2482H18.5756C18.6344 12.2477 18.6916 12.2297 18.74 12.1965C18.7885 12.1633 18.826 12.1165 18.8477 12.0619C18.8633 12.0265 18.8714 11.9882 18.8714 11.9495C18.8714 11.9108 18.8633 11.8726 18.8477 11.8372C18.8342 11.7999 18.8119 11.7664 18.7826 11.7396C18.7261 11.6857 18.6505 11.6564 18.5723 11.658C18.4942 11.6597 18.4199 11.6922 18.3657 11.7485Z"
        fill="white" />
    <path
        d="M40.744 22.9731C40.6655 22.9731 40.5903 23.0042 40.5349 23.0597C40.4794 23.1151 40.4483 23.1904 40.4483 23.2688C40.4483 25.1346 37.6599 26.8171 33.4492 27.8845C34.5493 25.5405 34.7809 22.8818 34.1027 20.3828C35.5161 18.2213 36.7196 15.702 36.7225 13.2152C37.0264 13.0538 37.2889 12.8245 37.4898 12.5452C37.6907 12.2658 37.8244 11.9439 37.8807 11.6045C37.937 11.265 37.9142 10.9172 37.8143 10.588C37.7143 10.2588 37.5398 9.95702 37.3042 9.70619C37.0687 9.45537 36.7786 9.26221 36.4563 9.14173C36.134 9.02124 35.7883 8.97668 35.446 9.01149C35.1037 9.0463 34.774 9.15955 34.4826 9.34245C34.1911 9.52535 33.9458 9.77296 33.7656 10.0661C31.95 10.0069 29.4071 10.9384 26.5536 12.7096C23.8858 11.9394 21.025 12.2108 18.5495 13.4688C16.074 14.7269 14.1684 16.8778 13.2179 19.4869C11.0002 15.7729 10.2314 12.6149 11.5502 11.2962C11.6052 11.2407 11.6361 11.1658 11.6361 11.0877C11.6361 11.0096 11.6052 10.9346 11.5502 10.8792C11.5227 10.8515 11.49 10.8295 11.4539 10.8145C11.4179 10.7995 11.3793 10.7918 11.3402 10.7918C11.3012 10.7918 11.2625 10.7995 11.2265 10.8145C11.1905 10.8295 11.1578 10.8515 11.1303 10.8792C9.76122 12.2483 10.1752 15.0722 11.9523 18.4845C8.10829 19.6879 6 21.3822 6 23.2688C6 25.2056 8.29458 26.9147 11.97 28.0679C11.837 28.3636 11.6744 28.7805 11.5295 29.159C11.3846 29.5375 11.2663 29.8243 11.1953 29.9781C11.1789 30.0134 11.1697 30.0516 11.1681 30.0905C11.1665 30.1294 11.1726 30.1683 11.1861 30.2048C11.1995 30.2413 11.2201 30.2749 11.2465 30.3034C11.273 30.332 11.3048 30.3551 11.3402 30.3713C11.3794 30.3886 11.4216 30.3976 11.4644 30.3979C11.521 30.3981 11.5764 30.382 11.6241 30.3516C11.6718 30.3212 11.7097 30.2778 11.7335 30.2264C11.8104 30.0579 11.9346 29.7415 12.0795 29.3748C12.2243 29.0082 12.4106 28.5321 12.5407 28.2394C12.9961 28.3695 13.4692 28.4937 13.9601 28.606C15.2534 30.9032 17.3275 32.6605 19.8059 33.5589C19.2618 33.8782 18.7148 34.1799 18.1648 34.446C16.5829 35.2414 14.7437 36.022 13.0257 35.8505C13.0889 35.671 13.1209 35.482 13.1203 35.2917C13.1205 34.8898 12.979 34.5007 12.7208 34.1927C12.4626 33.8848 12.1041 33.6777 11.7083 33.6078C11.3125 33.5379 10.9048 33.6098 10.5567 33.8107C10.2087 34.0116 9.94253 34.3288 9.80511 34.7065C9.66768 35.0841 9.66774 35.4982 9.80528 35.8758C9.94281 36.2534 10.209 36.5705 10.5571 36.7713C10.9053 36.9721 11.313 37.0439 11.7088 36.9739C12.1045 36.9039 12.463 36.6967 12.7211 36.3887C12.7547 36.4086 12.7919 36.4217 12.8305 36.4271C13.0581 36.4557 13.2872 36.4695 13.5165 36.4685C15.2108 36.4685 16.9347 35.7263 18.4309 34.9901C19.1446 34.6293 19.8522 34.2351 20.554 33.8073C22.4977 34.3592 24.5567 34.3592 26.5004 33.8073C29.3125 35.5814 31.7726 36.4951 33.5971 36.4951C34.5788 36.4951 35.3712 36.2261 35.9242 35.6702C36.9177 34.6766 37.0064 32.8965 36.1785 30.528C36.1656 30.4913 36.1457 30.4575 36.1198 30.4285C36.094 30.3995 36.0626 30.3759 36.0276 30.359C35.9926 30.3422 35.9546 30.3323 35.9158 30.3301C35.877 30.3279 35.8381 30.3334 35.8015 30.3462C35.7648 30.359 35.7309 30.3789 35.7019 30.4048C35.6729 30.4307 35.6493 30.462 35.6324 30.497C35.6156 30.532 35.6057 30.57 35.6035 30.6088C35.6013 30.6476 35.6068 30.6865 35.6196 30.7232C36.3588 32.8315 36.3174 34.4401 35.5043 35.2532C34.218 36.5395 31.0689 35.8446 27.2663 33.5678C29.7317 32.6644 31.7934 30.91 33.0796 28.6208C37.9024 27.5031 41.0397 25.5515 41.0397 23.2983C41.0438 23.2571 41.0392 23.2154 41.0262 23.1761C41.0132 23.1367 40.9921 23.1005 40.9642 23.0699C40.9364 23.0392 40.9023 23.0147 40.8644 22.9981C40.8264 22.9814 40.7854 22.9729 40.744 22.9731ZM11.4112 36.4183C11.1901 36.4183 10.974 36.3527 10.7902 36.2299C10.6064 36.1071 10.4631 35.9325 10.3785 35.7283C10.294 35.524 10.2718 35.2993 10.3149 35.0825C10.3581 34.8657 10.4645 34.6665 10.6208 34.5102C10.7772 34.3539 10.9763 34.2474 11.1931 34.2043C11.4099 34.1612 11.6347 34.1833 11.8389 34.2679C12.0432 34.3525 12.2177 34.4958 12.3405 34.6796C12.4634 34.8634 12.5289 35.0795 12.5289 35.3005C12.5289 35.597 12.4111 35.8813 12.2015 36.0909C11.9919 36.3005 11.7076 36.4183 11.4112 36.4183ZM33.8839 23.2451C33.8883 24.9232 33.4822 26.5768 32.7011 28.062C30.7808 28.4842 28.8317 28.7629 26.87 28.8958C28.3005 27.5285 29.6501 26.0791 30.9122 24.555C31.6751 23.6413 32.6863 22.432 33.6444 21.0481C33.8054 21.7695 33.8886 22.506 33.8927 23.2451H33.8839ZM35.658 9.58704C35.9845 9.58704 36.3036 9.68389 36.575 9.86532C36.8464 10.0468 37.0579 10.3046 37.1827 10.6063C37.3075 10.9079 37.34 11.2399 37.2761 11.56C37.2122 11.8801 37.0547 12.1741 36.8237 12.4048C36.5926 12.6354 36.2984 12.7923 35.9781 12.8556C35.6579 12.919 35.326 12.8859 35.0246 12.7605C34.7231 12.6352 34.4656 12.4233 34.2847 12.1515C34.1038 11.8798 34.0075 11.5605 34.0081 11.2341C34.0084 11.0156 34.0526 10.7994 34.1382 10.5983C34.198 10.5477 34.2352 10.4753 34.2417 10.3972C34.3886 10.1476 34.5989 9.94112 34.8512 9.79885C35.1036 9.65657 35.3891 9.5835 35.6787 9.58704H35.658ZM33.4965 10.6575C33.4443 10.8452 33.4175 11.0392 33.4167 11.2341C33.4176 11.5663 33.4921 11.8942 33.6349 12.1941C33.7778 12.4941 33.9853 12.7586 34.2427 12.9687C34.5 13.1788 34.8007 13.3293 35.1232 13.4092C35.4456 13.4892 35.7818 13.4966 36.1075 13.4311C36.0424 15.5512 35.0607 17.7216 33.8543 19.6406C33.3202 18.1122 32.456 16.7202 31.3229 15.5636C30.1899 14.4071 28.8159 13.5144 27.2988 12.9491C29.759 11.4706 31.9293 10.6811 33.5172 10.6575H33.4965ZM32.2812 17.7009H27.6891C27.1509 15.5748 26.3112 13.9219 25.294 13.026C26.7203 13.2747 28.0788 13.8192 29.2821 14.6243C30.4855 15.4294 31.5071 16.4774 32.2812 17.7009ZM23.2241 12.8988V17.7009H19.9715C20.6871 15.0189 21.8787 13.1413 23.2241 12.8988ZM23.2241 18.2923V22.843H19.3032C19.3226 21.3119 19.4999 19.7869 19.8325 18.2923H23.2241ZM23.8155 18.2923H27.2071C27.5397 19.7869 27.7171 21.3119 27.7364 22.843H23.8155V18.2923ZM23.8155 17.7009V12.8988C25.1609 13.1413 26.3526 15.016 27.0681 17.7009H23.8155ZM21.7457 13.026C20.7285 13.913 19.8887 15.5748 19.3506 17.7009H14.7584C15.5326 16.4774 16.5542 15.4294 17.7575 14.6243C18.9609 13.8192 20.3194 13.2747 21.7457 13.026ZM14.4066 18.2923H19.2116C18.8945 19.7888 18.7271 21.3132 18.7119 22.843H17.3251C17.2466 22.843 17.1714 22.8741 17.116 22.9296C17.0605 22.985 17.0294 23.0602 17.0294 23.1387C17.0294 23.2171 17.0605 23.2923 17.116 23.3478C17.1714 23.4032 17.2466 23.4344 17.3251 23.4344H18.7089C18.7089 24.1499 18.7444 24.8626 18.8094 25.5545C18.8161 25.6282 18.8502 25.6967 18.9049 25.7466C18.9597 25.7964 19.0311 25.8239 19.1051 25.8236H19.1317C19.2097 25.8168 19.2818 25.7794 19.3323 25.7195C19.3827 25.6596 19.4074 25.5822 19.4008 25.5042C19.3387 24.83 19.3092 24.1352 19.3032 23.4344H23.2241V26.687C23.2241 26.7654 23.2553 26.8406 23.3107 26.8961C23.3662 26.9515 23.4414 26.9827 23.5198 26.9827C23.5983 26.9827 23.6735 26.9515 23.7289 26.8961C23.7844 26.8406 23.8155 26.7654 23.8155 26.687V23.4344H27.7394C27.7394 24.1292 27.7039 24.8241 27.6418 25.5042C27.6347 25.5826 27.6591 25.6607 27.7096 25.7211C27.76 25.7815 27.8325 25.8195 27.9109 25.8265C27.9893 25.8336 28.0673 25.8092 28.1278 25.7587C28.1882 25.7083 28.2261 25.6359 28.2332 25.5574C28.2982 24.8626 28.3278 24.1499 28.3337 23.4373H29.7294C29.8078 23.4373 29.883 23.4062 29.9385 23.3507C29.9939 23.2953 30.0251 23.22 30.0251 23.1416C30.0251 23.0632 29.9939 22.988 29.9385 22.9325C29.883 22.8771 29.8078 22.8459 29.7294 22.8459H28.3278C28.3126 21.3162 28.1452 19.7918 27.8281 18.2952H32.6331C32.9784 18.9286 33.2559 19.5966 33.461 20.2882C32.5349 21.6397 31.5369 22.9407 30.4716 24.1854C29.0693 25.8705 27.5591 27.4627 25.9504 28.952C25.155 28.9934 24.3419 29.0141 23.5198 29.0141C22.6978 29.0141 21.9349 28.9934 21.1543 28.955C20.5629 28.4316 20.007 27.8875 19.4481 27.3316C17.2503 25.153 15.2961 22.7418 13.62 20.1403C13.8221 19.5004 14.0855 18.8815 14.4066 18.2923ZM13.4071 20.9328C15.0522 23.3828 16.9393 25.6612 19.0401 27.7337C19.4343 28.128 19.8286 28.5114 20.2228 28.884C18.2486 28.757 16.2866 28.4822 14.3533 28.062C13.1941 25.8757 12.8583 23.3458 13.4071 20.9328ZM6.60617 23.2599C6.60617 21.6602 8.67602 20.1108 12.251 19.0049C12.4786 19.4129 12.7241 19.8299 12.9872 20.2497C12.266 22.783 12.4855 25.4916 13.6052 27.8757C9.37977 26.8289 6.59139 25.1346 6.59139 23.2688L6.60617 23.2599ZM14.7673 28.7716C16.7985 29.1797 18.8573 29.4357 20.9266 29.5375C21.1691 29.7592 21.4145 29.9751 21.6599 30.188C21.9053 30.4009 22.2099 30.6552 22.4849 30.8829C22.5457 30.9327 22.6238 30.9563 22.7019 30.9485C22.7801 30.9408 22.852 30.9023 22.9018 30.8415C22.9516 30.7807 22.9752 30.7026 22.9675 30.6244C22.9597 30.5463 22.9212 30.4743 22.8604 30.4246C22.5884 30.2028 22.3193 29.9751 22.0473 29.7385L21.861 29.5759C22.408 29.5937 22.961 29.6055 23.5198 29.6055C24.0787 29.6055 24.6849 29.6055 25.2555 29.5759C23.7617 30.9009 22.1605 32.0997 20.4683 33.1597C18.1037 32.4246 16.0776 30.8723 14.7525 28.7805L14.7673 28.7716ZM26.598 33.1508C25.9258 32.725 25.2358 32.2549 24.5281 31.7404C24.4974 31.7136 24.4615 31.6935 24.4226 31.6812C24.3837 31.669 24.3427 31.6649 24.3022 31.6693C24.2617 31.6737 24.2225 31.6864 24.1871 31.7066C24.1517 31.7268 24.1209 31.7541 24.0966 31.7868C24.0723 31.8195 24.055 31.8569 24.0458 31.8966C24.0366 31.9363 24.0357 31.9775 24.0432 32.0176C24.0507 32.0576 24.0664 32.0957 24.0893 32.1294C24.1122 32.1632 24.1418 32.1918 24.1763 32.2135C24.747 32.6245 25.294 33.003 25.8233 33.3519C25.0681 33.5278 24.2953 33.6171 23.5198 33.618C22.7544 33.6126 21.9919 33.5233 21.2459 33.3519C22.9955 32.2095 24.6472 30.9237 26.184 29.5079C28.2342 29.4074 30.2741 29.1554 32.2871 28.7539C30.9717 30.8474 28.9555 32.4057 26.598 33.1508Z"
        fill="white" />
    <path
        d="M38.6003 20.3414C38.556 20.4061 38.5392 20.4857 38.5536 20.5628C38.568 20.6399 38.6125 20.7081 38.6772 20.7524C38.9188 20.9159 39.149 21.0957 39.3661 21.2906C39.4204 21.3399 39.491 21.3673 39.5643 21.3675C39.6055 21.3674 39.6463 21.3586 39.684 21.3418C39.7217 21.325 39.7554 21.3005 39.7831 21.2699C39.8095 21.241 39.8299 21.2073 39.8432 21.1705C39.8564 21.1337 39.8623 21.0947 39.8603 21.0556C39.8584 21.0166 39.8488 20.9783 39.832 20.943C39.8151 20.9077 39.7915 20.8761 39.7624 20.85C39.5252 20.6366 39.2744 20.4391 39.0113 20.2586C38.9789 20.237 38.9426 20.2219 38.9043 20.2144C38.8661 20.2068 38.8268 20.2069 38.7886 20.2146C38.7504 20.2223 38.7141 20.2374 38.6818 20.2592C38.6495 20.281 38.6218 20.3089 38.6003 20.3414Z"
        fill="white" />
    <path
        d="M37.3523 19.4543C37.3156 19.4676 37.2823 19.4887 37.2547 19.5163C37.2271 19.5439 37.2059 19.5773 37.1927 19.6139C37.177 19.6493 37.1689 19.6876 37.1689 19.7263C37.1689 19.765 37.177 19.8033 37.1927 19.8387C37.2067 19.875 37.2278 19.9081 37.2548 19.9363C37.2823 19.964 37.315 19.986 37.351 20.001C37.387 20.016 37.4257 20.0237 37.4647 20.0237C37.5037 20.0237 37.5424 20.016 37.5784 20.001C37.6145 19.986 37.6472 19.964 37.6747 19.9363C37.7016 19.9081 37.7227 19.875 37.7367 19.8387C37.7524 19.8033 37.7605 19.765 37.7605 19.7263C37.7605 19.6876 37.7524 19.6493 37.7367 19.6139C37.7218 19.5781 37.7008 19.5451 37.6747 19.5164C37.6331 19.4753 37.5803 19.4475 37.5229 19.4365C37.4655 19.4254 37.4062 19.4316 37.3523 19.4543Z"
        fill="white" />
    <path
        d="M10.7726 32.2548C10.8506 32.2537 10.925 32.2218 10.9796 32.1661C11.0081 32.1399 11.0303 32.1075 11.0446 32.0715C11.0598 32.0359 11.0678 31.9978 11.0683 31.9591C11.0675 31.9196 11.0595 31.8805 11.0446 31.8438C11.0303 31.8078 11.0081 31.7754 10.9796 31.7492C10.9242 31.6941 10.8492 31.6632 10.7711 31.6632C10.693 31.6632 10.618 31.6941 10.5626 31.7492C10.535 31.7762 10.5129 31.8083 10.4976 31.8438C10.4831 31.8805 10.476 31.9197 10.4769 31.9591C10.4764 31.9976 10.4834 32.0357 10.4976 32.0715C10.5129 32.107 10.535 32.1391 10.5626 32.1661C10.59 32.1941 10.6227 32.2163 10.6587 32.2315C10.6947 32.2467 10.7334 32.2547 10.7726 32.2548Z"
        fill="white" />
    <path
        d="M16.849 10.8438L16.7987 10.8172L16.7425 10.8024C16.6851 10.7911 16.6256 10.7962 16.571 10.8172C16.5355 10.8325 16.5034 10.8546 16.4764 10.8822C16.4498 10.9101 16.4278 10.942 16.4113 10.9768C16.3973 11.0137 16.3903 11.0528 16.3906 11.0922C16.391 11.1697 16.4218 11.2441 16.4764 11.2992C16.5034 11.3268 16.5355 11.3489 16.571 11.3642C16.6078 11.3782 16.6469 11.3852 16.6863 11.3849C16.7648 11.3849 16.84 11.3537 16.8954 11.2983C16.9509 11.2428 16.982 11.1676 16.982 11.0892C16.9813 11.0496 16.9733 11.0106 16.9584 10.9739C16.944 10.9386 16.9229 10.9065 16.8963 10.8793L16.849 10.8438Z"
        fill="white" />
    <path
        d="M13.0196 10.0749L12.8717 10.0956C12.7933 10.1003 12.72 10.136 12.6679 10.1948C12.6157 10.2536 12.5891 10.3306 12.5938 10.4091C12.5985 10.4875 12.6342 10.5608 12.6929 10.613C12.7517 10.6651 12.8288 10.6917 12.9072 10.687H12.9427L13.0965 10.6693C13.488 10.6089 13.8832 10.5753 14.2792 10.5687C14.3181 10.5717 14.3571 10.5669 14.3941 10.5547C14.4311 10.5426 14.4653 10.5232 14.4948 10.4978C14.5243 10.4724 14.5486 10.4415 14.5661 10.4067C14.5837 10.3719 14.5942 10.3341 14.5971 10.2952C14.6 10.2564 14.5953 10.2174 14.5831 10.1804C14.5709 10.1434 14.5516 10.1092 14.5262 10.0796C14.5008 10.0501 14.4698 10.0259 14.4351 10.0084C14.4003 9.9908 14.3624 9.98027 14.3236 9.97736C13.887 9.97439 13.4509 10.007 13.0196 10.0749Z"
        fill="white" />
</svg>
    