<svg width="17" height="18" viewBox="0 0 17 18" fill="none" xmlns="http://www.w3.org/2000/svg">
    <path fill-rule="evenodd" clip-rule="evenodd"
        d="M8.5 0.6875C3.90957 0.6875 0.1875 4.50234 0.1875 9.21152C0.1875 12.9781 2.56992 16.1695 5.87266 17.2976C6.28828 17.3756 6.44043 17.1121 6.44043 16.8857C6.44043 16.6816 6.43301 16.1473 6.4293 15.4348C4.11738 15.9506 3.62754 14.2918 3.62754 14.2918C3.24902 13.3084 2.70352 13.0449 2.70352 13.0449C1.9502 12.5143 2.75918 12.5254 2.75918 12.5254C3.59414 12.5848 4.03203 13.4049 4.03203 13.4049C4.77422 14.7074 5.97656 14.3326 6.45156 14.1137C6.52578 13.5644 6.74102 13.1859 6.97852 12.9744C5.13418 12.7592 3.19336 12.0281 3.19336 8.7625C3.19336 7.83105 3.51621 7.07031 4.04688 6.47656C3.96152 6.26133 3.67578 5.39297 4.12852 4.22031C4.12852 4.22031 4.82617 3.99023 6.41445 5.09238C7.07871 4.90312 7.7875 4.81035 8.49629 4.80664C9.20137 4.81035 9.91387 4.90312 10.5781 5.09238C12.1664 3.99023 12.8604 4.22031 12.8604 4.22031C13.3131 5.39297 13.0273 6.26133 12.942 6.47656C13.4727 7.07402 13.7955 7.83476 13.7955 8.7625C13.7955 12.0355 11.851 12.7555 9.99922 12.967C10.2961 13.2305 10.5633 13.75 10.5633 14.5441C10.5633 15.6834 10.5521 16.6037 10.5521 16.882C10.5521 17.1084 10.7006 17.3756 11.1236 17.2902C14.4338 16.1658 16.8125 12.9744 16.8125 9.21152C16.8125 4.50234 13.0904 0.6875 8.5 0.6875Z"
        fill="currentColor" />
</svg>
    