<svg width="21" height="21" viewBox="0 0 21 21" fill="none" xmlns="http://www.w3.org/2000/svg">
    <g clip-path="url(#clip0_3477_33601)">
        <path fill-rule="evenodd" clip-rule="evenodd"
            d="M13.6631 16.2896C14.1771 16.9407 14.7939 17.6774 14.7939 17.6774C15.8133 17.7039 16.8238 17.481 17.7374 17.0282C18.6511 16.5753 19.4404 15.9062 20.0366 15.0789C19.9819 11.6036 19.1382 8.18617 17.5695 5.08462C16.1896 4.00093 14.5074 3.37234 12.7551 3.28564L12.5152 3.55977C14.0752 3.97489 15.5294 4.71655 16.7813 5.73567C15.1847 4.85365 13.4308 4.29293 11.6186 4.08519C10.4677 3.95836 9.30581 3.96986 8.15769 4.11945C8.06171 4.12273 7.96618 4.13419 7.87214 4.15372C6.52672 4.30849 5.21415 4.67469 3.98294 5.23881C3.34901 5.53008 2.97209 5.73567 2.97209 5.73567C4.2944 4.66425 5.83689 3.89788 7.48951 3.49124L7.31817 3.28564C5.56582 3.37234 3.8836 4.00093 2.50378 5.08462C0.935007 8.18617 0.0913886 11.6036 0.0366211 15.0789C0.627552 15.908 1.41319 16.5791 2.3244 17.0332C3.23561 17.4873 4.24447 17.7105 5.26221 17.6831C5.26221 17.6831 5.89042 16.9064 6.40441 16.2554C5.19987 15.9516 4.13933 15.2365 3.40612 14.2337C4.01708 14.643 4.67228 14.9821 5.35929 15.2445C6.17276 15.566 7.01387 15.8126 7.87214 15.9812C9.33738 16.2627 10.8422 16.2685 12.3096 15.9984C13.1633 15.8491 13.9969 15.6019 14.7939 15.2617C15.4867 15.0002 16.1477 14.6611 16.7642 14.2508C16.0034 15.275 14.905 15.9972 13.6631 16.2896ZM5.58515 10.2878C5.90803 9.93576 6.35119 9.71752 6.82713 9.67625C7.06724 9.68485 7.30326 9.74105 7.52148 9.84158C7.73971 9.94212 7.93579 10.085 8.09837 10.2619C8.26094 10.4388 8.38676 10.6463 8.46853 10.8722C8.5503 11.0981 8.58639 11.338 8.5747 11.578C8.58504 11.8177 8.54802 12.057 8.46576 12.2824C8.38349 12.5077 8.2576 12.7147 8.09528 12.8913C7.93296 13.0679 7.73741 13.2108 7.5198 13.3118C7.3022 13.4128 7.06682 13.4699 6.82713 13.4798C6.35119 13.4385 5.90803 13.2203 5.58515 12.8682C5.26228 12.5161 5.08315 12.0557 5.08315 11.578C5.08315 11.1003 5.26228 10.6399 5.58515 10.2878ZM11.9791 9.91704C12.3137 9.72768 12.6976 9.64376 13.0807 9.67625C13.3204 9.68616 13.5558 9.74324 13.7734 9.84422C13.991 9.9452 14.1865 10.0881 14.3489 10.2647C14.5112 10.4414 14.6371 10.6483 14.7193 10.8736C14.8016 11.099 14.8386 11.3383 14.8283 11.578C14.8283 11.9625 14.7123 12.338 14.4954 12.6554C14.2785 12.9728 13.9708 13.2173 13.6126 13.3569C13.2544 13.4965 12.8624 13.5247 12.4879 13.4378C12.1134 13.351 11.7739 13.153 11.5138 12.8699C11.2537 12.5869 11.0851 12.2318 11.0301 11.8514C10.9751 11.4709 11.0363 11.0826 11.2056 10.7375C11.3749 10.3924 11.6445 10.1064 11.9791 9.91704Z"
            fill="white" />
    </g>
    <defs>
        <clipPath id="clip0_3477_33601">
            <rect width="20" height="20" fill="white" transform="translate(0.0366211 0.785645)" />
        </clipPath>
    </defs>
</svg>
    