<svg width="21" height="20" viewBox="0 0 21 20" fill="currentColor" xmlns="http://www.w3.org/2000/svg">
    <path
        d="M0.29024 6.44525H4.57648V19.3439H0.29024V6.44525ZM2.46205 0.227539C0.99505 0.227539 0.0366211 1.19063 0.0366211 2.45473C0.0366211 3.69282 0.967002 4.68392 2.40595 4.68392H2.43329C3.92834 4.68392 4.85938 3.69278 4.85938 2.45473C4.83134 1.19063 3.92838 0.227539 2.46205 0.227539ZM15.1004 6.14225C12.8252 6.14225 11.8059 7.39368 11.2373 8.2713V6.44525H6.94976C7.00653 7.6553 6.94976 19.3439 6.94976 19.3439H11.2373V12.1404C11.2373 11.7546 11.2653 11.3702 11.3781 11.0938C11.6886 10.3236 12.394 9.52606 13.5773 9.52606C15.1298 9.52606 15.7498 10.7094 15.7498 12.4426V19.3439H20.0366V11.9475C20.0366 7.98568 17.9222 6.14225 15.1004 6.14225Z"
        fill="white" />
</svg>

    