<svg width="21" height="21" viewBox="0 0 21 21" fill="currentColor" xmlns="http://www.w3.org/2000/svg">
    <g clip-path="url(#clip0_3477_33606)">
        <path fill-rule="evenodd" clip-rule="evenodd"
            d="M20.0366 10.6065C20.0366 9.29293 18.9585 8.22465 17.6329 8.22465C17.0591 8.22465 16.5322 8.42527 16.1185 8.75918C14.6529 7.84637 12.7929 7.29637 10.7991 7.17996L11.8391 3.92184L14.6972 4.58887C14.7722 5.61996 15.6422 6.43621 16.7016 6.43621C17.8097 6.43621 18.7116 5.54262 18.7116 4.44387C18.7116 3.3459 17.8097 2.45215 16.7016 2.45215C15.9266 2.45215 15.2529 2.88934 14.9172 3.52793L11.596 2.75309C11.3179 2.68809 11.0366 2.84668 10.9504 3.11668L9.65912 7.16074C7.511 7.21277 5.49162 7.76449 3.9185 8.73074C3.51037 8.41434 2.99725 8.2248 2.44037 8.2248C1.11475 8.22465 0.0366211 9.29293 0.0366211 10.6065C0.0366211 11.4184 0.449121 12.1362 1.07725 12.5661C1.051 12.755 1.03725 12.9451 1.03725 13.1376C1.03725 14.7793 2.00037 16.3065 3.74912 17.4375C5.42537 18.5218 7.64412 19.1189 9.996 19.1189C12.3479 19.1189 14.5666 18.5218 16.2429 17.4375C17.9916 16.3067 18.9547 14.7795 18.9547 13.1376C18.9547 12.9623 18.9429 12.7884 18.921 12.6156C19.591 12.1925 20.0366 11.45 20.0366 10.6065ZM16.7016 3.53465C17.2079 3.53465 17.6197 3.94277 17.6197 4.44371C17.6197 4.94527 17.2079 5.3534 16.7016 5.3534C16.1954 5.3534 15.7835 4.94527 15.7835 4.44371C15.7835 3.94277 16.1954 3.53465 16.7016 3.53465ZM5.70787 12.0798C5.70787 11.3398 6.33475 10.7186 7.08162 10.7186C7.82912 10.7186 8.43537 11.3396 8.43537 12.0798C8.43537 12.8204 7.82912 13.4212 7.08162 13.4212C6.33475 13.4212 5.70787 12.8204 5.70787 12.0798ZM13.3291 16.0248C12.6329 16.714 11.5591 17.0492 10.0466 17.0492C10.0435 17.0492 10.0397 17.0486 10.036 17.0486C10.0329 17.0486 10.0291 17.0492 10.0254 17.0492C8.51287 17.0492 7.43975 16.7142 6.74412 16.0248C6.53037 15.8129 6.53037 15.4706 6.74412 15.2593C6.95725 15.0481 7.30287 15.0481 7.51662 15.2593C7.99662 15.735 8.81725 15.9665 10.0254 15.9665C10.0291 15.9665 10.0329 15.9671 10.036 15.9671C10.0397 15.9671 10.0435 15.9665 10.0466 15.9665C11.2547 15.9665 12.076 15.735 12.5566 15.2593C12.7704 15.0475 13.116 15.0481 13.3291 15.2593C13.5422 15.4711 13.5422 15.8136 13.3291 16.0248ZM13.0116 13.4212C12.2641 13.4212 11.636 12.8204 11.636 12.0798C11.636 11.3392 12.2641 10.7186 13.0116 10.7186C13.7591 10.7186 14.3654 11.339 14.3654 12.0798C14.3654 12.8204 13.7591 13.4212 13.0116 13.4212Z"
            fill="white" />
    </g>
    <defs>
        <clipPath id="clip0_3477_33606">
            <rect width="20" height="20" fill="white" transform="translate(0.0366211 0.785645)" />
        </clipPath>
    </defs>
</svg>
    