<svg width="21" height="21" viewBox="0 0 21 21" fill="none" xmlns="http://www.w3.org/2000/svg">
    <g clip-path="url(#clip0_3477_33603)">
        <path
            d="M19.9971 2.89149C19.9809 2.81764 19.9455 2.74938 19.8944 2.69363C19.8434 2.63787 19.7785 2.5966 19.7063 2.57399C19.4435 2.52195 19.1716 2.54123 18.9188 2.62982C18.9188 2.62982 1.39464 8.92899 0.393809 9.62649C0.178809 9.77649 0.106309 9.86399 0.0704761 9.96649C-0.102857 10.4665 0.436309 10.6815 0.436309 10.6815L4.95298 12.1532C5.02935 12.1669 5.10788 12.1623 5.18214 12.1398C6.20881 11.4907 15.5155 5.61149 16.0563 5.41399C16.1396 5.38899 16.2038 5.41399 16.1871 5.47649C15.9721 6.23066 7.92964 13.3748 7.88548 13.4182C7.86396 13.4358 7.8472 13.4585 7.83672 13.4843C7.82624 13.51 7.82238 13.538 7.82548 13.5657L7.40381 17.9757C7.40381 17.9757 7.22714 19.3482 8.59964 17.9757C9.57298 17.0015 10.5071 16.1948 10.9738 15.8023C12.5271 16.8748 14.198 18.0607 14.9188 18.6815C15.0401 18.7989 15.1837 18.8906 15.3412 18.9511C15.4987 19.0117 15.6668 19.0399 15.8355 19.034C16.0431 19.0087 16.2382 18.9207 16.3946 18.7818C16.5511 18.6429 16.6616 18.4597 16.7113 18.2565C16.7113 18.2565 19.903 5.40399 20.0096 3.68232C20.0205 3.51566 20.0346 3.40566 20.0363 3.28982C20.0415 3.15588 20.0283 3.02186 19.9971 2.89149Z"
            fill="white" />
    </g>
    <defs>
        <clipPath id="clip0_3477_33603">
            <rect width="20" height="20" fill="white" transform="translate(0.0366211 0.785645)" />
        </clipPath>
    </defs>
</svg>
    