<svg width="21" height="21" viewBox="0 0 21 21" fill="none" xmlns="http://www.w3.org/2000/svg">
    <g clip-path="url(#clip0_3477_33599)">
        <path
            d="M20.0366 4.61882C19.2866 4.95215 18.5366 5.20215 17.7033 5.28548C18.5366 4.78548 19.2033 3.95215 19.5366 3.03548C18.7033 3.53548 17.87 3.86882 16.9533 4.03548C16.2033 3.20215 15.12 2.70215 13.9533 2.70215C11.7033 2.70215 9.86995 4.53548 9.86995 6.78548C9.86995 7.11881 9.86995 7.45215 9.95329 7.70215C6.45329 7.53548 3.45329 5.86881 1.45329 3.36882C1.03662 4.03548 0.869954 4.70215 0.869954 5.45215C0.869954 6.86882 1.61995 8.11881 2.70329 8.86881C2.03662 8.86881 1.36995 8.70215 0.869954 8.36882C0.869954 8.36882 0.869954 8.36881 0.869954 8.45215C0.869954 10.4521 2.28662 12.1188 4.11995 12.4521C3.78662 12.5355 3.45329 12.6188 3.03662 12.6188C2.78662 12.6188 2.53662 12.6188 2.28662 12.5355C2.78662 14.2021 4.28662 15.3688 6.11995 15.3688C4.70329 16.4521 2.95329 17.1188 1.03662 17.1188C0.703288 17.1188 0.369954 17.1188 0.0366211 17.0355C1.86995 18.2021 4.03662 18.8688 6.28662 18.8688C13.87 18.8688 17.9533 12.6188 17.9533 7.20215C17.9533 7.03548 17.9533 6.86882 17.9533 6.70215C18.7866 6.11882 19.4533 5.36881 20.0366 4.61882Z"
            fill="white" />
    </g>
    <defs>
        <clipPath id="clip0_3477_33599">
            <rect width="20" height="20" fill="white" transform="translate(0.0366211 0.785645)" />
        </clipPath>
    </defs>
</svg>
    