<svg width="21" height="21" viewBox="0 0 21 21" fill="none" xmlns="http://www.w3.org/2000/svg">
    <g clip-path="url(#clip0_3477_33612)">
        <path
            d="M19.8491 6.53564C19.8491 6.53564 19.6616 5.03564 19.0366 4.41064C18.2866 3.53564 17.4116 3.53564 17.0366 3.53564C14.2241 3.28564 10.0366 3.28564 10.0366 3.28564C10.0366 3.28564 5.84912 3.28564 3.03662 3.47314C2.66162 3.53564 1.78662 3.53564 1.03662 4.34814C0.411621 4.97314 0.224121 6.47314 0.224121 6.47314C0.224121 6.47314 0.0366211 8.22314 0.0366211 9.97314V11.5981C0.0366211 13.3481 0.224121 15.0356 0.224121 15.0356C0.224121 15.0356 0.411621 16.5356 1.03662 17.1606C1.78662 18.0356 2.78662 17.9731 3.22412 18.0981C4.84912 18.2231 10.0366 18.2856 10.0366 18.2856C10.0366 18.2856 14.2241 18.2856 17.0366 18.0356C17.4116 17.9731 18.2866 17.9731 19.0366 17.1606C19.6616 16.5356 19.8491 15.0356 19.8491 15.0356C19.8491 15.0356 20.0366 13.2856 20.0366 11.5981V9.97314C20.0366 8.22314 19.8491 6.53564 19.8491 6.53564ZM7.53662 14.5356V7.03564L13.7866 10.7856L7.53662 14.5356Z"
            fill="white" />
    </g>
    <defs>
        <clipPath id="clip0_3477_33612">
            <rect width="20" height="20" fill="white" transform="translate(0.0366211 0.785645)" />
        </clipPath>
    </defs>
</svg>
    