<svg width="15" height="12" viewBox="0 0 15 12" fill="none" xmlns="http://www.w3.org/2000/svg">
<path d="M0.905423 5.98445L3.46144 2.72435C3.49847 2.68292 3.52783 2.63305 3.54772 2.57783C3.56761 2.5226 3.5776 2.4632 3.57707 2.40328C3.57654 2.34336 3.56551 2.28421 3.54465 2.22947C3.5238 2.17474 3.49356 2.12558 3.45581 2.08505C3.41807 2.04452 3.37361 2.01347 3.32519 1.99383C3.27677 1.97418 3.22542 1.96635 3.17432 1.97083C3.12321 1.9753 3.07343 1.99199 3.02805 2.01985C2.98268 2.04771 2.94267 2.08615 2.91051 2.13281L0.107134 5.70839C0.0384641 5.7903 0 5.90043 0 6.01512C0 6.12982 0.0384641 6.23994 0.107134 6.32185L3.55514 10.1954C3.62462 10.2737 3.71724 10.3176 3.81374 10.3181C3.86422 10.3179 3.91415 10.3057 3.96052 10.2824C4.00689 10.259 4.04875 10.225 4.08358 10.1823C4.15339 10.1002 4.19257 9.9891 4.19257 9.87334C4.19257 9.75758 4.15339 9.64652 4.08358 9.56442L0.905423 5.98445Z" fill="currentColor"/>
<path d="M8.62618 0.511512C8.52978 0.485157 8.42838 0.504464 8.34412 0.565216C8.25986 0.625968 8.19958 0.723231 8.17644 0.835768L6.13387 10.971C6.11133 11.0837 6.12784 11.2022 6.1798 11.3008C6.23177 11.3993 6.31496 11.4697 6.41121 11.4968C6.43983 11.5011 6.46879 11.5011 6.49741 11.4968C6.58146 11.5045 6.66529 11.4789 6.73533 11.424C6.80538 11.3691 6.85756 11.2883 6.88344 11.1945L8.92226 1.05924C8.9361 1.00044 8.93928 0.938903 8.93161 0.878575C8.92394 0.818248 8.90559 0.760457 8.87772 0.7089C8.84985 0.657343 8.81308 0.613156 8.76976 0.579167C8.72645 0.545178 8.67755 0.522135 8.62618 0.511512Z" fill="currentColor"/>
<path d="M14.9002 5.65583L12.0968 2.07586C12.0297 1.98986 11.9361 1.93854 11.8367 1.9332C11.7372 1.92786 11.64 1.96893 11.5665 2.04737C11.4929 2.12582 11.449 2.23521 11.4445 2.35149C11.4399 2.46777 11.475 2.58141 11.5421 2.66741L14.1019 5.93626L10.9162 9.51185C10.8805 9.55184 10.8519 9.59966 10.8321 9.65258C10.8122 9.70549 10.8014 9.76246 10.8004 9.82024C10.7993 9.87802 10.808 9.93547 10.826 9.98932C10.8439 10.0432 10.8708 10.0924 10.905 10.1341C10.9392 10.1758 10.9801 10.2092 11.0253 10.2325C11.0706 10.2557 11.1193 10.2683 11.1687 10.2695C11.2182 10.2707 11.2673 10.2606 11.3134 10.2396C11.3594 10.2186 11.4015 10.1872 11.4372 10.1472L14.8852 6.26928C14.9559 6.18969 14.9971 6.08085 14.9999 5.96614C15.0027 5.85143 14.9669 5.74001 14.9002 5.65583Z" fill="currentColor"/>
</svg>
