<svg width="17" height="18" viewBox="0 0 17 18" fill="none" xmlns="http://www.w3.org/2000/svg">
<path d="M8.58057 8.9867C10.3184 5.6655 13.7167 6.36063 15.1264 8.19507C16.536 10.0295 15.7539 13.543 14.0451 13.7367" stroke="currentColor" stroke-width="0.7" stroke-miterlimit="10" stroke-linecap="round" stroke-linejoin="round"/>
<path d="M8.58089 8.98664C6.68737 5.75175 9.21844 3.16263 11.5212 2.94077C14.3552 2.66782 16.5362 5.30826 15.884 6.71659" stroke="currentColor" stroke-width="0.7" stroke-miterlimit="10" stroke-linecap="round" stroke-linejoin="round"/>
<path d="M8.58075 8.98668C4.95265 8.87929 3.82955 5.79767 4.7857 3.33576C5.81959 0.674114 9.70072 0.529295 10.7205 1.90878" stroke="currentColor" stroke-width="0.7" stroke-miterlimit="10" stroke-linecap="round" stroke-linejoin="round"/>
<path d="M8.58072 8.9867C6.49916 12.104 2.79923 11.4748 1.59295 9.50074C0.386669 7.5267 1.04055 4.26562 3.37525 3.96521" stroke="currentColor" stroke-width="0.7" stroke-miterlimit="10" stroke-linecap="round" stroke-linejoin="round"/>
<path d="M8.58051 8.98669C10.1188 12.4049 7.39115 15.1828 5.07776 15.1829C2.89402 15.1831 0.518996 13.534 1.24448 11.0917" stroke="currentColor" stroke-width="0.7" stroke-miterlimit="10" stroke-linecap="round" stroke-linejoin="round"/>
<path d="M8.58092 8.98669C12.2945 9.49588 13.578 12.9828 12.33 14.9306C11.082 16.8785 7.73124 17.695 6.59668 16.1257" stroke="currentColor" stroke-width="0.7" stroke-miterlimit="10" stroke-linecap="round" stroke-linejoin="round"/>
</svg>
