<svg width="26" height="26" viewBox="0 0 26 26" fill="currentColor" xmlns="http://www.w3.org/2000/svg">
<path d="M12.9989 25.4988C12.8092 25.4988 12.6232 25.4945 12.4465 25.4866C9.23034 25.3443 6.19314 23.9666 3.96764 21.6405C1.74215 19.3144 0.5 16.2193 0.5 13C0.5 9.78073 1.74215 6.6856 3.96764 4.35948C6.19314 2.03336 9.23034 0.655642 12.4465 0.513371C12.6225 0.505469 12.8056 0.50116 12.9981 0.50116C13.2567 0.50116 13.5125 0.509061 13.7588 0.524146C16.9367 0.717144 19.9212 2.11558 22.1031 4.43405C24.2851 6.75252 25.5 9.81626 25.5 13C25.5 16.1837 24.2851 19.2475 22.1031 21.5659C19.9212 23.8844 16.9367 25.2828 13.7588 25.4758C13.5139 25.4909 13.2575 25.4988 12.9989 25.4988ZM12.9989 1.36315C12.8214 1.36315 12.649 1.36315 12.4853 1.37392C9.48843 1.50298 6.65719 2.78427 4.58227 4.95045C2.50736 7.11664 1.34906 10.0004 1.34906 13C1.34906 15.9996 2.50736 18.8833 4.58227 21.0495C6.65719 23.2157 9.48843 24.497 12.4853 24.6261C12.6498 24.6332 12.8221 24.6368 12.9996 24.6368C13.2409 24.6368 13.4787 24.6297 13.7071 24.6153C16.6654 24.435 19.4434 23.1328 21.4743 20.9743C23.5053 18.8158 24.6361 15.9637 24.6361 13C24.6361 10.0362 23.5053 7.18418 21.4743 5.0257C19.4434 2.86721 16.6654 1.56498 13.7071 1.3847C13.4773 1.37033 13.2381 1.36315 12.9989 1.36315Z" fill="currentColor"/>
<path d="M12.4659 25.4873H12.4479C9.23182 25.3451 6.19461 23.9673 3.96911 21.6412C1.74361 19.3151 0.501465 16.22 0.501465 13.0007C0.501465 9.78145 1.74361 6.68632 3.96911 4.3602C6.19461 2.03408 9.23182 0.656359 12.4479 0.514089C12.5226 0.51011 12.5969 0.525973 12.6634 0.560061C12.8423 0.65057 13.0276 0.749699 13.2137 0.855292L13.2704 0.886899L13.3229 0.917068H13.3293C15.7442 2.31642 17.686 4.40531 18.9057 6.91579C19.8228 8.8129 20.2992 10.8928 20.2992 13C20.2992 15.1072 19.8228 17.1871 18.9057 19.0842C17.6848 21.594 15.742 23.6819 13.3264 25.08L13.32 25.0836L13.2675 25.1138L13.2086 25.1469C13.0248 25.251 12.8394 25.3501 12.6606 25.4406C12.6002 25.4713 12.5336 25.4873 12.4659 25.4873ZM12.3718 1.37967C9.39705 1.53835 6.59644 2.83183 4.54686 4.99366C2.49727 7.15549 1.35482 10.021 1.35482 13C1.35482 15.979 2.49727 18.8445 4.54686 21.0063C6.59644 23.1682 9.39705 24.4616 12.3718 24.6203C12.5076 24.5485 12.6469 24.4767 12.787 24.3955L12.8387 24.366L12.8976 24.3323C15.1622 23.0195 16.984 21.0613 18.1299 18.7078C19.2932 16.3115 19.6965 13.617 19.2857 10.9852C18.8749 8.3533 17.6696 5.90985 15.8312 3.98216C14.968 3.07324 13.9789 2.29285 12.894 1.66484L12.8351 1.63108L12.7856 1.60307C12.6457 1.52453 12.5078 1.45006 12.3718 1.37967Z" fill="currentColor"/>
<path d="M13.733 25.4765C13.6649 25.4765 13.5976 25.4602 13.5369 25.4291C13.3143 25.3149 13.0981 25.1978 12.8948 25.0807L12.8143 25.0333L12.7806 25.0132C10.3859 23.5982 8.46749 21.5014 7.27029 18.9908C6.05778 16.4441 5.64662 13.5894 6.09116 10.804C6.5357 8.01864 7.81501 5.43373 9.76 3.39095C10.6498 2.45432 11.6651 1.64546 12.777 0.987443L12.8114 0.966613C12.838 0.950809 12.8646 0.935006 12.8919 0.919921C13.0959 0.801398 13.3121 0.684311 13.5341 0.570816C13.6026 0.535714 13.6792 0.519592 13.756 0.524125C16.9339 0.717123 19.9184 2.11556 22.1003 4.43403C24.2822 6.7525 25.4972 9.81623 25.4972 13C25.4972 16.1837 24.2822 19.2474 22.1003 21.5659C19.9184 23.8844 16.9339 25.2828 13.756 25.4758L13.733 25.4765ZM13.8243 1.39258C13.6526 1.48237 13.4852 1.5736 13.3258 1.66626L13.2539 1.70864L13.2187 1.72947C10.9734 3.05828 9.17426 5.02519 8.05039 7.37981C6.9127 9.76913 6.52691 12.4475 6.94401 15.0607C7.36111 17.674 8.56146 20.0992 10.3864 22.0156C11.2224 22.8944 12.1757 23.6534 13.2194 24.2712L13.2539 24.2913L13.3258 24.3344C13.4845 24.4256 13.6519 24.5176 13.8243 24.6074C16.7599 24.3981 19.5072 23.0843 21.5129 20.9305C23.5186 18.7768 24.6337 15.943 24.6337 13C24.6337 10.0569 23.5186 7.22317 21.5129 5.0694C19.5072 2.91563 16.7599 1.60183 13.8243 1.39258Z" fill="currentColor"/>
<path d="M12.999 8.8682C11.0804 8.87377 9.18685 8.43309 7.4679 7.58096C6.14789 6.92921 4.9534 6.0494 3.9395 4.98206C3.8633 4.90195 3.8208 4.79561 3.8208 4.68504C3.8208 4.57447 3.8633 4.46813 3.9395 4.38801C6.16319 2.03815 9.21562 0.648129 12.448 0.513371C12.624 0.505469 12.8072 0.50116 12.9997 0.50116C13.2583 0.50116 13.514 0.509061 13.7604 0.524146C16.9161 0.711823 19.8823 2.09294 22.057 4.38729C22.1332 4.46741 22.1757 4.57375 22.1757 4.68432C22.1757 4.79489 22.1332 4.90123 22.057 4.98135C21.0916 5.99803 19.9619 6.84503 18.7154 7.48686C16.9488 8.40035 14.9878 8.8742 12.999 8.8682ZM4.85751 4.68468C5.73624 5.54685 6.74664 6.26361 7.85077 6.80804C9.48185 7.61072 11.278 8.02088 13.0959 8.00579C14.9137 7.9907 16.7028 7.55077 18.3203 6.72113C19.3569 6.18749 20.3073 5.501 21.1397 4.68468C19.1424 2.72266 16.5021 1.55039 13.7073 1.3847C13.4774 1.37033 13.2396 1.36315 12.999 1.36315C12.8216 1.36315 12.6492 1.36315 12.4854 1.37392C9.62034 1.49411 6.90201 2.67396 4.85751 4.68468Z" fill="currentColor"/>
<path d="M12.9988 25.4988C12.8091 25.4988 12.6231 25.4945 12.4464 25.4866C9.21472 25.3513 6.16315 23.9613 3.93998 21.612C3.86378 21.5318 3.82129 21.4255 3.82129 21.3149C3.82129 21.2044 3.86378 21.098 3.93998 21.0179C5.10677 19.7888 6.51177 18.8103 8.06925 18.1421C9.62673 17.474 11.304 17.1302 12.9988 17.1318C14.9876 17.1258 16.9485 17.5996 18.7152 18.5131C19.9617 19.1549 21.0914 20.0019 22.0568 21.0186C22.133 21.0987 22.1755 21.2051 22.1755 21.3156C22.1755 21.4262 22.133 21.5326 22.0568 21.6127C19.8816 23.9072 16.9149 25.2883 13.7588 25.4758C13.5138 25.4909 13.2574 25.4988 12.9988 25.4988ZM4.85728 21.3153C6.90156 23.3259 9.61964 24.5057 12.4845 24.626C12.6489 24.6332 12.8213 24.6368 12.9988 24.6368C13.2401 24.6368 13.4779 24.6296 13.7063 24.6153C16.5014 24.4496 19.142 23.2774 21.1395 21.3153C18.9656 19.1842 16.0427 17.9905 12.9984 17.9905C9.95414 17.9905 7.03124 19.1842 4.85728 21.3153Z" fill="currentColor"/>
<path d="M25.0667 13.431H0.930994C0.816687 13.431 0.707063 13.3856 0.626236 13.3048C0.545408 13.224 0.5 13.1143 0.5 13C0.5 12.8857 0.545408 12.7761 0.626236 12.6953C0.707063 12.6144 0.816687 12.569 0.930994 12.569H25.0667C25.181 12.569 25.2906 12.6144 25.3714 12.6953C25.4523 12.7761 25.4977 12.8857 25.4977 13C25.4977 13.1143 25.4523 13.224 25.3714 13.3048C25.2906 13.3856 25.181 13.431 25.0667 13.431Z" fill="currentColor"/>
<path d="M12.9989 25.4988C12.8846 25.4988 12.7749 25.4534 12.6941 25.3726C12.6133 25.2918 12.5679 25.1821 12.5679 25.0678V0.932154C12.5679 0.817847 12.6133 0.708222 12.6941 0.627395C12.7749 0.546568 12.8846 0.50116 12.9989 0.50116C13.1132 0.50116 13.2228 0.546568 13.3036 0.627395C13.3845 0.708222 13.4299 0.817847 13.4299 0.932154V25.0678C13.4299 25.1821 13.3845 25.2918 13.3036 25.3726C13.2228 25.4534 13.1132 25.4988 12.9989 25.4988Z" fill="currentColor"/>
</svg>
