<svg width="116" height="21" viewBox="0 0 116 21" fill="none" xmlns="http://www.w3.org/2000/svg">
<path d="M13.6732 1.55469V12.3446L0 1.55469V20.0162H3.74351V9.22658L17.4165 20.0162V1.55469H13.6732Z" fill="currentColor"/>
<path d="M21.0449 20.0162V1.55469H36.2844V4.94245H24.9776V8.82011H36.2844V12.2079H24.9776V16.6285H36.2844V20.0162H21.0449Z" fill="currentColor"/>
<path d="M64.4119 20.0162L56.6038 1.55469H61.1553L66.8269 15.9292L72.5253 1.55469H76.9231L69.1147 20.0162H64.4119Z" fill="currentColor"/>
<path d="M111.129 6.62871C110.843 5.79658 110.294 5.10151 109.579 4.66739C108.889 4.26876 107.929 4.06944 106.701 4.06944C105.306 4.06944 104.24 4.25607 103.504 4.62932C102.766 5.0005 102.395 5.54424 102.395 6.25453C102.357 6.84833 102.616 7.41859 103.073 7.74847C103.524 8.06821 104.348 8.32589 105.545 8.52151L109.161 9.13607C111.308 9.50771 112.882 10.1606 113.883 11.0946C114.883 12.0289 115.384 13.3136 115.385 14.9487C115.385 16.798 114.659 18.2328 113.207 19.2534C111.756 20.2749 109.686 20.7856 106.996 20.7856C105.044 20.7856 103.424 20.537 102.138 20.0398C100.851 19.5429 99.8661 18.7873 99.1849 17.7731C98.5045 16.7594 98.0989 15.471 97.968 13.9079H101.929C102.093 15.1536 102.577 16.0651 103.38 16.6422C104.184 17.2185 105.389 17.5071 106.997 17.508C108.438 17.508 109.526 17.2976 110.255 16.8801C110.985 16.4646 111.35 15.8445 111.35 15.0279C111.37 14.4113 111.096 13.8271 110.625 13.4818C110.141 13.1078 109.372 12.84 108.324 12.6815L105.371 12.2282C102.977 11.8732 101.227 11.2286 100.12 10.2944C99.0138 9.36261 98.4603 8.05152 98.4594 6.36111C98.4426 5.27754 98.7932 4.22497 99.4447 3.40298C100.1 2.56696 101.055 1.92226 102.31 1.46888C103.763 0.984214 105.279 0.754686 106.8 0.788993C109.194 0.788993 111.047 1.22046 112.358 2.08339C113.669 2.94409 114.53 4.29893 114.941 6.1479L111.129 6.62871Z" fill="currentColor"/>
<path d="M96.5167 10.787C96.5167 12.7951 96.097 14.5507 95.2576 16.0541C94.4026 17.5718 93.1357 18.7883 91.6185 19.5485C90.0335 20.3731 88.1462 20.7856 85.9565 20.7856C83.8526 20.7856 82.0166 20.3904 80.4483 19.5999C78.9294 18.8578 77.6541 17.6611 76.7832 16.1607C75.9096 14.658 75.4724 12.8667 75.4717 10.787C75.4717 8.77623 75.8923 7.02054 76.7337 5.51996C77.5885 4.00229 78.8553 2.78579 80.3725 2.02558C81.9579 1.19819 83.8453 0.784878 86.0347 0.785646C88.1357 0.785646 89.9718 1.18173 91.543 1.9739C93.0613 2.71695 94.3363 3.91351 95.208 5.41337C96.0813 6.91618 96.5176 8.7074 96.5167 10.787ZM92.2935 10.787C92.2935 8.72432 91.7418 7.12429 90.6383 5.98696C89.5355 4.84762 87.9836 4.27857 85.9825 4.27979C83.9986 4.27979 82.4545 4.85339 81.35 6.00057C80.2475 7.14544 79.6967 8.74093 79.6977 10.787C79.6977 12.8497 80.2485 14.4498 81.35 15.5871C82.4528 16.7234 84.0057 17.2925 86.0085 17.2943C87.9924 17.2943 89.5357 16.7205 90.6383 15.573C91.7409 14.4258 92.2926 12.8305 92.2935 10.787Z" fill="currentColor"/>
<path d="M53.1212 20.0162L49.3686 13.1112H44.342V20.0162H40.6387V1.55469H49.0803C53.8753 1.55469 56.2727 3.47674 56.2726 7.32086C56.2726 8.56039 56.004 9.59435 55.4669 10.4227C54.9298 11.2515 54.1076 11.8978 53.0003 12.3616L57.3295 20.0162H53.1212ZM48.7919 9.93237C50.0584 9.93237 50.9923 9.72052 51.5935 9.29682C52.1947 8.87559 52.4952 8.20806 52.4952 7.29424C52.4952 6.38063 52.2111 5.72556 51.6429 5.329C51.0735 4.93171 50.1396 4.73395 48.8412 4.73573H44.342V9.93237H48.7919Z" fill="currentColor"/>
</svg>
