<svg width="334" height="48" viewBox="0 0 334 46" fill="none" xmlns="http://www.w3.org/2000/svg">
<g clip-path="url(#clip0_6102_34005)">
<path d="M309.25 17.2638C303.055 17.2638 298.055 22.2916 298.055 28.4582C298.055 34.6249 303.083 39.6527 309.25 39.6527C313.944 39.6527 317.944 36.7638 319.638 32.6805H313.944C312.777 33.9582 311.111 34.7638 309.25 34.7638C306.388 34.7638 303.944 32.8471 303.194 30.2082H315.305H320.305C320.389 29.6249 320.444 29.0416 320.444 28.4304C320.472 22.2916 315.444 17.2638 309.25 17.2638ZM303.277 26.486C304.111 23.986 306.472 22.1527 309.277 22.1527C312.083 22.1527 314.444 23.9582 315.277 26.486H303.277Z" fill="#4A4A4A"/>
<path d="M286.083 8.43054H281.194V39.6805H286.083V8.43054Z" fill="#4A4A4A"/>
<path d="M294.805 8.43054H289.917V39.6805H294.805V8.43054Z" fill="#4A4A4A"/>
<path d="M272.444 19.1805C270.639 17.9583 268.472 17.2361 266.111 17.2361C259.916 17.2361 254.889 22.2639 254.889 28.4583C254.889 34.6528 259.916 39.6805 266.111 39.6805C268.444 39.6805 270.639 38.9583 272.444 37.7361V39.6805H277.333V17.2639H272.444V19.1805ZM266.111 34.7639C262.611 34.7639 259.778 31.9305 259.778 28.4305C259.778 24.9305 262.611 22.0972 266.111 22.0972C269.555 22.0972 272.389 24.875 272.444 28.3194V28.5416C272.389 32.0139 269.583 34.7639 266.111 34.7639Z" fill="#4A4A4A"/>
<path d="M333.639 22.4305V17.2639H329.389V8.43054H324.528V17.2639H321.778V22.4305H324.528V33.7639C324.528 38.125 326.972 39.6805 330.611 39.6805H333.639V35.625H331.417C329.917 35.625 329.389 35.0694 329.389 33.7917V22.4305H333.639Z" fill="#4A4A4A"/>
<path d="M251.194 8.43054L245.222 29.4305L238.722 8.43054H238.694H233.778L227.639 29.4305L221.222 8.43054H215.722L225.444 39.6805H229.722L236.25 19.2639L243.167 39.6805H247.444L256.722 8.43054H251.194Z" fill="#4A4A4A"/>
<path d="M112.528 17.6249C106.444 17.6249 101.5 22.5693 101.5 28.6527C101.5 34.736 106.444 39.6804 112.528 39.6804C118.611 39.6804 123.556 34.736 123.556 28.6527C123.556 22.5693 118.639 17.6249 112.528 17.6249ZM112.528 34.8749C109.083 34.8749 106.306 32.0971 106.306 28.6527C106.306 25.2082 109.083 22.4304 112.528 22.4304C115.972 22.4304 118.75 25.2082 118.75 28.6527C118.75 32.0971 115.972 34.8749 112.528 34.8749Z" fill="#4A4A4A"/>
<path d="M92.5554 8.40271C83.9165 8.40271 76.9165 15.4027 76.9165 24.0416C76.9165 32.6805 83.9165 39.6805 92.5554 39.6805C95.1665 39.6805 97.6387 39.0416 99.8054 37.9027C98.7498 36.4583 97.9165 34.7916 97.4165 33.0138C95.9721 33.7916 94.3054 34.236 92.5554 34.236C86.9165 34.236 82.3332 29.6527 82.3332 24.0138C82.3332 18.3749 86.9165 13.7916 92.5554 13.7916C95.9721 13.7916 98.9998 15.486 100.861 18.0694C102.083 16.736 103.528 15.5972 105.139 14.736C102.305 10.9027 97.7221 8.40271 92.5554 8.40271Z" fill="#4A4A4A"/>
<path d="M131.667 17.5138H126.75V39.8193H131.667V17.5138Z" fill="#4A4A4A"/>
<path d="M160.944 8.59717V13.7916V21.6249V26.7916V34.6527V39.8194H166.111H180.25V34.6527H166.111V26.7916H179.944V21.6249H166.111V13.7916H180.25V8.59717H166.111H160.944Z" fill="#4A4A4A"/>
<path d="M146.444 17.3193C143.639 17.3193 141.111 18.3471 139.167 20.0693L135.417 17.5693V39.8749H140.222V28.3471C140.222 24.9027 143 22.1249 146.444 22.1249C149.889 22.1249 152.666 24.9027 152.666 28.3471V39.8193H157.472V28.3471C157.472 22.2638 152.528 17.3193 146.444 17.3193Z" fill="#4A4A4A"/>
<path d="M198.306 17.5138L193.75 24.236L189.25 17.5138H183.306L190.778 28.6527L183.25 39.7638H189.194L193.75 33.0416L198.25 39.7638H204.194L196.722 28.6527L204.25 17.5138H198.306Z" fill="#4A4A4A"/>
<path d="M129.194 15.0139C131.066 15.0139 132.583 13.4966 132.583 11.625C132.583 9.75334 131.066 8.23608 129.194 8.23608C127.322 8.23608 125.805 9.75334 125.805 11.625C125.805 13.4966 127.322 15.0139 129.194 15.0139Z" fill="url(#paint0_linear_6102_34005)"/>
<path d="M16.4442 40.2361H15.8608C11.6664 40.2361 9.88862 39.8194 9.94417 37.2083C9.97195 35.9306 10.3886 33.5972 11.1108 30.4305L11.5275 28.7639C11.6942 28.0139 11.8331 27.3472 11.9442 26.7083L13.3886 19.5972C13.5275 19.1528 13.6386 18.625 13.7497 18.0694L15.0275 12.0417C16.0275 7.18055 16.7775 5.76388 20.8331 5.76388H23.6386L24.7497 0.430542H20.8053C18.4164 0.430542 15.7497 0.541656 13.5831 1.87499C11.4164 3.20832 10.2219 5.68055 9.36084 9.81944L7.69417 18.0972C7.2775 19.9306 6.83306 20.2917 4.6664 20.2917H1.41639L0.36084 25.7083H3.61083C5.0275 25.7083 5.69417 25.9028 5.66639 27.375C5.63861 28.3472 5.36084 29.875 4.80528 32.2639L4.72195 32.4861C4.22195 34.4028 3.97195 36.375 3.88861 38.375C3.7775 43.7361 6.80528 45.5417 13.8053 45.5417H26.8053L27.8608 40.2083H16.4442V40.2361Z" fill="url(#paint1_linear_6102_34005)"/>
<path d="M47.1662 5.70832H47.7496C51.944 5.70832 53.7218 6.12499 53.6662 8.7361C53.6384 10.0139 53.2218 12.3472 52.4996 15.5139L52.0829 17.1805C51.9162 17.9305 51.7773 18.5972 51.7218 19.2361L50.2773 26.4028C50.1385 26.8472 50.0273 27.375 49.9162 27.9305L48.6385 33.9583C47.6385 38.8194 46.8884 40.2361 42.8329 40.2361H40.0273L38.8329 45.5694H42.8051C45.194 45.5694 47.8607 45.4583 50.0273 44.125C52.2218 42.7361 53.3885 40.3194 54.2496 36.1805L55.9162 27.9028C56.3329 26.0694 56.7773 25.7083 58.944 25.7083H62.194L63.2773 20.2917H60.0829C58.6662 20.2917 57.9996 20.0972 58.0273 18.625C58.0551 17.6528 58.3329 16.125 58.8885 13.7361L58.9718 13.5139C59.4718 11.5972 59.7218 9.62499 59.8051 7.59721C59.9162 2.2361 56.944 0.430542 49.8607 0.430542H36.8607L35.7773 5.76388L47.1662 5.70832Z" fill="#405CFF"/>
<path d="M33.0552 13.9027C34.833 13.9027 36.0275 15.3472 35.6941 17.1249C35.3886 18.9027 33.6664 20.3472 31.8886 20.3472C30.1108 20.3472 28.9164 18.9027 29.2497 17.1249C29.5552 15.3472 31.2775 13.9027 33.0552 13.9027Z" fill="url(#paint2_linear_6102_34005)"/>
<path d="M31.0552 25.875C32.833 25.875 34.0275 27.3194 33.6941 29.0972C33.3886 30.875 31.6664 32.3194 29.8886 32.3194C28.1108 32.3194 26.9164 30.875 27.2497 29.0972C27.583 27.3194 29.2775 25.875 31.0552 25.875Z" fill="url(#paint3_linear_6102_34005)"/>
</g>
<defs>
<linearGradient id="paint0_linear_6102_34005" x1="130.9" y1="8.68072" x2="127.507" y2="14.5576" gradientUnits="userSpaceOnUse">
<stop stop-color="#22E6B8"/>
<stop offset="0.8" stop-color="#00C1CE"/>
</linearGradient>
<linearGradient id="paint1_linear_6102_34005" x1="32.9074" y1="0.27071" x2="6.175" y2="46.5726" gradientUnits="userSpaceOnUse">
<stop offset="0.2" stop-color="#22E6B8"/>
<stop offset="1" stop-color="#00C1CE"/>
</linearGradient>
<linearGradient id="paint2_linear_6102_34005" x1="37.5406" y1="8.32637" x2="12.8484" y2="51.0945" gradientUnits="userSpaceOnUse">
<stop offset="0.2" stop-color="#22E6B8"/>
<stop offset="1" stop-color="#00C1CE"/>
</linearGradient>
<linearGradient id="paint3_linear_6102_34005" x1="40.4192" y1="11.8605" x2="15.7271" y2="54.6286" gradientUnits="userSpaceOnUse">
<stop offset="0.2" stop-color="#22E6B8"/>
<stop offset="1" stop-color="#00C1CE"/>
</linearGradient>
<clipPath id="clip0_6102_34005">
<rect width="334" height="46" fill="white"/>
</clipPath>
</defs>
</svg>
