<?xml version="1.0" encoding="utf-8"?>
<!-- Generator: Adobe Illustrator 24.2.0, SVG Export Plug-In . SVG Version: 6.00 Build 0)  -->
<svg version="1.1" id="图层_1" xmlns="http://www.w3.org/2000/svg" xmlns:xlink="http://www.w3.org/1999/xlink" x="0px" y="0px"
	 viewBox="0 0 1200 600" style="enable-background:new 0 0 1200 600;" xml:space="preserve">
<style type="text/css">
	.st0{fill:#1248F8;}
	.st1{fill:#00F093;}
	.st2{fill:#060203;}
</style>
<polygon class="st0" points="665.86,240.42 688.08,240.42 716.91,330.45 746.46,240.42 766.4,240.42 796.02,330.45 825.31,240.42 
	847,240.42 807.41,361.6 786.33,361.6 756.43,270.75 726.56,361.6 705.2,361.6 "/>
<path class="st0" d="M921.15,274.16v6.25c-7.86-5.89-17.63-9.38-28.19-9.38c-26.01,0-47.07,21.06-47.07,47.07
	c0,25.98,21.06,47.07,47.07,47.07c10.56,0,20.33-3.49,28.19-9.38v6.8h18.87v-88.43H921.15z M892.96,346.47
	c-15.6,0-28.22-12.65-28.22-28.22c0-15.57,12.62-28.22,28.22-28.22c15.57,0,28.19,12.65,28.19,28.22
	C921.15,333.82,908.53,346.47,892.96,346.47z"/>
<rect x="963.02" y="237.99" class="st0" width="18.87" height="124.6"/>
<rect x="1007.45" y="237.99" class="st0" width="18.87" height="124.6"/>
<path class="st0" d="M1090.94,271.04c-25.58,0-46.28,21.09-46.28,47.07c0,26.01,20.7,47.07,46.28,47.07
	c16.33,0,30.68-8.62,38.87-21.61l-15.72-9.04v-0.7c-4.98,7.62-13.47,12.65-23.15,12.65c-12.93,0-23.82-9.01-26.89-21.18h72.56
	l0.06,0.03c0.36-2.34,0.55-4.77,0.55-7.22C1137.22,292.13,1116.49,271.04,1090.94,271.04z M1064.9,308.45
	c3.91-10.74,14.11-18.39,26.04-18.39c11.92,0,22.09,7.65,26.01,18.39H1064.9z"/>
<path class="st0" d="M1176.51,291.43v45.61c0.85,20.3,23.49,9.68,23.49,9.68v14.11c0,0-9.74,6.46-26.61,3.28
	c-16.87-3.22-15.66-24.58-15.66-24.58v-48.1h-11.26v-17.36h11.26v-26.61h18.78v26.61H1200v17.36H1176.51z"/>
<g>
	<path class="st0" d="M90.96,349.7c-27.54,0-49.87-22.33-49.87-49.87c0-27.54,22.33-49.87,49.87-49.87v-40.8
		c-50.08,0-90.67,40.6-90.67,90.67c0,50.08,40.6,90.67,90.67,90.67c50.08,0,90.67-40.6,90.67-90.67h-40.8
		C140.84,327.37,118.51,349.7,90.96,349.7z"/>
	<rect x="90.96" y="249.96" class="st1" width="49.87" height="49.87"/>
	<g>
		<path class="st2" d="M264.77,314.49h36.35c-1.64,6.59-4.89,12.49-9.54,17.21c-7.02,7.11-16.76,11.03-27.42,11.03
			c-22.12,0-40.12-17.84-40.12-39.77c0-21.93,18-39.77,40.12-39.77c11.85,0,22.74,5.03,30.29,13.7l18.01-14.58
			c-11.94-13.87-29.65-22.17-48.3-22.17c-34.95,0-63.38,28.18-63.38,62.82c0,34.64,28.43,62.82,63.38,62.82
			c16.97,0,32.61-6.06,44.04-17.64c9.6-9.72,15.96-23.28,17.18-36.87c0.6-6.63,0.65-13.21,0.3-19.84h-60.91V314.49z"/>
		<path class="st2" d="M481.51,330.55v-48.11h24.58V261.4h-24.58v-19.17h-21.79v19.17H446.6v21.04h13.12v51.25
			c0,15.46,12.54,28,28,28h18.36v-21.17h-14.61C485.97,340.52,481.51,336.06,481.51,330.55z"/>
		<path class="st2" d="M415.01,263.97v8.16c-10.05-8.03-23.21-12.35-37.4-10.78c-23.25,2.57-42.05,21.37-44.61,44.63
			c-3.37,30.59,20.49,56.47,50.39,56.47c11.97,0,22.95-4.17,31.62-11.1v8.47h0.2h20.58v-95.84H415.2H415.01z M412.91,316.78
			c-2.03,12.4-12.03,22.41-24.43,24.46c-20.5,3.38-37.98-14.1-34.61-34.6c2.04-12.4,12.05-22.4,24.46-24.43
			C398.82,278.87,416.26,296.31,412.91,316.78z"/>
		<path class="st2" d="M613.59,301.61c-4.75-23.56-25.62-40.67-49.62-40.67c-28.09,0-51.17,22.97-51.45,51.2
			c-0.14,13.77,5.09,26.71,14.72,36.44c9.56,9.65,22.31,14.97,35.92,14.97c18.6,0,35.75-10.02,45.05-26.17l-17.88-10.33
			c-5.58,9.75-15.95,15.79-27.16,15.79c-8.03,0-15.57-3.14-21.21-8.83c-3.69-3.73-5.99-8.37-7.33-13.41l-0.13-0.49h79.78
			C615.13,312.24,614.09,304.57,613.59,301.61z M536.18,299.41l0.28-0.57c5.28-10.61,15.82-17.2,27.51-17.2
			c11.51,0,22.13,6.76,27.06,17.21l0.26,0.56H536.18z"/>
	</g>
</g>
</svg>
