<svg width="83" height="83" viewBox="0 0 83 83" fill="none" xmlns="http://www.w3.org/2000/svg">
<circle cx="41.5" cy="41.5" r="41.5" fill="#2A3535"/>
<path fill-rule="evenodd" clip-rule="evenodd" d="M53.8557 55.2738C53.8391 60.449 50.4248 65.0053 45.4446 66.4986C40.4643 67.9921 35.0881 66.0716 32.2 61.7674C29.3119 57.4634 29.5905 51.7869 32.8864 47.7832C33.6782 46.8098 35.0674 46.5608 36.1509 47.198L39.4448 49.1291C38.7389 49.8315 38.0625 50.5629 37.4155 51.3236C35.6499 53.3536 35.4404 56.2986 36.901 58.5556C38.3617 60.8127 41.143 61.8418 43.7311 61.0828C46.3192 60.3237 48.0947 57.9584 48.0913 55.2738C48.091 53.2741 47.101 51.4026 45.4444 50.2703H45.415L44.7092 49.8607L41.0329 47.6953L41.0035 47.6662L36.2979 44.9157L34.4157 43.8037C34.3275 43.7452 34.2686 43.716 34.1804 43.6574C33.9147 43.5088 33.6592 43.3427 33.4158 43.16C28.1113 39.4766 25.7779 32.8248 27.6268 26.6575C29.4757 20.4902 35.0904 16.197 41.5562 16.0066C48.022 15.8161 53.8822 19.7713 56.0946 25.819C58.3069 31.8667 56.3732 38.6442 51.297 42.6333C50.4633 43.2964 49.3045 43.3778 48.3854 42.8381L43.0916 39.7951V33.2408H45.5326V26.5401H43.0916V23.7311H39.033V39.8535L43.0916 42.1945L47.5326 44.7693C47.6038 44.8036 47.6726 44.8427 47.7383 44.8864L47.9443 45.0035C48.0619 45.062 48.15 45.1205 48.2678 45.1789C51.7527 47.3627 53.8636 51.1763 53.8557 55.2738Z" fill="white"/>
</svg>
